<svg width="116" height="150" viewBox="0 0 116 150" fill="none" xmlns="http://www.w3.org/2000/svg">
<g clip-path="url(#clip0)">
<path d="M59.8356 38.3414C64.757 26.386 70.2253 23.6441 74.8202 22.8768C81.4922 19.5866 90.3516 20.135 94.1794 20.6833C98.0072 21.2317 105.063 25.0702 107.032 28.5261C109.001 31.9819 111.625 33.7907 113.594 40.2073C115.563 46.624 115.234 50.4073 115.234 50.4073C110.313 49.7485 109.327 46.7877 107.032 45.472C104.734 44.1563 102.11 42.675 99.4843 43.1681C96.8585 43.6613 93.249 40.8643 89.8047 43.6613C86.3586 46.4583 82.4226 46.9515 77.9929 45.4702C73.5632 43.9889 64.8671 49.9123 61.0944 47.279C59.6172 41.0299 59.8356 38.3414 59.8356 38.3414Z" fill="#F4F4F4"/>
<path d="M110.176 43.3263C106.987 38.4959 102.167 31.196 93.8613 27.9592L92.4778 27.4182C84.5708 24.3267 81.2953 23.046 74.8251 23.1509L74.8159 22.5988C81.3962 22.4958 84.6992 23.7857 92.6778 26.903L94.0614 27.444C102.528 30.7452 107.407 38.1316 110.637 43.0208L110.176 43.3263Z" fill="#D1D1D1"/>
<path d="M97.5186 23.6128C96.0763 23.449 94.7642 23.2264 93.4944 23.0111C89.4996 22.332 86.048 21.7469 81.2201 23.6073L81.022 23.092C85.9911 21.1783 89.5106 21.7763 93.5843 22.4682C94.8468 22.6817 96.1515 22.9043 97.5791 23.0663L97.5186 23.6128Z" fill="#D1D1D1"/>
<path d="M108.105 32.0554C106.066 30.8667 104.341 30.8207 102.515 30.7746C101.242 30.7415 99.9244 30.7066 98.416 30.2962L98.561 29.7644C100.005 30.1582 101.29 30.1913 102.53 30.2244C104.427 30.2741 106.22 30.3201 108.382 31.5806L108.105 32.0554Z" fill="#D1D1D1"/>
<path d="M111.72 40.8587C109.219 39.3516 106.798 38.3855 106.774 38.3763L106.976 37.8629C107 37.8721 109.463 38.8566 112.002 40.3858L111.72 40.8587Z" fill="#D1D1D1"/>
<path d="M100.705 39.7252C99.042 37.7378 98.297 35.9106 97.5777 34.1422C96.7354 32.072 95.939 30.1159 93.7627 27.8949L94.1554 27.5084C96.4069 29.8068 97.262 31.9045 98.0878 33.9342C98.7906 35.6621 99.5173 37.4508 101.127 39.37L100.705 39.7252Z" fill="#D1D1D1"/>
<path d="M91.6356 37.9477C88.6354 34.3483 88.1712 31.5789 87.7968 29.3523C87.5216 27.7164 87.2849 26.3032 86.1123 24.9764L86.5233 24.6102C87.8023 26.0548 88.0501 27.5398 88.3382 29.2603C88.7198 31.5329 89.1511 34.1091 92.0559 37.5925L91.6356 37.9477Z" fill="#D1D1D1"/>
<path d="M73.1299 41.6647C71.2068 33.0712 65.1679 28.9953 65.1055 28.9566L65.4082 28.4966C65.4706 28.5371 71.6949 32.7363 73.6657 41.5451L73.1299 41.6647Z" fill="#D1D1D1"/>
<path d="M44.928 8.99457C43.3297 1.8051 41.3754 1.8511 37.0265 1.79038C32.6775 1.72965 31.1196 -1.53662 26.4404 0.905264C21.763 3.34715 17.9939 2.05536 16.2378 5.21122C23.0456 4.54877 22.152 8.72959 27.1065 8.3542C32.061 7.97881 34.5309 13.7054 37.632 13.6005C40.7332 13.4956 45.172 10.0895 44.928 8.99457Z" fill="#F4F4F4"/>
<path d="M46.3809 11.9076C49.0067 4.1201 54.475 2.03521 58.0845 2.3646C65.9603 0.390115 70.7716 4.33908 71.4285 4.44949C79.9594 8.17948 80.6164 13.9925 81.3816 15.1978C82.1468 16.405 81.1632 16.6239 78.9759 16.8429C76.7886 17.0619 76.1316 16.7325 72.4139 15.3082C68.6944 13.8821 65.7804 14.8703 63.2463 16.6239C60.7122 18.3794 53.8199 19.4909 50.7592 16.2467C47.6947 13.0044 46.3809 11.9076 46.3809 11.9076Z" fill="#EAEAEA"/>
<path d="M49.1519 29.2841L48.807 28.916C43.368 23.1196 43.8451 14.3181 46.1682 11.7346C46.3059 11.545 46.4453 11.361 46.5903 11.1807C46.0508 10.4464 45.4177 9.76559 44.6764 9.16202L44.6415 9.12705C44.614 9.09577 41.9074 6.01168 36.729 6.01168C34.7821 6.01168 33.4279 5.5682 32.2333 5.17625C31.2369 4.8487 30.3744 4.56716 29.4092 4.64628C28.7211 4.70149 28.011 4.64813 27.2605 4.58924C25.6163 4.46227 23.9171 4.33162 22.3647 5.40259L22.0527 4.94807C23.7648 3.76669 25.6438 3.91206 27.3027 4.03904C28.0311 4.09608 28.7211 4.1476 29.3652 4.09608C30.4423 4.00959 31.3507 4.3077 32.4039 4.65181C33.56 5.03088 34.8683 5.45963 36.729 5.45963C42.012 5.45963 44.7792 8.44804 45.0416 8.74798C45.7499 9.32763 46.3866 9.99561 46.9499 10.7445C48.9244 8.44988 51.5062 6.83054 54.4844 6.02824C57.1287 5.3161 60.028 5.26826 62.4373 5.89575C63.5934 6.19753 64.7696 6.38339 65.9073 6.56188C68.7515 7.01088 71.6912 7.47644 74.5519 9.76927C75.9704 10.9065 77.198 11.7548 78.1834 12.4375C78.4642 12.6325 78.7321 12.8166 78.9835 12.9932L78.666 13.4441C78.4164 13.2674 78.1504 13.0834 77.8715 12.8902C76.8787 12.2019 75.6419 11.3481 74.2088 10.198C71.4637 7.9972 68.724 7.56477 65.8229 7.10473C64.6723 6.92255 63.4814 6.73486 62.2997 6.42755C59.0829 5.58844 52.0054 5.59212 47.2784 11.2046C48.9978 13.7293 49.9392 17.0986 50.0327 21.134C50.1282 25.2983 49.2804 28.756 49.2731 28.7909L49.1519 29.2841ZM46.9188 11.6517C46.8123 11.7879 46.7077 11.9278 46.6031 12.0713L46.5848 12.0952C45.4673 13.3244 44.8837 16.1325 45.1315 19.0786C45.3003 21.0936 46.0123 24.8843 48.8528 28.145C49.2932 25.9663 50.7025 17.3746 46.9188 11.6517Z" fill="#D1D1D1"/>
<path d="M41.733 22.4388C27.9522 17.5035 21.7169 18.983 13.5145 24.9064C5.31207 30.8299 4.16336 39.5485 4.65514 43.9907C5.14692 48.4328 5.96716 49.0916 2.68619 52.8749C-0.594781 56.6583 -0.594781 63.7337 1.20902 69.4915C3.01465 75.2493 3.50643 75.5787 2.8495 81.8315C2.19258 88.0844 3.17797 92.8541 7.44433 95.9805C11.7107 99.1069 12.5309 102.561 12.5309 102.561C16.3037 97.4599 14.9917 93.8404 19.0929 90.8796C23.1941 87.9188 28.444 88.5757 34.1875 81.8315C39.9292 75.0855 40.2577 69.8209 40.9146 65.5444C41.5716 61.266 49.1171 59.4571 54.5321 57.1533C59.9454 54.8494 62.4079 48.7622 62.4079 42.8387C62.4079 36.9153 56.1744 29.183 52.0714 26.5515C47.9683 23.9183 45.2838 23.6183 41.733 22.4388Z" fill="#EAEAEA"/>
<path d="M52.4403 106.479L52.2347 105.071C52.2219 104.981 50.8952 96.0246 48.3115 89.1148L48.8272 88.9216C50.8181 94.2433 52.0659 100.761 52.5504 103.58C53.9651 96.7588 53.9817 89.1001 53.9817 89.0173H54.5322C54.5322 89.1056 54.512 97.9089 52.7742 105.097L52.4403 106.479Z" fill="#D1D1D1"/>
<path d="M83.1122 150H29.2533C27.3063 150 25.7943 148.3 26.0145 146.36L31.202 100.862H81.1634L86.351 146.36C86.5712 148.3 85.0591 150 83.1122 150Z" fill="#EFEFEF"/>
<path d="M5.39094 41.4311L4.90283 41.1753C9.9509 31.4648 19.8984 30.9716 26.4787 30.6441C28.7137 30.5337 30.646 30.438 31.8809 30.0184L32.0571 30.541C30.7487 30.9864 28.7816 31.0839 26.5062 31.1961C19.6654 31.5366 10.294 32.0003 5.39094 41.4311Z" fill="#D1D1D1"/>
<path d="M50.6401 55.2212C45.3847 50.5748 41.8854 44.6421 40.522 38.0654C39.443 32.867 39.7274 27.2177 41.3019 22.564L41.823 22.7406C38.72 31.9175 40.3568 45.3911 51.0053 54.8071L50.6401 55.2212Z" fill="#D1D1D1"/>
<path d="M2.06593 63.4282L1.66406 63.0509C5.71206 58.7155 11.2886 57.0576 16.2101 55.5946C20.1039 54.4372 23.4656 53.438 25.1502 51.366L25.5759 51.7156C23.7849 53.9201 20.3462 54.9414 16.3642 56.1246C11.5143 57.5673 6.013 59.2032 2.06593 63.4282Z" fill="#D1D1D1"/>
<path d="M30.068 82.4499C26.1375 78.9977 23.1611 74.85 21.4601 70.4557C20.0471 66.8086 19.5865 63.1246 20.1939 60.3496L20.7316 60.4674C20.1462 63.1393 20.5995 66.7073 21.9739 70.2552C23.6437 74.5666 26.5687 78.6389 30.4314 82.034L30.068 82.4499Z" fill="#D1D1D1"/>
<path d="M5.82794 89.7571L5.28662 89.6522C6.85187 81.4948 13.9405 77.763 14.0102 77.7262L14.2616 78.2175C14.1937 78.2543 7.34182 81.8702 5.82794 89.7571Z" fill="#D1D1D1"/>
<path d="M84.8099 132.837L74.7872 141.835L61.5972 130.581L49.4532 141.817L37.3257 131.253L36.5734 131.906C33.6392 134.453 29.4022 138.089 26.703 140.334L26.3286 143.613C27.3434 142.831 28.9967 141.432 31.8648 138.989C34.0393 137.136 36.2137 135.26 37.3221 134.302L49.4991 144.908L61.6578 133.658L74.8239 144.892L85.1274 135.641L84.8099 132.837Z" fill="white"/>
<path d="M27.4351 133.906C27.7984 133.621 28.2003 133.291 28.659 132.916C29.7361 132.031 31.2078 130.794 33.0336 129.239C34.5915 127.913 36.1495 126.573 37.3165 125.566L49.5339 136.21L61.7054 124.948L74.8532 136.166L84.2263 127.751L83.4043 120.539L74.7541 128.305L61.5458 117.036L49.4146 128.26L37.3257 117.729L35.3898 119.409C33.03 121.457 30.5289 123.607 28.4021 125.41L27.4351 133.906Z" fill="white"/>
<path d="M14.0133 94.8359L13.4628 94.8267C13.4885 93.3932 13.4298 91.9763 13.3674 90.4784C13.1765 85.9167 12.96 80.7459 14.9712 72.3069C16.3603 66.481 18.9366 62.3333 21.2101 58.6751C23.4103 55.1346 25.4894 51.7892 26.205 47.4833C26.2564 47.1796 26.3078 46.8613 26.361 46.5337C26.9445 42.9491 27.7427 38.0377 29.8988 33.43C32.455 27.9684 36.4039 24.1832 41.6355 22.1812L41.8318 22.6964C30.0603 27.2011 28.084 39.359 26.9023 46.6221C26.8491 46.9515 26.7977 47.2698 26.7463 47.5734C26.0123 51.9879 23.9058 55.3794 21.6762 58.9676C19.3146 62.7676 16.8722 66.6963 15.5051 72.4357C13.5123 80.7992 13.727 85.9296 13.916 90.4545C13.9784 91.9616 14.039 93.3859 14.0133 94.8359Z" fill="#D1D1D1"/>
<path d="M49.6641 55.2339C34.3511 63.1319 35.2263 76.2926 39.1642 84.1906C43.1021 92.0885 52.5083 90.9899 55.1324 93.1852C57.7583 95.3787 55.3507 104.373 57.5381 107.883C59.7254 111.392 69.3499 115.999 75.9137 116.877C82.4756 117.755 87.9458 126.091 85.5383 132.233C100.851 126.75 105.444 121.485 103.696 112.271C101.945 103.058 98.007 101.302 102.602 94.7218C107.197 88.1414 107.415 81.5591 103.259 75.4167C99.1025 69.2743 100.415 65.9841 101.728 59.6227C103.04 53.2613 90.2799 46.1675 79.0515 47.301C67.8232 48.4346 57.3215 52.8215 56.2279 53.4803C53.6002 54.5752 49.6641 55.2339 49.6641 55.2339Z" fill="#F4F4F4"/>
<path d="M89.8374 127.765L89.3548 127.5C93.3257 120.204 91.3329 109.572 88.4373 105.014C86.7289 102.323 86.3435 99.9312 85.9692 97.6182C85.5068 94.7586 85.0701 92.0572 82.2185 88.929C76.8456 83.0368 75.585 80.6612 76.5153 72.5884C77.0108 68.2861 76.0694 65.0769 73.4637 62.1824C70.5736 58.9731 65.542 56.0694 57.624 53.0442L57.8204 52.5289C65.821 55.5873 70.9222 58.537 73.8711 61.8125C76.5942 64.8359 77.5778 68.1794 77.0621 72.6528C76.1501 80.5544 77.3025 82.7203 82.624 88.5591C85.5875 91.8088 86.0573 94.7181 86.5124 97.5335C86.8775 99.7914 87.2537 102.127 88.9015 104.721C91.8669 109.388 93.9074 120.285 89.8374 127.765Z" fill="#D1D1D1"/>
<path d="M62.5747 104.259L62.2334 103.825C68.5586 98.829 70.2817 92.4124 71.946 86.2074C73.036 82.1444 74.0655 78.3076 76.3298 75.0929L76.7794 75.4112C74.5719 78.545 73.5553 82.3357 72.4782 86.351C70.7918 92.6443 69.0449 99.1492 62.5747 104.259Z" fill="#D1D1D1"/>
<path d="M99.6454 63.4614C94.0909 59.2419 87.9069 59.851 81.9249 60.4417C78.1172 60.8171 74.5207 61.1722 71.3828 60.1988L71.5461 59.6706C74.5757 60.6091 78.1191 60.2613 81.8716 59.8915C87.6739 59.3192 94.2505 58.6714 99.9775 63.0216L99.6454 63.4614Z" fill="#D1D1D1"/>
<path d="M46.2695 84.3525L45.73 84.2458C46.8677 78.4714 50.2386 74.2795 53.4993 70.2275C57.5198 65.2296 61.3164 60.5097 59.5585 53.6809L60.0907 53.5428C61.9165 60.6385 58.0355 65.4652 53.9269 70.5734C50.7083 74.5758 47.3796 78.7124 46.2695 84.3525Z" fill="#D1D1D1"/>
<path d="M100.736 94.9886C96.873 89.5178 91.4506 88.1229 86.6668 86.8919C83.0078 85.9516 79.5506 85.0609 77.3945 82.4773L77.8166 82.1222C79.8589 84.5696 83.0757 85.3977 86.8025 86.3564C91.6781 87.6095 97.2051 89.032 101.183 94.6684L100.736 94.9886Z" fill="#D1D1D1"/>
<path d="M78.7833 115.683L78.2915 115.435C78.7209 114.581 79.1264 113.808 79.5173 113.061C81.7027 108.889 83.1469 106.134 83.1285 99.8467C83.112 93.9122 82.1578 88.8426 82.1486 88.7929L82.69 88.6898C82.6991 88.7413 83.6625 93.857 83.679 99.8467C83.6974 106.271 82.2276 109.073 80.0035 113.318C79.6164 114.064 79.2127 114.833 78.7833 115.683Z" fill="#D1D1D1"/>
<path d="M96.8233 119.308C96.1095 118.32 95.2525 117.413 94.4213 116.535C92.9239 114.952 91.5109 113.458 90.9072 111.548L91.432 111.382C91.9972 113.171 93.368 114.621 94.8213 116.156C95.6635 117.046 96.5352 117.967 97.2692 118.986L96.8233 119.308Z" fill="#D1D1D1"/>
<path d="M33.294 5.45235C33.2738 5.42659 31.2939 2.88718 29.3359 2.06832L29.547 1.55859C31.6407 2.43451 33.6445 5.0052 33.7289 5.11377L33.294 5.45235Z" fill="#D1D1D1"/>
<path d="M35.7291 9.85217L35.6245 9.31116C38.8798 8.67447 41.5369 6.58958 41.5644 6.56934L41.9057 7.00177C41.7919 7.0901 39.1183 9.18971 35.7291 9.85217Z" fill="#D1D1D1"/>
<path d="M25.3133 6.20868L24.8711 5.87929C24.9151 5.81856 25.9703 4.40533 27.0272 3.97473L27.2346 4.48629C26.3226 4.85984 25.3243 6.19579 25.3133 6.20868Z" fill="#D1D1D1"/>
<path d="M75.6255 8.70572C73.1464 8.70572 71.3426 8.45914 71.3242 8.45546L71.3995 7.90894C71.4178 7.91078 73.1867 8.15368 75.6255 8.15368V8.70572Z" fill="#D1D1D1"/>
<path d="M70.0454 12.1688C68.5462 9.05529 64.7882 7.04769 64.7515 7.02744L65.0065 6.53796C65.168 6.62445 68.9609 8.64862 70.5409 11.9296L70.0454 12.1688Z" fill="#D1D1D1"/>
<path d="M55.6622 6.31347L55.4292 5.81295C55.4567 5.80007 58.3193 4.46596 62.3416 3.49988L62.4701 4.0372C58.501 4.9904 55.6898 6.30059 55.6622 6.31347Z" fill="#D1D1D1"/>
<path d="M61.0702 12.8663C53.0861 11.0023 50.7061 8.14818 50.6089 8.02857L51.0364 7.68079C51.0585 7.70839 53.4256 10.5146 61.195 12.329L61.0702 12.8663Z" fill="#D1D1D1"/>
</g>
<defs>
<clipPath id="clip0">
<rect width="115.254" height="150" fill="white"/>
</clipPath>
</defs>
</svg>
