<svg width="64" height="64" viewBox="0 0 64 64" fill="none" xmlns="http://www.w3.org/2000/svg">
<path d="M33.647 43.4035L29.3878 48.0009H38.5833C38.1635 47.9991 37.7437 47.8255 37.4237 47.4799L33.647 43.4035ZM32 33.7784C32.9088 33.7784 33.647 32.9816 33.647 32.0007C33.647 31.0197 32.9088 30.2229 32 30.2229C31.0912 30.2229 30.353 31.0197 30.353 32.0007C30.353 32.9816 31.0912 33.7784 32 33.7784ZM58.353 19.5561H18.8235C17.913 19.5561 17.1765 20.3513 17.1765 21.334V56.8896C17.1765 57.8723 17.9132 58.6673 18.8235 58.6673H58.353C59.2635 58.6673 60 57.8721 60 56.8896V21.334C60 20.3513 59.2633 19.5561 58.353 19.5561ZM32 26.6673C34.7247 26.6673 36.9412 29.0597 36.9412 32.0007C36.9412 34.9416 34.7247 37.334 32 37.334C29.2753 37.334 27.0588 34.9416 27.0588 32.0007C27.0588 29.0597 29.2753 26.6673 32 26.6673ZM53.4118 49.7784C53.4118 50.7611 52.6751 51.5563 51.7648 51.5563H25.4118C24.746 51.5563 24.1444 51.124 23.8902 50.4591C23.6345 49.7942 23.776 49.0302 24.2473 48.5216L32.4827 39.6327C33.1261 38.9382 34.1684 38.9382 34.8117 39.6327L38.5883 43.7091L50.6003 30.7437C51.07 30.235 51.7778 30.0822 52.3953 30.3582C53.0113 30.6326 53.4118 31.2819 53.4118 32.0007V49.7784ZM38.593 48.0007H50.1175V36.2922L39.7527 47.4797C39.4326 47.8253 39.0128 47.9991 38.593 48.0007ZM50.1177 16.0007V14.2229C50.1177 13.2402 49.381 12.4452 48.4707 12.4452H12.2353C11.3249 12.4452 10.5883 13.2404 10.5883 14.2229V46.2229C10.5883 47.2057 11.3251 48.0009 12.2353 48.0009H13.8823V21.334C13.8823 18.393 16.0988 16.0007 18.8235 16.0007H50.1177ZM40.2353 8.88941V7.1117C40.2353 6.12897 39.4986 5.33398 38.5883 5.33398H5.64699C4.73653 5.33398 4 6.12917 4 7.1117V35.5563C4 36.539 4.73672 37.334 5.64699 37.334H7.29399V14.2227C7.29399 11.2818 9.51044 8.88941 12.2352 8.88941H40.2353Z" fill="url(#paint0_linear_2365_14238)"/>
<defs>
<linearGradient id="paint0_linear_2365_14238" x1="32" y1="58.6673" x2="32" y2="5.33398" gradientUnits="userSpaceOnUse">
<stop stop-color="#9CFFAC"/>
<stop offset="1" stop-color="#00B59C"/>
</linearGradient>
</defs>
</svg>
