<svg width="60" height="60" viewBox="0 0 60 60" fill="none" xmlns="http://www.w3.org/2000/svg">
<rect x="2" y="2" width="56" height="56" rx="16" fill="url(#paint0_linear_830_12471)"/>
<rect x="1.5" y="1.5" width="57" height="57" rx="17" stroke="white" stroke-opacity="0.8"/>
<path fill-rule="evenodd" clip-rule="evenodd" d="M16.6666 30.0201C16.6666 22.9962 22.28 16.6667 30.0266 16.6667C37.6 16.6667 43.3333 22.876 43.3333 29.98C43.3333 38.219 36.6133 43.3334 30 43.3334C27.8133 43.3334 25.3866 42.7458 23.44 41.5974C22.76 41.1835 22.1866 40.8763 21.4533 41.1167L18.76 41.9179C18.08 42.1316 17.4666 41.5974 17.6666 40.8763L18.56 37.8852C18.7066 37.4712 18.68 37.0306 18.4666 36.6834C17.32 34.5735 16.6666 32.2634 16.6666 30.0201ZM28.2666 30.02C28.2666 30.9681 29.0266 31.7293 29.9733 31.7426C30.92 31.7426 31.68 30.9681 31.68 30.0334C31.68 29.0853 30.92 28.3242 29.9733 28.3242C29.04 28.3108 28.2666 29.0853 28.2666 30.02ZM34.4133 30.0334C34.4133 30.9681 35.1733 31.7426 36.12 31.7426C37.0666 31.7426 37.8266 30.9681 37.8266 30.0334C37.8266 29.0853 37.0666 28.3242 36.12 28.3242C35.1733 28.3242 34.4133 29.0853 34.4133 30.0334ZM23.8266 31.7426C22.8933 31.7426 22.12 30.9681 22.12 30.0334C22.12 29.0853 22.88 28.3242 23.8266 28.3242C24.7733 28.3242 25.5333 29.0853 25.5333 30.0334C25.5333 30.9681 24.7733 31.7293 23.8266 31.7426Z" fill="white"/>
<defs>
<linearGradient id="paint0_linear_830_12471" x1="30" y1="2" x2="30" y2="58" gradientUnits="userSpaceOnUse">
<stop stop-color="#9DD46D"/>
<stop offset="1" stop-color="#83C846"/>
</linearGradient>
</defs>
</svg>
