<svg width="40" height="40" viewBox="0 0 40 40" fill="none" xmlns="http://www.w3.org/2000/svg">
<path d="M12.1875 20C12.1875 20.863 12.887 21.5625 13.75 21.5625H18.4375V26.25C18.4375 27.113 19.137 27.8125 20 27.8125C20.863 27.8125 21.5625 27.113 21.5625 26.25V21.5625H26.25C27.113 21.5625 27.8125 20.863 27.8125 20C27.8125 19.137 27.113 18.4375 26.25 18.4375H21.5625V13.75C21.5625 12.887 20.863 12.1875 20 12.1875C19.137 12.1875 18.4375 12.887 18.4375 13.75V18.4375H13.75C12.887 18.4375 12.1875 19.137 12.1875 20Z" fill="black"/>
<path d="M12.5318 4.8281L14.5528 3.99091C15.35 3.6606 15.7287 2.74662 15.3984 1.94935C15.068 1.15209 14.1541 0.773257 13.3568 1.1038L11.3358 1.94099C10.5386 2.2713 10.1599 3.18529 10.4902 3.98255C10.8194 4.77716 11.7319 5.15919 12.5318 4.8281Z" fill="black"/>
<path d="M20 0C19.137 0 18.4375 0.699531 18.4375 1.5625C18.4375 2.42547 19.137 3.125 20 3.125C29.3264 3.125 36.875 10.6725 36.875 20C36.875 29.3264 29.3275 36.875 20 36.875C10.6736 36.875 3.125 29.3275 3.125 20C3.125 19.137 2.42547 18.4375 1.5625 18.4375C0.699531 18.4375 0 19.137 0 20C0 31.0534 8.94508 40 20 40C31.0534 40 40 31.0549 40 20C40 8.94664 31.0549 0 20 0Z" fill="black"/>
<path d="M7.29415 8.84104L8.84095 7.29424C9.45118 6.68401 9.45118 5.69463 8.84095 5.08448C8.23071 4.47432 7.24134 4.47424 6.63118 5.08448L5.08438 6.63127C4.47415 7.24151 4.47415 8.23088 5.08438 8.84104C5.69446 9.45112 6.68392 9.45127 7.29415 8.84104Z" fill="black"/>
<path d="M1.9493 15.3983C2.74829 15.7293 3.66133 15.3482 3.99087 14.5528L4.82805 12.5317C5.15837 11.7344 4.77969 10.8204 3.98251 10.4901C3.18508 10.1599 2.27126 10.5385 1.94094 11.3357L1.10376 13.3567C0.773444 14.154 1.15212 15.068 1.9493 15.3983Z" fill="black"/>
</svg>
