<svg width="56" height="56" viewBox="0 0 56 56" fill="none" xmlns="http://www.w3.org/2000/svg">
<rect width="56" height="56" rx="28" fill="#FFC200"/>
<path fill-rule="evenodd" clip-rule="evenodd" d="M40.3568 14.8655C40.6618 14.7638 40.9821 14.9723 41.0126 15.2924L41.113 16.3467C41.113 16.3782 41.1167 16.4474 41.1222 16.5511C41.1832 17.708 41.4703 23.152 39.4294 28.1199C39.2976 28.4408 38.883 28.5178 38.6135 28.2994C37.3534 27.2784 35.7481 26.6667 34 26.6667C29.9499 26.6667 26.6667 29.95 26.6667 34.0001C26.6667 34.7796 26.7883 35.5306 27.0136 36.2354C27.1086 36.5327 26.9052 36.8532 26.593 36.8534V36.8534C24.4908 36.8818 22.4163 36.3724 20.5664 35.3734C20.2321 36.9665 19.9932 38.5778 19.851 40.1988C19.8049 40.724 19.3695 41.1334 18.8423 41.1334H18.1287C17.5704 41.1334 17.1187 40.676 17.1435 40.1182C17.2243 38.3005 17.4459 36.4912 17.8064 34.7067C18.2031 32.5971 18.9084 30.5574 19.8997 28.6534C20.4275 27.7425 21.0486 26.889 21.753 26.1067C22.4896 25.3241 23.323 24.6385 24.233 24.0667C26.1197 22.8661 28.2357 22.0714 30.4464 21.7334C28.1242 21.6449 25.8136 22.1016 23.6997 23.0667C21.5054 24.0643 19.628 25.6465 18.273 27.6401C17.9001 28.2251 17.5549 28.8271 17.2387 29.4442C17.0327 29.846 16.4476 29.8138 16.3408 29.3751C15.9503 27.772 15.8937 26.1009 16.1797 24.4667C16.4559 22.8828 17.124 21.393 18.123 20.1332C19.122 18.8733 20.4203 17.8833 21.8997 17.2534C24.6903 16.0012 27.7839 15.5844 30.8064 16.0534C33.6827 16.4452 36.6109 16.1528 39.353 15.2001L40.3568 14.8655Z" fill="white"/>
<path fill-rule="evenodd" clip-rule="evenodd" d="M34 40C37.3137 40 40 37.3137 40 34C40 30.6863 37.3137 28 34 28C30.6863 28 28 30.6863 28 34C28 37.3137 30.6863 40 34 40ZM34 30.25C34.4142 30.25 34.75 30.5858 34.75 31V33.25H37C37.4142 33.25 37.75 33.5858 37.75 34C37.75 34.4142 37.4142 34.75 37 34.75H34.75V37C34.75 37.4142 34.4142 37.75 34 37.75C33.5858 37.75 33.25 37.4142 33.25 37V34.75H31C30.5858 34.75 30.25 34.4142 30.25 34C30.25 33.5858 30.5858 33.25 31 33.25H33.25V31C33.25 30.5858 33.5858 30.25 34 30.25Z" fill="white"/>
</svg>
