<svg width="16" height="16" viewBox="0 0 16 16" fill="none" xmlns="http://www.w3.org/2000/svg">
<rect width="16" height="16" rx="8" fill="#33A36D"/>
<rect x="2" y="2" width="12" height="12" rx="6" fill="white" fill-opacity="0.1"/>
<path d="M9.5436 8.377C9.52476 8.39633 9.45365 8.479 9.3874 8.547C8.99903 8.97467 7.98588 9.67467 7.4556 9.88833C7.37506 9.92267 7.17146 9.99533 7.06268 10C6.95844 10 6.85907 9.976 6.76425 9.92733C6.64605 9.85933 6.55123 9.75233 6.49927 9.626C6.46582 9.53833 6.41387 9.276 6.41387 9.27133C6.36191 8.98433 6.33334 8.518 6.33334 8.00267C6.33334 7.51167 6.36191 7.06433 6.40445 6.773C6.40932 6.76833 6.46128 6.44233 6.51811 6.33067C6.62234 6.12667 6.82595 6 7.04384 6H7.06268C7.20458 6.005 7.50301 6.13167 7.50301 6.13633C8.00471 6.35033 8.99448 7.016 9.39227 7.45833C9.39227 7.45833 9.50431 7.572 9.55301 7.643C9.629 7.745 9.66667 7.87133 9.66667 7.99767C9.66667 8.13867 9.62413 8.27 9.5436 8.377Z" fill="white"/>
</svg>
