<svg width="24" height="24" viewBox="0 0 24 24" fill="none" xmlns="http://www.w3.org/2000/svg">
<rect width="24" height="24" rx="8" fill="#33A36D"/>
<path fill-rule="evenodd" clip-rule="evenodd" d="M8.88683 5.33362H15.1128C17.3802 5.33362 18.6602 6.61962 18.6668 8.88695V15.1136C18.6668 17.3803 17.3802 18.667 15.1128 18.667H8.88683C6.6195 18.667 5.3335 17.3803 5.3335 15.1136V8.88695C5.3335 6.61962 6.6195 5.33362 8.88683 5.33362ZM12.0328 15.907C12.3202 15.907 12.5595 15.6936 12.5862 15.407V8.61362C12.6128 8.40695 12.5135 8.19962 12.3335 8.08695C12.1462 7.97362 11.9195 7.97362 11.7402 8.08695C11.5595 8.19962 11.4602 8.40695 11.4795 8.61362V15.407C11.5135 15.6936 11.7528 15.907 12.0328 15.907ZM15.1002 15.907C15.3802 15.907 15.6195 15.6936 15.6535 15.407V13.2203C15.6728 13.0063 15.5735 12.807 15.3928 12.6936C15.2135 12.5803 14.9868 12.5803 14.8002 12.6936C14.6195 12.807 14.5202 13.0063 14.5468 13.2203V15.407C14.5735 15.6936 14.8128 15.907 15.1002 15.907ZM9.4795 15.407C9.45283 15.6936 9.2135 15.907 8.92616 15.907C8.6395 15.907 8.3995 15.6936 8.3735 15.407V10.8003C8.3535 10.593 8.45283 10.387 8.6335 10.2736C8.81283 10.1603 9.04016 10.1603 9.22016 10.2736C9.3995 10.387 9.50016 10.593 9.4795 10.8003V15.407Z" fill="white"/>
</svg>
