<svg width="12" height="12" viewBox="0 0 12 12" fill="none" xmlns="http://www.w3.org/2000/svg">
<g clip-path="url(#clip0_2817_286)">
<path fill-rule="evenodd" clip-rule="evenodd" d="M0.625 6C0.625 3.03147 3.03145 0.625 6 0.625C8.96853 0.625 11.375 3.03147 11.375 6C11.375 8.96855 8.96853 11.375 6 11.375C3.03145 11.375 0.625 8.96855 0.625 6ZM6.2299 6.0313C6.2356 6.01865 6.2399 6.0083 6.24305 6.00005C6.2399 5.9918 6.2356 5.9814 6.2299 5.96875C6.20385 5.91115 6.16075 5.83485 6.0988 5.74135C5.97515 5.55475 5.80325 5.33955 5.6216 5.1292C5.4417 4.92095 5.2606 4.72718 5.12385 4.58485L4.89965 4.35677C4.7027 4.16329 4.69975 3.84668 4.8932 3.64967C5.0867 3.45264 5.40325 3.44977 5.6003 3.64325L5.84485 3.89193C5.9893 4.04225 6.18325 4.24966 6.37835 4.47552C6.57165 4.69932 6.7748 4.95116 6.93235 5.18895C7.01103 5.3077 7.0851 5.43295 7.1411 5.55675C7.19311 5.6718 7.24996 5.8292 7.24996 6.00005C7.24996 6.17085 7.19311 6.32825 7.1411 6.4433C7.0851 6.5671 7.01103 6.69235 6.93235 6.8111C6.7748 7.0489 6.57165 7.30075 6.37835 7.52455C6.18325 7.7504 5.9893 7.9578 5.84485 8.1081L5.6003 8.3568C5.40325 8.5503 5.0867 8.5474 4.8932 8.3504C4.69975 8.15335 4.7027 7.83675 4.89965 7.6433L5.12385 7.4152C5.2606 7.27285 5.4417 7.0791 5.6216 6.87085C5.80325 6.6605 5.97515 6.4453 6.0988 6.2587C6.16075 6.1652 6.20385 6.0889 6.2299 6.0313Z" fill="#38383D"/>
</g>
<defs>
<clipPath id="clip0_2817_286">
<rect width="12" height="12" fill="white" transform="matrix(-1 0 0 1 12 0)"/>
</clipPath>
</defs>
</svg>
