<svg width="88" height="88" viewBox="0 0 88 88" fill="none" xmlns="http://www.w3.org/2000/svg">
<g filter="url(#filter0_d)">
<path fill-rule="evenodd" clip-rule="evenodd" d="M44 76C62.7777 76 78 60.7777 78 42C78 23.2223 62.7777 8 44 8C25.2223 8 10 23.2223 10 42C10 60.7777 25.2223 76 44 76Z" fill="white"/>
</g>
<path fill-rule="evenodd" clip-rule="evenodd" d="M46.5831 31.1375L46.5838 31.1368C46.5817 31.1251 46.2853 28.4157 47.7817 26.9235C49.2789 25.4313 51.9517 25.6696 51.9635 25.6706L51.9639 25.6702L51.9633 25.6708L51.9636 25.6704L51.9632 25.6709C51.9655 25.6934 52.3242 28.4586 50.8303 29.9483C49.3303 31.4441 46.5831 31.1375 46.5831 31.1375Z" fill="#A5DC69"/>
<path fill-rule="evenodd" clip-rule="evenodd" d="M46.5794 31.183L46.58 31.1836C46.5894 31.1819 48.7669 30.9447 49.9661 32.1426C51.1654 33.3412 50.9738 35.4808 50.973 35.4902L50.9733 35.4905L50.9729 35.4901L50.9732 35.4904L50.9728 35.49C50.9547 35.4919 48.7324 35.779 47.5352 34.583C46.333 33.3824 46.5794 31.183 46.5794 31.183Z" fill="#46C373"/>
<path fill-rule="evenodd" clip-rule="evenodd" d="M43.4861 26.1938V26.1945C43.4926 26.1989 44.8894 27.3186 44.8888 28.7036C44.8879 30.0892 43.5372 31.2161 43.5312 31.2211V31.2215V31.221V31.2213V31.2208C43.5197 31.2114 42.068 30.0948 42.0686 28.7119C42.069 27.3236 43.4861 26.1938 43.4861 26.1938Z" fill="#A5DC69"/>
<path fill-rule="evenodd" clip-rule="evenodd" d="M47.0093 48.0846V48.0846C47.0093 49.3585 47.4818 50.5874 48.3359 51.5342L48.39 51.5942C48.9432 52.2076 49.7312 52.5579 50.5582 52.5579V52.5579C51.0981 52.5579 51.6274 52.4083 52.0872 52.1259L52.125 52.1028C53.0298 51.547 54.0713 51.2528 55.1336 51.2528V51.2528V51.2528C56.196 51.2528 57.2375 51.547 58.1423 52.1028L58.1801 52.1259C58.6399 52.4084 59.1692 52.5579 59.7091 52.5579V52.5579C60.5359 52.5579 61.324 52.2076 61.8773 51.5942L61.9314 51.5342C62.7853 50.5873 63.2578 49.3585 63.2578 48.0846V48.0846C63.2578 44.7089 60.516 41.9724 57.1337 41.9724H53.1334C49.7511 41.9724 47.0093 44.7089 47.0093 48.0846Z" fill="#F5C86E"/>
<path fill-rule="evenodd" clip-rule="evenodd" d="M56.9505 51.9815V52.878C56.9505 53.737 57.1252 54.587 57.4638 55.3767V55.3767C57.8025 56.1664 57.9771 57.0164 57.9771 57.8755V57.8755C57.9771 59.1511 56.941 60.1852 55.6629 60.1852H55.0579H55.2093H54.6043C53.3261 60.1852 52.29 59.1511 52.29 57.8755V57.8755C52.29 57.0165 52.4647 56.1664 52.8033 55.3767V55.3767C53.142 54.587 53.3166 53.737 53.3166 52.878V51.9815H56.9505Z" fill="#F0F0FA"/>
<path fill-rule="evenodd" clip-rule="evenodd" d="M41.7019 54.1787V54.1787C41.7019 54.8111 41.9364 55.421 42.3604 55.891L42.3872 55.9208C42.6618 56.2252 43.0531 56.3991 43.4635 56.3991V56.3991C43.7315 56.3991 43.9942 56.3249 44.2224 56.1847L44.2412 56.1732C44.6902 55.8974 45.2073 55.7514 45.7346 55.7514V55.7514V55.7514C46.2619 55.7514 46.7789 55.8975 47.228 56.1732L47.2467 56.1847C47.4749 56.3249 47.7377 56.3991 48.0057 56.3991V56.3991C48.4161 56.3991 48.8073 56.2252 49.0819 55.9208L49.1088 55.891C49.5327 55.421 49.7673 54.8111 49.7673 54.1787V54.1787C49.7673 52.5031 48.4062 51.1448 46.7274 51.1448H44.7418C43.0629 51.1448 41.7019 52.5031 41.7019 54.1787Z" fill="#F5B955"/>
<path fill-rule="evenodd" clip-rule="evenodd" d="M46.6366 56.113V56.5581C46.6366 56.9844 46.7233 57.4064 46.8914 57.7984V57.7984C47.0595 58.1904 47.1462 58.6123 47.1462 59.0387V59.0387C47.1462 59.6719 46.6318 60.1852 45.9974 60.1852H45.6971H45.7723H45.472C44.8376 60.1852 44.3232 59.6719 44.3232 59.0387V59.0387C44.3232 58.6123 44.4099 58.1904 44.578 57.7984V57.7984C44.7461 57.4064 44.8328 56.9844 44.8328 56.5581V56.113H46.6366Z" fill="#F0F0FA"/>
<path fill-rule="evenodd" clip-rule="evenodd" d="M26.7422 23.7408H39.2109V60.1852H26.7422V23.7408Z" fill="#C88C64"/>
<path fill-rule="evenodd" clip-rule="evenodd" d="M36.9243 41.963L41.1036 39.6173L43.4786 31.1635H46.5587L43.6641 41.9724L37.504 46.7037L36.9243 41.963Z" fill="#C88C64"/>
<path fill-rule="evenodd" clip-rule="evenodd" d="M26.7422 23C26.3323 23 26 23.3317 26 23.7407V60.1852C26 60.5942 26.3323 60.9259 26.7422 60.9259C27.1521 60.9259 27.4844 60.5942 27.4844 60.1852V23.7407C27.4844 23.3317 27.1521 23 26.7422 23Z" fill="black"/>
<path fill-rule="evenodd" clip-rule="evenodd" d="M44.1168 42.5594C44.2462 42.4601 44.3391 42.321 44.3812 42.1636L46.4634 34.3881C46.6109 34.6435 46.7906 34.8872 47.0104 35.1067C48.0034 36.0987 49.4994 36.2616 50.3755 36.2616C50.6921 36.2616 50.9279 36.2404 51.0296 36.2292C51.1895 36.2172 51.3467 36.1535 51.4741 36.0372C51.6208 35.9034 51.7013 35.7241 51.7138 35.5407C51.7394 35.227 51.8676 32.9946 50.4912 31.6191C50.3783 31.5063 50.2591 31.4045 50.1359 31.3115C50.5723 31.107 50.9915 30.8347 51.3549 30.4723C52.9902 28.8416 52.7536 26.0593 52.7038 25.6148C52.6905 25.4388 52.6145 25.267 52.4769 25.1355C52.3472 25.0115 52.184 24.9438 52.0176 24.9318C51.7909 24.9135 48.9415 24.7207 47.2571 26.3995C45.7909 27.8616 45.787 30.2212 45.8322 31.0072L43.012 41.5385L37.0513 46.1167C36.7265 46.3662 36.6658 46.8312 36.9158 47.1555C37.062 47.3451 37.282 47.4445 37.5045 47.4445C37.6624 47.4445 37.8217 47.3943 37.9566 47.2907L38.4687 46.8973V60.1852C38.4687 60.5942 38.801 60.9259 39.2109 60.9259C39.6208 60.9259 39.9531 60.5942 39.9531 60.1852V45.7572L44.1168 42.5594ZM48.0603 34.0595C47.509 33.5088 47.338 32.5818 47.3055 31.9088C47.9716 31.9427 48.8894 32.115 49.441 32.6661C50.0232 33.2478 50.1886 34.1653 50.2299 34.7815C49.5201 34.7632 48.5993 34.5978 48.0603 34.0595ZM48.3062 27.4477C49.1378 26.6189 50.4732 26.4345 51.2607 26.403C51.2649 27.2124 51.1367 28.5958 50.3057 29.4243C49.4735 30.2543 48.1009 30.4085 47.2997 30.4213C47.3189 29.5533 47.5218 28.2299 48.3062 27.4477Z" fill="black"/>
<path fill-rule="evenodd" clip-rule="evenodd" d="M37.2881 42.6086L41.4674 40.263C41.6389 40.1667 41.7651 40.0064 41.8183 39.8173L44.0952 31.7124C44.4527 31.39 45.6299 30.2133 45.6309 28.7039C45.6316 27.1767 44.3734 25.9813 44.0083 25.6674C43.9507 25.6104 43.8832 25.5624 43.8078 25.5262C43.5508 25.4029 43.2456 25.4373 43.0228 25.615C42.8492 25.7534 41.3269 27.016 41.3263 28.7116C41.3258 29.9115 42.105 30.8883 42.637 31.4154L40.472 39.122L39.9533 39.4131V23.7407C39.9533 23.3317 39.621 23 39.2111 23C38.8012 23 38.4689 23.3317 38.4689 23.7407V40.184C38.4689 40.2044 38.4703 40.2245 38.472 40.2445L36.5606 41.3173C36.2034 41.5178 36.0766 41.9694 36.2775 42.3259C36.4137 42.5678 36.6656 42.7038 36.9252 42.7038C37.0482 42.7039 37.1731 42.6732 37.2881 42.6086ZM43.4848 27.2369C43.8086 27.6208 44.1467 28.1624 44.1466 28.7032C44.1462 29.2446 43.8221 29.7881 43.5096 30.1761C43.1834 29.8115 42.8105 29.2721 42.8107 28.7123C42.8109 28.1708 43.1556 27.6244 43.4848 27.2369Z" fill="black"/>
<path fill-rule="evenodd" clip-rule="evenodd" d="M57.1338 41.2316H53.1334C49.3473 41.2316 46.2671 44.3059 46.2671 48.0846C46.2671 48.8903 46.4321 49.6779 46.7438 50.4045C46.7383 50.4045 46.7329 50.4041 46.7274 50.4041H44.7418C42.6563 50.4041 40.9597 52.0973 40.9597 54.1787C40.9597 54.9955 41.2613 55.7796 41.8091 56.387L41.8356 56.4164C42.2502 56.8761 42.8436 57.1399 43.4634 57.1399C43.6582 57.1399 43.8508 57.1133 44.0368 57.063C44.0042 57.2143 43.9574 57.3627 43.8956 57.507C43.6868 57.9938 43.5809 58.5092 43.5809 59.0387C43.5809 60.0794 44.4291 60.926 45.4718 60.926H45.9973C47.0399 60.926 47.8883 60.0794 47.8883 59.0387C47.8883 58.5093 47.7824 57.9939 47.5736 57.507C47.5117 57.3627 47.4648 57.2143 47.4324 57.063C47.6184 57.1133 47.811 57.1399 48.0057 57.1399C48.6256 57.1399 49.2189 56.8761 49.6332 56.4167L49.6604 56.3867C50.2079 55.7797 50.5094 54.9956 50.5094 54.1787C50.5094 53.8741 50.4722 53.5782 50.4036 53.2944C50.455 53.2966 50.5065 53.2984 50.5582 53.2984C51.2358 53.2984 51.899 53.1111 52.4768 52.7563L52.5139 52.7334C52.534 52.7211 52.5543 52.7096 52.5745 52.6976V52.878C52.5745 53.641 52.4219 54.3836 52.1211 55.0852C51.7407 55.972 51.5478 56.9108 51.5478 57.8754C51.5478 59.5575 52.919 60.9259 54.6042 60.9259H55.6629C57.3483 60.9259 58.7193 59.5575 58.7193 57.8754C58.7193 56.9107 58.5265 55.9719 58.1461 55.0852C57.8452 54.3836 57.6926 53.641 57.6926 52.878V52.6976C57.7127 52.7096 57.7329 52.721 57.7529 52.7332L57.791 52.7566C58.3682 53.111 59.0314 53.2984 59.709 53.2984C60.7447 53.2984 61.7361 52.8578 62.4288 52.0897L62.4829 52.0296C63.4613 50.9451 64 49.5441 64 48.0846C64 44.3059 60.9199 41.2316 57.1338 41.2316ZM45.9973 59.4444H45.4718C45.2476 59.4444 45.0653 59.2624 45.0653 59.0387C45.0653 58.7107 45.1309 58.3915 45.2602 58.0898C45.469 57.603 45.5749 57.0876 45.5749 56.558V56.4984C45.6279 56.4944 45.6811 56.492 45.7346 56.492C45.788 56.492 45.8412 56.4944 45.8942 56.4984V56.558C45.8942 57.0875 46.0001 57.6029 46.2089 58.0898C46.3383 58.3914 46.4038 58.7107 46.4038 59.0387C46.4039 59.2624 46.2215 59.4444 45.9973 59.4444ZM49.0251 54.1787C49.0251 54.6288 48.8589 55.061 48.5575 55.3951L48.5303 55.4252C48.3967 55.5733 48.2055 55.6583 48.0057 55.6583C47.875 55.6583 47.7471 55.6221 47.6356 55.5537L47.617 55.5423C47.0506 55.1944 46.3997 55.0105 45.7346 55.0105C45.0695 55.0105 44.4186 55.1944 43.8523 55.5422L43.8335 55.5538C43.7221 55.6221 43.5942 55.6583 43.4635 55.6583C43.2638 55.6583 43.0725 55.5733 42.9385 55.4248L42.912 55.3955C42.6103 55.0609 42.4442 54.6288 42.4442 54.1787C42.4442 52.9143 43.4749 51.8856 44.7418 51.8856H46.7275C47.2224 51.8856 47.6809 52.043 48.0564 52.3098C48.1504 52.3976 48.2485 52.4801 48.3506 52.5571C48.767 52.9724 49.0251 53.5461 49.0251 54.1787ZM56.7816 55.6682C57.0825 56.3696 57.235 57.1122 57.235 57.8754C57.235 58.7406 56.5298 59.4444 55.663 59.4444H54.6043C53.7375 59.4444 53.0323 58.7406 53.0323 57.8754C53.0323 57.1123 53.1849 56.3697 53.4858 55.6681C53.8661 54.7813 54.059 53.8425 54.059 52.878V52.1105C54.4102 52.0333 54.7704 51.9933 55.1337 51.9933C55.497 51.9933 55.8571 52.0333 56.2084 52.1105V52.878C56.2084 53.8426 56.4012 54.7814 56.7816 55.6682ZM61.3798 51.0385L61.3256 51.0986C60.9139 51.5552 60.3246 51.817 59.7091 51.817C59.3063 51.817 58.9121 51.7057 58.5695 51.4952L58.5314 51.4718C57.5091 50.8439 56.3342 50.512 55.1337 50.512C53.9332 50.512 52.7583 50.8439 51.7355 51.4721L51.6984 51.495C51.3553 51.7058 50.9611 51.8171 50.5584 51.8171C50.1056 51.8171 49.6674 51.675 49.3033 51.4184C49.2112 51.3327 49.1149 51.2515 49.0146 51.1753C48.9898 51.1504 48.9655 51.125 48.9419 51.0988L48.8877 51.0387C48.1552 50.2266 47.7517 49.1776 47.7517 48.0847C47.7517 45.123 50.166 42.7133 53.1337 42.7133H57.134C60.1016 42.7133 62.516 45.1229 62.516 48.0847C62.5157 49.1774 62.1123 50.2264 61.3798 51.0385Z" fill="black"/>
<path fill-rule="evenodd" clip-rule="evenodd" d="M30.3047 46.5243C29.8948 46.5243 29.5625 46.856 29.5625 47.265V56.0833C29.5625 56.4924 29.8948 56.8241 30.3047 56.8241C30.7146 56.8241 31.0469 56.4924 31.0469 56.0833V47.265C31.0469 46.856 30.7146 46.5243 30.3047 46.5243Z" fill="black"/>
<path fill-rule="evenodd" clip-rule="evenodd" d="M32.9766 53.8524C32.5667 53.8524 32.2344 54.1841 32.2344 54.5931V59.6346C32.2344 60.0436 32.5667 60.3753 32.9766 60.3753C33.3865 60.3753 33.7188 60.0436 33.7188 59.6346V54.5931C33.7188 54.184 33.3865 53.8524 32.9766 53.8524Z" fill="black"/>
<path fill-rule="evenodd" clip-rule="evenodd" d="M35.6484 27.4948C35.8436 27.4948 36.0351 27.4163 36.1732 27.2778C36.3112 27.14 36.3906 26.9496 36.3906 26.7541C36.3906 26.5593 36.3112 26.3682 36.1732 26.2304C36.0351 26.0927 35.8436 26.0133 35.6484 26.0133C35.4532 26.0133 35.2618 26.0926 35.1237 26.2304C34.9857 26.3682 34.9062 26.5593 34.9062 26.7541C34.9062 26.9489 34.9857 27.14 35.1237 27.2778C35.2618 27.4163 35.4532 27.4948 35.6484 27.4948Z" fill="black"/>
<path fill-rule="evenodd" clip-rule="evenodd" d="M36.3906 29.5185C36.3906 29.1095 36.0583 28.7778 35.6484 28.7778C35.2385 28.7778 34.9062 29.1095 34.9062 29.5185V35.5726C34.9062 35.9816 35.2385 36.3133 35.6484 36.3133C36.0583 36.3133 36.3906 35.9816 36.3906 35.5726V29.5185Z" fill="black"/>
<path fill-rule="evenodd" clip-rule="evenodd" d="M57.1722 43.6762L57.1338 43.6761C56.7239 43.6761 56.3916 44.0078 56.3916 44.4168C56.3916 44.8259 56.7239 45.1576 57.1338 45.1576L57.1626 45.1577C57.1642 45.1577 57.1659 45.1577 57.1675 45.1577C57.5751 45.1577 57.9069 44.8292 57.9096 44.4217C57.9123 44.0127 57.5821 43.6789 57.1722 43.6762Z" fill="black"/>
<path fill-rule="evenodd" clip-rule="evenodd" d="M60.0849 44.8044C59.78 44.5309 59.3107 44.556 59.0368 44.8603C58.7628 45.1646 58.7879 45.633 59.0928 45.9064C59.7115 46.4612 60.0664 47.2551 60.0664 48.0845C60.0664 48.4935 60.3987 48.8252 60.8086 48.8252C61.2185 48.8252 61.5508 48.4935 61.5508 48.0845C61.5508 46.8353 61.0165 45.6398 60.0849 44.8044Z" fill="black"/>
<defs>
<filter id="filter0_d" x="0" y="0" width="88" height="88" filterUnits="userSpaceOnUse" color-interpolation-filters="sRGB">
<feFlood flood-opacity="0" result="BackgroundImageFix"/>
<feColorMatrix in="SourceAlpha" type="matrix" values="0 0 0 0 0 0 0 0 0 0 0 0 0 0 0 0 0 0 127 0"/>
<feOffset dy="2"/>
<feGaussianBlur stdDeviation="5"/>
<feColorMatrix type="matrix" values="0 0 0 0 0 0 0 0 0 0 0 0 0 0 0 0 0 0 0.101961 0"/>
<feBlend mode="normal" in2="BackgroundImageFix" result="effect1_dropShadow"/>
<feBlend mode="normal" in="SourceGraphic" in2="effect1_dropShadow" result="shape"/>
</filter>
</defs>
</svg>
