<svg width="42" height="42" viewBox="0 0 42 42" fill="none" xmlns="http://www.w3.org/2000/svg">
<circle cx="21" cy="21" r="21" fill="url(#paint0_linear_671_31810)"/>
<circle cx="21" cy="21" r="17" fill="url(#paint1_linear_671_31810)"/>
<g clip-path="url(#clip0_671_31810)">
<path d="M13.7007 20.5282L14.5668 16.1978C14.6659 15.7023 15.3066 15.5568 15.61 15.9612L18.1751 19.3814C18.5823 19.9243 18.0787 20.051 16.3911 22.1324C14.1555 21.0359 13.5562 21.251 13.7007 20.5282Z" fill="#FFC34D"/>
<path d="M25.6478 22.1324C23.9508 20.0957 23.407 19.9384 23.8248 19.3814L26.3899 15.9612C26.6932 15.5569 27.334 15.7021 27.4331 16.1978L28.2992 20.5282C28.4499 21.2817 27.7256 21.0912 25.6478 22.1324Z" fill="#FF9933"/>
<path d="M30.0633 18.186L25.8677 21.3067L21.5085 13.6787C21.3964 13.4822 21.1988 13.3838 21.0003 13.3838C20.8023 13.3838 20.6039 13.4822 20.4914 13.6787L16.1322 21.3067L11.9366 18.186C11.4948 17.8575 10.884 18.268 11.0191 18.8007L12.6205 25.1008L13.6805 25.7386L12.9181 26.2725L13.4016 28.1746C13.4338 28.3008 13.5071 28.4127 13.6099 28.4926C13.7128 28.5725 13.8393 28.616 13.9695 28.616H28.0304C28.2983 28.616 28.5323 28.434 28.5983 28.1746L29.0818 26.2725L28.6163 25.6866L29.3794 25.1008L30.9808 18.8007C31.1164 18.2668 30.5043 17.8583 30.0633 18.186Z" fill="#FFEA80"/>
<path d="M30.9808 18.8007L29.3794 25.1008L28.6163 25.6866L29.0818 26.2725L28.5983 28.1746C28.5661 28.3008 28.4928 28.4127 28.39 28.4926C28.2871 28.5725 28.1606 28.616 28.0304 28.616H21.0004V13.3838C21.1988 13.3838 21.3964 13.4822 21.5085 13.6787L25.8677 21.3067L30.0634 18.186C30.5043 17.8583 31.1164 18.2668 30.9808 18.8007Z" fill="#FFC34D"/>
<path d="M23.2599 22.4559L21.5022 19.5265C21.3882 19.3367 21.1945 19.2422 21.0004 19.2422C20.8058 19.2422 20.6109 19.3375 20.4977 19.5265L18.7401 22.4559C18.6854 22.547 18.6566 22.6512 18.6566 22.7574C18.6566 22.8636 18.6854 22.9678 18.7401 23.0589L20.4977 25.9883C20.6117 26.1781 20.8062 26.2726 21.0004 26.2726C21.1945 26.2722 21.389 26.1769 21.5022 25.9883L23.2599 23.0589C23.3145 22.9678 23.3433 22.8636 23.3433 22.7574C23.3433 22.6512 23.3145 22.547 23.2599 22.4559Z" fill="#FF6A4D"/>
<path d="M23.2599 23.0589L21.5022 25.9883C21.389 26.1769 21.1945 26.2722 21.0004 26.2726V19.2422C21.1945 19.2422 21.3882 19.3367 21.5022 19.5265L23.2599 22.4559C23.3145 22.547 23.3433 22.6512 23.3433 22.7574C23.3433 22.8636 23.3145 22.9678 23.2599 23.0589Z" fill="#F03800"/>
<path d="M16.8989 25.6867C16.8989 26.0101 16.6364 26.2726 16.313 26.2726H12.9181L12.6205 25.1008H16.313C16.6364 25.1008 16.8989 25.3633 16.8989 25.6867Z" fill="#FFC34D"/>
<path d="M29.3794 25.1008L29.0818 26.2726H25.6869C25.3635 26.2726 25.101 26.0101 25.101 25.6867C25.101 25.3633 25.3635 25.1008 25.6869 25.1008H29.3794Z" fill="#FF9933"/>
</g>
<defs>
<linearGradient id="paint0_linear_671_31810" x1="21" y1="0" x2="21" y2="48.1765" gradientUnits="userSpaceOnUse">
<stop stop-color="white" stop-opacity="0.2"/>
<stop offset="1" stop-color="white" stop-opacity="0"/>
</linearGradient>
<linearGradient id="paint1_linear_671_31810" x1="21" y1="4" x2="21" y2="43" gradientUnits="userSpaceOnUse">
<stop stop-color="white" stop-opacity="0.2"/>
<stop offset="1" stop-color="white" stop-opacity="0"/>
</linearGradient>
<clipPath id="clip0_671_31810">
<rect width="20" height="20" fill="white" transform="translate(11 11)"/>
</clipPath>
</defs>
</svg>
