<svg width="24" height="24" viewBox="0 0 24 24" fill="none" xmlns="http://www.w3.org/2000/svg">
<g clip-path="url(#clip0_4954_25814)">
<path d="M3.01778 17.0039C2.59199 16.0526 0.621094 15.7241 0.621094 15.7241C0.817703 15.29 1.14992 14.9314 1.5678 14.7023C1.98567 14.4733 2.46662 14.386 2.93833 14.4537L3.01778 17.0039ZM3.51765 18.1696H4.22109C4.67432 18.1275 5.12937 18.2281 5.52259 18.4574C5.91582 18.6866 6.22755 19.0331 6.4142 19.4482C6.4142 19.4482 4.53144 19.7627 4.0473 20.6648L3.51765 18.1696Z" fill="#FCDA4F"/>
<path d="M6.00023 2.49931V2.48276C6.00023 2.48276 5.49996 -0.162621 1.84906 -3.87896e-07C1.78334 0.00275089 1.71921 0.0210368 1.66192 0.0533587C1.60463 0.0856805 1.55582 0.131118 1.51948 0.185947C1.48314 0.240776 1.46032 0.303436 1.45287 0.36879C1.44543 0.434144 1.45357 0.500333 1.47665 0.561931C1.79036 1.40095 2.36194 2.11895 3.10928 2.61276C3.85662 3.10658 4.74126 3.3508 5.63609 3.31034L6.00023 2.49931Z" fill="#EACF32"/>
<path d="M7.06221 3.00708C7.5638 3.05866 8.03294 3.27927 8.39259 3.63268C8.75224 3.98609 8.98103 4.4513 9.04138 4.95191C9.04138 4.95191 7.52276 4.72432 6.67862 5.18777H6L7.06221 3.00708Z" fill="#FCDA4F"/>
<path d="M6.13275 6.88132C6.3024 6.30201 6.48447 5.73512 6.67482 5.18891H6.67895C6.92784 4.48255 7.21235 3.78925 7.53137 3.11167C7.70516 2.74753 7.88723 2.39995 8.07758 2.06477C8.1508 1.94005 8.18979 1.79821 8.19062 1.65358C8.19144 1.50896 8.15406 1.36668 8.08226 1.24114C8.01046 1.11559 7.90678 1.01123 7.78171 0.938602C7.65664 0.865977 7.51462 0.827662 7.36999 0.827532H7.36585C7.22204 0.826602 7.08053 0.863599 6.95558 0.934793C6.83062 1.00599 6.72665 1.10886 6.65413 1.23305C6.42654 1.63443 6.20723 2.0565 6.00033 2.49512V2.49926C5.8762 2.76408 5.75206 3.03305 5.6362 3.31029C5.2762 4.17098 4.9493 5.08546 4.65964 6.03305L3.97275 8.60684V8.61098C2.49137 14.9503 2.30516 21.8068 2.28033 23.582C2.27939 23.6368 2.28942 23.6912 2.30983 23.7421C2.33025 23.793 2.36062 23.8392 2.39918 23.8782C2.43774 23.9171 2.4837 23.9479 2.53435 23.9689C2.585 23.9898 2.63933 24.0003 2.69413 23.9999H3.52171C3.63004 24 3.73405 23.9575 3.81142 23.8817C3.88879 23.8059 3.93334 23.7027 3.93551 23.5944C4.02126 19.0507 4.4947 14.5225 5.35068 10.0593L6.13275 6.88132Z" fill="url(#paint0_linear_4954_25814)"/>
<path d="M10.5518 13.7338H13.0345V16.2497H10.5518V13.7338ZM13.5062 9.7904C13.738 8.88998 13.858 7.96433 13.8625 7.03453C13.8625 4.0635 12.3811 0.827637 10.5522 0.827637V9.43453L13.5062 9.7904Z" fill="url(#paint1_linear_4954_25814)"/>
<path d="M13.031 13.7263L14.2716 11.5779L16.4486 12.835L15.2084 14.983L13.031 13.7263ZM9.38097 12.1696C8.48468 11.922 7.62283 11.5633 6.81545 11.102C4.24579 9.6165 2.18097 6.71581 3.09545 5.13098L10.5524 9.43443L9.38097 12.1696Z" fill="url(#paint2_linear_4954_25814)"/>
<path d="M12.6205 16.1379H10.9653C10.5082 16.1379 10.1377 16.5085 10.1377 16.9655V23.1724C10.1377 23.6295 10.5082 24 10.9653 24H12.6205C13.0775 24 13.448 23.6295 13.448 23.1724V16.9655C13.448 16.5085 13.0775 16.1379 12.6205 16.1379Z" fill="url(#paint3_linear_4954_25814)"/>
<path d="M22.1307 18.5095L22.9583 17.0761C23.1868 16.6803 23.0512 16.1741 22.6554 15.9456L17.28 12.8421C16.8842 12.6136 16.3781 12.7492 16.1495 13.1451L15.3219 14.5785C15.0934 14.9743 15.229 15.4804 15.6249 15.709L21.0002 18.8124C21.396 19.041 21.9022 18.9053 22.1307 18.5095Z" fill="url(#paint4_linear_4954_25814)"/>
<path d="M14.2761 11.5862C14.2762 12.0217 14.1616 12.4496 13.9436 12.8266C13.7257 13.2037 13.4122 13.5166 13.0347 13.7338C12.6578 13.9533 12.2295 14.069 11.7933 14.069C11.3572 14.069 10.9288 13.9533 10.5519 13.7338C10.1752 13.5157 9.86231 13.2026 9.64447 12.8258C9.42664 12.4489 9.31149 12.0215 9.31055 11.5862C9.31036 11.1507 9.42503 10.7229 9.64298 10.3458C9.86093 9.96877 10.1744 9.65586 10.5519 9.43865V9.43451C10.9296 9.2172 11.3577 9.10301 11.7934 9.10339C12.2291 9.10378 12.6571 9.21872 13.0343 9.4367C13.4116 9.65467 13.7249 9.96801 13.9429 10.3453C14.1608 10.7226 14.2757 11.1505 14.2761 11.5862Z" fill="url(#paint5_linear_4954_25814)"/>
<path d="M11.7934 12.4138C12.2505 12.4138 12.621 12.0433 12.621 11.5863C12.621 11.1292 12.2505 10.7587 11.7934 10.7587C11.3363 10.7587 10.9658 11.1292 10.9658 11.5863C10.9658 12.0433 11.3363 12.4138 11.7934 12.4138Z" fill="#E4E4E4"/>
</g>
<defs>
<linearGradient id="paint0_linear_4954_25814" x1="0.5" y1="31.5" x2="10.5" y2="-6" gradientUnits="userSpaceOnUse">
<stop stop-color="#728311"/>
<stop offset="0.484374" stop-color="#99AF17"/>
<stop offset="1" stop-color="#C1DD1D"/>
</linearGradient>
<linearGradient id="paint1_linear_4954_25814" x1="12" y1="-1" x2="11" y2="19.5" gradientUnits="userSpaceOnUse">
<stop stop-color="#E8E8E8"/>
<stop offset="1" stop-color="#CFCFCF"/>
</linearGradient>
<linearGradient id="paint2_linear_4954_25814" x1="8.81255" y1="3.96344" x2="8.71278" y2="17.0898" gradientUnits="userSpaceOnUse">
<stop stop-color="#E8E8E8"/>
<stop offset="1" stop-color="#CFCFCF"/>
</linearGradient>
<linearGradient id="paint3_linear_4954_25814" x1="11" y1="8" x2="20.6515" y2="12.8663" gradientUnits="userSpaceOnUse">
<stop stop-color="#BF6C0D"/>
<stop offset="0.484374" stop-color="#A75F0B"/>
<stop offset="1" stop-color="#814909"/>
</linearGradient>
<linearGradient id="paint4_linear_4954_25814" x1="13" y1="12.5" x2="19.8876" y2="8.13183" gradientUnits="userSpaceOnUse">
<stop stop-color="#BF6C0D"/>
<stop offset="0.484374" stop-color="#A75F0B"/>
<stop offset="1" stop-color="#814909"/>
</linearGradient>
<linearGradient id="paint5_linear_4954_25814" x1="8.5" y1="6.5" x2="15" y2="17" gradientUnits="userSpaceOnUse">
<stop stop-color="#E6E6E6"/>
<stop offset="1" stop-color="#9E9E9E"/>
</linearGradient>
<clipPath id="clip0_4954_25814">
<rect width="24" height="24" fill="white"/>
</clipPath>
</defs>
</svg>
