<svg width="24" height="24" viewBox="0 0 24 24" fill="none" xmlns="http://www.w3.org/2000/svg">
<g clip-path="url(#clip0_4954_25868)">
<path d="M13.9992 7.76015C13.999 7.71009 13.9989 7.65962 13.9984 7.61002C13.6609 7.49375 13.4185 7.18084 13.4185 6.81185C13.4185 6.51953 13.5707 6.2622 13.8019 6.11013V5.97076C13.5707 5.81857 13.4185 5.5614 13.4185 5.26893C13.4185 5.07191 13.4879 4.89113 13.6036 4.74756C13.6347 4.70914 13.6248 4.6539 13.5821 4.62843C13.3316 4.47983 13.164 4.21175 13.164 3.90517C13.164 3.70816 13.233 3.52708 13.3487 3.3832C13.3796 3.34462 13.3698 3.28954 13.3271 3.26422C13.0769 3.11547 12.9096 2.8477 12.9096 2.54123C12.9096 2.40083 12.9452 2.26889 13.0073 2.15238C13.0288 2.11205 13.0139 2.06291 12.9731 2.04072C12.7077 1.89571 12.5281 1.61917 12.5281 1.30138C12.5281 1.22944 12.5378 1.15975 12.5554 1.09319C12.5634 1.06327 12.5487 1.02381 12.5226 1.00624C12.2957 0.853441 12.1466 0.598784 12.1466 0.309587C12.1466 0.260905 12.1517 0.213405 12.1598 0.166934C12.1369 0.134741 12.1135 0.102867 12.0896 0.0713226C12.0734 0.0497454 12.0577 0.0332003 12.0428 0.0214205C12.032 0.00521847 12.0174 -0.00194853 12.0001 0.000453175C11.9826 -0.00194853 11.9679 0.00521847 11.9572 0.0214205C11.9424 0.0332384 11.9266 0.0497454 11.9104 0.0713608C11.8888 0.0997619 11.8653 0.131632 11.8402 0.166934C11.8487 0.214054 11.8532 0.261768 11.8534 0.309587C11.8534 0.598784 11.7043 0.853441 11.4774 1.00624C11.4513 1.02377 11.4366 1.06327 11.4446 1.09315C11.4627 1.16122 11.4719 1.23116 11.4719 1.30138C11.4719 1.61917 11.2923 1.89571 11.0269 2.04072C10.9861 2.06291 10.9712 2.11205 10.9927 2.15242C11.0571 2.27281 11.0906 2.4061 11.0904 2.54127C11.0904 2.8477 10.923 3.11547 10.6729 3.26422C10.6302 3.28954 10.6204 3.34466 10.6511 3.3832C10.7714 3.53292 10.8364 3.71647 10.8359 3.90517C10.8359 4.21175 10.6682 4.47983 10.4179 4.62843C10.375 4.6539 10.3652 4.70914 10.3962 4.74756C10.5168 4.89695 10.582 5.08034 10.5815 5.26893C10.5815 5.5614 10.4293 5.81857 10.1981 5.97076V6.11013C10.4293 6.2622 10.5815 6.51953 10.5815 6.81185C10.5815 7.18088 10.3391 7.49371 10.0014 7.61002C10.0009 7.65977 10.0009 7.71009 10.0006 7.76015H10V9H14V7.76015H13.9992Z" fill="url(#paint0_linear_4954_25868)"/>
<path d="M11.4432 8.09112C11.4614 8.0402 11.4794 7.98878 11.4975 7.93836C11.8228 7.95888 12.1382 7.73976 12.27 7.36364C12.3196 7.22219 12.3389 7.06901 12.3264 6.91707C12.314 6.76513 12.27 6.61891 12.1984 6.4908L12.248 6.34871C12.4966 6.28892 12.7165 6.08936 12.8209 5.7914C12.8886 5.59823 12.8993 5.38462 12.8514 5.18367C12.8391 5.13179 12.8671 5.07952 12.9121 5.07132C13.1756 5.02288 13.4121 4.81869 13.5216 4.50631C13.5894 4.31315 13.6004 4.09949 13.5527 3.89842C13.5405 3.8467 13.5686 3.79443 13.6134 3.78606C13.8767 3.73741 14.1129 3.53344 14.2223 3.22118C14.2708 3.08296 14.2903 2.93338 14.2791 2.78476C14.2754 2.73485 14.3056 2.69099 14.3477 2.68511C14.6225 2.64663 14.8722 2.43853 14.9856 2.1148C15.0107 2.04303 15.028 1.96794 15.0371 1.89123C15.0411 1.85759 15.0674 1.82341 15.0957 1.81617C15.3409 1.75394 15.5572 1.55585 15.6605 1.26113C15.6779 1.21139 15.6904 1.16097 15.7002 1.11022C15.7309 1.08681 15.762 1.06397 15.7934 1.04172C15.8149 1.02646 15.8338 1.01607 15.8504 1.01019C15.8653 0.998035 15.8801 0.996732 15.894 1.0064C15.9095 1.01103 15.9192 1.02432 15.9225 1.04551C15.9306 1.06359 15.938 1.08672 15.9439 1.11548C15.9519 1.15324 15.9603 1.19545 15.9688 1.24179C15.9447 1.28635 15.9239 1.33316 15.9066 1.38173C15.8033 1.6764 15.8378 1.99732 15.9739 2.24637C15.9896 2.27497 15.9878 2.32109 15.9705 2.34834C15.9309 2.41042 15.8982 2.47797 15.8731 2.54942C15.8193 2.70306 15.8011 2.87034 15.8204 3.03464C15.8397 3.19893 15.8958 3.35453 15.9831 3.48596C15.9957 3.50485 16.0017 3.52865 15.9996 3.55244C15.9975 3.57623 15.9877 3.5982 15.972 3.61379C15.8748 3.71024 15.799 3.83237 15.7511 3.96986C15.6992 4.11805 15.6804 4.27902 15.6966 4.43784C15.7128 4.59666 15.7633 4.74817 15.8436 4.87832C15.8499 4.8885 15.8544 4.90011 15.8566 4.91239C15.8588 4.92467 15.8587 4.93735 15.8565 4.94961C15.8542 4.96187 15.8497 4.97344 15.8433 4.98357C15.8369 4.9937 15.8287 5.00217 15.8194 5.00842C15.6708 5.10731 15.5481 5.26348 15.4777 5.46422C15.3682 5.77677 15.4133 6.11892 15.5708 6.37335C15.5772 6.38355 15.5816 6.39518 15.5838 6.40748C15.5861 6.41979 15.586 6.4325 15.5837 6.44479C15.5814 6.45708 15.5769 6.46867 15.5705 6.4788C15.5641 6.48894 15.5559 6.4974 15.5464 6.50362C15.3977 6.60231 15.2749 6.75802 15.2045 6.95875C15.155 7.1002 15.1356 7.25338 15.1481 7.40532C15.1606 7.55726 15.2045 7.70348 15.2761 7.8316C15.2506 7.90434 15.2519 7.9009 15.2264 7.97368C14.9778 8.03343 14.758 8.23304 14.6536 8.53095C14.522 8.90712 14.6139 9.32563 14.8561 9.58317C14.8387 9.63393 14.8209 9.68535 14.8031 9.73623L14.8037 9.73657L14.3609 11L11 9.35422L11.4428 8.09079L11.4432 8.09112Z" fill="url(#paint1_linear_4954_25868)"/>
<path d="M15.7466 10.0954C15.7828 10.0587 15.8197 10.022 15.8554 9.98548C15.7002 9.66058 15.7562 9.26009 16.0251 8.99105C16.2383 8.77791 16.534 8.69854 16.8093 8.75196L16.9109 8.65031C16.8575 8.37498 16.9369 8.07925 17.15 7.86611C17.2868 7.72856 17.4675 7.6409 17.6621 7.61767C17.7121 7.61165 17.7454 7.56436 17.7334 7.51538C17.6638 7.229 17.7402 6.91452 17.9638 6.69097C18.1074 6.54721 18.2886 6.4643 18.4757 6.44158C18.5256 6.43557 18.5588 6.38828 18.5469 6.33945C18.4776 6.05323 18.5539 5.73907 18.7773 5.51563C18.8755 5.41724 18.9966 5.34376 19.1303 5.30158C19.1749 5.28743 19.2002 5.24093 19.1875 5.19576C19.1044 4.90156 19.1786 4.57218 19.4102 4.34049C19.4613 4.28936 19.5189 4.24482 19.5815 4.20793C19.609 4.19181 19.6273 4.15266 19.6215 4.12133C19.5716 3.84864 19.6513 3.55703 19.8621 3.34605C19.8972 3.31145 19.9352 3.27979 19.9757 3.25143C19.9835 3.20784 19.9901 3.1679 19.9954 3.13181C19.9995 3.10469 20.0006 3.08149 19.9986 3.06243C20.0028 3.04277 19.9976 3.02709 19.9835 3.01652C19.9727 3.00236 19.9572 2.99717 19.9376 3.00146C19.9186 2.99949 19.8954 3.0004 19.8681 3.00453C19.832 3.00991 19.7921 3.01652 19.7485 3.02434C19.7203 3.06471 19.6886 3.10267 19.6538 3.13783C19.4429 3.34865 19.1513 3.42833 18.8786 3.37841C18.8473 3.37274 18.8081 3.39102 18.7919 3.4185C18.7553 3.4808 18.7108 3.53833 18.6595 3.58974C18.4277 3.82143 18.0985 3.89545 17.8041 3.81255C17.759 3.79981 17.7126 3.82497 17.6983 3.86967C17.6568 4.0024 17.5834 4.12342 17.4841 4.22255C17.2607 4.44611 16.9467 4.52241 16.6604 4.45303C16.6115 4.44124 16.5643 4.47438 16.5583 4.52426C16.5357 4.71146 16.4526 4.89264 16.309 5.03624C16.0855 5.2598 15.7709 5.33614 15.4846 5.2666C15.4356 5.25457 15.3884 5.2879 15.3823 5.33798C15.3598 5.52514 15.2775 5.7062 15.1339 5.84992C14.9207 6.06306 14.625 6.14243 14.3496 6.08901C14.2976 6.14105 14.2999 6.13862 14.2481 6.19066C14.3013 6.46599 14.222 6.76172 14.0088 6.97502C13.8825 7.10234 13.7183 7.1873 13.5397 7.21778C13.3611 7.24825 13.1773 7.22269 13.0144 7.14472C12.9779 7.1805 12.9412 7.21717 12.9045 7.25361L12.9041 7.2531L12 8.15708L14.8429 11L15.7469 10.0961L15.7466 10.0954Z" fill="url(#paint2_linear_4954_25868)"/>
<path d="M12.5567 8.09112C12.5386 8.0402 12.5206 7.98878 12.5025 7.93836C12.1772 7.95888 11.8618 7.73976 11.73 7.36364C11.6804 7.22221 11.661 7.06901 11.6735 6.91706C11.686 6.7651 11.7299 6.61888 11.8016 6.4908L11.7518 6.34871C11.5033 6.28892 11.2835 6.08936 11.1791 5.7914C11.1115 5.59823 11.1007 5.38462 11.1486 5.18367C11.1609 5.13179 11.133 5.07952 11.0879 5.07132C10.8245 5.02288 10.5879 4.81869 10.4784 4.50631C10.4105 4.31317 10.3996 4.09951 10.4472 3.89842C10.4595 3.8467 10.4315 3.79443 10.3865 3.78606C10.1233 3.73741 9.88715 3.53344 9.77772 3.22118C9.7292 3.08297 9.7097 2.9334 9.72085 2.78476C9.72452 2.73485 9.69444 2.69099 9.65231 2.68511C9.37753 2.64663 9.12784 2.43853 9.01449 2.1148C8.98933 2.04306 8.97203 1.96795 8.96299 1.89123C8.959 1.85759 8.93263 1.82341 8.90437 1.81617C8.65912 1.75394 8.44288 1.55585 8.33962 1.26113C8.32219 1.21139 8.30966 1.16097 8.29974 1.11022C8.26903 1.08685 8.23801 1.06401 8.2067 1.04172C8.18527 1.02646 8.16624 1.01607 8.14968 1.01019C8.13479 0.998035 8.11986 0.996732 8.10609 1.0064C8.09062 1.01103 8.08085 1.02432 8.07758 1.04551C8.06934 1.06359 8.06211 1.08672 8.05616 1.11548C8.0482 1.15324 8.03981 1.19545 8.03132 1.24179C8.05526 1.28639 8.07599 1.3332 8.09331 1.38173C8.1966 1.6764 8.16228 1.99732 8.02609 2.24637C8.01047 2.27497 8.01218 2.32109 8.0295 2.34834C8.06914 2.41034 8.10185 2.4779 8.12683 2.54942C8.18074 2.70305 8.19895 2.87035 8.17966 3.03466C8.16036 3.19897 8.10423 3.35457 8.01686 3.48596C8.00421 3.50487 7.99832 3.52868 8.00041 3.55247C8.0025 3.57627 8.01241 3.59822 8.02808 3.61379C8.12533 3.71024 8.20109 3.83237 8.24897 3.96986C8.30091 4.11805 8.31964 4.27904 8.30345 4.43787C8.28725 4.59669 8.23664 4.7482 8.15632 4.87832C8.15001 4.88851 8.14561 4.90011 8.14341 4.91239C8.1412 4.92467 8.14125 4.93734 8.14353 4.9496C8.14582 4.96185 8.1503 4.97342 8.15668 4.98355C8.16306 4.99368 8.1712 5.00215 8.18058 5.00842C8.32913 5.10731 8.45196 5.26348 8.52219 5.46422C8.63173 5.77677 8.58659 6.11892 8.42926 6.37335C8.42291 6.38354 8.41848 6.39516 8.41625 6.40746C8.41403 6.41976 8.41406 6.43246 8.41635 6.44474C8.41864 6.45702 8.42313 6.46861 8.42953 6.47875C8.43593 6.48889 8.44411 6.49737 8.45352 6.50362C8.6022 6.60231 8.72507 6.75802 8.79542 6.95875C8.89983 7.25671 8.86381 7.58141 8.72394 7.8316C8.74933 7.90434 8.7482 7.9009 8.77359 7.97368C9.02215 8.03343 9.24203 8.23304 9.34633 8.53095C9.4781 8.90712 9.38617 9.32563 9.14386 9.58317C9.16118 9.63393 9.17919 9.68535 9.19692 9.73623L9.19637 9.73657L9.63909 11L13 9.35422L12.5572 8.09079L12.5567 8.09112Z" fill="url(#paint3_linear_4954_25868)"/>
<path d="M11.0959 7.25379C11.0592 7.21739 11.0224 7.18067 10.9858 7.14478C10.823 7.22279 10.6392 7.24838 10.4606 7.2179C10.282 7.18742 10.1179 7.10243 9.99159 6.97508C9.77837 6.76181 9.69889 6.46604 9.75236 6.19086L9.65072 6.0892C9.37541 6.14267 9.0797 6.0631 8.86644 5.84996C8.72282 5.70639 8.64033 5.52517 8.61794 5.33813C8.61195 5.28793 8.56479 5.25479 8.5157 5.26658C8.22939 5.33632 7.91485 5.25998 7.69112 5.03642C7.5475 4.8927 7.46457 4.71147 7.44185 4.52443C7.43583 4.47451 7.38867 4.44121 7.33974 4.4532C7.19383 4.48863 7.041 4.48599 6.89646 4.44555C6.75193 4.40511 6.62073 4.32828 6.51596 4.22272C6.41685 4.1235 6.34341 4.0025 6.30177 3.86983C6.28764 3.82501 6.24108 3.79982 6.19609 3.81255C5.90162 3.89562 5.5722 3.82148 5.34059 3.5899C5.28932 3.5384 5.24482 3.48082 5.20813 3.4185C5.19196 3.39102 5.15274 3.37278 5.12143 3.3786C4.84877 3.42852 4.55707 3.34864 4.34622 3.13782C4.31142 3.10269 4.27973 3.06472 4.25149 3.02433C4.20794 3.01651 4.16796 3.01006 4.13188 3.00452C4.10458 3.00055 4.08138 2.9996 4.06244 3.00145C4.04281 2.99713 4.02731 3.00255 4.01648 3.01666C4.00239 3.02728 3.99721 3.04292 4.00142 3.06242C3.99954 3.08145 4.0005 3.10464 4.00455 3.132C4.00989 3.16809 4.01648 3.20787 4.0243 3.25162C4.06484 3.27993 4.10283 3.31157 4.13786 3.34621C4.34871 3.55703 4.42839 3.84864 4.37853 4.12138C4.37271 4.15267 4.39106 4.19198 4.41851 4.20814C4.48115 4.245 4.53874 4.28952 4.58991 4.34062C4.82147 4.5722 4.89565 4.90158 4.81252 5.19594C4.79984 5.24111 4.82508 5.28765 4.86976 5.30177C5.00346 5.34389 5.12462 5.41737 5.22271 5.51582C5.44612 5.73926 5.52251 6.05343 5.45302 6.33965C5.4411 6.38848 5.47434 6.43581 5.52439 6.44178C5.71144 6.4645 5.89267 6.54741 6.03617 6.69101C6.25991 6.91458 6.33609 7.22922 6.26649 7.51544C6.25457 7.56442 6.2878 7.61175 6.33798 7.61773C6.52503 7.64014 6.70614 7.72261 6.84992 7.86617C7.06318 8.07948 7.14253 8.37525 7.08903 8.65043C7.14109 8.70247 7.13872 8.7 7.19062 8.75205C7.46598 8.69878 7.76168 8.77819 7.97494 8.99129C8.24396 9.26033 8.29995 9.66084 8.14473 9.98558C8.18046 10.0221 8.21718 10.059 8.25351 10.0955L8.25307 10.096L9.15701 11L12 8.15704L11.0961 7.25304L11.0959 7.25379Z" fill="url(#paint4_linear_4954_25868)"/>
<path d="M16.0214 15.8321H7.70935C7.52012 15.8321 7.33676 15.7664 7.1906 15.6462C7.04444 15.526 6.94454 15.3588 6.90797 15.1732L5.46001 7.82205C5.36056 7.31727 5.74696 6.84741 6.26138 6.84741H17.358C17.8676 6.84741 18.2528 7.30895 18.1616 7.81031L16.825 15.1614C16.7908 15.3496 16.6916 15.5198 16.5448 15.6424C16.3979 15.765 16.2127 15.8321 16.0214 15.8321Z" fill="url(#paint5_linear_4954_25868)"/>
<path d="M9.75996 8.48098C9.98551 8.48098 10.1684 8.29813 10.1684 8.07258C10.1684 7.84703 9.98551 7.66418 9.75996 7.66418C9.53441 7.66418 9.35156 7.84703 9.35156 8.07258C9.35156 8.29813 9.53441 8.48098 9.75996 8.48098Z" fill="url(#paint6_linear_4954_25868)"/>
<path d="M8.73838 10.1146C8.85115 10.1146 8.94257 10.0231 8.94257 9.91037C8.94257 9.7976 8.85115 9.70618 8.73838 9.70618C8.6256 9.70618 8.53418 9.7976 8.53418 9.91037C8.53418 10.0231 8.6256 10.1146 8.73838 10.1146Z" fill="url(#paint7_linear_4954_25868)"/>
<path d="M7.51298 11.3398C7.85131 11.3398 8.12558 11.0655 8.12558 10.7272C8.12558 10.3889 7.85131 10.1146 7.51298 10.1146C7.17466 10.1146 6.90039 10.3889 6.90039 10.7272C6.90039 11.0655 7.17466 11.3398 7.51298 11.3398Z" fill="url(#paint8_linear_4954_25868)"/>
<path d="M20.7862 15.0153H2.81679C2.36567 15.0153 2 14.6497 2 14.1985V12.565C2 12.1138 2.36567 11.7482 2.81679 11.7482H20.7862C21.2373 11.7482 21.603 12.1138 21.603 12.565V14.1985C21.603 14.6497 21.2373 15.0153 20.7862 15.0153Z" fill="url(#paint9_linear_4954_25868)"/>
<path d="M17.6544 24.0001H6.07512C5.8859 24.0001 5.70254 23.9344 5.55638 23.8142C5.41022 23.694 5.31032 23.5268 5.27375 23.3411L3.63379 15.0154H19.9696L18.458 23.3294C18.4237 23.5176 18.3246 23.6878 18.1777 23.8104C18.0308 23.9329 17.8456 24.0001 17.6544 24.0001Z" fill="url(#paint10_linear_4954_25868)"/>
<path d="M14.8995 15.4238H14.2519V10.9314C14.2519 10.4803 13.8862 10.1146 13.4351 10.1146H10.168C9.71683 10.1146 9.35116 10.4803 9.35116 10.9314V15.4238H8.70355C8.38459 15.4238 8.12598 15.6823 8.12598 16.0013C8.12598 16.1545 8.18683 16.3014 8.29515 16.4097L10.2876 18.4021C10.3792 18.4937 10.4878 18.5663 10.6075 18.6159C10.7271 18.6654 10.8553 18.6909 10.9847 18.6909H12.6183C12.8798 18.6909 13.1306 18.587 13.3155 18.4021L15.308 16.4097C15.3616 16.356 15.4041 16.2924 15.4332 16.2223C15.4622 16.1522 15.4771 16.0771 15.4771 16.0013C15.4771 15.6823 15.2185 15.4238 14.8995 15.4238Z" fill="url(#paint11_linear_4954_25868)"/>
<path d="M13.2659 15.4238H12.6183V10.9314C12.6183 10.4803 12.2527 10.1146 11.8015 10.1146H10.168C9.71683 10.1146 9.35116 10.4803 9.35116 10.9314V15.4238H8.70355C8.38459 15.4238 8.12598 15.6823 8.12598 16.0013C8.12598 16.1545 8.18683 16.3014 8.29515 16.4097L10.2876 18.4021C10.4725 18.587 10.7233 18.6909 10.9847 18.6909C11.2462 18.6909 11.497 18.587 11.6819 18.4021L13.6743 16.4097C13.728 16.356 13.7705 16.2924 13.7995 16.2223C13.8286 16.1522 13.8435 16.0771 13.8435 16.0013C13.8435 15.6823 13.5849 15.4238 13.2659 15.4238Z" fill="url(#paint12_linear_4954_25868)"/>
</g>
<defs>
<linearGradient id="paint0_linear_4954_25868" x1="11.5" y1="-1.5" x2="6.44515" y2="5.47347" gradientUnits="userSpaceOnUse">
<stop stop-color="#F4E590"/>
<stop offset="0.520834" stop-color="#EACF32"/>
<stop offset="1" stop-color="#D5B916"/>
</linearGradient>
<linearGradient id="paint1_linear_4954_25868" x1="16" y1="-1.5" x2="12.5" y2="10" gradientUnits="userSpaceOnUse">
<stop stop-color="#D6CD5C"/>
<stop offset="0.526043" stop-color="#CCC033"/>
<stop offset="1" stop-color="#A39A29"/>
</linearGradient>
<linearGradient id="paint2_linear_4954_25868" x1="20.5" y1="1" x2="14.5" y2="11" gradientUnits="userSpaceOnUse">
<stop stop-color="#F4E590"/>
<stop offset="0.520834" stop-color="#EACF32"/>
<stop offset="1" stop-color="#D5B916"/>
</linearGradient>
<linearGradient id="paint3_linear_4954_25868" x1="8" y1="-1.5" x2="11.7133" y2="11" gradientUnits="userSpaceOnUse">
<stop stop-color="#D6CD5C"/>
<stop offset="0.526043" stop-color="#CCC033"/>
<stop offset="1" stop-color="#A39A29"/>
</linearGradient>
<linearGradient id="paint4_linear_4954_25868" x1="12.5" y1="1" x2="6.5" y2="11" gradientUnits="userSpaceOnUse">
<stop stop-color="#F4E590"/>
<stop offset="0.520834" stop-color="#EACF32"/>
<stop offset="1" stop-color="#D5B916"/>
</linearGradient>
<linearGradient id="paint5_linear_4954_25868" x1="3.5" y1="6" x2="18.5" y2="23.5" gradientUnits="userSpaceOnUse">
<stop stop-color="#CE642C"/>
<stop offset="0.552823" stop-color="#A55023"/>
<stop offset="1" stop-color="#7A3B1A"/>
</linearGradient>
<linearGradient id="paint6_linear_4954_25868" x1="8.5" y1="7" x2="10" y2="8.5" gradientUnits="userSpaceOnUse">
<stop stop-color="#CE642C"/>
<stop offset="1" stop-color="#A55023"/>
</linearGradient>
<linearGradient id="paint7_linear_4954_25868" x1="8" y1="9" x2="8.73838" y2="10.1146" gradientUnits="userSpaceOnUse">
<stop stop-color="#CE642C"/>
<stop offset="1" stop-color="#A55023"/>
</linearGradient>
<linearGradient id="paint8_linear_4954_25868" x1="5" y1="9.5" x2="7.51298" y2="11.3398" gradientUnits="userSpaceOnUse">
<stop stop-color="#CE642C"/>
<stop offset="1" stop-color="#A55023"/>
</linearGradient>
<linearGradient id="paint9_linear_4954_25868" x1="0.366343" y1="13.7823" x2="23.2375" y2="13.7823" gradientUnits="userSpaceOnUse">
<stop stop-color="#F08232"/>
<stop offset="1" stop-color="#F7BB90"/>
</linearGradient>
<linearGradient id="paint10_linear_4954_25868" x1="2.1862" y1="14.3801" x2="23.6284" y2="27.759" gradientUnits="userSpaceOnUse">
<stop stop-color="#BF6C0D"/>
<stop offset="0.484374" stop-color="#A75F0B"/>
<stop offset="1" stop-color="#814909"/>
</linearGradient>
<linearGradient id="paint11_linear_4954_25868" x1="11.8015" y1="7.39199" x2="11.257" y2="21.5497" gradientUnits="userSpaceOnUse">
<stop stop-color="#51BCEB"/>
<stop offset="0.5" stop-color="#23AAE6"/>
<stop offset="1" stop-color="#168CC0"/>
</linearGradient>
<linearGradient id="paint12_linear_4954_25868" x1="11.257" y1="6.84746" x2="10.7125" y2="23.7278" gradientUnits="userSpaceOnUse">
<stop stop-color="#8FE4FF"/>
<stop offset="0.515626" stop-color="#5AD7FF"/>
<stop offset="1" stop-color="#29CBFF"/>
</linearGradient>
<clipPath id="clip0_4954_25868">
<rect width="24" height="24" fill="white"/>
</clipPath>
</defs>
</svg>
