<svg width="24" height="24" viewBox="0 0 24 24" fill="none" xmlns="http://www.w3.org/2000/svg">
<g clip-path="url(#clip0_4954_25764)">
<path d="M15.9044 14.5336C19.2207 14.5336 20.6471 14.9728 20.6471 15.6318C20.6471 16.9057 18.2223 16.071 18.2223 17.301C18.2223 18.4903 23.9278 17.6964 23.9991 19.0142C24.0429 19.8224 22.5036 20.0087 20.4688 20.0685C18.2044 20.135 15.5834 19.8049 15.5477 20.8592C15.5106 21.9564 17.83 21.2758 17.83 22.5497C17.83 24.5052 6.17008 24.4613 6.17008 22.5497C6.17008 21.2758 8.48941 21.9564 8.45233 20.8592C8.41666 19.8049 5.79569 20.135 3.53125 20.0685C1.49641 20.0087 -0.0428253 19.8224 0.000909109 19.0142C0.072206 17.6964 5.77783 18.4903 5.77783 17.301C5.77783 16.071 3.35294 16.9057 3.35294 15.6318C3.35294 14.9728 4.77935 14.5336 8.09571 14.5336H15.9044Z" fill="url(#paint0_linear_4954_25764)"/>
<path d="M12.8662 6.95777C12.4813 6.2911 11.5191 6.2911 11.1342 6.95777L8.57908 11.3834C7.05859 14.0169 8.95923 17.3089 12.0002 17.3089C15.0412 17.3089 16.9418 14.0169 15.4213 11.3834L12.8662 6.95777Z" fill="url(#paint1_linear_4954_25764)"/>
<g filter="url(#filter0_f_4954_25764)">
<path d="M11.9999 16.2223C11.9038 16.2223 11.8117 16.1841 11.7438 16.1162C11.6759 16.0483 11.6377 15.9562 11.6377 15.8601C11.6377 15.7641 11.6759 15.6719 11.7438 15.604C11.8117 15.5361 11.9038 15.498 11.9999 15.498C12.7733 15.498 13.466 15.0981 13.8527 14.4282C13.8765 14.387 13.9082 14.3509 13.9459 14.3219C13.9836 14.293 14.0267 14.2717 14.0726 14.2594C14.1186 14.2471 14.1665 14.244 14.2136 14.2502C14.2608 14.2564 14.3063 14.2718 14.3474 14.2956C14.3886 14.3194 14.4247 14.351 14.4537 14.3888C14.4827 14.4265 14.5039 14.4696 14.5162 14.5155C14.5285 14.5614 14.5317 14.6094 14.5254 14.6565C14.5192 14.7037 14.5038 14.7491 14.48 14.7903C13.9623 15.687 13.0352 16.2223 11.9999 16.2223Z" fill="white" fill-opacity="0.5"/>
</g>
<path d="M16.5859 2.44006C16.3935 2.10673 15.9123 2.10673 15.7199 2.44006L14.6265 4.33391C13.948 5.50898 14.7961 6.97776 16.1529 6.97776C17.5098 6.97776 18.3578 5.50893 17.6793 4.33391L16.5859 2.44006Z" fill="url(#paint2_linear_4954_25764)"/>
<path d="M9.92209 0.749999C9.72964 0.416667 9.24851 0.416667 9.05606 0.749999L8.42267 1.84707C7.94871 2.66799 8.54117 3.69413 9.48907 3.69413C10.437 3.69413 11.0294 2.66799 10.5555 1.84707L9.92209 0.749999Z" fill="url(#paint3_linear_4954_25764)"/>
</g>
<defs>
<filter id="filter0_f_4954_25764" x="10.6377" y="13.2471" width="4.89062" height="3.97522" filterUnits="userSpaceOnUse" color-interpolation-filters="sRGB">
<feFlood flood-opacity="0" result="BackgroundImageFix"/>
<feBlend mode="normal" in="SourceGraphic" in2="BackgroundImageFix" result="shape"/>
<feGaussianBlur stdDeviation="0.5" result="effect1_foregroundBlur_4954_25764"/>
</filter>
<linearGradient id="paint0_linear_4954_25764" x1="23" y1="9" x2="4" y2="27.5" gradientUnits="userSpaceOnUse">
<stop stop-color="#BAEEFC"/>
<stop offset="1" stop-color="#8AE2FA"/>
</linearGradient>
<linearGradient id="paint1_linear_4954_25764" x1="11" y1="3" x2="12" y2="22" gradientUnits="userSpaceOnUse">
<stop stop-color="#DFF4FC"/>
<stop offset="0.499225" stop-color="#82D5F2"/>
<stop offset="1" stop-color="#54C6ED"/>
</linearGradient>
<linearGradient id="paint2_linear_4954_25764" x1="15.7066" y1="0.66444" x2="16.143" y2="9.04807" gradientUnits="userSpaceOnUse">
<stop stop-color="#DFF4FC"/>
<stop offset="0.499225" stop-color="#82D5F2"/>
<stop offset="1" stop-color="#54C6ED"/>
</linearGradient>
<linearGradient id="paint3_linear_4954_25764" x1="9.1773" y1="-0.517825" x2="9.45535" y2="5.07668" gradientUnits="userSpaceOnUse">
<stop stop-color="#DFF4FC"/>
<stop offset="0.499225" stop-color="#82D5F2"/>
<stop offset="1" stop-color="#54C6ED"/>
</linearGradient>
<clipPath id="clip0_4954_25764">
<rect width="24" height="24" fill="white"/>
</clipPath>
</defs>
</svg>
