<svg width="14" height="14" viewBox="0 0 14 14" fill="none" xmlns="http://www.w3.org/2000/svg">
<path fill-rule="evenodd" clip-rule="evenodd" d="M8.77342 2.36337C9.36258 2.59787 9.54283 3.41454 9.78375 3.67704C10.0247 3.93954 10.3694 4.02879 10.5602 4.02879C11.574 4.02879 12.3959 4.85071 12.3959 5.86396V9.24437C12.3959 10.6035 11.2934 11.706 9.93425 11.706H4.06591C2.70616 11.706 1.60425 10.6035 1.60425 9.24437V5.86396C1.60425 4.85071 2.42616 4.02879 3.44 4.02879C3.63016 4.02879 3.97491 3.93954 4.21641 3.67704C4.45733 3.41454 4.637 2.59787 5.22617 2.36337C5.81592 2.12887 8.18425 2.12887 8.77342 2.36337Z" stroke="white" stroke-linecap="round" stroke-linejoin="round"/>
<path d="M10.2058 5.54167H10.211" stroke="white" stroke-width="1.5" stroke-linecap="round" stroke-linejoin="round"/>
<path fill-rule="evenodd" clip-rule="evenodd" d="M8.85434 7.65813C8.85434 6.63379 8.02426 5.80371 6.99992 5.80371C5.97559 5.80371 5.14551 6.63379 5.14551 7.65813C5.14551 8.68246 5.97559 9.51254 6.99992 9.51254C8.02426 9.51254 8.85434 8.68246 8.85434 7.65813Z" stroke="white" stroke-linecap="round" stroke-linejoin="round"/>
</svg>
