<svg width="112" height="112" viewBox="0 0 112 112" fill="none" xmlns="http://www.w3.org/2000/svg">
<circle cx="56" cy="56" r="56" fill="url(#paint0_linear_0_106)"/>
<circle cx="56" cy="56" r="44.5" stroke="url(#paint1_linear_0_106)"/>
<path fill-rule="evenodd" clip-rule="evenodd" d="M65.0667 46.394C65.1333 46.5105 65.25 46.5938 65.4 46.5938C69.4 46.5938 72.6667 49.8568 72.6667 53.8524V63.7414C72.6667 67.737 69.4 71 65.4 71H46.6C42.5833 71 39.3333 67.737 39.3333 63.7414V53.8524C39.3333 49.8568 42.5833 46.5938 46.6 46.5938C46.7333 46.5938 46.8667 46.5272 46.9167 46.394L47.0167 46.1942C47.0741 46.0733 47.1331 45.9491 47.193 45.823C47.6193 44.9249 48.091 43.9313 48.3833 43.3474C49.15 41.8491 50.45 41.0166 52.0667 41H59.9167C61.5333 41.0166 62.85 41.8491 63.6167 43.3474C63.8792 43.8718 64.2792 44.7167 64.6646 45.5309C64.7442 45.6988 64.8231 45.8655 64.9 46.0277L65.0667 46.394ZM63.85 52.7869C63.85 53.6193 64.5167 54.2852 65.35 54.2852C66.1833 54.2852 66.8667 53.6193 66.8667 52.7869C66.8667 51.9545 66.1833 51.2719 65.35 51.2719C64.5167 51.2719 63.85 51.9545 63.85 52.7869ZM53.1167 55.3674C53.9 54.5849 54.9167 54.1687 56 54.1687C57.0833 54.1687 58.1 54.5849 58.8667 55.3507C59.6333 56.1165 60.05 57.1321 60.05 58.2142C60.0333 60.4451 58.2333 62.2597 56 62.2597C54.9167 62.2597 53.9 61.8435 53.1333 61.0777C52.3667 60.3119 51.95 59.2963 51.95 58.2142V58.1976C51.9333 57.1487 52.35 56.1332 53.1167 55.3674ZM60.6167 62.8424C59.4333 64.0244 57.8 64.7569 56 64.7569C54.25 64.7569 52.6167 64.0744 51.3667 62.8424C50.1333 61.5938 49.45 59.9623 49.45 58.2142C49.4333 56.4828 50.1167 54.8513 51.35 53.6027C52.6 52.3541 54.25 51.6715 56 51.6715C57.75 51.6715 59.4 52.3541 60.6333 53.586C61.8667 54.8346 62.55 56.4828 62.55 58.2142C62.5333 60.0289 61.8 61.6604 60.6167 62.8424Z" fill="white"/>
<defs>
<linearGradient id="paint0_linear_0_106" x1="119.787" y1="117.6" x2="-8.09424" y2="113.086" gradientUnits="userSpaceOnUse">
<stop stop-color="#28D581"/>
<stop offset="1" stop-color="#33A36D"/>
</linearGradient>
<linearGradient id="paint1_linear_0_106" x1="68" y1="68" x2="68" y2="-163" gradientUnits="userSpaceOnUse">
<stop stop-color="white" stop-opacity="0.2"/>
<stop offset="1" stop-color="white" stop-opacity="0"/>
</linearGradient>
</defs>
</svg>
