<svg width="24" height="24" viewBox="0 0 24 24" fill="none" xmlns="http://www.w3.org/2000/svg">
<g clip-path="url(#clip0_4954_25840)">
<path d="M6.57937 4.41634C6.5021 4.4163 6.4271 4.39017 6.36653 4.34218C6.30596 4.2942 6.26336 4.22718 6.24562 4.15197C6.01262 3.16699 6.11367 2.13249 6.53287 1.21122C6.55062 1.16897 6.57666 1.13071 6.60945 1.0987C6.64224 1.06669 6.68112 1.04158 6.72379 1.02486C6.76645 1.00814 6.81204 1.00014 6.85785 1.00134C6.90365 1.00254 6.94876 1.01291 6.99049 1.03185C7.03222 1.05078 7.06973 1.07789 7.1008 1.11157C7.13187 1.14526 7.15587 1.18483 7.17138 1.22795C7.1869 1.27107 7.1936 1.31686 7.19111 1.36262C7.18862 1.40837 7.17698 1.45317 7.15687 1.49434C6.80073 2.27792 6.71499 3.15762 6.91312 3.99522C6.92486 4.04552 6.9251 4.09783 6.9138 4.14824C6.90251 4.19865 6.87998 4.24585 6.84789 4.28634C6.81581 4.32682 6.775 4.35954 6.7285 4.38205C6.68201 4.40456 6.63103 4.41629 6.57937 4.41634Z" fill="url(#paint0_linear_4954_25840)"/>
<path d="M5.06231 2.20461C5.50443 2.37374 5.85843 2.67336 6.11606 2.99661C6.51243 3.49349 6.68231 4.04661 6.59606 4.27161C6.50831 4.49999 5.99906 4.80336 5.35968 4.90349C4.95843 4.96649 4.50581 4.94961 4.07343 4.78424C3.65681 4.62449 3.31818 4.34886 3.06468 4.04624C2.63681 3.53624 2.45118 2.95049 2.54043 2.71724C2.63231 2.47799 3.18618 2.15661 3.86793 2.07224C4.24593 2.02536 4.66293 2.05124 5.06268 2.20461H5.06231Z" fill="url(#paint1_linear_4954_25840)"/>
<path d="M10.2496 12.858C9.91437 12.9828 9.56058 13.0505 9.20296 13.0582C8.87286 13.0685 8.54818 13.145 8.24821 13.2832C7.82071 13.4805 7.46896 13.5457 7.22221 13.5716C4.20196 13.8772 1.25784 10.4936 1.87321 7.15985C2.34384 4.60985 4.68459 3.8366 6.18009 4.0871C6.31345 4.10942 6.44993 4.10494 6.58154 4.0739C6.71314 4.04287 6.83725 3.98591 6.94659 3.90635C8.17059 3.01498 10.61 2.66173 12.1726 4.73248C14.2088 7.44148 13.0883 11.7829 10.2496 12.858Z" fill="url(#paint2_linear_4954_25840)"/>
<g filter="url(#filter0_f_4954_25840)">
<path d="M3.81347 7.38487C4.23037 7.38487 4.56834 7.0469 4.56834 6.63C4.56834 6.21309 4.23037 5.87512 3.81347 5.87512C3.39656 5.87512 3.05859 6.21309 3.05859 6.63C3.05859 7.0469 3.39656 7.38487 3.81347 7.38487Z" fill="white"/>
</g>
<path d="M17.4191 5.35423C17.3674 5.35424 17.3164 5.34256 17.2699 5.32008C17.2234 5.29759 17.1825 5.26487 17.1504 5.22436C17.1183 5.18386 17.0958 5.13662 17.0845 5.08618C17.0733 5.03575 17.0736 4.98341 17.0854 4.9331C17.1896 4.48985 17.2166 4.03873 17.1641 3.59098C17.1173 3.19023 17.0085 2.79919 16.8416 2.43185C16.8207 2.3906 16.8084 2.34555 16.8054 2.29942C16.8024 2.25329 16.8088 2.20702 16.8241 2.1634C16.8394 2.11979 16.8634 2.07973 16.8946 2.04563C16.9259 2.01153 16.9637 1.9841 17.0057 1.96498C17.0478 1.94587 17.0934 1.93547 17.1396 1.93442C17.1858 1.93336 17.2318 1.94166 17.2747 1.95883C17.3176 1.97599 17.3566 2.00167 17.3894 2.0343C17.4221 2.06694 17.4479 2.10586 17.4653 2.14873C17.6618 2.58069 17.7902 3.04053 17.8459 3.51185C17.9066 4.03873 17.8751 4.56935 17.7529 5.08948C17.7353 5.16482 17.6928 5.23201 17.6322 5.28008C17.5716 5.32816 17.4965 5.35429 17.4191 5.35423Z" fill="url(#paint3_linear_4954_25840)"/>
<path d="M18.9365 3.1425C18.4944 3.31125 18.1404 3.61125 17.8828 3.9345C17.4864 4.431 17.3165 4.9845 17.4028 5.2095C17.4905 5.4375 17.9998 5.74088 18.6392 5.84138C19.0404 5.90438 19.493 5.8875 19.9254 5.72175C20.342 5.562 20.6807 5.28675 20.9342 4.98413C21.3624 4.47413 21.548 3.888 21.4584 3.65475C21.3669 3.4155 20.8127 3.09413 20.1309 3.00975C19.7529 2.96325 19.3359 2.98913 18.9365 3.14213V3.1425Z" fill="url(#paint4_linear_4954_25840)"/>
<path d="M13.7495 13.7959C13.982 13.8829 14.3259 13.9815 14.7961 13.9962C15.125 14.0059 15.4523 14.0832 15.7508 14.2212C16.1783 14.4184 16.5301 14.4837 16.7768 14.5092C19.7971 14.8152 22.7416 11.4315 22.1258 8.0974C21.6552 5.5474 19.3145 4.77415 17.8194 5.02503C17.6859 5.04735 17.5493 5.04282 17.4177 5.01172C17.286 4.98062 17.1618 4.92357 17.0525 4.8439C15.8288 3.9529 13.3895 3.59965 11.8268 5.6704C9.7906 8.37903 10.9107 12.7204 13.7495 13.7959Z" fill="url(#paint5_linear_4954_25840)"/>
<g filter="url(#filter1_f_4954_25840)">
<path d="M13.5547 7.14183C13.9716 7.14183 14.3096 6.80386 14.3096 6.38695C14.3096 5.97005 13.9716 5.63208 13.5547 5.63208C13.1378 5.63208 12.7998 5.97005 12.7998 6.38695C12.7998 6.80386 13.1378 7.14183 13.5547 7.14183Z" fill="white"/>
</g>
<path d="M22.6181 12.2587H1.38184L3.22046 20.2698C3.39776 21.0421 3.83181 21.7315 4.45166 22.2252C5.07152 22.7189 5.84052 22.9878 6.63296 22.9878H17.3666C18.159 22.9878 18.928 22.7189 19.5479 22.2252C20.1677 21.7315 20.6018 21.0421 20.7791 20.2698L22.6181 12.2587Z" fill="url(#paint6_linear_4954_25840)"/>
<path d="M6.3042 14.925H4.98045C4.88954 14.925 4.80236 14.8889 4.73808 14.8246C4.67381 14.7603 4.6377 14.6732 4.6377 14.5823C4.6377 14.4913 4.67381 14.4042 4.73808 14.3399C4.80236 14.2756 4.88954 14.2395 4.98045 14.2395H6.3042C6.3951 14.2395 6.48228 14.2756 6.54656 14.3399C6.61083 14.4042 6.64695 14.4913 6.64695 14.5823C6.64695 14.6732 6.61083 14.7603 6.54656 14.8246C6.48228 14.8889 6.3951 14.925 6.3042 14.925ZM9.82582 14.5823C9.82582 14.4913 9.78971 14.4042 9.72543 14.3399C9.66115 14.2756 9.57397 14.2395 9.48307 14.2395H8.15932C8.06842 14.2395 7.98124 14.2756 7.91696 14.3399C7.85268 14.4042 7.81657 14.4913 7.81657 14.5823C7.81657 14.6732 7.85268 14.7603 7.91696 14.8246C7.98124 14.8889 8.06842 14.925 8.15932 14.925H9.48307C9.57397 14.925 9.66115 14.8889 9.72543 14.8246C9.78971 14.7603 9.82582 14.6732 9.82582 14.5823ZM13.0047 14.5823C13.0047 14.4913 12.9686 14.4042 12.9043 14.3399C12.84 14.2756 12.7528 14.2395 12.6619 14.2395H11.3382C11.2473 14.2395 11.1601 14.2756 11.0958 14.3399C11.0316 14.4042 10.9954 14.4913 10.9954 14.5823C10.9954 14.6732 11.0316 14.7603 11.0958 14.8246C11.1601 14.8889 11.2473 14.925 11.3382 14.925H12.6619C12.7528 14.925 12.84 14.8889 12.9043 14.8246C12.9686 14.7603 13.0047 14.6732 13.0047 14.5823ZM16.1836 14.5823C16.1836 14.4913 16.1475 14.4042 16.0832 14.3399C16.0189 14.2756 15.9317 14.2395 15.8408 14.2395H14.5171C14.4262 14.2395 14.339 14.2756 14.2747 14.3399C14.2104 14.4042 14.1743 14.4913 14.1743 14.5823C14.1743 14.6732 14.2104 14.7603 14.2747 14.8246C14.339 14.8889 14.4262 14.925 14.5171 14.925H15.8408C15.9317 14.925 16.0189 14.8889 16.0832 14.8246C16.1475 14.7603 16.1836 14.6732 16.1836 14.5823ZM19.3624 14.5823C19.3624 14.5372 19.3536 14.4926 19.3363 14.451C19.3191 14.4094 19.2938 14.3716 19.2619 14.3398C19.2301 14.3079 19.1922 14.2827 19.1506 14.2655C19.109 14.2483 19.0644 14.2395 19.0193 14.2395H17.6956C17.6047 14.2395 17.5175 14.2756 17.4532 14.3399C17.3889 14.4042 17.3528 14.4913 17.3528 14.5823C17.3528 14.6732 17.3889 14.7603 17.4532 14.8246C17.5175 14.8889 17.6047 14.925 17.6956 14.925H19.0193C19.0644 14.9251 19.109 14.9162 19.1506 14.899C19.1922 14.8818 19.2301 14.8566 19.2619 14.8247C19.2938 14.7929 19.3191 14.7551 19.3363 14.7135C19.3536 14.6719 19.3624 14.6273 19.3624 14.5823ZM8.2362 17.5549C8.23624 17.5099 8.22743 17.4653 8.21025 17.4237C8.19307 17.3821 8.16786 17.3443 8.13607 17.3124C8.10428 17.2805 8.06652 17.2553 8.02496 17.238C7.98339 17.2207 7.93883 17.2118 7.89382 17.2118H6.57007C6.47912 17.2118 6.39189 17.2479 6.32758 17.3122C6.26326 17.3765 6.22713 17.4637 6.22713 17.5547C6.22713 17.6456 6.26326 17.7329 6.32758 17.7972C6.39189 17.8615 6.47912 17.8976 6.57007 17.8976H7.89382C7.98472 17.8976 8.0719 17.8615 8.13618 17.7972C8.20046 17.733 8.2362 17.6458 8.2362 17.5549ZM11.4154 17.5549C11.4155 17.5098 11.4067 17.4652 11.3894 17.4235C11.3722 17.3819 11.3469 17.344 11.3151 17.3121C11.2832 17.2803 11.2453 17.255 11.2037 17.2378C11.162 17.2205 11.1174 17.2117 11.0723 17.2118H9.74857C9.65762 17.2118 9.57039 17.2479 9.50608 17.3122C9.44176 17.3765 9.40563 17.4637 9.40563 17.5547C9.40563 17.6456 9.44176 17.7329 9.50608 17.7972C9.57039 17.8615 9.65762 17.8976 9.74857 17.8976H11.0723C11.1174 17.8977 11.162 17.8888 11.2036 17.8716C11.2452 17.8544 11.2831 17.8292 11.3149 17.7974C11.3468 17.7655 11.3721 17.7277 11.3893 17.6861C11.4066 17.6445 11.4154 17.5999 11.4154 17.5549ZM14.5943 17.5549C14.5944 17.5098 14.5855 17.4652 14.5683 17.4236C14.5511 17.382 14.5259 17.3441 14.4941 17.3123C14.4622 17.2804 14.4244 17.2551 14.3828 17.2379C14.3412 17.2206 14.2966 17.2118 14.2516 17.2118H12.9278C12.8369 17.2118 12.7496 17.2479 12.6853 17.3122C12.621 17.3765 12.5849 17.4637 12.5849 17.5547C12.5849 17.6456 12.621 17.7329 12.6853 17.7972C12.7496 17.8615 12.8369 17.8976 12.9278 17.8976H14.2516C14.3425 17.8976 14.4297 17.8615 14.4939 17.7972C14.5582 17.733 14.5943 17.6458 14.5943 17.5549ZM17.7732 17.5549C17.7732 17.5098 17.7644 17.4652 17.7472 17.4236C17.73 17.382 17.7048 17.3441 17.6729 17.3123C17.6411 17.2804 17.6033 17.2551 17.5617 17.2379C17.5201 17.2206 17.4755 17.2118 17.4304 17.2118H16.1067C16.0157 17.2118 15.9285 17.2479 15.8642 17.3122C15.7999 17.3765 15.7638 17.4637 15.7638 17.5547C15.7638 17.6456 15.7999 17.7329 15.8642 17.7972C15.9285 17.8615 16.0157 17.8976 16.1067 17.8976H17.4304C17.5213 17.8976 17.6085 17.8615 17.6728 17.7972C17.7371 17.733 17.7732 17.6458 17.7732 17.5549ZM9.82582 20.5271C9.82582 20.4362 9.78971 20.349 9.72543 20.2848C9.66115 20.2205 9.57397 20.1844 9.48307 20.1844H8.15932C8.06837 20.1844 7.98114 20.2205 7.91683 20.2848C7.85251 20.3491 7.81638 20.4364 7.81638 20.5273C7.81638 20.6183 7.85251 20.7055 7.91683 20.7698C7.98114 20.8341 8.06837 20.8703 8.15932 20.8703H9.48307C9.52811 20.8703 9.57271 20.8614 9.61432 20.8441C9.65593 20.8269 9.69373 20.8016 9.72556 20.7697C9.7574 20.7379 9.78264 20.7 9.79984 20.6584C9.81704 20.6168 9.82587 20.5722 9.82582 20.5271ZM13.0047 20.5271C13.0047 20.4362 12.9686 20.349 12.9043 20.2848C12.84 20.2205 12.7528 20.1844 12.6619 20.1844H11.3382C11.2472 20.1844 11.16 20.2205 11.0957 20.2848C11.0314 20.3491 10.9953 20.4364 10.9953 20.5273C10.9953 20.6183 11.0314 20.7055 11.0957 20.7698C11.16 20.8341 11.2472 20.8703 11.3382 20.8703H12.6619C12.707 20.8703 12.7516 20.8614 12.7932 20.8441C12.8348 20.8269 12.8726 20.8016 12.9044 20.7697C12.9363 20.7379 12.9615 20.7 12.9787 20.6584C12.9959 20.6168 13.0047 20.5722 13.0047 20.5271ZM16.1836 20.5271C16.1836 20.4362 16.1475 20.349 16.0832 20.2848C16.0189 20.2205 15.9317 20.1844 15.8408 20.1844H14.5171C14.4261 20.1844 14.3389 20.2205 14.2746 20.2848C14.2103 20.3491 14.1741 20.4364 14.1741 20.5273C14.1741 20.6183 14.2103 20.7055 14.2746 20.7698C14.3389 20.8341 14.4261 20.8703 14.5171 20.8703H15.8408C15.8859 20.8703 15.9305 20.8614 15.9721 20.8441C16.0137 20.8269 16.0515 20.8016 16.0833 20.7697C16.1151 20.7379 16.1404 20.7 16.1576 20.6584C16.1748 20.6168 16.1836 20.5722 16.1836 20.5271Z" fill="url(#paint7_linear_4954_25840)"/>
<path d="M23.0565 12.2587H0.942375C0.692507 12.2587 0.452867 12.1595 0.276148 11.9828C0.099429 11.8062 9.94303e-05 11.5666 0 11.3167L0 9.86584C0 9.6159 0.0992856 9.37621 0.276015 9.19948C0.452745 9.02275 0.692442 8.92346 0.942375 8.92346H23.0565C23.3064 8.92346 23.5461 9.02275 23.7229 9.19948C23.8996 9.37621 23.9989 9.6159 23.9989 9.86584V11.3167C23.9988 11.5666 23.8994 11.8062 23.7227 11.9828C23.546 12.1595 23.3064 12.2587 23.0565 12.2587Z" fill="url(#paint8_linear_4954_25840)"/>
</g>
<defs>
<filter id="filter0_f_4954_25840" x="1.05859" y="3.87512" width="5.50977" height="5.50977" filterUnits="userSpaceOnUse" color-interpolation-filters="sRGB">
<feFlood flood-opacity="0" result="BackgroundImageFix"/>
<feBlend mode="normal" in="SourceGraphic" in2="BackgroundImageFix" result="shape"/>
<feGaussianBlur stdDeviation="1" result="effect1_foregroundBlur_4954_25840"/>
</filter>
<filter id="filter1_f_4954_25840" x="10.7998" y="3.63208" width="5.50977" height="5.50977" filterUnits="userSpaceOnUse" color-interpolation-filters="sRGB">
<feFlood flood-opacity="0" result="BackgroundImageFix"/>
<feBlend mode="normal" in="SourceGraphic" in2="BackgroundImageFix" result="shape"/>
<feGaussianBlur stdDeviation="1" result="effect1_foregroundBlur_4954_25840"/>
</filter>
<linearGradient id="paint0_linear_4954_25840" x1="6.5" y1="1" x2="6.65733" y2="4.41634" gradientUnits="userSpaceOnUse">
<stop stop-color="#C27C5B"/>
<stop offset="0.494791" stop-color="#AD6340"/>
<stop offset="1" stop-color="#864D32"/>
</linearGradient>
<linearGradient id="paint1_linear_4954_25840" x1="2" y1="3" x2="7.5" y2="5.5" gradientUnits="userSpaceOnUse">
<stop stop-color="#95E076"/>
<stop offset="0.505209" stop-color="#75D64C"/>
<stop offset="1" stop-color="#59C32D"/>
</linearGradient>
<linearGradient id="paint2_linear_4954_25840" x1="1" y1="3.5" x2="15.5" y2="14.5" gradientUnits="userSpaceOnUse">
<stop stop-color="#F9807B"/>
<stop offset="0.53646" stop-color="#F7524B"/>
<stop offset="1" stop-color="#F5221A"/>
</linearGradient>
<linearGradient id="paint3_linear_4954_25840" x1="17.1826" y1="1.9331" x2="17.34" y2="5.35424" gradientUnits="userSpaceOnUse">
<stop stop-color="#C27C5B"/>
<stop offset="0.494791" stop-color="#AD6340"/>
<stop offset="1" stop-color="#864D32"/>
</linearGradient>
<linearGradient id="paint4_linear_4954_25840" x1="21.5" y1="3" x2="17" y2="6.00002" gradientUnits="userSpaceOnUse">
<stop stop-color="#95E076"/>
<stop offset="0.505209" stop-color="#75D64C"/>
<stop offset="1" stop-color="#59C32D"/>
</linearGradient>
<linearGradient id="paint5_linear_4954_25840" x1="9.99611" y1="4.43786" x2="24.4958" y2="15.4377" gradientUnits="userSpaceOnUse">
<stop stop-color="#F9807B"/>
<stop offset="0.53646" stop-color="#F7524B"/>
<stop offset="1" stop-color="#F5221A"/>
</linearGradient>
<linearGradient id="paint6_linear_4954_25840" x1="-0.500001" y1="11.5" x2="26" y2="29.5" gradientUnits="userSpaceOnUse">
<stop stop-color="#BF6C0D"/>
<stop offset="0.484374" stop-color="#A75F0B"/>
<stop offset="1" stop-color="#814909"/>
</linearGradient>
<linearGradient id="paint7_linear_4954_25840" x1="-1.5" y1="-2.77865e-07" x2="21" y2="32.5" gradientUnits="userSpaceOnUse">
<stop stop-color="white"/>
<stop offset="1" stop-color="white" stop-opacity="0.2"/>
</linearGradient>
<linearGradient id="paint8_linear_4954_25840" x1="-2" y1="11" x2="26" y2="11" gradientUnits="userSpaceOnUse">
<stop stop-color="#F08232"/>
<stop offset="1" stop-color="#F7BB90"/>
</linearGradient>
<clipPath id="clip0_4954_25840">
<rect width="24" height="24" fill="white"/>
</clipPath>
</defs>
</svg>
