<svg width="74" height="74" viewBox="0 0 74 74" fill="none" xmlns="http://www.w3.org/2000/svg">
<g clip-path="url(#clip0_828_5552)">
<rect x="2" y="2" width="70" height="70" rx="22" fill="url(#paint0_linear_828_5552)"/>
<circle cx="37" cy="111" r="75" fill="url(#paint1_linear_828_5552)"/>
<path fill-rule="evenodd" clip-rule="evenodd" d="M30.3333 23.8333C30.3333 23.097 29.7364 22.5 29 22.5C28.2636 22.5 27.6667 23.097 27.6667 23.8333V24.7823C28.1812 24.6109 28.7367 24.4896 29.3351 24.4027C29.6506 24.3568 29.9831 24.3199 30.3333 24.2901V23.8333ZM46.3333 24.7823C45.8188 24.6109 45.2633 24.4896 44.6649 24.4027C44.3495 24.3568 44.0169 24.3199 43.6667 24.2901V23.8333C43.6667 23.097 44.2636 22.5 45 22.5C45.7364 22.5 46.3333 23.097 46.3333 23.8333V24.7823Z" fill="#3592AC"/>
<path d="M38.3477 24.1667C40.966 24.1667 43.0409 24.1666 44.6649 24.4027C46.3429 24.6466 47.6839 25.1601 48.7313 26.2925C49.7685 27.4138 50.2296 28.8306 50.4504 30.606C50.6667 32.3458 50.6667 34.5754 50.6667 37.4202V38.2466C50.6667 41.0914 50.6667 43.321 50.4504 45.0607C50.2296 46.8362 49.7685 48.253 48.7313 49.3742C47.6839 50.5066 46.3429 51.0202 44.6649 51.264C43.0409 51.5 40.966 51.5 38.3477 51.5H35.6523C33.0341 51.5 30.9591 51.5 29.335 51.264C27.657 51.0202 26.3162 50.5066 25.2687 49.3742C24.2315 48.253 23.7705 46.8362 23.5497 45.0607C23.3333 43.321 23.3333 41.0914 23.3333 38.2467V37.42C23.3333 34.5754 23.3333 32.3458 23.5497 30.606C23.7705 28.8306 24.2315 27.4138 25.2687 26.2925C26.3162 25.1601 27.657 24.6466 29.335 24.4027C30.9591 24.1666 33.034 24.1667 35.6523 24.1667H38.3477Z" fill="url(#paint2_linear_828_5552)"/>
<path fill-rule="evenodd" clip-rule="evenodd" d="M33.8 37.1667C34.8309 37.1667 35.6667 38.0024 35.6667 39.0334V43.8334C35.6667 44.5698 35.0697 45.1667 34.3333 45.1667C33.597 45.1667 33 44.5698 33 43.8334L33 39.8334C32.2636 39.8334 31.6667 39.2364 31.6667 38.5C31.6667 37.7636 32.2636 37.1667 33 37.1667H33.8Z" fill="#B0DCE8"/>
<path d="M37 38.5C37 37.7636 37.5969 37.1667 38.3333 37.1667H40.6276C41.6907 37.1667 42.6779 38.2194 42.2289 39.4294L40.4229 44.2972C40.1668 44.9875 39.3995 45.3396 38.7091 45.0835C38.0187 44.8272 37.6667 44.06 37.9228 43.3696L39.2348 39.8334H38.3333C37.5969 39.8334 37 39.2364 37 38.5Z" fill="#B0DCE8"/>
<path fill-rule="evenodd" clip-rule="evenodd" d="M27.6667 31.8333C27.6667 31.097 28.2636 30.5 29 30.5H45C45.7364 30.5 46.3333 31.097 46.3333 31.8333C46.3333 32.5697 45.7364 33.1667 45 33.1667H29C28.2636 33.1667 27.6667 32.5697 27.6667 31.8333Z" fill="#B0DCE8"/>
</g>
<rect x="1" y="1" width="72" height="72" rx="23" stroke="white" stroke-width="2"/>
<defs>
<linearGradient id="paint0_linear_828_5552" x1="37" y1="72" x2="37" y2="2" gradientUnits="userSpaceOnUse">
<stop stop-color="#BCE1EB"/>
<stop offset="1" stop-color="#E4F3F7"/>
</linearGradient>
<linearGradient id="paint1_linear_828_5552" x1="37" y1="27" x2="37" y2="77" gradientUnits="userSpaceOnUse">
<stop stop-color="white" stop-opacity="0"/>
<stop offset="1" stop-color="white"/>
</linearGradient>
<linearGradient id="paint2_linear_828_5552" x1="37" y1="24.1667" x2="37" y2="51.5" gradientUnits="userSpaceOnUse">
<stop stop-color="#62B8D0"/>
<stop offset="1" stop-color="#379DB9"/>
</linearGradient>
<clipPath id="clip0_828_5552">
<rect x="2" y="2" width="70" height="70" rx="22" fill="white"/>
</clipPath>
</defs>
</svg>
