<svg width="24" height="24" viewBox="0 0 24 24" fill="none" xmlns="http://www.w3.org/2000/svg">
<g clip-path="url(#clip0_4954_25747)">
<path d="M10.1176 24.0001H9.01251C8.90301 24.0001 8.79798 23.9566 8.72055 23.8792C8.64311 23.8017 8.59961 23.6967 8.59961 23.5872V21.3275H10.5305V23.5872C10.5305 23.6967 10.487 23.8017 10.4095 23.8792C10.3321 23.9566 10.2271 24.0001 10.1176 24.0001ZM14.8849 24.0001H13.7799C13.6704 24.0001 13.5653 23.9566 13.4879 23.8792C13.4105 23.8017 13.367 23.6967 13.367 23.5872V21.3275H15.2978V23.5872C15.2978 23.6967 15.2543 23.8017 15.1769 23.8792C15.0994 23.9566 14.9944 24.0001 14.8849 24.0001Z" fill="url(#paint0_linear_4954_25747)"/>
<path d="M14.5947 10.5063C14.5945 10.4385 14.5944 10.3702 14.5937 10.3031C14.1575 10.1456 13.8441 9.722 13.8441 9.22243C13.8441 8.82667 14.0409 8.47828 14.3397 8.27239V8.08369C14.0409 7.87766 13.8441 7.52947 13.8441 7.1335C13.8441 6.86676 13.9339 6.62201 14.0835 6.42764C14.1236 6.37561 14.1109 6.30082 14.0556 6.26634C13.7319 6.06516 13.5153 5.70221 13.5153 5.28714C13.5153 5.0204 13.6044 4.77524 13.754 4.58045C13.794 4.52822 13.7813 4.45364 13.726 4.41937C13.4026 4.21797 13.1865 3.85544 13.1865 3.44053C13.1865 3.25043 13.2324 3.0718 13.3127 2.91407C13.3405 2.85946 13.3212 2.79294 13.2685 2.7629C12.9254 2.56656 12.6933 2.19216 12.6933 1.76191C12.6933 1.66452 12.7058 1.57017 12.7286 1.48005C12.7389 1.43954 12.7199 1.38612 12.6863 1.36232C12.3929 1.15546 12.2002 0.810682 12.2002 0.419144C12.2002 0.353234 12.2069 0.288925 12.2173 0.226008C12.1877 0.182423 12.1575 0.13927 12.1266 0.0965624C12.1056 0.0673493 12.0853 0.0449492 12.0661 0.0290008C12.0522 0.00706519 12.0332 -0.00263808 12.0109 0.000613545C11.9883 -0.00263808 11.9693 0.00706519 11.9554 0.0290008C11.9363 0.0450008 11.9159 0.0673493 11.895 0.096614C11.8671 0.135066 11.8366 0.178214 11.8042 0.226008C11.8153 0.289803 11.821 0.354403 11.8214 0.419144C11.8214 0.810682 11.6286 1.15546 11.3353 1.36232C11.3016 1.38606 11.2826 1.43954 11.2929 1.48C11.3163 1.57215 11.3282 1.66684 11.3282 1.76191C11.3282 2.19216 11.0961 2.56656 10.753 2.7629C10.7004 2.79294 10.681 2.85946 10.7088 2.91412C10.7921 3.07712 10.8353 3.25757 10.8351 3.44058C10.8351 3.85544 10.6187 4.21797 10.2955 4.41937C10.2403 4.45364 10.2276 4.52827 10.2673 4.58045C10.4229 4.78315 10.5068 5.03166 10.5062 5.28714C10.5062 5.70221 10.2895 6.06516 9.96591 6.26634C9.91043 6.30082 9.89778 6.37561 9.93789 6.42764C10.0937 6.62989 10.178 6.87817 10.1774 7.1335C10.1774 7.52947 9.98062 7.87766 9.68183 8.08369V8.27239C9.98062 8.47828 10.1774 8.82667 10.1774 9.22243C10.1774 9.72205 9.86408 10.1456 9.42759 10.3031C9.42697 10.3704 9.42697 10.4385 9.42656 10.5063H9.42578V12.1849H14.5958V10.5063H14.5947Z" fill="url(#paint1_linear_4954_25747)"/>
<path d="M11.1923 10.9043C11.2181 10.8418 11.2437 10.7787 11.2695 10.7168C11.7318 10.742 12.18 10.473 12.3674 10.0113C12.4377 9.83772 12.4652 9.64969 12.4475 9.46319C12.4298 9.27669 12.3674 9.09721 12.2655 8.93996L12.3361 8.76555C12.6893 8.69216 13.0018 8.4472 13.1502 8.08147C13.2464 7.84436 13.2616 7.58216 13.1936 7.33551C13.176 7.27182 13.2158 7.20766 13.2798 7.1976C13.6542 7.13814 13.9903 6.88751 14.146 6.50407C14.2424 6.26697 14.2579 6.00471 14.1901 5.7579C14.1728 5.69442 14.2127 5.63026 14.2764 5.61999C14.6506 5.56028 14.9863 5.3099 15.1418 4.92662C15.2107 4.75696 15.2383 4.57336 15.2224 4.39093C15.2172 4.32966 15.2601 4.27583 15.3199 4.26861C15.7105 4.22138 16.0653 3.96595 16.2264 3.56858C16.2621 3.48048 16.2867 3.3883 16.2996 3.29415C16.3053 3.25286 16.3428 3.2109 16.3829 3.20202C16.7313 3.12563 17.0388 2.88248 17.1855 2.52073C17.2103 2.45967 17.2281 2.39778 17.242 2.33549C17.2857 2.30675 17.3298 2.27872 17.3745 2.25141C17.4049 2.23267 17.4319 2.21993 17.4555 2.2127C17.4766 2.19778 17.4976 2.19618 17.5174 2.20805C17.5394 2.21373 17.5532 2.23004 17.5579 2.25605C17.5694 2.27825 17.5799 2.30664 17.5883 2.34194C17.5996 2.38829 17.6116 2.44011 17.6236 2.49698C17.5895 2.55168 17.5599 2.60914 17.5353 2.66875C17.3885 3.03046 17.4375 3.42437 17.6309 3.73007C17.6533 3.76517 17.6506 3.82179 17.6261 3.85524C17.5699 3.93144 17.5234 4.01435 17.4877 4.10205C17.4112 4.29064 17.3854 4.49597 17.4128 4.69764C17.4402 4.89931 17.5199 5.0903 17.644 5.25163C17.662 5.27481 17.6704 5.30402 17.6674 5.33323C17.6645 5.36243 17.6505 5.38939 17.6282 5.40853C17.49 5.52692 17.3824 5.67682 17.3143 5.84559C17.2405 6.02749 17.2139 6.22508 17.2369 6.42002C17.2599 6.61497 17.3317 6.80095 17.4458 6.96069C17.4548 6.97319 17.461 6.98744 17.4642 7.00251C17.4673 7.01759 17.4673 7.03315 17.464 7.0482C17.4608 7.06325 17.4544 7.07746 17.4453 7.08989C17.4362 7.10232 17.4247 7.11271 17.4113 7.12039C17.2002 7.24178 17.0259 7.43347 16.9258 7.67987C16.7702 8.06351 16.8343 8.48349 17.0581 8.7958C17.0672 8.80831 17.0735 8.82258 17.0766 8.83769C17.0798 8.8528 17.0797 8.8684 17.0764 8.88349C17.0732 8.89857 17.0668 8.91279 17.0576 8.92524C17.0485 8.93768 17.0368 8.94806 17.0234 8.9557C16.8121 9.07683 16.6375 9.26796 16.5375 9.51436C16.4672 9.68797 16.4397 9.876 16.4574 10.0625C16.4751 10.249 16.5375 10.4285 16.6393 10.5857C16.603 10.675 16.6048 10.6708 16.5686 10.7601C16.2153 10.8335 15.9031 11.0785 15.7547 11.4442C15.5676 11.9059 15.6982 12.4196 16.0424 12.7357C16.0177 12.798 15.9924 12.8612 15.9672 12.9236L15.968 12.924L15.3387 14.4748L10.5625 12.4547L11.1917 10.9039L11.1923 10.9043Z" fill="url(#paint2_linear_4954_25747)"/>
<path d="M16.8637 13.8301C16.9102 13.7819 16.9576 13.7337 17.0036 13.6857C16.804 13.2592 16.876 12.7333 17.2218 12.3801C17.4959 12.1002 17.8762 11.996 18.2302 12.0662L18.3609 11.9327C18.2921 11.5712 18.3943 11.1829 18.6683 10.9031C18.8442 10.7225 19.0766 10.6074 19.3268 10.5769C19.3911 10.569 19.4339 10.5069 19.4185 10.4426C19.329 10.0666 19.4272 9.65368 19.7147 9.36016C19.8994 9.17141 20.1324 9.06255 20.373 9.03272C20.4371 9.02483 20.4798 8.96273 20.4645 8.89863C20.3754 8.52284 20.4736 8.11034 20.7609 7.81697C20.8871 7.68779 21.0428 7.59132 21.2147 7.53594C21.2722 7.51736 21.3046 7.4563 21.2883 7.397C21.1815 7.01073 21.2768 6.57826 21.5746 6.27405C21.6404 6.20693 21.7145 6.14845 21.795 6.10001C21.8303 6.07885 21.8538 6.02744 21.8464 5.98631C21.7823 5.62827 21.8847 5.2454 22.1558 4.96839C22.2009 4.92296 22.2497 4.8814 22.3018 4.84416C22.3119 4.78692 22.3204 4.73448 22.3272 4.6871C22.3324 4.65149 22.3339 4.62104 22.3313 4.59601C22.3367 4.5702 22.33 4.54961 22.3119 4.53572C22.298 4.51714 22.278 4.51033 22.2528 4.51595C22.2284 4.51337 22.1986 4.51456 22.1635 4.51998C22.1171 4.52705 22.0657 4.53572 22.0097 4.54599C21.9734 4.599 21.9326 4.64884 21.8879 4.695C21.6167 4.9718 21.2417 5.07642 20.8911 5.01087C20.8508 5.00344 20.8004 5.02744 20.7796 5.06352C20.7325 5.14532 20.6753 5.22085 20.6093 5.28834C20.3113 5.59255 19.8879 5.68974 19.5094 5.58089C19.4514 5.56416 19.3917 5.5972 19.3734 5.65588C19.32 5.83015 19.2255 5.98906 19.098 6.11921C18.8107 6.41274 18.4069 6.51292 18.0387 6.42182C17.9758 6.40634 17.9151 6.44985 17.9074 6.51534C17.8784 6.76113 17.7715 6.99901 17.5869 7.18755C17.2994 7.48108 16.895 7.58131 16.5267 7.49001C16.4637 7.47421 16.403 7.51798 16.3951 7.58374C16.3663 7.82947 16.2604 8.0672 16.0758 8.25589C15.8016 8.53574 15.4213 8.63995 15.0673 8.5698C15.0004 8.63814 15.0034 8.63494 14.9367 8.70328C15.0052 9.06477 14.9032 9.45306 14.629 9.73311C14.4665 9.90027 14.2554 10.0118 14.0258 10.0518C13.7962 10.0919 13.5598 10.0583 13.3504 9.95593C13.3034 10.0029 13.2562 10.051 13.2091 10.0989L13.2084 10.0982L12.0459 11.2851L15.7016 15.0178L16.8641 13.8309L16.8637 13.8301Z" fill="url(#paint3_linear_4954_25747)"/>
<path d="M12.9287 10.9043C12.9031 10.8418 12.8775 10.7787 12.8517 10.7168C12.3894 10.742 11.9413 10.473 11.7539 10.0113C11.6834 9.83774 11.6559 9.6497 11.6736 9.46318C11.6913 9.27666 11.7538 9.09717 11.8557 8.93996L11.785 8.76555C11.4317 8.69216 11.1194 8.4472 10.971 8.08147C10.8749 7.84436 10.8597 7.58216 10.9277 7.33551C10.9452 7.27182 10.9055 7.20766 10.8414 7.1976C10.467 7.13814 10.1309 6.88751 9.97527 6.50407C9.87883 6.267 9.86322 6.00474 9.93088 5.7579C9.94843 5.69442 9.90853 5.63026 9.84469 5.61999C9.47065 5.56028 9.13501 5.3099 8.9795 4.92662C8.91054 4.75697 8.88283 4.57337 8.89867 4.39093C8.90388 4.32966 8.86115 4.27583 8.80128 4.26861C8.41077 4.22138 8.05593 3.96595 7.89485 3.56858C7.85909 3.48051 7.83451 3.38832 7.82166 3.29415C7.81598 3.25286 7.77851 3.2109 7.73836 3.20202C7.38981 3.12563 7.08251 2.88248 6.93577 2.52073C6.911 2.45967 6.89319 2.39778 6.8791 2.33549C6.83545 2.3068 6.79136 2.27877 6.74687 2.25141C6.71642 2.23267 6.68937 2.21993 6.66584 2.2127C6.64467 2.19778 6.62346 2.19618 6.6039 2.20805C6.58191 2.21373 6.56803 2.23004 6.56338 2.25605C6.55167 2.27825 6.5414 2.30664 6.53293 2.34194C6.52163 2.38829 6.50971 2.44011 6.49763 2.49698C6.53165 2.55173 6.56112 2.60918 6.58573 2.66875C6.73252 3.03046 6.68374 3.42437 6.4902 3.73007C6.468 3.76517 6.47043 3.82179 6.49505 3.85524C6.55139 3.93134 6.59786 4.01427 6.63337 4.10205C6.70998 4.29063 6.73586 4.49598 6.70844 4.69767C6.68102 4.89936 6.60126 5.09035 6.47709 5.25163C6.45911 5.27484 6.45074 5.30406 6.45371 5.33327C6.45668 5.36247 6.47076 5.38942 6.49303 5.40853C6.63123 5.52692 6.7389 5.67682 6.80695 5.84559C6.88075 6.0275 6.90738 6.22511 6.88436 6.42006C6.86134 6.61501 6.78942 6.80098 6.67528 6.96069C6.66631 6.9732 6.66006 6.98745 6.65692 7.00252C6.65379 7.01758 6.65385 7.03314 6.6571 7.04819C6.66035 7.06323 6.66671 7.07743 6.67578 7.08986C6.68485 7.1023 6.69643 7.1127 6.70976 7.12039C6.92086 7.24178 7.09541 7.43347 7.19523 7.67987C7.3509 8.06351 7.28674 8.48349 7.06315 8.7958C7.05413 8.80831 7.04783 8.82257 7.04468 8.83766C7.04152 8.85276 7.04156 8.86835 7.04481 8.88342C7.04806 8.89849 7.05445 8.91272 7.06354 8.92517C7.07264 8.93762 7.08426 8.94802 7.09763 8.9557C7.30893 9.07683 7.48354 9.26796 7.58352 9.51436C7.7319 9.88009 7.6807 10.2786 7.48194 10.5857C7.51802 10.675 7.51642 10.6708 7.5525 10.7601C7.90574 10.8335 8.2182 11.0785 8.36644 11.4442C8.55369 11.9059 8.42306 12.4196 8.07869 12.7357C8.10331 12.798 8.12891 12.8612 8.1541 12.9236L8.15333 12.924L8.78249 14.4748L13.5588 12.4547L12.9296 10.9039L12.9287 10.9043Z" fill="url(#paint4_linear_4954_25747)"/>
<path d="M10.8117 10.0987C10.7646 10.0509 10.7172 10.0027 10.6702 9.95555C10.4609 10.058 10.2245 10.0916 9.99484 10.0516C9.76523 10.0115 9.55414 9.89994 9.39176 9.73273C9.1176 9.45273 9.0154 9.0644 9.08415 8.7031L8.95346 8.56963C8.59945 8.63983 8.21922 8.53536 7.945 8.25552C7.76032 8.06702 7.65426 7.82909 7.62546 7.58351C7.61777 7.5176 7.55712 7.47409 7.494 7.48958C7.12584 7.58114 6.7214 7.4809 6.43371 7.18738C6.24904 6.99868 6.14241 6.76075 6.1132 6.51517C6.10545 6.44962 6.04481 6.40591 5.98189 6.42165C5.79428 6.46816 5.59776 6.4647 5.41191 6.4116C5.22606 6.35851 5.05736 6.25764 4.92264 6.11904C4.7952 5.98877 4.70077 5.82991 4.64723 5.65571C4.62906 5.59687 4.56919 5.56379 4.51133 5.58051C4.1327 5.68957 3.70911 5.59223 3.4113 5.28817C3.34536 5.22056 3.28815 5.14496 3.24098 5.06314C3.22018 5.02706 3.16975 5.00311 3.12949 5.01075C2.77888 5.0763 2.40381 4.97142 2.13269 4.69462C2.08793 4.6485 2.04718 4.59865 2.01088 4.54561C1.95488 4.53534 1.90347 4.52688 1.85707 4.5196C1.82198 4.51439 1.79214 4.51315 1.76778 4.51558C1.74254 4.5099 1.72262 4.51702 1.70869 4.53555C1.69057 4.54949 1.68391 4.57003 1.68933 4.59563C1.68691 4.62061 1.68814 4.65106 1.69336 4.68698C1.70022 4.73436 1.70869 4.7866 1.71875 4.84404C1.77087 4.8812 1.81972 4.92274 1.86476 4.96822C2.13589 5.24502 2.23834 5.62789 2.17424 5.98598C2.16675 6.02707 2.19034 6.07868 2.22564 6.09989C2.30618 6.14829 2.38024 6.20674 2.44603 6.27383C2.74379 6.57788 2.83917 7.01035 2.73228 7.39683C2.71597 7.45613 2.74843 7.51724 2.80588 7.53577C2.97779 7.59107 3.13359 7.68755 3.25971 7.8168C3.54699 8.11017 3.64521 8.52267 3.55587 8.89846C3.54054 8.96256 3.58327 9.02471 3.64764 9.03255C3.88815 9.06238 4.12119 9.17123 4.3057 9.35978C4.59339 9.6533 4.69136 10.0664 4.60186 10.4422C4.58653 10.5065 4.62927 10.5687 4.69378 10.5765C4.9343 10.6059 5.16718 10.7142 5.35206 10.9027C5.62628 11.1828 5.72832 11.5711 5.65952 11.9324C5.72646 12.0007 5.72341 11.9975 5.79015 12.0658C6.14421 11.9959 6.52445 12.1001 6.79867 12.3799C7.14458 12.7332 7.21658 13.259 7.01699 13.6854C7.06293 13.7334 7.11015 13.7818 7.15686 13.8297L7.1563 13.8304L8.31862 15.0172L11.9743 11.2846L10.812 10.0977L10.8117 10.0987Z" fill="url(#paint5_linear_4954_25747)"/>
<path d="M16.5761 22.6638H7.56094C7.04378 22.6638 6.6063 22.2809 6.53771 21.7684L5.16016 11.473H18.8598L17.6007 21.7567C17.5374 22.2747 17.0977 22.6638 16.5761 22.6638Z" fill="url(#paint6_linear_4954_25747)"/>
<path d="M19.7145 12.5135H4.30715C4.02209 12.5135 3.79102 12.2825 3.79102 11.9974V10.7915C3.79102 10.5064 4.02209 10.2754 4.30715 10.2754H19.7145C19.9994 10.2754 20.2306 10.5064 20.2306 10.7915V11.9974C20.2306 12.2825 19.9995 12.5135 19.7145 12.5135Z" fill="url(#paint7_linear_4954_25747)"/>
</g>
<defs>
<linearGradient id="paint0_linear_4954_25747" x1="13" y1="33" x2="12.5" y2="18.5" gradientUnits="userSpaceOnUse">
<stop stop-color="#D0792A"/>
<stop offset="0.526043" stop-color="#A56021"/>
<stop offset="1" stop-color="#7B4819"/>
</linearGradient>
<linearGradient id="paint1_linear_4954_25747" x1="11.3645" y1="-2.03082" x2="4.42817" y2="7.10444" gradientUnits="userSpaceOnUse">
<stop stop-color="#F4E590"/>
<stop offset="0.520834" stop-color="#EACF32"/>
<stop offset="1" stop-color="#D5B916"/>
</linearGradient>
<linearGradient id="paint2_linear_4954_25747" x1="17.668" y1="-0.868467" x2="13.8756" y2="13.558" gradientUnits="userSpaceOnUse">
<stop stop-color="#D6CD5C"/>
<stop offset="0.526043" stop-color="#CCC033"/>
<stop offset="1" stop-color="#A39A29"/>
</linearGradient>
<linearGradient id="paint3_linear_4954_25747" x1="22.976" y1="1.8881" x2="15.022" y2="14.8716" gradientUnits="userSpaceOnUse">
<stop stop-color="#F4E590"/>
<stop offset="0.520834" stop-color="#EACF32"/>
<stop offset="1" stop-color="#D5B916"/>
</linearGradient>
<linearGradient id="paint4_linear_4954_25747" x1="6.45312" y1="-0.868467" x2="10.4727" y2="14.7975" gradientUnits="userSpaceOnUse">
<stop stop-color="#D6CD5C"/>
<stop offset="0.526043" stop-color="#CCC033"/>
<stop offset="1" stop-color="#A39A29"/>
</linearGradient>
<linearGradient id="paint5_linear_4954_25747" x1="12.6172" y1="1.88778" x2="4.66318" y2="14.8709" gradientUnits="userSpaceOnUse">
<stop stop-color="#F4E590"/>
<stop offset="0.520834" stop-color="#EACF32"/>
<stop offset="1" stop-color="#D5B916"/>
</linearGradient>
<linearGradient id="paint6_linear_4954_25747" x1="3.94617" y1="10.6817" x2="25.1811" y2="19.6026" gradientUnits="userSpaceOnUse">
<stop stop-color="#BF6C0D"/>
<stop offset="0.484374" stop-color="#A75F0B"/>
<stop offset="1" stop-color="#814909"/>
</linearGradient>
<linearGradient id="paint7_linear_4954_25747" x1="2.42098" y1="11.6689" x2="21.6014" y2="11.6689" gradientUnits="userSpaceOnUse">
<stop stop-color="#F08232"/>
<stop offset="1" stop-color="#F7BB90"/>
</linearGradient>
<clipPath id="clip0_4954_25747">
<rect width="24" height="24" fill="white"/>
</clipPath>
</defs>
</svg>
