<svg width="24" height="24" viewBox="0 0 24 24" fill="none" xmlns="http://www.w3.org/2000/svg">
<path d="M8.24805 3.66687H21.3982V20.3237H8.24805V3.66687Z" fill="url(#paint0_linear_4954_25786)"/>
<path d="M20.0816 11.6005C20.0816 14.5056 17.7268 16.8606 14.8216 16.8606C11.9165 16.8606 9.56152 14.5056 9.56152 11.6005C9.56152 8.69547 11.9165 6.34045 14.8216 6.34045C17.7268 6.34045 20.0816 8.69551 20.0816 11.6005Z" fill="url(#paint1_linear_4954_25786)"/>
<path d="M21.5603 1.93591H8.0836C7.75678 1.93591 7.54479 2.28075 7.69256 2.57238L8.24684 3.66647H21.397L21.9514 2.57238C22.099 2.28075 21.8872 1.93591 21.5603 1.93591ZM8.08364 22.0541H21.5604C21.887 22.0541 22.099 21.7094 21.9512 21.4178L21.397 20.3235H8.24684L7.69234 21.4179C7.54475 21.7095 7.75673 22.0542 8.0836 22.0542L8.08364 22.0541Z" fill="url(#paint2_linear_4954_25786)"/>
<path d="M6.41211 10.86H7.19152V20.1677H6.41215L6.41211 10.86Z" fill="url(#paint3_linear_4954_25786)"/>
<path d="M7.18583 13.3467C11.4824 12.9594 11.1245 9.65649 10.9048 8.62451C10.8677 8.45018 10.642 8.37772 10.4069 8.46438C8.98709 8.98785 4.57684 10.858 6.74561 13.2106C6.84046 13.3135 7.0019 13.3633 7.18583 13.3467Z" fill="url(#paint4_linear_4954_25786)"/>
<path d="M6.42295 13.4744C1.35466 12.6251 2.07893 8.73436 2.43337 7.52858C2.49329 7.32484 2.76795 7.25922 3.03915 7.38353C4.67832 8.13388 9.74709 10.7547 6.95803 13.3526C6.83608 13.4662 6.63953 13.5107 6.42295 13.4744Z" fill="url(#paint5_linear_4954_25786)"/>
<path d="M14.6406 10.4353H15.1084V15.0635H14.6406V10.4353Z" fill="url(#paint6_linear_4954_25786)"/>
<path d="M15.1051 11.9277C17.683 11.6954 17.4683 9.71363 17.3365 9.0943C17.3142 8.98985 17.1788 8.94636 17.0378 8.99822C16.1858 9.31225 13.5397 10.4345 14.8409 11.8461C14.8979 11.9079 14.9948 11.9377 15.1051 11.9277Z" fill="url(#paint7_linear_4954_25786)"/>
<path d="M14.6469 12.0042C11.606 11.4945 12.0405 9.16021 12.2532 8.4366C12.2891 8.31452 12.454 8.27512 12.6167 8.34959C13.6002 8.79976 16.6414 10.3723 14.9679 11.9311C14.8949 11.9993 14.7769 12.026 14.6469 12.0042Z" fill="url(#paint8_linear_4954_25786)"/>
<path d="M17.3385 13.3898L16.5541 12.119L15.7695 13.3898H16.2233V15.1175H16.8848V13.3898H17.3385Z" fill="url(#paint9_linear_4954_25786)"/>
<path d="M14.4391 21.0305C14.4391 20.5755 14.1167 20.1889 13.6671 20.0463C13.7119 19.9077 13.7347 19.763 13.7346 19.6173C13.7346 18.9409 13.2533 18.377 12.6142 18.2493C12.6764 18.0885 12.7083 17.9176 12.7082 17.7452C12.7082 16.9745 12.0836 16.3497 11.3127 16.3497C11.2448 16.3497 11.1776 16.3548 11.1122 16.3642C11.0258 15.6766 10.4393 15.1444 9.72824 15.1444C9.16366 15.1444 8.67776 15.4799 8.45806 15.9622C8.23824 15.4799 7.75247 15.1444 7.18793 15.1444C6.61533 15.1444 6.12374 15.4893 5.90851 15.9824C5.72354 15.8957 5.52173 15.8509 5.31746 15.8511C4.54677 15.8511 3.92196 16.4757 3.92196 17.2465C3.92196 17.3195 3.92762 17.3911 3.9384 17.4611C3.89352 17.5001 3.8492 17.5399 3.80554 17.5803C3.12436 17.6726 2.59906 18.2561 2.59906 18.9626C2.59906 19.0371 2.60506 19.11 2.61615 19.1812C2.57034 19.2763 2.52746 19.3728 2.48759 19.4705C2.45694 19.4683 2.42622 19.4671 2.39549 19.467C1.62481 19.467 1 20.0918 1 20.8625C1 21.3669 1.26761 21.8089 1.66877 22.0539H13.0613C13.1351 22.0671 13.2098 22.0737 13.2847 22.0737C13.3611 22.0737 13.4358 22.0669 13.508 22.0539H13.5477L13.5488 22.0459C14.059 21.9378 14.4391 21.5243 14.4391 21.0305Z" fill="url(#paint10_linear_4954_25786)"/>
<path d="M6.80176 19.7437C6.80176 20.1673 6.45846 20.5108 6.03467 20.5108C5.61106 20.5108 5.26758 20.1673 5.26758 19.7437C5.26758 19.3201 5.61106 18.9766 6.03467 18.9766C6.45846 18.9766 6.80176 19.3201 6.80176 19.7437ZM8.24828 18.1657C8.24828 18.5893 7.90497 18.9327 7.48119 18.9327C7.05758 18.9327 6.71409 18.5893 6.71409 18.1657C6.71409 17.742 7.05758 17.3986 7.48119 17.3986C7.90497 17.3986 8.24828 17.742 8.24828 18.1657Z" fill="url(#paint11_linear_4954_25786)"/>
<defs>
<linearGradient id="paint0_linear_4954_25786" x1="7.5" y1="2.5" x2="21.5" y2="22" gradientUnits="userSpaceOnUse">
<stop stop-color="#FFD480"/>
<stop offset="0.5" stop-color="#FFC34C"/>
<stop offset="1" stop-color="#FFB21A"/>
</linearGradient>
<linearGradient id="paint1_linear_4954_25786" x1="20.499" y1="18" x2="8.49902" y2="4.5" gradientUnits="userSpaceOnUse">
<stop offset="0.0324587" stop-color="white" stop-opacity="0.5"/>
<stop offset="1" stop-color="white" stop-opacity="0.7"/>
</linearGradient>
<linearGradient id="paint2_linear_4954_25786" x1="11.5" y1="-1.5" x2="18" y2="30" gradientUnits="userSpaceOnUse">
<stop stop-color="#E3B15A"/>
<stop offset="1" stop-color="#DB9C2E"/>
</linearGradient>
<linearGradient id="paint3_linear_4954_25786" x1="4.51167" y1="-14.1482" x2="-1.25963" y2="-12.8383" gradientUnits="userSpaceOnUse">
<stop stop-color="#D6CD5C"/>
<stop offset="0.5" stop-color="#CCC033"/>
<stop offset="1" stop-color="#A39A29"/>
</linearGradient>
<linearGradient id="paint4_linear_4954_25786" x1="12.009" y1="7.63387" x2="5.3424" y2="13.4671" gradientUnits="userSpaceOnUse">
<stop stop-color="#D6CD5C"/>
<stop offset="0.5" stop-color="#CCC033"/>
<stop offset="1" stop-color="#A39A29"/>
</linearGradient>
<linearGradient id="paint5_linear_4954_25786" x1="1.17805" y1="6.80075" x2="7.84462" y2="14.3008" gradientUnits="userSpaceOnUse">
<stop stop-color="#F4E590"/>
<stop offset="0.515626" stop-color="#EACF32"/>
<stop offset="1" stop-color="#D5B916"/>
</linearGradient>
<linearGradient id="paint6_linear_4954_25786" x1="13.5" y1="-2" x2="10.1119" y2="-1.07186" gradientUnits="userSpaceOnUse">
<stop stop-color="#D6CD5C"/>
<stop offset="0.5" stop-color="#CCC033"/>
<stop offset="1" stop-color="#A39A29"/>
</linearGradient>
<linearGradient id="paint7_linear_4954_25786" x1="17.999" y1="8.5" x2="13.999" y2="12" gradientUnits="userSpaceOnUse">
<stop stop-color="#D6CD5C"/>
<stop offset="0.5" stop-color="#CCC033"/>
<stop offset="1" stop-color="#A39A29"/>
</linearGradient>
<linearGradient id="paint8_linear_4954_25786" x1="11.5" y1="8" x2="15.5" y2="12.5" gradientUnits="userSpaceOnUse">
<stop stop-color="#F4E590"/>
<stop offset="0.515626" stop-color="#EACF32"/>
<stop offset="1" stop-color="#D5B916"/>
</linearGradient>
<linearGradient id="paint9_linear_4954_25786" x1="16.554" y1="7.5" x2="16.554" y2="18" gradientUnits="userSpaceOnUse">
<stop stop-color="#FFA599"/>
<stop offset="1" stop-color="#FF4B34"/>
</linearGradient>
<linearGradient id="paint10_linear_4954_25786" x1="0.999999" y1="11.4454" x2="8.79105" y2="30.4444" gradientUnits="userSpaceOnUse">
<stop stop-color="#CE642C"/>
<stop offset="0.552823" stop-color="#A55023"/>
<stop offset="1" stop-color="#7A3B1A"/>
</linearGradient>
<linearGradient id="paint11_linear_4954_25786" x1="8.19043" y1="22.766" x2="4.69043" y2="17.266" gradientUnits="userSpaceOnUse">
<stop stop-color="#A55023"/>
<stop offset="1" stop-color="#CE702C"/>
</linearGradient>
</defs>
</svg>
