<svg width="16" height="16" viewBox="0 0 16 16" fill="none" xmlns="http://www.w3.org/2000/svg">
<g clip-path="url(#clip0_1_1331)">
<path fill-rule="evenodd" clip-rule="evenodd" d="M7.97898 0.833252H8.02087C8.42359 0.833246 8.75696 0.833241 9.03224 0.856686C9.32073 0.881257 9.58142 0.93371 9.83286 1.0582C10.2808 1.27998 10.564 1.63243 10.7628 1.98592C10.9169 2.25994 11.0366 2.5678 11.138 2.8287C11.1619 2.89027 11.1848 2.94922 11.2069 3.00451L11.3045 3.24847C11.3532 3.37016 11.3775 3.431 11.4282 3.46538C11.4789 3.49975 11.5446 3.49986 11.676 3.50006C12.2657 3.50098 12.7091 3.50772 13.0613 3.55626C13.5168 3.61902 13.8462 3.75387 14.1885 4.01654C14.3618 4.14954 14.517 4.30469 14.65 4.47802C14.9345 4.84887 15.0551 5.28122 15.1118 5.78407C15.1666 6.2704 15.1666 6.88018 15.1666 7.63646V10.7032V10.7032C15.1666 11.6149 15.1666 12.3498 15.0889 12.9278C15.0082 13.5278 14.8356 14.0331 14.4344 14.4344C14.0331 14.8356 13.5278 15.0082 12.9278 15.0889C12.3498 15.1666 11.6149 15.1666 10.7032 15.1666H5.29667C4.38495 15.1666 3.65007 15.1666 3.07209 15.0889C2.47201 15.0082 1.96676 14.8356 1.56549 14.4344C1.16421 14.0331 0.991613 13.5278 0.910936 12.9278C0.833229 12.3498 0.83324 11.6149 0.833252 10.7032V7.63644C0.833244 6.88018 0.833237 6.27039 0.888063 5.78407C0.944751 5.28122 1.0653 4.84887 1.34987 4.47802C1.48287 4.30469 1.63802 4.14954 1.81135 4.01654C2.15367 3.75387 2.48303 3.61902 2.93849 3.55626C3.29076 3.50772 3.73416 3.50098 4.32386 3.50006C4.45524 3.49986 4.52092 3.49975 4.57161 3.46538C4.62231 3.431 4.64664 3.37016 4.69532 3.24847L4.7929 3.00451C4.81501 2.94923 4.83793 2.89028 4.86185 2.82872C4.96326 2.56781 5.08292 2.25995 5.23703 1.98592C5.43584 1.63243 5.71902 1.27998 6.16698 1.0582C6.41842 0.93371 6.67911 0.881257 6.9676 0.856686C7.24288 0.833241 7.57626 0.833246 7.97898 0.833252ZM5.33325 9.33325C5.33325 7.86049 6.52716 6.66659 7.99992 6.66659C9.47268 6.66659 10.6666 7.86049 10.6666 9.33325C10.6666 10.806 9.47268 11.9999 7.99992 11.9999C6.52716 11.9999 5.33325 10.806 5.33325 9.33325ZM7.99694 3.33325C7.63039 3.33325 7.33325 3.63173 7.33325 3.99992C7.33325 4.36671 7.6377 4.66659 8.0029 4.66659C8.36944 4.66659 8.66658 4.36811 8.66658 3.99992C8.66658 3.63313 8.36214 3.33325 7.99694 3.33325Z" fill="url(#paint0_linear_1_1331)"/>
</g>
<defs>
<linearGradient id="paint0_linear_1_1331" x1="16.1631" y1="15.8833" x2="-0.202618" y2="15.3056" gradientUnits="userSpaceOnUse">
<stop stop-color="#28D581"/>
<stop offset="1" stop-color="#33A36D"/>
</linearGradient>
<clipPath id="clip0_1_1331">
<rect width="16" height="16" fill="white"/>
</clipPath>
</defs>
</svg>
