<svg width="16" height="16" viewBox="0 0 16 16" fill="none" xmlns="http://www.w3.org/2000/svg">
<g clip-path="url(#clip0_7214_31387)">
<path d="M8.00005 2.39999C9.00965 2.3998 9.99997 2.6765 10.8632 3.19999H10.4C10.1879 3.19999 9.98439 3.28427 9.83436 3.4343C9.68433 3.58433 9.60005 3.78781 9.60005 3.99999C9.60005 4.21216 9.68433 4.41564 9.83436 4.56567C9.98439 4.7157 10.1879 4.79999 10.4 4.79999H12.8C13.0122 4.79999 13.2157 4.7157 13.3657 4.56567C13.5158 4.41564 13.6 4.21216 13.6 3.99999V1.59999C13.6 1.38781 13.5158 1.18433 13.3657 1.0343C13.2157 0.884273 13.0122 0.799988 12.8 0.799988C12.5879 0.799988 12.3844 0.884273 12.2344 1.0343C12.0843 1.18433 12 1.38781 12 1.59999V2.01359C10.916 1.28925 9.65554 0.87288 8.3533 0.808911C7.05107 0.744942 5.75591 1.03578 4.60605 1.65038C3.45619 2.26498 2.4948 3.18027 1.82448 4.29857C1.15417 5.41686 0.800094 6.69618 0.800049 7.99999C0.800049 8.21216 0.884334 8.41564 1.03436 8.56567C1.18439 8.7157 1.38788 8.79999 1.60005 8.79999C1.81222 8.79999 2.01571 8.7157 2.16573 8.56567C2.31576 8.41564 2.40005 8.21216 2.40005 7.99999C2.40174 6.5153 2.99229 5.0919 4.04212 4.04206C5.09196 2.99222 6.51536 2.40168 8.00005 2.39999ZM14.4 7.19999C14.1879 7.19999 13.9844 7.28427 13.8344 7.4343C13.6843 7.58433 13.6 7.78781 13.6 7.99999C13.5984 9.48468 13.0078 10.9081 11.958 11.9579C10.9081 13.0078 9.48474 13.5983 8.00005 13.6C6.99045 13.6002 6.00013 13.3235 5.13685 12.8H5.60005C5.81222 12.8 6.01571 12.7157 6.16573 12.5657C6.31576 12.4156 6.40005 12.2122 6.40005 12C6.40005 11.7878 6.31576 11.5843 6.16573 11.4343C6.01571 11.2843 5.81222 11.2 5.60005 11.2H3.20005C2.98788 11.2 2.78439 11.2843 2.63436 11.4343C2.48433 11.5843 2.40005 11.7878 2.40005 12V14.4C2.40005 14.6122 2.48433 14.8156 2.63436 14.9657C2.78439 15.1157 2.98788 15.2 3.20005 15.2C3.41222 15.2 3.61571 15.1157 3.76573 14.9657C3.91576 14.8156 4.00005 14.6122 4.00005 14.4V13.9864C5.08414 14.7107 6.34456 15.1271 7.64679 15.1911C8.94903 15.255 10.2442 14.9642 11.3941 14.3496C12.5439 13.735 13.5053 12.8197 14.1756 11.7014C14.8459 10.5831 15.2 9.30379 15.2 7.99999C15.2 7.78781 15.1158 7.58433 14.9657 7.4343C14.8157 7.28427 14.6122 7.19999 14.4 7.19999Z" fill="white"/>
</g>
<defs>
<clipPath id="clip0_7214_31387">
<rect width="16" height="16" fill="white"/>
</clipPath>
</defs>
</svg>
