<svg width="81" height="80" viewBox="0 0 81 80" fill="none" xmlns="http://www.w3.org/2000/svg">
<g clip-path="url(#clip0_1_1624)">
<path d="M40.5 80C62.5914 80 80.5 62.0914 80.5 40C80.5 17.9086 62.5914 0 40.5 0C18.4086 0 0.5 17.9086 0.5 40C0.5 62.0914 18.4086 80 40.5 80Z" fill="url(#paint0_linear_1_1624)"/>
<path d="M54.8234 24.2094V24.2016H48.2609V22.0484C48.2609 21.6357 48.1796 21.2269 48.0216 20.8456C47.8636 20.4643 47.632 20.1178 47.3401 19.826C47.0481 19.5342 46.7015 19.3028 46.3201 19.145C45.9387 18.9872 45.53 18.906 45.1172 18.9063H35.8828C35.0495 18.9063 34.2502 19.2373 33.661 19.8266C33.0717 20.4159 32.7406 21.2151 32.7406 22.0484V24.2016H26.1781V24.2094C25.1108 24.2739 24.1084 24.7433 23.3755 25.5218C22.6426 26.3003 22.2344 27.3292 22.2344 28.3984V28.5281C22.2344 29.5974 22.6426 30.6263 23.3755 31.4048C24.1084 32.1833 25.1108 32.6527 26.1781 32.7172V54.9875C26.1781 56.6067 26.8212 58.1596 27.9661 59.3047C29.1109 60.4498 30.6636 61.0933 32.2828 61.0938H48.7172C50.3367 61.0938 51.8898 60.4504 53.035 59.3053C54.1801 58.1601 54.8234 56.607 54.8234 54.9875V32.7172C55.8907 32.6527 56.8932 32.1833 57.6261 31.4048C58.359 30.6263 58.7671 29.5974 58.7672 28.5281V28.3984C58.7671 27.3292 58.359 26.3003 57.6261 25.5218C56.8932 24.7433 55.8907 24.2739 54.8234 24.2094ZM37.0969 51.6297C37.0971 51.8719 37.0495 52.1119 36.957 52.3357C36.8644 52.5596 36.7286 52.7631 36.5574 52.9344C36.3862 53.1058 36.1829 53.2417 35.9591 53.3345C35.7353 53.4273 35.4954 53.475 35.2531 53.475C34.7637 53.475 34.2944 53.2806 33.9483 52.9345C33.6022 52.5885 33.4078 52.1191 33.4078 51.6297V37.5672C33.4078 37.0778 33.6022 36.6084 33.9483 36.2624C34.2944 35.9163 34.7637 35.7219 35.2531 35.7219C35.4954 35.7219 35.7353 35.7696 35.9591 35.8624C36.1829 35.9551 36.3862 36.0911 36.5574 36.2625C36.7286 36.4338 36.8644 36.6373 36.957 36.8611C37.0495 37.085 37.0971 37.3249 37.0969 37.5672V51.6297ZM47.5922 51.6297C47.5922 52.1191 47.3978 52.5885 47.0517 52.9345C46.7056 53.2806 46.2363 53.475 45.7469 53.475C45.5046 53.475 45.2647 53.4273 45.0409 53.3345C44.8171 53.2417 44.6138 53.1058 44.4426 52.9344C44.2714 52.7631 44.1356 52.5596 44.043 52.3357C43.9505 52.1119 43.9029 51.8719 43.9031 51.6297V37.5672C43.9029 37.3249 43.9505 37.085 44.043 36.8611C44.1356 36.6373 44.2714 36.4338 44.4426 36.2625C44.6138 36.0911 44.8171 35.9551 45.0409 35.8624C45.2647 35.7696 45.5046 35.7219 45.7469 35.7219C46.2363 35.7219 46.7056 35.9163 47.0517 36.2624C47.3978 36.6084 47.5922 37.0778 47.5922 37.5672V51.6297Z" fill="white"/>
</g>
<defs>
<linearGradient id="paint0_linear_1_1624" x1="20" y1="3.95626e-07" x2="57" y2="114" gradientUnits="userSpaceOnUse">
<stop stop-color="#EB7B57"/>
<stop offset="1" stop-color="#E62929"/>
</linearGradient>
<clipPath id="clip0_1_1624">
<rect width="80" height="80" fill="white" transform="translate(0.5)"/>
</clipPath>
</defs>
</svg>
