<svg width="74" height="74" viewBox="0 0 74 74" fill="none" xmlns="http://www.w3.org/2000/svg">
<g clip-path="url(#clip0_828_5557)">
<rect x="2" y="2" width="70" height="70" rx="22" fill="url(#paint0_linear_828_5557)"/>
<circle cx="37" cy="111" r="75" fill="url(#paint1_linear_828_5557)"/>
<path d="M43.875 24.1093C40.3989 24.1093 38.1682 26.5372 37 28.7234C35.8318 26.5372 33.6011 24.1093 30.125 24.1093C25.7878 24.1093 22.3333 27.9295 22.3333 32.8071C22.3333 38.3083 26.7546 43.5359 36.5384 49.7563C36.6764 49.844 36.8365 49.8906 37 49.8906C37.1635 49.8906 37.3236 49.844 37.4616 49.7563C47.2454 43.5359 51.6667 38.3083 51.6667 32.8071C51.6667 27.9295 48.2121 24.1093 43.875 24.1093Z" fill="url(#paint2_linear_828_5557)"/>
<path fill-rule="evenodd" clip-rule="evenodd" d="M33.7319 37.9564L33.0124 39.8751C32.7587 40.5516 32.112 40.9998 31.3895 40.9998H23.6667C22.9303 40.9998 22.3333 40.4028 22.3333 39.6665C22.3333 38.9301 22.9303 38.3331 23.6667 38.3331H30.7427L32.0633 34.8115C32.6149 33.3405 34.682 33.3033 35.2862 34.7534L37 38.8665L38.7138 34.7534C39.318 33.3033 41.3851 33.3405 41.9367 34.8115L43.2573 38.3331H50.3333C51.0697 38.3331 51.6667 38.9301 51.6667 39.6665C51.6667 40.4028 51.0697 40.9998 50.3333 40.9998H42.6105C41.888 40.9998 41.2413 40.5516 40.9876 39.8751L40.2681 37.9564L38.6 41.9598C38.0074 43.382 35.9926 43.382 35.4 41.9598L33.7319 37.9564Z" fill="#EAB9C8"/>
</g>
<rect x="1" y="1" width="72" height="72" rx="23" stroke="white" stroke-width="2"/>
<defs>
<linearGradient id="paint0_linear_828_5557" x1="37" y1="2" x2="37" y2="72" gradientUnits="userSpaceOnUse">
<stop stop-color="#F7E4EA"/>
<stop offset="1" stop-color="#EBBCCB"/>
</linearGradient>
<linearGradient id="paint1_linear_828_5557" x1="37" y1="27" x2="37" y2="77" gradientUnits="userSpaceOnUse">
<stop stop-color="white" stop-opacity="0"/>
<stop offset="1" stop-color="white"/>
</linearGradient>
<linearGradient id="paint2_linear_828_5557" x1="29.5569" y1="23.6534" x2="33.2271" y2="53.7183" gradientUnits="userSpaceOnUse">
<stop stop-color="#C8466F"/>
<stop offset="1" stop-color="#AA2851"/>
</linearGradient>
<clipPath id="clip0_828_5557">
<rect x="2" y="2" width="70" height="70" rx="22" fill="white"/>
</clipPath>
</defs>
</svg>
