<svg width="24" height="24" viewBox="0 0 24 24" fill="none" xmlns="http://www.w3.org/2000/svg">
<path fill-rule="evenodd" clip-rule="evenodd" d="M13.2681 2.29486C12.8735 2.10087 12.4397 2 12 2C11.5603 2 11.1264 2.10087 10.7318 2.29486L2.77569 6.21293C1.74209 6.72201 1.74209 8.18833 2.77569 8.6974L10.7318 12.6146C11.1264 12.8086 11.5603 12.9095 12 12.9095C12.4397 12.9095 12.8735 12.8086 13.2681 12.6146L21.2243 8.6965C22.2579 8.18742 22.2579 6.7211 21.2243 6.21202L13.2681 2.29486ZM2.82115 10.7364C2.88364 10.7056 2.95238 10.6896 3.02205 10.6896C3.09172 10.6896 3.16046 10.7056 3.22295 10.7364L10.7318 14.4336C11.1264 14.6276 11.5603 14.7285 12 14.7285C12.4397 14.7285 12.8735 14.6276 13.2681 14.4336L20.777 10.7364C20.8395 10.7056 20.9082 10.6896 20.9779 10.6896C21.0476 10.6896 21.1163 10.7056 21.1788 10.7364L21.2243 10.7583C22.2579 11.2673 22.2579 12.7346 21.2243 13.2427L13.2681 17.1608C12.8735 17.3548 12.4397 17.4557 12 17.4557C11.5603 17.4557 11.1264 17.3548 10.7318 17.1608L2.77569 13.2427C1.74209 12.7337 1.74209 11.2673 2.77569 10.7583L2.82115 10.7364ZM3.22295 15.2818C3.16046 15.251 3.09172 15.235 3.02205 15.235C2.95238 15.235 2.88364 15.251 2.82115 15.2818L2.77569 15.3045C1.74209 15.8136 1.74209 17.2799 2.77569 17.789L10.7318 21.7061C11.1264 21.9001 11.5603 22.001 12 22.001C12.4397 22.001 12.8735 21.9001 13.2681 21.7061L21.2243 17.7881C22.2579 17.279 22.2579 15.8127 21.2243 15.3036L21.1788 15.2818C21.1163 15.251 21.0476 15.235 20.9779 15.235C20.9082 15.235 20.8395 15.251 20.777 15.2818L13.2681 18.9789C12.8735 19.1729 12.4397 19.2738 12 19.2738C11.5603 19.2738 11.1264 19.1729 10.7318 18.9789L3.22295 15.2818Z" fill="url(#paint0_linear_2515_9540)"/>
<defs>
<linearGradient id="paint0_linear_2515_9540" x1="23.3899" y1="23.001" x2="0.555157" y2="22.1951" gradientUnits="userSpaceOnUse">
<stop stop-color="#28D581"/>
<stop offset="1" stop-color="#33A36D"/>
</linearGradient>
</defs>
</svg>
