<svg width="24" height="24" viewBox="0 0 24 24" fill="none" xmlns="http://www.w3.org/2000/svg">
<path fill-rule="evenodd" clip-rule="evenodd" d="M13.2687 2.29485C12.8741 2.10087 12.4402 2 12.0005 2C11.5608 2 11.1269 2.10087 10.7323 2.29485L2.77573 6.21272C1.74207 6.72177 1.74207 8.18802 2.77573 8.69708L10.7323 12.614C11.1269 12.8081 11.5608 12.909 12.0005 12.909C12.4402 12.909 12.8741 12.8081 13.2687 12.614L21.2252 8.69617C22.2589 8.18712 22.2589 6.72087 21.2252 6.21181L13.2687 2.29485ZM2.82119 10.736C2.88369 10.7052 2.95243 10.6892 3.0221 10.6892C3.09178 10.6892 3.16052 10.7052 3.22302 10.736L10.7323 14.433C11.1269 14.627 11.5608 14.7278 12.0005 14.7278C12.4402 14.7278 12.8741 14.627 13.2687 14.433L20.778 10.736C20.8405 10.7052 20.9092 10.6892 20.9789 10.6892C21.0485 10.6892 21.1173 10.7052 21.1798 10.736L21.2252 10.7578C22.2589 11.2669 22.2589 12.734 21.2252 13.2422L13.2687 17.1601C12.8741 17.354 12.4402 17.4549 12.0005 17.4549C11.5608 17.4549 11.1269 17.354 10.7323 17.1601L2.77573 13.2422C1.74207 12.7331 1.74207 11.2669 2.77573 10.7578L2.82119 10.736ZM3.22302 15.2811C3.16052 15.2503 3.09178 15.2343 3.0221 15.2343C2.95243 15.2343 2.88369 15.2503 2.82119 15.2811L2.77573 15.3038C1.74207 15.8129 1.74207 17.2791 2.77573 17.7882L10.7323 21.7052C11.1269 21.8991 11.5608 22 12.0005 22C12.4402 22 12.8741 21.8991 13.2687 21.7052L21.2252 17.7873C22.2589 17.2782 22.2589 15.812 21.2252 15.3029L21.1798 15.2811C21.1173 15.2503 21.0485 15.2343 20.9789 15.2343C20.9092 15.2343 20.8405 15.2503 20.778 15.2811L13.2687 18.9781C12.8741 19.1721 12.4402 19.2729 12.0005 19.2729C11.5608 19.2729 11.1269 19.1721 10.7323 18.9781L3.22302 15.2811Z" fill="url(#paint0_linear_2628_12967)"/>
<defs>
<linearGradient id="paint0_linear_2628_12967" x1="2.00049" y1="12.0002" x2="44.1787" y2="12.0002" gradientUnits="userSpaceOnUse">
<stop stop-color="#FFDE00"/>
<stop offset="1" stop-color="#FF5900"/>
</linearGradient>
</defs>
</svg>
