<svg width="192" height="192" viewBox="0 0 192 192" fill="none" xmlns="http://www.w3.org/2000/svg">
<circle opacity="0.1" cx="96" cy="96" r="84" fill="#307B51" stroke="#CCCCCC" stroke-width="8"/>
<circle cx="96" cy="96" r="64" fill="#F8ECC4"/>
<path d="M64.7139 109.879H127.231L127.05 111.692C126.491 116.165 123.31 118.777 120.078 118.777H71.8666C68.2135 118.777 65.3539 115.632 64.8985 111.725C64.8934 111.684 64.9185 111.932 64.7139 109.879Z" fill="#FFB800"/>
<path d="M129.957 82.5594L127.629 105.895H64.3181L62.0446 83.0548C61.436 77.6989 67.213 75.2234 69.88 78.2882C76.2966 85.6869 76.9835 87.1474 79.139 86.8904C79.9492 86.7919 80.5281 86.4289 81.0089 85.986C94.0728 73.4524 93.2184 74.2641 93.3529 74.1577C95.1111 72.8051 97.3722 73.0282 98.6969 74.1311C111.897 85.2228 111.285 84.7343 111.58 84.9022C112.813 85.6105 114.266 85.5203 115.508 84.3019C122.844 77.0939 122.379 77.5431 122.515 77.4342C125.871 74.8215 130.494 77.8576 129.957 82.5594Z" fill="#FFB800"/>
</svg>
