<svg width="36" height="36" viewBox="0 0 36 36" fill="none" xmlns="http://www.w3.org/2000/svg">
<path d="M30.8 6H5.2C3.4352 6 2 7.3455 2 9V27C2 28.6545 3.4352 30 5.2 30H30.8C32.5648 30 34 28.6545 34 27V9C34 7.3455 32.5648 6 30.8 6ZM12.744 12C14.5856 12 15.944 13.2735 15.944 15C15.944 16.7265 14.5856 18 12.744 18C10.9024 18 9.544 16.7265 9.544 15C9.544 13.2735 10.9008 12 12.744 12ZM18.688 24H6.8V23.3025C6.8 21.243 9.4816 19.125 12.744 19.125C16.0064 19.125 18.688 21.243 18.688 23.3025V24ZM29.2 22.5H22.8V19.5H29.2V22.5ZM29.2 16.5H21.2V13.5H29.2V16.5Z" fill="#BBC0C9"/>
</svg>
