<svg width="24" height="24" viewBox="0 0 24 24" fill="none" xmlns="http://www.w3.org/2000/svg">
<rect width="24" height="24" rx="8" fill="#33A36D"/>
<g clip-path="url(#clip0_2817_302)">
<path d="M19.078 17.31L17.874 16.1065C17.7516 15.9848 17.673 15.8258 17.6506 15.6546C17.6283 15.4834 17.6634 15.3096 17.7505 15.1605C18.574 13.763 18.9455 12.07 18.6485 10.2775C18.132 7.16252 15.5625 4.70002 12.429 4.30802C7.70551 3.71802 3.71751 7.70552 4.30801 12.429C4.70001 15.5625 7.16251 18.132 10.2775 18.6485C12.07 18.9455 13.7625 18.5735 15.1605 17.7505C15.3096 17.6634 15.4834 17.6283 15.6546 17.6506C15.8258 17.673 15.9848 17.7516 16.1065 17.874L17.3665 19.134C17.4824 19.2502 17.6201 19.3424 17.7717 19.4052C17.9234 19.468 18.0859 19.5002 18.25 19.5C18.6 19.5 18.9505 19.3535 19.201 19.061C19.6345 18.5545 19.549 17.781 19.078 17.31ZM6.81651 12.306C6.28001 9.06001 9.06001 6.28052 12.3055 6.81652C14.272 7.14152 15.858 8.72801 16.183 10.6945C16.72 13.94 13.94 16.7195 10.694 16.1835C8.72801 15.8585 7.14201 14.2725 6.81651 12.306Z" fill="white"/>
</g>
<defs>
<clipPath id="clip0_2817_302">
<rect width="16" height="16" fill="white" transform="translate(4 4)"/>
</clipPath>
</defs>
</svg>
