<svg width="64" height="64" viewBox="0 0 64 64" fill="none" xmlns="http://www.w3.org/2000/svg">
<path fill-rule="evenodd" clip-rule="evenodd" d="M2 11.8485C2 6.40932 6.40932 2 11.8485 2H17.7576C18.8454 2 19.7273 2.88186 19.7273 3.9697C19.7273 5.05753 18.8454 5.93939 17.7576 5.93939H11.8485C8.58498 5.93939 5.93939 8.58498 5.93939 11.8485V17.7576C5.93939 18.8454 5.05753 19.7273 3.9697 19.7273C2.88186 19.7273 2 18.8454 2 17.7576V11.8485ZM53.3621 22.4522C52.6353 19.684 51.0863 17.297 48.8823 15.5493C46.7353 13.8468 44.1053 12.9091 41.4765 12.9091C39.461 12.9091 37.5387 13.4362 35.7626 14.4754C34.36 15.2964 33.0983 16.4129 31.9963 17.8066C29.4897 14.6335 26.1805 12.9091 22.5204 12.9091C19.8927 12.9091 17.2636 13.8468 15.1169 15.5493C12.9137 17.297 11.3649 19.6837 10.6382 22.4519C10.1051 24.4822 9.86245 27.3316 10.9141 30.7585H17.5183L19.903 26.1258C20.1197 25.7051 20.5622 25.4393 21.0462 25.4393C21.5306 25.4393 21.9731 25.7051 22.1895 26.1258L26.5228 34.543L30.856 26.1258C31.0724 25.7051 31.5149 25.4393 31.9993 25.4393C32.4834 25.4393 32.9258 25.7051 33.1425 26.1258L35.5272 30.7585H44.4312C45.1373 30.7585 45.7093 31.3143 45.7093 31.9998C45.7093 32.6857 45.1373 33.2415 44.4312 33.2415H34.7372C34.2532 33.2415 33.8107 32.9757 33.594 32.555L31.9993 29.457L27.666 37.8742C27.4493 38.2949 27.0068 38.5603 26.5228 38.5603C26.0384 38.5603 25.5959 38.2949 25.3795 37.8742L21.0466 29.457L19.4515 32.5554C19.2348 32.9757 18.7924 33.2415 18.3083 33.2415H11.8716C12.2988 34.1618 12.8208 35.1144 13.4547 36.0957C16.9343 41.4857 22.9668 46.4799 31.3837 50.9393C31.5745 51.0405 31.7852 51.0909 31.996 51.0909C32.2067 51.0909 32.4171 51.0405 32.6079 50.9396C41.0274 46.4796 47.0616 41.4857 50.5429 36.0961C54.3043 30.2725 54.1521 25.4623 53.3621 22.4522ZM11.8485 62C6.40932 62 2 57.5907 2 52.1515V46.2424C2 45.1546 2.88186 44.2727 3.9697 44.2727C5.05753 44.2727 5.93939 45.1546 5.93939 46.2424V52.1515C5.93939 55.415 8.58498 58.0606 11.8485 58.0606H17.7576C18.8454 58.0606 19.7273 58.9425 19.7273 60.0303C19.7273 61.1181 18.8454 62 17.7576 62H11.8485ZM62 11.8485C62 6.40932 57.5907 2 52.1515 2H46.2424C45.1546 2 44.2727 2.88186 44.2727 3.9697C44.2727 5.05753 45.1546 5.93939 46.2424 5.93939H52.1515C55.415 5.93939 58.0606 8.58498 58.0606 11.8485V17.7576C58.0606 18.8454 58.9425 19.7273 60.0303 19.7273C61.1181 19.7273 62 18.8454 62 17.7576V11.8485ZM52.1515 62C57.5907 62 62 57.5907 62 52.1515V46.2424C62 45.1546 61.1181 44.2727 60.0303 44.2727C58.9425 44.2727 58.0606 45.1546 58.0606 46.2424V52.1515C58.0606 55.415 55.415 58.0606 52.1515 58.0606H46.2424C45.1546 58.0606 44.2727 58.9425 44.2727 60.0303C44.2727 61.1181 45.1546 62 46.2424 62H52.1515Z" fill="url(#paint0_linear_2365_14235)"/>
<defs>
<linearGradient id="paint0_linear_2365_14235" x1="32" y1="61.9999" x2="32" y2="2" gradientUnits="userSpaceOnUse">
<stop stop-color="#FFA68D"/>
<stop offset="1" stop-color="#FD3A84"/>
</linearGradient>
</defs>
</svg>
