<svg width="46" height="46" viewBox="0 0 46 46" fill="none" xmlns="http://www.w3.org/2000/svg">
<circle cx="23" cy="23" r="23" fill="#FFD600"/>
<path d="M22.9999 29.6793C21.6789 29.6793 20.3875 29.2876 19.2891 28.5536C18.1907 27.8197 17.3346 26.7765 16.8291 25.5561C16.3235 24.3356 16.1913 22.9926 16.449 21.6969C16.7067 20.4013 17.3429 19.2112 18.277 18.277C19.2111 17.3429 20.4012 16.7068 21.6969 16.4491C22.9925 16.1913 24.3355 16.3236 25.556 16.8291C26.7765 17.3347 27.8196 18.1908 28.5536 19.2892C29.2875 20.3876 29.6792 21.679 29.6792 23C29.6762 24.7705 28.9715 26.4676 27.7195 27.7196C26.4676 28.9715 24.7705 29.6762 22.9999 29.6793V29.6793ZM22.9999 18.0631C22.0235 18.0631 21.069 18.3527 20.2572 18.8952C19.4453 19.4376 18.8125 20.2087 18.4389 21.1108C18.0652 22.0128 17.9675 23.0055 18.1579 23.9631C18.3484 24.9208 18.8186 25.8005 19.5091 26.4909C20.1995 27.1813 21.0792 27.6515 22.0368 27.842C22.9945 28.0325 23.9871 27.9347 24.8892 27.5611C25.7913 27.1874 26.5623 26.5547 27.1048 25.7428C27.6473 24.9309 27.9368 23.9764 27.9368 23C27.9338 21.6916 27.4126 20.4377 26.4875 19.5125C25.5623 18.5873 24.3083 18.0662 22.9999 18.0631V18.0631ZM22.9999 14.8687C22.7698 14.8657 22.55 14.7729 22.3872 14.6102C22.2245 14.4475 22.1317 14.2276 22.1287 13.9975V12.2551C22.1287 12.024 22.2205 11.8024 22.3839 11.639C22.5473 11.4756 22.7689 11.3839 22.9999 11.3839C23.231 11.3839 23.4526 11.4756 23.616 11.639C23.7794 11.8024 23.8712 12.024 23.8712 12.2551V13.9975C23.8682 14.2276 23.7754 14.4475 23.6127 14.6102C23.4499 14.7729 23.2301 14.8657 22.9999 14.8687V14.8687ZM22.9999 34.6162C22.7698 34.6132 22.55 34.5204 22.3872 34.3577C22.2245 34.1949 22.1317 33.9751 22.1287 33.745V32.0025C22.1287 31.7715 22.2205 31.5499 22.3839 31.3865C22.5473 31.2231 22.7689 31.1313 22.9999 31.1313C23.231 31.1313 23.4526 31.2231 23.616 31.3865C23.7794 31.5499 23.8712 31.7715 23.8712 32.0025V33.745C23.8682 33.9751 23.7754 34.1949 23.6127 34.3577C23.4499 34.5204 23.2301 34.6132 22.9999 34.6162V34.6162ZM33.7449 23.8712H32.0025C31.7714 23.8712 31.5498 23.7794 31.3864 23.6161C31.2231 23.4527 31.1313 23.2311 31.1313 23C31.1313 22.769 31.2231 22.5474 31.3864 22.384C31.5498 22.2206 31.7714 22.1288 32.0025 22.1288H33.7449C33.976 22.1288 34.1976 22.2206 34.3609 22.384C34.5243 22.5474 34.6161 22.769 34.6161 23C34.6161 23.2311 34.5243 23.4527 34.3609 23.6161C34.1976 23.7794 33.976 23.8712 33.7449 23.8712ZM13.9974 23.8712H12.255C12.0239 23.8712 11.8023 23.7794 11.639 23.6161C11.4756 23.4527 11.3838 23.2311 11.3838 23C11.3838 22.769 11.4756 22.5474 11.639 22.384C11.8023 22.2206 12.0239 22.1288 12.255 22.1288H13.9974C14.2285 22.1288 14.4501 22.2206 14.6135 22.384C14.7768 22.5474 14.8686 22.769 14.8686 23C14.8686 23.2311 14.7768 23.4527 14.6135 23.6161C14.4501 23.7794 14.2285 23.8712 13.9974 23.8712ZM16.6111 17.4823C16.3869 17.4652 16.1784 17.3609 16.0303 17.1919L14.7641 16.0303C14.681 15.9472 14.615 15.8485 14.57 15.7399C14.525 15.6312 14.5019 15.5148 14.5019 15.3972C14.5019 15.2797 14.525 15.1632 14.57 15.0546C14.615 14.946 14.681 14.8473 14.7641 14.7642C14.8472 14.681 14.9459 14.6151 15.0546 14.5701C15.1632 14.5251 15.2796 14.5019 15.3972 14.5019C15.5147 14.5019 15.6312 14.5251 15.7398 14.5701C15.8484 14.6151 15.9471 14.681 16.0303 14.7642L17.1919 16.0303C17.3347 16.19 17.4137 16.3968 17.4137 16.6111C17.4137 16.8254 17.3347 17.0322 17.1919 17.1919C17.0437 17.3609 16.8352 17.4652 16.6111 17.4823V17.4823ZM30.6202 31.4914C30.5057 31.492 30.3923 31.4696 30.2865 31.4258C30.1808 31.3819 30.0849 31.3173 30.0045 31.2359L28.808 29.9697C28.7304 29.8071 28.7051 29.6245 28.7355 29.4469C28.766 29.2694 28.8508 29.1056 28.9781 28.9782C29.1055 28.8508 29.2693 28.766 29.4469 28.7356C29.6244 28.7051 29.8071 28.7304 29.9696 28.8081L31.2358 29.9697C31.399 30.1331 31.4906 30.3545 31.4906 30.5854C31.4906 30.8162 31.399 31.0377 31.2358 31.201C31.1584 31.2888 31.0638 31.3598 30.958 31.4098C30.8521 31.4597 30.7371 31.4875 30.6202 31.4914V31.4914ZM29.3888 17.4823C29.1647 17.4652 28.9562 17.3609 28.808 17.1919C28.6652 17.0322 28.5862 16.8254 28.5862 16.6111C28.5862 16.3968 28.6652 16.19 28.808 16.0303L29.9696 14.7642C30.1375 14.5962 30.3653 14.5019 30.6027 14.5019C30.8402 14.5019 31.0679 14.5962 31.2358 14.7642C31.4037 14.9321 31.498 15.1598 31.498 15.3972C31.498 15.6347 31.4037 15.8624 31.2358 16.0303L29.9696 17.1919C29.8215 17.3609 29.613 17.4652 29.3888 17.4823V17.4823ZM15.3797 31.4914C15.2653 31.492 15.1519 31.4696 15.0461 31.4258C14.9404 31.3819 14.8445 31.3173 14.7641 31.2359C14.6009 31.0725 14.5093 30.8511 14.5093 30.6202C14.5093 30.3893 14.6009 30.1679 14.7641 30.0046L16.0303 28.8081C16.1928 28.7304 16.3755 28.7051 16.553 28.7356C16.7306 28.766 16.8944 28.8508 17.0218 28.9782C17.1491 29.1056 17.2339 29.2694 17.2644 29.4469C17.2948 29.6245 17.2695 29.8071 17.1919 29.9697L16.0303 31.2359C15.9458 31.3216 15.8442 31.3887 15.7321 31.4327C15.6201 31.4768 15.5 31.4968 15.3797 31.4914V31.4914Z" fill="white"/>
<circle cx="23" cy="23" r="5.80808" fill="white"/>
</svg>
