<svg width="48" height="48" viewBox="0 0 48 48" fill="none" xmlns="http://www.w3.org/2000/svg">
<g clip-path="url(#clip0_1_21060)">
<rect width="48" height="48" rx="24" fill="url(#paint0_linear_1_21060)"/>
<circle cx="24" cy="80" r="54" fill="white" fill-opacity="0.2"/>
<path d="M29.332 14.957C29.332 14.536 28.9913 14.1953 28.5703 14.1953C27.0718 14.1953 25.7265 14.8241 24.7617 15.8261V13.7099C25.3062 13.2634 26.2852 12.2885 26.2852 11.0468C26.2852 9.4252 24.6145 8.25733 24.424 8.12941C24.2987 8.04506 24.1511 8 24 8C23.849 8 23.7013 8.04506 23.576 8.12941C23.3855 8.25733 21.7148 9.4252 21.7148 11.0468C21.7148 12.2885 22.6938 13.2634 23.2383 13.7099V15.8261C22.2735 14.8241 20.9282 14.1953 19.4297 14.1953C19.0087 14.1953 18.668 14.536 18.668 14.957C18.668 17.6382 20.658 19.8635 23.2383 20.2344V22.5742C23.2383 22.9952 23.579 23.3359 24 23.3359C24.421 23.3359 24.7617 22.9952 24.7617 22.5742V20.2344C27.342 19.8635 29.332 17.6382 29.332 14.957Z" fill="url(#paint1_linear_1_21060)"/>
<path d="M31.6172 21.8125H16.3828C15.9618 21.8125 15.6211 22.1532 15.6211 22.5742C15.6211 22.9952 15.9618 23.3359 16.3828 23.3359H17.2453L18.4879 32.0384C18.6471 33.1565 19.6201 34 20.7508 34H27.2492C28.3799 34 29.3529 33.1565 29.5121 32.0384L30.7547 23.3359H31.6172C32.0382 23.3359 32.3789 22.9952 32.3789 22.5742C32.3789 22.1532 32.0382 21.8125 31.6172 21.8125Z" fill="url(#paint2_linear_1_21060)"/>
</g>
<defs>
<linearGradient id="paint0_linear_1_21060" x1="24" y1="0" x2="24" y2="48" gradientUnits="userSpaceOnUse">
<stop stop-color="#BAE199"/>
<stop offset="1" stop-color="#86CA4B"/>
</linearGradient>
<linearGradient id="paint1_linear_1_21060" x1="24" y1="8" x2="24" y2="23.3359" gradientUnits="userSpaceOnUse">
<stop stop-color="#EDF7E3"/>
<stop offset="1" stop-color="#B7DF93"/>
</linearGradient>
<linearGradient id="paint2_linear_1_21060" x1="24" y1="7.5" x2="24" y2="47.5" gradientUnits="userSpaceOnUse">
<stop stop-color="#9DD46D"/>
<stop offset="1" stop-color="#609A2D"/>
</linearGradient>
<clipPath id="clip0_1_21060">
<rect width="48" height="48" rx="24" fill="white"/>
</clipPath>
</defs>
</svg>
