<svg width="32" height="32" viewBox="0 0 32 32" fill="none" xmlns="http://www.w3.org/2000/svg">
<rect x="0.5" y="0.5" width="31" height="31" rx="7.5" fill="white" stroke="#F5F5F5"/>
<path d="M21.8333 22.6667H10.1667C9.94566 22.6667 9.73369 22.7544 9.57741 22.9107C9.42113 23.067 9.33334 23.279 9.33334 23.5C9.33334 23.721 9.42113 23.933 9.57741 24.0892C9.73369 24.2455 9.94566 24.3333 10.1667 24.3333H21.8333C22.0544 24.3333 22.2663 24.2455 22.4226 24.0892C22.5789 23.933 22.6667 23.721 22.6667 23.5C22.6667 23.279 22.5789 23.067 22.4226 22.9107C22.2663 22.7544 22.0544 22.6667 21.8333 22.6667ZM10.1667 21H10.2417L13.7167 20.6833C14.0973 20.6454 14.4534 20.4777 14.725 20.2083L22.225 12.7083C22.5161 12.4008 22.6734 11.9904 22.6625 11.5671C22.6516 11.1438 22.4733 10.7421 22.1667 10.45L19.8833 8.16665C19.5853 7.88673 19.1948 7.72612 18.7861 7.71536C18.3774 7.7046 17.979 7.84446 17.6667 8.10832L10.1667 15.6083C9.89731 15.88 9.72959 16.236 9.69167 16.6166L9.33334 20.0916C9.32211 20.2137 9.33795 20.3367 9.37972 20.452C9.42149 20.5672 9.48817 20.6718 9.575 20.7583C9.65287 20.8356 9.74522 20.8967 9.84675 20.9381C9.94828 20.9796 10.057 21.0006 10.1667 21ZM18.725 9.33332L21 11.6083L19.3333 13.2333L17.1 11L18.725 9.33332Z" fill="#9D9D9D"/>
</svg>
