<svg width="48" height="48" viewBox="0 0 48 48" fill="none" xmlns="http://www.w3.org/2000/svg">
<path d="M38.0001 40H10.0001C9.46967 40 8.96096 40.2107 8.58589 40.5857C8.21082 40.9608 8.00011 41.4695 8.00011 42C8.00011 42.5304 8.21082 43.0391 8.58589 43.4142C8.96096 43.7892 9.46967 44 10.0001 44H38.0001C38.5305 44 39.0392 43.7892 39.4143 43.4142C39.7894 43.0391 40.0001 42.5304 40.0001 42C40.0001 41.4695 39.7894 40.9608 39.4143 40.5857C39.0392 40.2107 38.5305 40 38.0001 40ZM10.0001 36H10.1801L18.5201 35.24C19.4337 35.149 20.2882 34.7464 20.9401 34.1L38.9401 16.1C39.6387 15.3619 40.0163 14.377 39.9901 13.361C39.9638 12.3451 39.5359 11.381 38.8001 10.68L33.3201 5.19996C32.6049 4.52815 31.6677 4.14268 30.6868 4.11686C29.7059 4.09105 28.7497 4.4267 28.0001 5.05996L10.0001 23.06C9.35364 23.7119 8.95111 24.5664 8.8601 25.48L8.00011 33.82C7.97316 34.1129 8.01117 34.4082 8.11143 34.6847C8.21168 34.9613 8.37171 35.2123 8.58011 35.42C8.76699 35.6053 8.98862 35.752 9.23229 35.8515C9.47597 35.951 9.73689 36.0015 10.0001 36ZM30.5401 7.99996L36.0001 13.46L32.0001 17.36L26.6401 12L30.5401 7.99996Z" fill="black"/>
</svg>
