<svg width="60" height="60" viewBox="0 0 60 60" fill="none" xmlns="http://www.w3.org/2000/svg">
<circle cx="30" cy="30" r="29" fill="#307B51" stroke="white" stroke-width="2"/>
<path d="M39.3214 38.1121C39.9714 38.1121 40.5 38.6476 40.5 39.3061C40.5 39.9657 39.9714 40.5 39.3214 40.5H32.6596C32.0097 40.5 31.481 39.9657 31.481 39.3061C31.481 38.6476 32.0097 38.1121 32.6596 38.1121H39.3214ZM34.7015 20.3156L36.4223 21.6826C37.128 22.2344 37.5985 22.9618 37.7594 23.7268C37.9451 24.5683 37.747 25.3948 37.1899 26.1097L26.9391 39.3659C26.4687 39.9679 25.7754 40.3065 25.0326 40.319L20.9471 40.3692C20.7243 40.3692 20.5386 40.2187 20.4891 40.0055L19.5605 35.9797C19.3996 35.2398 19.5605 34.4748 20.031 33.8853L27.2982 24.4793C27.422 24.3288 27.6448 24.305 27.7934 24.4166L30.8513 26.8496C31.0493 27.0127 31.3217 27.1004 31.6065 27.0628C32.2131 26.9876 32.6216 26.4358 32.5597 25.8463C32.5226 25.5453 32.374 25.2945 32.1759 25.1064C32.114 25.0562 29.2047 22.7235 29.2047 22.7235C29.019 22.573 28.9819 22.2971 29.1304 22.1102L30.2818 20.6166C31.3465 19.2496 33.2035 19.1241 34.7015 20.3156Z" fill="white"/>
</svg>
