<?xml version="1.0" encoding="UTF-8"?>
<svg width="26px" height="26px" viewBox="0 0 26 26" version="1.1" xmlns="http://www.w3.org/2000/svg" xmlns:xlink="http://www.w3.org/1999/xlink">
    <!-- Generator: Sketch 64 (93537) - https://sketch.com -->
    <title>edit</title>
    <desc>Created with Sketch.</desc>
    <g id="Page-1" stroke="none" stroke-width="1" fill="none" fill-rule="evenodd">
        <g id="Share" transform="translate(-228.000000, -137.000000)">
            <g id="edit" transform="translate(229.000000, 138.000000)">
                <circle id="Oval" stroke="#307B51" cx="12" cy="12" r="12"></circle>
                <g id="edit-(6)" transform="translate(6.000000, 6.000000)" fill="#307B51" fill-rule="nonzero">
                    <path d="M2.4712898,10.2711184 L5.50312653,9.02213878 C5.5790449,8.9707102 5.65496327,8.91928163 5.70639184,8.87030204 L10.6998612,2.78213878 C10.851698,2.55193469 10.8272082,2.24826122 10.6239429,2.06948571 L8.25333061,0.107853061 C8.05741224,-0.0366367347 7.75618776,-0.058677551 7.56516735,0.183771429 L2.54720816,6.26948571 C2.49577959,6.34540408 2.4712898,6.42132245 2.44435102,6.4996898 L1.80761633,9.73479184 C1.77577959,10.2882612 2.2190449,10.3837714 2.4712898,10.2711184 Z M7.99863673,1.20009796 L9.60271837,2.52499592 L5.25088163,7.84173061 L3.66149388,6.52662857 L7.99863673,1.20009796 Z M3.26720816,7.51601633 L4.3545551,8.41724082 L2.95373878,8.9952 L3.26720816,7.51601633 Z" id="Shape"></path>
                    <path d="M11.4884327,10.9837714 L2.92924898,10.9837714 C2.92924898,10.9837714 1.15373878,11.0670367 1.08761633,10.6115265 C1.08761633,10.5870367 1.04353469,10.4743837 1.27373878,10.1952 C1.45251429,9.96499592 1.42557551,9.66132245 1.2223102,9.48254694 C0.992106122,9.30377143 0.688432653,9.3307102 0.509657143,9.53397551 C0.0247591837,10.1192816 -0.102587755,10.6286694 0.127616327,11.0890776 C0.752106122,12.2523429 2.85333061,11.9780571 2.95373878,12.0025469 L11.4884327,12.0025469 C11.7676163,12.0025469 11.9978398,11.7723429 11.9978398,11.4931592 C12.0002694,11.2115265 11.7700653,10.9837714 11.4884327,10.9837714 Z" id="Path"></path>
                </g>
            </g>
        </g>
    </g>
</svg>