<svg width="88" height="88" viewBox="0 0 88 88" fill="none" xmlns="http://www.w3.org/2000/svg">
<g filter="url(#filter0_d)">
<path fill-rule="evenodd" clip-rule="evenodd" d="M44 76C62.7777 76 78 60.7777 78 42C78 23.2223 62.7777 8 44 8C25.2223 8 10 23.2223 10 42C10 60.7777 25.2223 76 44 76Z" fill="white"/>
</g>
<path fill-rule="evenodd" clip-rule="evenodd" d="M53.6545 29.6747C51.1051 27.9176 47.7237 28.0479 45.2039 29.8464C44.5278 30.329 43.7583 30.6129 43.1025 30.6129C42.4466 30.6129 41.6772 30.329 41.0011 29.8464C38.4812 28.0479 35.0999 27.9176 32.5505 29.6747C29.4844 31.7879 27.7102 35.1839 27.7102 39.8214C27.7102 46.2886 31.7877 53.1853 37.5388 56.0242C38.2913 56.3957 39.1547 56.4791 39.9637 56.2519C41.9384 55.6972 44.4251 55.6801 46.4299 56.1991C47.2186 56.4033 48.0583 56.3322 48.7843 55.9653C54.4731 53.0908 58.4949 46.2442 58.4949 39.8214C58.4948 35.1839 56.7206 31.7879 53.6545 29.6747Z" fill="#FF5872"/>
<path fill-rule="evenodd" clip-rule="evenodd" d="M39.8446 26.0668C41.1147 26.0141 42.1978 25.1269 42.4868 23.9026C42.626 23.3133 42.6086 22.588 42.1971 21.776C40.7734 18.967 35.8394 18.6239 35.8394 18.6239C35.8394 18.6239 35.2608 23.4822 37.786 25.389C38.516 25.9402 39.2332 26.0922 39.8446 26.0668Z" fill="#69DA61"/>
<path fill-rule="evenodd" clip-rule="evenodd" d="M40.0179 24.9108C40.0179 23.2311 38.2926 21.8695 36.1644 21.8695C36.0927 21.8695 36.0214 21.8712 35.9507 21.8742C36.1782 23.176 36.6894 24.5608 37.7861 25.389C38.4703 25.9056 39.1432 26.0716 39.7284 26.0695C39.9149 25.7123 40.0179 25.321 40.0179 24.9108V24.9108Z" fill="#5AB161"/>
<path fill-rule="evenodd" clip-rule="evenodd" d="M38.5757 45.2551H63.1664C63.8932 45.2551 64.4275 45.9259 64.2602 46.6255C63.4599 49.97 60.1474 58.2074 47.0102 57.2161C38.0928 56.5433 37.3481 49.2462 37.4015 46.391C37.4133 45.7595 37.9372 45.2551 38.5757 45.2551Z" fill="#FF7F90"/>
<path fill-rule="evenodd" clip-rule="evenodd" d="M39.6792 45.2551C39.5464 47.7231 39.9813 53.9089 47.5744 54.4818C59.0375 55.3467 61.5154 48.0002 62.0398 45.2551H39.6792Z" fill="#FFE070"/>
<path fill-rule="evenodd" clip-rule="evenodd" d="M37.804 31.4235C37.7921 31.0791 37.5018 30.8086 37.152 30.8215C36.0148 30.8602 34.9242 31.2179 33.9983 31.8562C31.4752 33.5952 30.1416 36.3721 30.1416 39.8866C30.1416 40.2311 30.424 40.5104 30.7723 40.5104C31.1206 40.5104 31.403 40.2311 31.403 39.8866C31.403 36.7539 32.5188 34.3965 34.7195 32.8798C35.4455 32.3793 36.3016 32.0988 37.1953 32.0684C37.5435 32.0565 37.816 31.7677 37.804 31.4235V31.4235Z" fill="#231F20"/>
<path fill-rule="evenodd" clip-rule="evenodd" d="M30.6311 45.0168C30.4786 45.3783 30.7022 45.7919 31.0899 45.8667C31.4605 45.9445 31.8443 45.662 31.8443 45.2554C31.8444 44.5738 30.8899 44.3906 30.6311 45.0168V45.0168Z" fill="#231F20"/>
<path fill-rule="evenodd" clip-rule="evenodd" d="M63.1664 44.6313C61.3868 44.6313 59.4567 44.6313 58.4378 44.6313C58.8939 43.0164 59.1255 41.4021 59.1255 39.8214C59.1255 35.1528 57.3583 31.4671 54.0152 29.163C51.2972 27.2898 47.6081 27.3613 44.8349 29.3406C44.4751 29.5974 44.0841 29.7884 43.7147 29.8944C43.6555 29.1888 43.4074 27.362 42.3842 25.4605C42.7245 25.0588 42.9753 24.5777 43.1011 24.0444C43.3018 23.1948 43.1873 22.3375 42.761 21.4965C41.1942 18.4051 36.0998 18.0166 35.8837 18.0016C35.5467 17.9782 35.2524 18.22 35.213 18.5508C35.1877 18.7636 34.6243 23.7863 37.4033 25.8848C38.708 26.8699 40.2239 26.9021 41.3871 26.2706C42.1515 27.7885 42.3791 29.2388 42.4453 29.8808C42.0892 29.7725 41.7152 29.5868 41.3701 29.3405C38.5969 27.3612 34.9076 27.2897 32.1899 29.1629C23.0335 35.4735 27.0684 51.5529 37.2571 56.5823C37.8206 56.8605 38.4334 57.0018 39.0487 57.0018C40.0516 57.0018 40.3018 56.6802 41.9855 56.5115C43.3832 57.2493 45.0447 57.6933 46.9622 57.8379C51.9914 58.2176 57.0031 57.3802 60.69 54.0042C63.4226 51.5021 64.4843 48.397 64.8739 46.769C65.1351 45.6777 64.3004 44.6313 63.1664 44.6313V44.6313ZM38.1688 24.8932C36.4593 23.6023 36.3732 20.62 36.4237 19.3205C38.2971 19.5976 40.7849 20.3814 41.6333 22.0555C42.8136 24.3838 40.2724 26.4813 38.1688 24.8932ZM37.8204 55.4661C35.1628 54.1542 32.744 51.8451 31.0097 48.9643C27.792 43.6193 27.7154 37.8257 29.5485 34.0728C30.3148 32.5036 31.4462 31.1961 32.9111 30.1865C35.1863 28.6183 38.289 28.6802 40.632 30.3523C42.2751 31.525 43.9364 31.5204 45.573 30.3523C47.9125 28.6826 51.0151 28.6159 53.294 30.1865C56.5672 32.4424 57.8641 35.9382 57.8641 39.8214C57.8641 41.3974 57.6158 43.0134 57.1255 44.6313C56.1961 44.6313 39.1092 44.6313 38.5759 44.6313C37.5986 44.6313 36.789 45.4156 36.771 46.3794C36.7065 49.813 37.777 53.308 40.4423 55.4908C39.7586 55.6384 38.9273 56.0126 37.8204 55.4661ZM63.6464 46.4818C62.8893 49.6461 59.9817 56.6749 49.1246 56.6742C44.1515 56.6739 40.2268 55.3425 38.6461 50.6356C37.8966 48.3942 38.0363 46.1853 38.0322 46.4024C38.0376 46.1137 38.2814 45.8788 38.5759 45.8788H39.0317C39.0299 47.1728 39.2225 49.1137 40.1735 50.8731C41.5478 53.4158 44.0217 54.8392 47.5266 55.1037C50.0103 55.291 52.6068 55.136 54.9601 54.3277C55.289 54.2147 55.4632 53.8593 55.349 53.5338C55.2346 53.2084 54.8756 53.0363 54.5462 53.1492C52.5932 53.82 50.2639 54.0589 47.6225 53.8597C44.5757 53.6298 42.4438 52.4271 41.286 50.2849C40.4577 48.7524 40.2906 47.032 40.2928 45.8788H61.2517C60.9273 47.1077 60.2402 48.8783 58.8028 50.432C58.5677 50.6862 58.5853 51.0808 58.8424 51.3133C59.0994 51.5459 59.4982 51.5284 59.7335 51.2742C61.4713 49.3958 62.2272 47.2458 62.5509 45.8788H63.1666C63.4883 45.8789 63.7197 46.1757 63.6464 46.4818V46.4818Z" fill="#231F20"/>
<path fill-rule="evenodd" clip-rule="evenodd" d="M47.9267 46.9599C47.5784 46.9599 47.296 47.2392 47.296 47.5837V48.1224C47.296 48.4669 47.5784 48.7462 47.9267 48.7462C48.275 48.7462 48.5574 48.4669 48.5574 48.1224V47.5837C48.5574 47.2392 48.275 46.9599 47.9267 46.9599Z" fill="#231F20"/>
<path fill-rule="evenodd" clip-rule="evenodd" d="M51.841 46.9599C51.4927 46.9599 51.2103 47.2392 51.2103 47.5837V48.1224C51.2103 48.4669 51.4927 48.7462 51.841 48.7462C52.1893 48.7462 52.4717 48.4669 52.4717 48.1224V47.5837C52.4717 47.2392 52.1893 46.9599 51.841 46.9599Z" fill="#231F20"/>
<path fill-rule="evenodd" clip-rule="evenodd" d="M57.2011 52.0383C56.8171 51.9609 56.4474 52.2519 56.4474 52.6496C56.4474 53.0476 56.8193 53.341 57.2011 53.2609C57.8753 53.1308 57.8718 52.1676 57.2011 52.0383V52.0383Z" fill="#231F20"/>
<defs>
<filter id="filter0_d" x="0" y="0" width="88" height="88" filterUnits="userSpaceOnUse" color-interpolation-filters="sRGB">
<feFlood flood-opacity="0" result="BackgroundImageFix"/>
<feColorMatrix in="SourceAlpha" type="matrix" values="0 0 0 0 0 0 0 0 0 0 0 0 0 0 0 0 0 0 127 0"/>
<feOffset dy="2"/>
<feGaussianBlur stdDeviation="5"/>
<feColorMatrix type="matrix" values="0 0 0 0 0 0 0 0 0 0 0 0 0 0 0 0 0 0 0.101961 0"/>
<feBlend mode="normal" in2="BackgroundImageFix" result="effect1_dropShadow"/>
<feBlend mode="normal" in="SourceGraphic" in2="effect1_dropShadow" result="shape"/>
</filter>
</defs>
</svg>
