<svg width="24" height="24" viewBox="0 0 24 24" fill="none" xmlns="http://www.w3.org/2000/svg">
<path d="M12 1.25C12.8661 1.25 13.6407 1.52703 14.4766 1.99609C15.2863 2.45052 16.2142 3.1213 17.3809 3.96484L18.8906 5.05664C19.8267 5.73349 20.5746 6.27401 21.1387 6.77441C21.7212 7.29123 22.1572 7.80702 22.4336 8.45508C22.7107 9.10463 22.7784 9.77045 22.7412 10.5381C22.7053 11.2789 22.5678 12.1726 22.3965 13.2871L22.0811 15.3389C21.8377 16.9225 21.644 18.1836 21.3594 19.166C21.065 20.1819 20.6504 20.989 19.9092 21.6055C19.171 22.2195 18.291 22.4925 17.2168 22.623C16.172 22.7499 14.8541 22.75 13.1895 22.75H10.9092C11.5987 21.6657 12 20.3802 12 19C12 15.134 8.86599 12 5 12C3.74404 12 2.56595 12.3319 1.54688 12.9111C1.40299 11.969 1.29151 11.1937 1.25977 10.5381C1.22261 9.77044 1.28936 9.10464 1.56641 8.45508C1.84285 7.80695 2.27879 7.29127 2.86133 6.77441C3.42549 6.2739 4.17395 5.73368 5.11035 5.05664L6.61914 3.96484C7.78602 3.12113 8.71456 2.45055 9.52441 1.99609C10.3601 1.52715 11.1341 1.25004 12 1.25Z" fill="#A6A6B0"/>
<path d="M5 14C7.76142 14 10 16.2386 10 19C10 21.7614 7.76142 24 5 24C2.23858 24 0 21.7614 0 19C0 16.2386 2.23858 14 5 14ZM6.67188 16.0439C6.66072 16.0495 6.65194 16.0587 6.64551 16.0693C6.3986 16.4221 6.04738 16.6889 5.6416 16.833C4.88117 17.0934 4.2524 17.1589 3.63086 17.4922C2.15858 18.2874 2.16524 19.9721 2.62012 20.8818C3.09415 19.8366 3.92356 18.993 4.95996 18.5C3.78923 19.4663 2.945 20.7703 2.54395 22.2344C2.52973 22.302 2.54332 22.3728 2.58105 22.4307C2.61875 22.4883 2.67775 22.5287 2.74512 22.543C2.81271 22.5572 2.88355 22.5436 2.94141 22.5059C2.99911 22.4681 3.03947 22.4093 3.05371 22.3418C3.13775 22.0163 3.25318 21.6996 3.39844 21.3965C4.00436 21.6309 5.0631 21.8757 5.9541 21.2354C7.98155 19.777 7.0058 16.7394 6.7627 16.083C6.75889 16.0711 6.75181 16.0607 6.74219 16.0527C6.73264 16.0449 6.72125 16.0396 6.70898 16.0381C6.69653 16.0366 6.68314 16.0384 6.67188 16.0439Z" fill="#A6A6B0"/>
</svg>
