<svg width="24" height="24" viewBox="0 0 24 24" fill="none" xmlns="http://www.w3.org/2000/svg">
<path d="M12 1.25C12.8661 1.25 13.6407 1.52703 14.4766 1.99609C15.2864 2.45058 16.2149 3.12111 17.3818 3.96484L18.8906 5.05664C19.827 5.73371 20.5755 6.27388 21.1396 6.77441C21.7222 7.29122 22.1572 7.80705 22.4336 8.45508C22.7107 9.10463 22.7784 9.77045 22.7412 10.5381C22.7053 11.2789 22.5678 12.1726 22.3965 13.2871L22.0811 15.3389C21.8377 16.9225 21.644 18.1836 21.3594 19.166C21.065 20.1819 20.6505 20.989 19.9092 21.6055C19.171 22.2195 18.291 22.4925 17.2168 22.623C16.172 22.7499 14.8541 22.75 13.1895 22.75H10.8115C9.14657 22.75 7.82814 22.7499 6.7832 22.623C5.70921 22.4925 4.82989 22.2193 4.0918 21.6055C3.35056 20.989 2.93599 20.1819 2.6416 19.166C2.35693 18.1835 2.16328 16.9225 1.91992 15.3389L1.60449 13.2871C1.43321 12.1726 1.29564 11.2789 1.25977 10.5381C1.22261 9.77045 1.28937 9.10462 1.56641 8.45508C1.84285 7.80695 2.27879 7.29127 2.86133 6.77441C3.42549 6.27388 4.17392 5.7337 5.11035 5.05664L6.61914 3.96484C7.78606 3.12111 8.71454 2.45056 9.52441 1.99609C10.3601 1.52714 11.1341 1.25007 12 1.25ZM15.5957 6.84766C15.5725 6.84492 15.5484 6.84909 15.5273 6.85938C15.5064 6.86966 15.4886 6.8863 15.4766 6.90625C15.0159 7.56427 14.3614 8.06233 13.6045 8.33105C12.1861 8.81675 11.0138 8.93992 9.85449 9.56152C7.1078 11.045 7.12012 14.1875 7.96875 15.8848C8.85311 13.9348 10.3995 12.3602 12.333 11.4404C10.1489 13.2432 8.57439 15.6768 7.82617 18.4082C7.79963 18.5343 7.82413 18.6665 7.89453 18.7744C7.96494 18.8823 8.07609 18.9578 8.20215 18.9844C8.32815 19.0108 8.45954 18.9854 8.56738 18.915C8.67521 18.8446 8.75082 18.7344 8.77734 18.6084C8.93412 18.0013 9.14995 17.4111 9.4209 16.8457C10.5514 17.2829 12.5254 17.7393 14.1875 16.5449C17.9707 13.8241 16.1507 8.15599 15.6973 6.93164C15.6902 6.90957 15.677 6.88979 15.6592 6.875C15.6412 6.86016 15.6189 6.85041 15.5957 6.84766Z" fill="#A6A6B0"/>
</svg>
