<svg width="16" height="16" viewBox="0 0 16 16" fill="none" xmlns="http://www.w3.org/2000/svg">
<g clip-path="url(#clip0_7542_45264)">
<path d="M3.49998 9.33333H6.44464L5.83664 15.0807C5.8248 15.1968 5.83745 15.3141 5.87377 15.425C5.91008 15.536 5.96926 15.638 6.04747 15.7247C6.12569 15.8113 6.22121 15.8806 6.32786 15.928C6.43451 15.9754 6.54992 15.9999 6.66664 16C6.92798 16 7.17731 15.8747 7.34264 15.6527L13.1666 7.33333C13.259 7.20939 13.3151 7.06225 13.3287 6.9083C13.3424 6.75434 13.313 6.59963 13.2439 6.46139C13.1747 6.32315 13.0686 6.20682 12.9373 6.12535C12.8059 6.04389 12.6545 6.00049 12.5 6H8.89598L9.49598 0.931333C9.49798 0.912 9.49931 0.852667 9.49931 0.833333C9.49931 0.612435 9.41161 0.400574 9.25547 0.244313C9.09933 0.0880521 8.88754 0.000176719 8.66664 0C8.40531 0 8.15598 0.125333 7.98531 0.354L2.83331 8C2.74097 8.12394 2.68486 8.27108 2.67122 8.42504C2.65759 8.57899 2.68697 8.73371 2.75609 8.87195C2.82521 9.01018 2.93135 9.12652 3.0627 9.20798C3.19404 9.28945 3.34542 9.33284 3.49998 9.33333Z" fill="white"/>
</g>
<defs>
<clipPath id="clip0_7542_45264">
<rect width="16" height="16" fill="white"/>
</clipPath>
</defs>
</svg>
