<svg width="24" height="24" viewBox="0 0 24 24" fill="none" xmlns="http://www.w3.org/2000/svg">
<path fill-rule="evenodd" clip-rule="evenodd" d="M14.9223 2.81117C13.2679 1.30285 10.7321 1.30285 9.07766 2.81117C7.79766 3.97814 6.22927 5.58671 4.97628 7.43182C3.72892 9.26863 2.75 11.4044 2.75 13.6108C2.75 17.9 6.25744 22.3199 12 22.3199C17.7426 22.3199 21.25 17.9 21.25 13.6108C21.25 11.4044 20.2711 9.26864 19.0237 7.43182C17.7707 5.58671 16.2023 3.97814 14.9223 2.81117ZM15 13.9198C15 15.5105 13.6569 16.7998 12 16.7998C11.4477 16.7998 11 17.2297 11 17.7598C11 18.29 11.4477 18.7198 12 18.7198C14.7614 18.7198 17 16.5709 17 13.9198C17 13.3897 16.5523 12.9598 16 12.9598C15.4477 12.9598 15 13.3897 15 13.9198Z" fill="#A6A6B0"/>
</svg>
