<svg width="24" height="24" viewBox="0 0 24 24" fill="none" xmlns="http://www.w3.org/2000/svg">
<path d="M16.1406 2H7.85938C4.62344 2 2 4.62344 2 7.85938V16.1406C2 19.3766 4.62344 22 7.85938 22H16.1406C19.3766 22 22 19.3766 22 16.1406V7.85938C22 4.62344 19.3766 2 16.1406 2ZM15.2238 16.1582L12.6906 18.6914C12.3094 19.0727 11.691 19.0727 11.3094 18.6914L8.77617 16.1582C8.39492 15.777 8.39492 15.1586 8.77617 14.777C9.15742 14.3957 9.77578 14.3957 10.1574 14.777L11.0238 15.6434V8.35664L10.1574 9.22305C9.77617 9.6043 9.15781 9.6043 8.77617 9.22305C8.39492 8.8418 8.39492 8.22344 8.77617 7.8418L11.3094 5.30859C11.6906 4.92734 12.309 4.92734 12.6906 5.30859L15.2238 7.8418C15.6051 8.22305 15.6051 8.84141 15.2238 9.22305C14.8426 9.6043 14.2242 9.6043 13.8426 9.22305L12.9762 8.35664V15.643L13.8426 14.7766C14.2238 14.3953 14.8422 14.3953 15.2238 14.7766C15.6051 15.1578 15.6051 15.7762 15.2238 16.1578V16.1582Z" fill="#A6A6B0"/>
</svg>
