<svg width="24" height="24" viewBox="0 0 24 24" fill="none" xmlns="http://www.w3.org/2000/svg">
<path fill-rule="evenodd" clip-rule="evenodd" d="M10 5.5C10 4.94772 10.4477 4.5 11 4.5H21C21.5523 4.5 22 4.94772 22 5.5C22 6.05229 21.5523 6.5 21 6.5H11C10.4477 6.5 10 6.05228 10 5.5Z" fill="#A6A6B0"/>
<path d="M5.51679 16.2355L5.56735 16.2694L5.61407 16.3007C6.10721 16.6309 6.5482 16.9262 6.85806 17.2115C7.19561 17.5224 7.5 17.931 7.5 18.4999C7.5 19.0688 7.19561 19.4775 6.85806 19.7883C6.5482 20.0737 6.10722 20.369 5.61408 20.6992L5.56735 20.7305L5.51678 20.7643C5.02713 21.0924 4.58478 21.3887 4.21244 21.5593C3.81844 21.7399 3.2632 21.8895 2.73265 21.5341C2.24685 21.2088 2.11166 20.6704 2.05607 20.236C1.99994 19.7974 1.99997 19.2218 2 18.5513V18.4999V18.4486C1.99997 17.7781 1.99994 17.2025 2.05607 16.7639C2.11166 16.3295 2.24685 15.7911 2.73265 15.4657C3.2632 15.1104 3.81844 15.26 4.21244 15.4405C4.58478 15.6112 5.02713 15.9075 5.51679 16.2355Z" fill="#A6A6B0"/>
<path d="M5.51679 3.2355L5.56735 3.26937L5.61407 3.30065C6.10721 3.63086 6.5482 3.92613 6.85806 4.21148C7.19561 4.52232 7.5 4.931 7.5 5.49989C7.5 6.06878 7.19561 6.47746 6.85806 6.78831C6.5482 7.07365 6.10722 7.36892 5.61408 7.69913L5.56735 7.73041L5.51678 7.76429C5.02713 8.09232 4.58478 8.38866 4.21244 8.55928C3.81844 8.73983 3.2632 8.88943 2.73265 8.5341C2.24685 8.20873 2.11166 7.67033 2.05607 7.23596C1.99994 6.79734 1.99997 6.22173 2 5.55124V5.49989V5.4486C1.99997 4.77811 1.99994 4.20244 2.05607 3.76382C2.11166 3.32945 2.24685 2.79105 2.73265 2.46568C3.2632 2.11035 3.81844 2.25995 4.21244 2.4405C4.58478 2.61112 5.02713 2.90746 5.51679 3.2355Z" fill="#A6A6B0"/>
<path fill-rule="evenodd" clip-rule="evenodd" d="M10 12C10 11.4477 10.4477 11 11 11H21C21.5523 11 22 11.4477 22 12C22 12.5523 21.5523 13 21 13H11C10.4477 13 10 12.5523 10 12Z" fill="#A6A6B0"/>
<path fill-rule="evenodd" clip-rule="evenodd" d="M10 18.5C10 17.9477 10.4477 17.5 11 17.5H21C21.5523 17.5 22 17.9477 22 18.5C22 19.0523 21.5523 19.5 21 19.5H11C10.4477 19.5 10 19.0523 10 18.5Z" fill="#A6A6B0"/>
</svg>
