<svg width="24" height="24" viewBox="0 0 24 24" fill="none" xmlns="http://www.w3.org/2000/svg">
<path d="M12.8879 9.79066L12.8843 9.8H7.44862C6.65959 9.8 5.92512 10.0294 5.31247 10.4224H3.57812C2.86734 10.4224 2.28906 9.86398 2.28906 9.17755C2.28906 8.49111 2.86734 7.93265 3.57812 7.93265H5.51172C5.86767 7.93265 6.15625 7.65396 6.15625 7.3102C6.15625 6.96644 5.86767 6.68775 5.51172 6.68775H3.57812C2.15655 6.68775 1 7.80467 1 9.17755C1 10.5504 2.15655 11.6673 3.57812 11.6673H4.09869C3.76783 12.2178 3.57812 12.8568 3.57812 13.5379V21.3361C3.57812 21.6798 3.8667 21.9585 4.22266 21.9585H6.80078C7.15673 21.9585 7.44531 21.6798 7.44531 21.3361V16.0829L13.332 16.5935V21.3776C13.332 21.7213 13.6206 22 13.9766 22H16.5547C16.9106 22 17.1992 21.7213 17.1992 21.3776V15.4637L17.9934 11.6287L12.8879 9.79066ZM22.3555 6.0653H20.4106C20.3059 5.11515 19.4732 4.36394 18.4475 4.36394H17.366L16.9714 2.49659C16.8422 1.8858 15.9612 1.81933 15.7358 2.40389L13.3377 8.62398L18.2495 10.3923L18.3721 9.8H19.7773C21.5543 9.8 23 8.40384 23 6.68775C23 6.34399 22.7114 6.0653 22.3555 6.0653Z" fill="#A6A6B0"/>
</svg>
