<svg width="16" height="16" viewBox="0 0 16 16" fill="none" xmlns="http://www.w3.org/2000/svg">
<path d="M14.8619 15.8051C14.9919 15.9351 15.1625 16.0004 15.3332 16.0004C15.5039 16.0004 15.6745 15.9351 15.8045 15.8051C16.0652 15.5443 16.0652 15.1231 15.8045 14.8624L11.1526 10.2105L13.1666 7.33383C13.2743 7.18938 13.3328 7.01407 13.3332 6.83384C13.3332 6.3746 12.9592 6.00061 12.4998 6.00061H8.89593L9.49601 0.931965C9.49795 0.912685 9.4993 0.853373 9.4993 0.833968C9.49992 0.374727 9.12605 0.000735352 8.66669 0.000735352C8.40535 0.000735352 8.15595 0.125983 7.9853 0.354728L5.29273 4.35058L1.13813 0.196075C0.877419 -0.0645445 0.456178 -0.0645445 0.195558 0.196075C-0.0651861 0.456694 -0.0651861 0.87806 0.195558 1.13868L14.8619 15.8051ZM2.83344 8.00056C2.72565 8.14501 2.66723 8.32032 2.66682 8.50055C2.66682 8.95989 3.04084 9.33379 3.50005 9.33379H6.44467L5.83666 15.0811C5.83397 15.0984 5.83337 15.1497 5.83337 15.167C5.83337 15.6264 6.2074 16.0004 6.66673 16.0004C6.92807 16.0004 7.17735 15.875 7.34262 15.653L9.79398 12.1511L3.96476 6.32188L2.83344 8.00056Z" fill="white"/>
</svg>
