<svg width="48" height="48" viewBox="0 0 48 48" fill="none" xmlns="http://www.w3.org/2000/svg">
<path d="M4 10.9696C4 9.6516 4.52678 8.38756 5.46447 7.45557C6.40215 6.52358 7.67392 6 9 6H39C40.3261 6 41.5979 6.52358 42.5355 7.45557C43.4732 8.38756 44 9.6516 44 10.9696V30.8481C44 32.1662 43.4732 33.4302 42.5355 34.3622C41.5979 35.2942 40.3261 35.8178 39 35.8178H15.035C14.372 35.8179 13.7362 36.0798 13.2675 36.5458L6.135 43.635C5.96033 43.809 5.73763 43.9277 5.49509 43.9759C5.25255 44.0241 5.00108 43.9997 4.7725 43.9058C4.54392 43.8119 4.3485 43.6527 4.21099 43.4483C4.07348 43.244 4.00005 43.0037 4 42.7579V10.9696ZM16.5 20.9089C16.5 20.2499 16.2366 19.6178 15.7678 19.1519C15.2989 18.6859 14.663 18.4241 14 18.4241C13.337 18.4241 12.7011 18.6859 12.2322 19.1519C11.7634 19.6178 11.5 20.2499 11.5 20.9089C11.5 21.5679 11.7634 22.1999 12.2322 22.6659C12.7011 23.1319 13.337 23.3937 14 23.3937C14.663 23.3937 15.2989 23.1319 15.7678 22.6659C16.2366 22.1999 16.5 21.5679 16.5 20.9089ZM26.5 20.9089C26.5 20.2499 26.2366 19.6178 25.7678 19.1519C25.2989 18.6859 24.663 18.4241 24 18.4241C23.337 18.4241 22.7011 18.6859 22.2322 19.1519C21.7634 19.6178 21.5 20.2499 21.5 20.9089C21.5 21.5679 21.7634 22.1999 22.2322 22.6659C22.7011 23.1319 23.337 23.3937 24 23.3937C24.663 23.3937 25.2989 23.1319 25.7678 22.6659C26.2366 22.1999 26.5 21.5679 26.5 20.9089ZM34 23.3937C34.663 23.3937 35.2989 23.1319 35.7678 22.6659C36.2366 22.1999 36.5 21.5679 36.5 20.9089C36.5 20.2499 36.2366 19.6178 35.7678 19.1519C35.2989 18.6859 34.663 18.4241 34 18.4241C33.337 18.4241 32.7011 18.6859 32.2322 19.1519C31.7634 19.6178 31.5 20.2499 31.5 20.9089C31.5 21.5679 31.7634 22.1999 32.2322 22.6659C32.7011 23.1319 33.337 23.3937 34 23.3937Z" fill="black"/>
</svg>
