<svg width="88" height="88" viewBox="0 0 88 88" fill="none" xmlns="http://www.w3.org/2000/svg">
<g filter="url(#filter0_d)">
<path fill-rule="evenodd" clip-rule="evenodd" d="M44 76C62.7777 76 78 60.7777 78 42C78 23.2223 62.7777 8 44 8C25.2223 8 10 23.2223 10 42C10 60.7777 25.2223 76 44 76Z" fill="white"/>
</g>
<path fill-rule="evenodd" clip-rule="evenodd" d="M45.0374 38.3051L42.7771 38.3371L37.8116 31.684C35.8467 29.0512 37.7776 25.3588 41.1194 25.3588L41.4086 24.8935C42.0764 23.819 43.1801 23.0701 44.4464 22.8324C44.8126 22.7637 45.1889 22.7637 45.5551 22.8324C46.8213 23.0702 47.925 23.819 48.5928 24.8935L48.8821 25.3588C52.2239 25.3588 54.1549 29.0512 52.1899 31.684L47.2244 38.3371L44.9641 38.3051" fill="#F8A2AA"/>
<path fill-rule="evenodd" clip-rule="evenodd" d="M42.0687 40.3541L41.4014 42.4578L33.3707 45.0015C30.1927 46.0082 27.184 43.0785 28.2167 39.9829L27.8517 39.5712C27.0088 38.6205 26.6186 37.3667 26.7778 36.1202C26.8238 35.7598 26.9401 35.4112 27.1204 35.0932C27.7439 33.9937 28.8162 33.2027 30.0717 32.9162L30.6154 32.792C31.6481 29.6964 35.8502 29.0487 37.8138 31.6825L42.7757 38.3381L42.046 40.422" fill="#F8A2AA"/>
<path fill-rule="evenodd" clip-rule="evenodd" d="M43.1519 43.7372L44.9999 45.0054L45.002 53.2306C45.0029 56.4856 41.2125 58.3672 38.5089 56.454L37.9941 56.665C36.8054 57.152 35.4606 57.126 34.2927 56.5933C33.9549 56.4393 33.6505 56.2239 33.3958 55.9586C32.5148 55.0413 32.0738 53.8036 32.182 52.5519L32.2288 52.0099C29.5252 50.0967 30.1913 46.0041 33.3699 44.999L41.402 42.4593L43.2113 43.7793" fill="#F8A2AA"/>
<path fill-rule="evenodd" clip-rule="evenodd" d="M46.7902 43.7793L48.5996 42.4593L56.6317 44.999C59.8102 46.0041 60.4763 50.0967 57.7727 52.0099L57.8195 52.5519C57.9278 53.8036 57.4867 55.0413 56.6058 55.9586C56.351 56.2239 56.0465 56.4393 55.7088 56.5933C54.5409 57.126 53.1961 57.152 52.0074 56.665L51.4926 56.454C48.789 58.3672 44.9986 56.4856 44.9995 53.2306L45.0017 45.0054L46.8496 43.7372" fill="#F8A2AA"/>
<path fill-rule="evenodd" clip-rule="evenodd" d="M47.9554 40.422L47.2257 38.3381L52.1877 31.6825C54.1513 29.0487 58.3533 29.6964 59.386 32.792L59.9298 32.9162C61.1854 33.2027 62.2577 33.9937 62.8811 35.0932C63.0614 35.4112 63.1777 35.7598 63.2237 36.1202C63.3828 37.3667 62.9927 38.6205 62.1498 39.5711L61.7848 39.9828C62.8175 43.0784 59.8088 46.0081 56.6309 45.0015L48.6001 42.4578L47.9329 40.354" fill="#F8A2AA"/>
<path fill-rule="evenodd" clip-rule="evenodd" d="M44.9994 45.6569C47.4588 45.6569 49.4525 43.715 49.4525 41.3196C49.4525 38.9241 47.4588 36.9822 44.9994 36.9822C42.54 36.9822 40.5463 38.9241 40.5463 41.3196C40.5463 43.715 42.54 45.6569 44.9994 45.6569Z" fill="#FFCB7C"/>
<path fill-rule="evenodd" clip-rule="evenodd" d="M44.9994 42.7653C45.8192 42.7653 46.4838 42.118 46.4838 41.3196C46.4838 40.5211 45.8192 39.8738 44.9994 39.8738C44.1796 39.8738 43.515 40.5211 43.515 41.3196C43.515 42.118 44.1796 42.7653 44.9994 42.7653Z" fill="#F8A2AA"/>
<path fill-rule="evenodd" clip-rule="evenodd" d="M45.0007 30.674C45.1959 30.674 45.3874 30.5966 45.5255 30.4622C45.6635 30.3277 45.7429 30.1412 45.7429 29.9511C45.7429 29.761 45.6635 29.5744 45.5255 29.44C45.3874 29.3055 45.1959 29.2282 45.0007 29.2282C44.8055 29.2282 44.6141 29.3055 44.476 29.44C44.338 29.5744 44.2585 29.761 44.2585 29.9511C44.2585 30.1412 44.338 30.3277 44.476 30.4622C44.6141 30.5967 44.8055 30.674 45.0007 30.674V30.674Z" fill="black"/>
<path fill-rule="evenodd" clip-rule="evenodd" d="M33.899 38.5283C34.0942 38.5283 34.2857 38.4509 34.4238 38.3165C34.5618 38.182 34.6412 37.9955 34.6412 37.8054C34.6412 37.6153 34.5618 37.4288 34.4238 37.2943C34.2857 37.1598 34.0942 37.0825 33.899 37.0825C33.7039 37.0825 33.5124 37.1598 33.3743 37.2943C33.2363 37.4288 33.1569 37.6153 33.1569 37.8054C33.1569 37.9955 33.2363 38.182 33.3743 38.3165C33.5124 38.4508 33.7039 38.5283 33.899 38.5283Z" fill="black"/>
<path fill-rule="evenodd" clip-rule="evenodd" d="M38.1377 49.7931C37.9425 49.7931 37.751 49.8704 37.613 50.0049C37.4749 50.1394 37.3955 50.3259 37.3955 50.516C37.3955 50.7068 37.4749 50.8926 37.613 51.0271C37.751 51.1615 37.9418 51.2389 38.1377 51.2389C38.3329 51.2389 38.5244 51.1615 38.6624 51.0271C38.8005 50.8926 38.8799 50.7068 38.8799 50.516C38.8799 50.3259 38.8005 50.1394 38.6624 50.0049C38.5244 49.8704 38.3329 49.7931 38.1377 49.7931Z" fill="black"/>
<path fill-rule="evenodd" clip-rule="evenodd" d="M51.8593 49.7945C51.6633 49.7945 51.4726 49.8718 51.3338 50.0063C51.1957 50.1407 51.1163 50.3272 51.1163 50.5174C51.1163 50.7075 51.1957 50.894 51.3338 51.0284C51.4718 51.1636 51.6633 51.2402 51.8593 51.2402C52.0545 51.2402 52.2452 51.1636 52.384 51.0284C52.522 50.894 52.6007 50.7082 52.6007 50.5174C52.6007 50.3272 52.522 50.1407 52.384 50.0063C52.2453 49.8719 52.0545 49.7945 51.8593 49.7945Z" fill="black"/>
<path fill-rule="evenodd" clip-rule="evenodd" d="M62.7106 40.0448C63.6888 38.9415 64.1439 37.4789 63.9592 36.0323C63.9012 35.5784 63.7567 35.1452 63.5298 34.7449C62.8061 33.4688 61.5554 32.5461 60.0981 32.2135L59.9403 32.1774C59.2917 30.6902 57.9124 29.632 56.251 29.3759C55.3718 29.2405 54.4969 29.343 53.7064 29.6496C53.7619 28.8219 53.5917 27.979 53.1873 27.206C52.4239 25.7461 50.9643 24.7955 49.3117 24.6542L49.2278 24.5191C48.4527 23.272 47.1652 22.3985 45.6956 22.1225C45.2345 22.0359 44.767 22.0359 44.3059 22.1225C42.8362 22.3984 41.5488 23.2719 40.7737 24.5191L40.6898 24.6542C39.0371 24.7954 37.5776 25.746 36.8141 27.2059C36.4102 27.9784 36.2398 28.8205 36.295 29.6475C35.504 29.3403 34.6285 29.2376 33.7487 29.3733C32.0873 29.6293 30.708 30.6876 30.0594 32.1748L29.9016 32.2109C28.4443 32.5435 27.1935 33.4661 26.4699 34.7423C26.2429 35.1427 26.0984 35.5758 26.0405 36.0296C25.8558 37.4763 26.3109 38.9389 27.2891 40.0421L27.395 40.1617C27.0222 41.7363 27.4995 43.3819 28.6891 44.5403C29.3186 45.1533 30.0881 45.5714 30.9127 45.7759C30.3684 46.4136 29.9976 47.1929 29.8581 48.0498C29.5948 49.6679 30.2019 51.2726 31.4536 52.333L31.44 52.4903C31.3145 53.943 31.8289 55.3867 32.8514 56.4514C33.1722 56.7854 33.5504 57.0531 33.9757 57.247C35.3313 57.8652 36.8999 57.8956 38.2796 57.3303L38.429 57.2691C39.1899 57.7141 40.0459 57.9401 40.9069 57.9401C41.6552 57.9401 42.4075 57.7694 43.1043 57.4235C43.8974 57.0298 44.5433 56.446 44.9978 55.7454C45.4523 56.4467 46.0987 57.0311 46.8923 57.425C47.5893 57.771 48.3413 57.9417 49.0898 57.9417C49.9507 57.9416 50.8069 57.7156 51.5677 57.2706L51.7172 57.3318C53.0969 57.8971 54.6656 57.8668 56.0211 57.2486C56.4463 57.0547 56.8245 56.7871 57.1454 56.4529C58.1678 55.3883 58.6823 53.9445 58.5567 52.4919L58.543 52.3345C59.7948 51.2741 60.4019 49.6693 60.1386 48.0512C59.9993 47.195 59.6288 46.4163 59.0853 45.7788C59.9105 45.5744 60.6808 45.1561 61.3106 44.5426C62.5002 43.3844 62.9774 41.7385 62.6047 40.164L62.7106 40.0448ZM38.1368 27.8623C38.7198 26.7474 39.8348 26.0818 41.1194 26.0818C41.3791 26.0818 41.6199 25.9496 41.7544 25.7333L42.0436 25.2679C42.6017 24.3699 43.5287 23.7409 44.5869 23.5422C44.8615 23.4906 45.14 23.4906 45.4146 23.5422C46.4728 23.7409 47.3999 24.3699 47.9579 25.2679L48.2472 25.7333C48.3817 25.9497 48.6224 26.0818 48.8821 26.0818C50.1667 26.0818 51.2817 26.7474 51.8647 27.8623C52.4396 28.9614 52.3464 30.2107 51.6198 31.2156C51.6087 31.2301 47.421 36.8445 47.421 36.8445C46.906 36.5791 46.3403 36.3955 45.7417 36.3117V33.204C45.7417 32.8048 45.4094 32.4811 44.9995 32.4811C44.5896 32.4811 44.2573 32.8048 44.2573 33.204V36.3117C43.6595 36.3954 43.0945 36.5786 42.5801 36.8435C42.5801 36.8435 38.3919 31.2286 38.3812 31.2145C37.6551 30.2099 37.5622 28.9611 38.1368 27.8623V27.8623ZM44.9994 44.934C42.9532 44.934 41.2884 43.3126 41.2884 41.3196C41.2884 39.3265 42.9532 37.7051 44.9994 37.7051C47.0456 37.7051 48.7103 39.3265 48.7103 41.3196C48.7103 43.3126 47.0456 44.934 44.9994 44.934ZM28.9217 40.2049C29.0019 39.9644 28.9473 39.7005 28.7775 39.5091L28.4125 39.0973C27.7081 38.3029 27.3804 37.2498 27.5134 36.2081C27.5479 35.9378 27.634 35.6799 27.7693 35.4414C28.2903 34.5225 29.1908 33.8581 30.2401 33.6187L30.7839 33.4945C31.0368 33.4369 31.2402 33.2546 31.3205 33.0141C31.7174 31.8242 32.7119 30.997 33.9807 30.8014C35.2317 30.6086 36.4224 31.0809 37.1791 32.0642C37.1899 32.0791 41.3792 37.695 41.3792 37.695C40.9567 38.0955 40.6037 38.5648 40.3398 39.0847L37.3044 38.1241C36.9146 38.0008 36.4958 38.2085 36.3692 38.5882C36.2425 38.9679 36.4559 39.3757 36.8457 39.4991L39.8806 40.4596C39.8313 40.7393 39.8041 41.0263 39.8041 41.3195C39.8041 41.6122 39.8311 41.8986 39.8803 42.1779C39.8803 42.1779 33.1048 44.3219 33.0879 44.3275C31.8823 44.6899 30.634 44.3901 29.7384 43.518C28.83 42.6334 28.5247 41.3949 28.9217 40.2049ZM42.4302 56.1355C41.2857 56.7036 39.982 56.6039 38.9427 55.8684C38.7326 55.7198 38.458 55.689 38.2187 55.7869L37.704 55.9979C36.7105 56.4048 35.581 56.383 34.605 55.9379C34.3516 55.8224 34.1263 55.6629 33.9353 55.4639C33.1991 54.6974 32.8287 53.6578 32.9191 52.6118L32.966 52.0698C32.9877 51.8178 32.8728 51.5729 32.6626 51.4243C31.6234 50.6889 31.123 49.512 31.3241 48.2763C31.5226 47.0571 32.3529 46.0992 33.5487 45.7027C33.5655 45.6976 40.3395 43.5538 40.3395 43.5538C40.6033 44.0738 40.9563 44.5432 41.3788 44.9436L39.5015 47.4602C39.2605 47.7832 39.3341 48.2353 39.6656 48.47C39.7974 48.5632 39.95 48.608 40.1013 48.608C40.3308 48.608 40.5571 48.5047 40.7024 48.31L42.5786 45.7948C43.0929 46.0598 43.6579 46.2432 44.2557 46.327C44.2557 46.327 44.2555 53.2663 44.2557 53.2839C44.2365 54.5123 43.5581 55.5756 42.4302 56.1355V56.1355ZM57.3339 51.4258C57.1238 51.5745 57.0088 51.8193 57.0306 52.0713L57.0774 52.6134C57.1679 53.6593 56.7975 54.6989 56.0613 55.4655C55.8701 55.6645 55.6449 55.8239 55.3916 55.9394C54.4156 56.3845 53.286 56.4065 52.2926 55.9994L51.7778 55.7885C51.5385 55.6906 51.2639 55.7214 51.0538 55.87C50.0145 56.6055 48.7108 56.7053 47.5664 56.1371C46.4382 55.577 45.7597 54.5132 45.741 53.2845C45.7412 53.2662 45.741 46.3274 45.741 46.3274C46.3397 46.2437 46.9054 46.0602 47.4204 45.7948L49.2966 48.3101C49.4418 48.5047 49.6681 48.6081 49.8977 48.6081C50.0489 48.6081 50.2016 48.5632 50.3333 48.47C50.6649 48.2353 50.7384 47.7833 50.4975 47.4603L48.6202 44.9436C49.0421 44.5437 49.3947 44.0749 49.6584 43.5558C49.6584 43.5558 56.4333 45.6999 56.4496 45.7049C57.6445 46.1016 58.4742 47.0592 58.6726 48.278C58.8736 49.5136 58.3732 50.6904 57.3339 51.4258V51.4258ZM61.5871 39.0999L61.2221 39.5116C61.0524 39.703 60.9977 39.9669 61.078 40.2075C61.475 41.3973 61.1696 42.6359 60.2611 43.5205C59.3654 44.3927 58.1167 44.6925 56.911 44.3298C56.8934 44.324 50.118 42.1799 50.118 42.1799C50.1674 41.9 50.1947 41.6129 50.1947 41.3195C50.1947 41.0263 50.1675 40.7393 50.1181 40.4596L53.153 39.4991C53.5428 39.3757 53.7562 38.9679 53.6295 38.5882C53.5028 38.2086 53.0842 38.0008 52.6943 38.1241L49.6589 39.0847C49.3953 38.5654 49.0429 38.0966 48.6211 37.6965C48.6211 37.6965 52.8104 32.0806 52.8208 32.0664C53.5775 31.0833 54.7683 30.6109 56.0188 30.8039C57.2876 30.9994 58.2821 31.8266 58.6791 33.0166C58.7594 33.2571 58.9628 33.4393 59.2156 33.497L59.7594 33.6211C60.8087 33.8606 61.7093 34.525 62.2303 35.4438C62.3654 35.6822 62.4515 35.9402 62.486 36.2106C62.6192 37.2524 62.2915 38.3055 61.5871 39.0999Z" fill="black"/>
<path fill-rule="evenodd" clip-rule="evenodd" d="M56.101 37.0847C55.905 37.0847 55.7135 37.162 55.5755 37.2965C55.4374 37.4309 55.3588 37.6174 55.3588 37.8075C55.3588 37.9984 55.4374 38.1842 55.5755 38.3186C55.7135 38.4538 55.905 38.5304 56.101 38.5304C56.2961 38.5304 56.4876 38.4538 56.6257 38.3186C56.7637 38.1842 56.8431 37.9984 56.8431 37.8075C56.8431 37.6174 56.7637 37.4309 56.6257 37.2965C56.4876 37.1619 56.2961 37.0847 56.101 37.0847Z" fill="black"/>
<path fill-rule="evenodd" clip-rule="evenodd" d="M44.9994 39.1509C43.7717 39.1509 42.7728 40.1237 42.7728 41.3196C42.7728 42.5154 43.7717 43.4882 44.9994 43.4882C46.2271 43.4882 47.226 42.5154 47.226 41.3196C47.226 40.1237 46.2271 39.1509 44.9994 39.1509V39.1509ZM44.9994 42.0424C44.5901 42.0424 44.2572 41.7182 44.2572 41.3196C44.2572 40.921 44.5901 40.5967 44.9994 40.5967C45.4086 40.5967 45.7416 40.921 45.7416 41.3196C45.7416 41.7182 45.4086 42.0424 44.9994 42.0424V42.0424Z" fill="black"/>
<defs>
<filter id="filter0_d" x="0" y="0" width="88" height="88" filterUnits="userSpaceOnUse" color-interpolation-filters="sRGB">
<feFlood flood-opacity="0" result="BackgroundImageFix"/>
<feColorMatrix in="SourceAlpha" type="matrix" values="0 0 0 0 0 0 0 0 0 0 0 0 0 0 0 0 0 0 127 0"/>
<feOffset dy="2"/>
<feGaussianBlur stdDeviation="5"/>
<feColorMatrix type="matrix" values="0 0 0 0 0 0 0 0 0 0 0 0 0 0 0 0 0 0 0.101961 0"/>
<feBlend mode="normal" in2="BackgroundImageFix" result="effect1_dropShadow"/>
<feBlend mode="normal" in="SourceGraphic" in2="effect1_dropShadow" result="shape"/>
</filter>
</defs>
</svg>
