<svg width="48" height="48" viewBox="0 0 48 48" fill="none" xmlns="http://www.w3.org/2000/svg">
    <defs>
        <linearGradient id="paint0_linear_2108_23420" x1="24" y1="48" x2="24" y2="0"
            gradientUnits="userSpaceOnUse">
            <stop stop-color="#FFC2CC" />
            <stop offset="1" stop-color="#FFF2F4" />
        </linearGradient>
        <linearGradient id="paint1_linear_2108_23420" x1="24" y1="38.1563" x2="24" y2="9.8438"
            gradientUnits="userSpaceOnUse">
            <stop stop-color="#FFA68D" />
            <stop offset="1" stop-color="#FD3A84" />
        </linearGradient>
        <clipPath id="clip0_2108_23420">
            <rect width="48" height="48" fill="white" />
        </clipPath>
    </defs>
    <g clip-path="url(#clip0_2108_23420)">
        <path
            d="M24 48C37.2548 48 48 37.2548 48 24C48 10.7452 37.2548 0 24 0C10.7452 0 0 10.7452 0 24C0 37.2548 10.7452 48 24 48Z"
            fill="url(#paint0_linear_2108_23420)" />
        <path
            d="M14.8219 19.8204H33.1781C34.0981 19.8204 34.8469 19.0724 34.8469 18.1535V17.3201C34.8469 16.8598 34.4733 16.4866 34.0125 16.4866H13.9875C13.5267 16.4866 13.1531 16.8598 13.1531 17.3201V18.1535C13.1531 19.0724 13.9019 19.8204 14.8219 19.8204V19.8204ZM24.8344 29.8218C26.6751 29.8218 28.1719 28.3267 28.1719 26.488C26.3312 26.488 24.8344 27.9831 24.8344 29.8218ZM19.8281 26.488C19.8281 28.3266 21.3249 29.8218 23.1656 29.8218C23.1656 27.9831 21.6688 26.488 19.8281 26.488ZM35.6813 34.8225H30.675C30.2138 34.8225 29.8406 34.4497 29.8406 33.989C29.8406 33.5283 30.2138 33.1556 30.675 33.1556H34.8469V27.7219C34.8469 25.5876 34.4062 23.4631 33.6078 21.4874H14.3922C13.5938 23.4631 13.1531 25.5877 13.1531 27.7219V33.1556H17.325C17.7862 33.1556 18.1594 33.5283 18.1594 33.989C18.1594 34.4497 17.7862 34.8225 17.325 34.8225H12.3187C11.858 34.8225 11.4844 35.1955 11.4844 35.6557V37.3228C11.4844 37.7835 11.8576 38.1562 12.3187 38.1562H35.6813C36.1424 38.1562 36.5156 37.7835 36.5156 37.3228V35.6557C36.5156 35.1954 36.1421 34.8225 35.6813 34.8225ZM24.8344 31.4887V33.989C24.8344 34.4497 24.4612 34.8225 24 34.8225C23.5388 34.8225 23.1656 34.4497 23.1656 33.989V31.4887C20.4051 31.4887 18.1594 29.2455 18.1594 26.488V25.6545C18.1594 25.1939 18.5326 24.8211 18.9938 24.8211H19.8281C21.5697 24.8211 23.1029 25.7161 24 27.0676C24.8971 25.7161 26.4303 24.8211 28.1719 24.8211H29.0062C29.4674 24.8211 29.8406 25.1939 29.8406 25.6545V26.488C29.8406 29.2455 27.5949 31.4887 24.8344 31.4887ZM30.6392 13.4995C30.4028 11.8912 29.012 10.6524 27.3375 10.6524C27.0881 10.6524 26.8429 10.68 26.6042 10.7338C25.1017 9.54708 22.8983 9.54708 21.3959 10.7338C21.1571 10.68 20.9119 10.6524 20.6626 10.6524C19.0208 10.6524 17.6518 11.8431 17.3871 13.488C16.6954 13.7754 16.1147 14.2438 15.6763 14.8197H32.3239C31.8909 14.2513 31.3197 13.7874 30.6392 13.4995Z"
            fill="url(#paint1_linear_2108_23420)" />
    </g>
</svg>
