<svg width="48" height="48" viewBox="0 0 48 48" fill="none" xmlns="http://www.w3.org/2000/svg">
<mask id="mask0" style="mask-type:alpha" maskUnits="userSpaceOnUse" x="0" y="0" width="48" height="48">
<rect x="48" y="48" width="48" height="48" transform="rotate(-180 48 48)" fill="#C4C4C4"/>
</mask>
<g mask="url(#mask0)">
<path d="M42.995 18.3128C42.995 17.7186 42.9814 17.1277 42.995 16.5301C43.0415 15.7116 42.764 14.9077 42.2224 14.2919C42.1204 14.1067 41.9743 13.9495 41.797 13.834C41.6197 13.7186 41.4167 13.6485 41.206 13.63L40.6977 13.5115C38.3632 13.4488 36.0253 13.5301 33.6925 13.4031C31.8103 13.4031 29.9281 13.4234 28.0459 13.4031C27.0633 13.3879 26.0824 13.4573 25.0981 13.3879C24.9033 13.3252 24.8305 13.1559 24.7491 12.9934C24.29 12.0707 23.8191 11.1548 23.3684 10.2287C23.1946 9.85268 22.9829 9.4953 22.7365 9.16215C22.1535 8.49175 21.3304 8.07709 20.4443 8.00752C16.5682 7.99059 12.6903 8.00752 8.81241 8.00752C8.26673 8.0562 7.73619 8.21284 7.25164 8.46832C6.7671 8.7238 6.33822 9.07302 5.98998 9.49567C5.49082 10.1085 5.16551 10.8441 5.04805 11.6255C5.03193 11.696 5.02341 11.7681 5.02263 11.8405C4.99891 12.3314 5.0023 12.8241 5.01247 13.3151C4.98536 15.257 5.01247 20.0591 5.0023 21.9925C5.01249 22.0728 5.01759 22.1536 5.01755 22.2346C5.00231 22.7425 4.99553 23.2504 5.01755 23.7583C4.99045 25.7391 5.01755 27.7199 5.01755 29.7007C5.01755 30.2289 5.01755 30.7572 5.01755 31.2871C5.03111 32.1336 5.02772 35.8488 5.01755 36.7037C5.00374 37.6373 5.30181 38.5488 5.86462 39.294C6.15932 39.6405 6.48982 39.9549 6.85061 40.232C7.53041 40.7098 8.34043 40.968 9.17157 40.9718C10.122 40.9887 11.0741 40.9718 12.0245 40.9819C12.5531 40.9938 13.0833 40.9684 13.6136 40.9819C15.5601 40.9819 17.5101 41.0006 19.4533 40.9667C19.5342 40.9664 19.615 40.9704 19.6955 40.9786C20.2038 40.9887 20.712 40.9633 21.2203 40.9786C23.1651 40.9786 25.1168 40.9972 27.0565 40.9633C27.138 40.9631 27.2194 40.967 27.3005 40.9752C27.8087 40.987 28.317 40.9599 28.8252 40.9752C30.809 40.9752 32.7929 40.9853 34.7784 40.9667C35.3188 40.9413 35.8694 41.0751 36.3963 40.8533L38.9223 40.8397C39.9995 40.8362 41.0316 40.4069 41.7934 39.6457C42.5551 38.8845 42.9846 37.8531 42.9882 36.7765V35.9199L42.995 18.3128ZM28.1594 28.5325C27.3445 28.5495 26.5297 28.5461 25.7148 28.5325C25.4759 28.5325 25.4082 28.5952 25.4132 28.8339C25.4268 29.6059 25.4217 30.3796 25.4132 31.1516C25.4132 31.9897 24.8203 32.6025 24.041 32.5907C23.2617 32.5788 22.7145 31.971 22.7128 31.1499C22.7128 30.3915 22.7128 29.6262 22.7246 28.8745C22.7416 28.6375 22.684 28.5004 22.3858 28.5359C22.098 28.552 21.8096 28.552 21.5218 28.5359C21.0017 28.5359 20.4816 28.5596 19.9632 28.5444C19.6305 28.509 19.3226 28.3518 19.0989 28.1032C18.8752 27.8545 18.7514 27.532 18.7514 27.1976C18.7514 26.8632 18.8752 26.5407 19.0989 26.292C19.3226 26.0434 19.6305 25.8862 19.9632 25.8508C20.7781 25.8339 21.5947 25.8373 22.4095 25.8508C22.6484 25.8508 22.7145 25.7865 22.7094 25.5478C22.6958 24.7758 22.7094 24.0021 22.7094 23.2301C22.7094 22.409 23.2786 21.8012 24.0393 21.791C24.8 21.7808 25.4048 22.3937 25.4098 23.2318C25.4098 23.7092 25.4098 24.1866 25.398 24.664C25.4141 24.9511 25.4141 25.2387 25.398 25.5258C25.3675 25.8187 25.5064 25.8745 25.7368 25.8644C26.5381 25.8644 27.3395 25.8407 28.1391 25.8644C28.4703 25.9015 28.7761 26.0594 28.9982 26.3076C29.2203 26.5559 29.3431 26.8773 29.3431 27.2103C29.3431 27.5433 29.2203 27.8647 28.9982 28.113C28.7761 28.3613 28.4703 28.5191 28.1391 28.5562L28.1594 28.5325Z" fill="#74839A"/>
<path d="M37.4033 18.8158C37.1691 18.8293 36.9344 18.8293 36.7002 18.8158H37.4033Z" fill="#74839A"/>
<path d="M38.9507 18.4366V17.8627C38.9708 18.0535 38.9708 18.2458 38.9507 18.4366Z" fill="#74839A"/>
<path d="M36.7002 18.8124H37.4033C37.1691 18.826 36.9344 18.826 36.7002 18.8124Z" fill="#74839A"/>
<path d="M38.9507 18.4366V17.8627C38.9708 18.0535 38.9708 18.2458 38.9507 18.4366Z" fill="#74839A"/>
</g>
</svg>
