<svg width="24" height="24" viewBox="0 0 24 24" fill="none" xmlns="http://www.w3.org/2000/svg">
<path d="M7.45975 3.69691C7.50124 3.5998 7.51091 3.49204 7.48738 3.38909C7.46385 3.28614 7.40833 3.19328 7.32878 3.12383C7.24922 3.05437 7.14972 3.0119 7.04453 3.00248C6.93935 2.99306 6.83388 3.0172 6.74325 3.07141C3.97025 4.73491 2.94675 9.01141 4.55325 12.2234C6.04775 15.2119 6.94975 17.0154 5.54125 20.3029C5.49977 20.4 5.49009 20.5078 5.51362 20.6107C5.53715 20.7137 5.59267 20.8065 5.67223 20.876C5.75179 20.9455 5.85129 20.9879 5.95648 20.9973C6.06166 21.0068 6.16713 20.9826 6.25775 20.9284C9.02975 19.2649 10.0533 14.9884 8.44725 11.7749C6.95325 8.78691 6.05125 6.98341 7.45975 3.69691ZM12.9598 3.69691C13.0012 3.5998 13.0109 3.49204 12.9874 3.38909C12.9639 3.28614 12.9083 3.19328 12.8288 3.12383C12.7492 3.05437 12.6497 3.0119 12.5445 3.00248C12.4393 2.99306 12.3339 3.0172 12.2433 3.07141C9.47075 4.73491 8.44725 9.01191 10.0533 12.2239C11.5478 15.2124 12.4498 17.0159 11.0413 20.3034C10.9998 20.4005 10.9901 20.5083 11.0136 20.6112C11.0372 20.7142 11.0927 20.807 11.1722 20.8765C11.2518 20.946 11.3513 20.9884 11.4565 20.9978C11.5617 21.0073 11.6671 20.9831 11.7578 20.9289C14.5298 19.2654 15.5533 14.9889 13.9473 11.7754C12.4533 8.78691 11.5513 6.98341 12.9598 3.69691ZM19.4473 11.7754C17.9533 8.78691 17.0513 6.98341 18.4598 3.69691C18.5012 3.5998 18.5109 3.49204 18.4874 3.38909C18.4639 3.28614 18.4083 3.19328 18.3288 3.12383C18.2492 3.05437 18.1497 3.0119 18.0445 3.00248C17.9393 2.99306 17.8339 3.0172 17.7433 3.07141C14.9708 4.73491 13.9473 9.01191 15.5533 12.2239C17.0478 15.2124 17.9498 17.0159 16.5413 20.3034C16.4998 20.4005 16.4901 20.5083 16.5136 20.6112C16.5372 20.7142 16.5927 20.807 16.6722 20.8765C16.7518 20.946 16.8513 20.9884 16.9565 20.9978C17.0617 21.0073 17.1671 20.9831 17.2578 20.9289C20.0298 19.2654 21.0533 14.9884 19.4473 11.7754Z" fill="#A6A6B0"/>
</svg>
