<svg width="48" height="48" viewBox="0 0 48 48" fill="none" xmlns="http://www.w3.org/2000/svg">
<mask id="mask0" style="mask-type:alpha" maskUnits="userSpaceOnUse" x="0" y="0" width="48" height="48">
<rect x="48" y="48" width="48" height="48" transform="rotate(-180 48 48)" fill="#C4C4C4"/>
</mask>
<g mask="url(#mask0)">
<path d="M42.9938 18.1806C42.9938 17.5864 42.9802 16.9955 42.9938 16.3979C43.0403 15.5794 42.7628 14.7756 42.2213 14.1598C42.1192 13.9746 41.9731 13.8173 41.7958 13.7019C41.6186 13.5865 41.4156 13.5164 41.2048 13.4979L40.6966 13.3794C38.3622 13.3167 36.0243 13.398 33.6916 13.271C31.8095 13.271 29.9273 13.2913 28.0452 13.271C27.0626 13.2558 26.0818 13.3252 25.0975 13.2558C24.9027 13.1931 24.8298 13.0238 24.7485 12.8613C24.2894 11.9387 23.8185 11.0228 23.3678 10.0967C23.194 9.72069 22.9823 9.36333 22.7359 9.03019C22.153 8.35981 21.3298 7.94516 20.4439 7.8756C16.5678 7.85867 12.69 7.8756 8.81229 7.8756C8.26662 7.92427 7.7361 8.0809 7.25157 8.33637C6.76704 8.59185 6.33818 8.94106 5.98995 9.3637C5.4908 9.9765 5.1655 10.712 5.04804 11.4934C5.03193 11.564 5.02341 11.6361 5.02263 11.7084C4.99891 12.1994 5.0023 12.692 5.01246 13.183C4.98536 15.1248 5.01247 19.9268 5.0023 21.8601C5.01249 21.9404 5.01759 22.0213 5.01755 22.1022C5.00231 22.6101 4.99553 23.118 5.01755 23.6259C4.99045 25.6066 5.01755 27.5874 5.01755 29.5681C5.01755 30.0963 5.01755 30.6245 5.01755 31.1544C5.0311 32.0009 5.02772 35.716 5.01755 36.5709C5.00374 37.5044 5.3018 38.4159 5.86459 39.1611C6.15928 39.5076 6.48977 39.822 6.85055 40.099C7.53033 40.5769 8.34033 40.8351 9.17144 40.8388C10.1218 40.8558 11.0739 40.8388 12.0243 40.849C12.5528 40.8608 13.0831 40.8355 13.6133 40.849C15.5598 40.849 17.5097 40.8676 19.4528 40.8338C19.5337 40.8334 19.6146 40.8374 19.6951 40.8456C20.2033 40.8558 20.7115 40.8304 21.2197 40.8456C23.1646 40.8456 25.1161 40.8642 27.0559 40.8304C27.1373 40.8301 27.2187 40.8341 27.2998 40.8422C27.808 40.8541 28.3162 40.827 28.8245 40.8422C30.8082 40.8422 32.792 40.8524 34.7775 40.8338C35.3179 40.8084 35.8685 40.9421 36.3953 40.7203L38.9212 40.7068C39.9984 40.7032 41.0305 40.274 41.7922 39.5128C42.5539 38.7516 42.9834 37.7202 42.987 36.6437V35.7871L42.9938 18.1806Z" fill="#74839A"/>
<path d="M37.4032 18.6836C37.1691 18.6971 36.9343 18.6971 36.7002 18.6836H37.4032Z" fill="#74839A"/>
<path d="M38.9497 18.3044V17.7304C38.9698 17.9212 38.9698 18.1136 38.9497 18.3044Z" fill="#74839A"/>
<path d="M36.7002 18.6802H37.4032C37.1691 18.6937 36.9343 18.6937 36.7002 18.6802Z" fill="#74839A"/>
<path d="M38.9497 18.3044V17.7304C38.9698 17.9212 38.9698 18.1136 38.9497 18.3044Z" fill="#74839A"/>
</g>
</svg>
