<svg width="24" height="24" viewBox="0 0 24 24" fill="none" xmlns="http://www.w3.org/2000/svg">
<path d="M16.334 2C19.7232 2.00008 22 4.37844 22 7.91699V16.083C22 19.6215 19.7232 21.9999 16.333 22H7.66602C4.27682 21.9999 2 19.6216 2 16.083V7.91699C2 4.37844 4.27682 2.00008 7.66602 2H16.334ZM17.4365 12.5498C16.3647 11.8813 15.5367 12.8208 15.3135 13.1211C15.0984 13.411 14.9137 13.731 14.7188 14.0508C14.2421 14.8402 13.6952 15.7499 12.75 16.2793C11.3767 17.0395 10.3341 16.3398 9.58398 15.8301C9.30245 15.6402 9.02834 15.4605 8.75586 15.3408C8.0843 15.0511 7.4798 15.3814 6.58301 16.5205C6.11259 17.1157 5.64626 17.7059 5.17383 18.2939C4.89134 18.6458 4.95883 19.1885 5.33984 19.4238C5.9481 19.7983 6.68989 19.9999 7.52832 20H15.9561C16.4317 20 16.9088 19.9347 17.3633 19.7861C18.3868 19.4517 19.1997 18.686 19.624 17.6748C19.9819 16.8245 20.1551 15.7921 19.8203 14.9336C19.7087 14.6489 19.5418 14.3835 19.3076 14.1504C18.6933 13.5406 18.1192 12.9708 17.4365 12.5498ZM8.49902 6C7.12043 6.00006 6 7.12177 6 8.5C6 9.87823 7.12043 10.9999 8.49902 11C9.87653 10.9998 10.998 9.87817 10.998 8.5C10.998 7.12183 9.87653 6.00015 8.49902 6Z" fill="#A6A6B0"/>
</svg>
