<svg width="24" height="24" viewBox="0 0 24 24" fill="none" xmlns="http://www.w3.org/2000/svg">
<path d="M12.0572 1.75C14.2479 1.74999 15.9686 1.74997 17.312 1.93059C18.1832 2.04773 18.9405 2.24574 19.5967 2.59288C19.8513 2.72757 19.9786 2.79492 20.0042 2.93916C20.0298 3.0834 19.9244 3.2005 19.7136 3.43471L12.3849 11.5775C12.1864 11.7981 12.0871 11.9084 11.9582 11.9118C11.8294 11.9152 11.7245 11.8102 11.5146 11.6004L9.20711 9.2929C8.81658 8.90238 8.18342 8.90238 7.79289 9.2929C7.40237 9.68342 7.40237 10.3166 7.79289 10.7071L11.2929 14.2071C11.4869 14.4011 11.752 14.5069 12.0263 14.4996C12.3005 14.4924 12.5598 14.3729 12.7433 14.169L20.8649 5.14523C21.1349 4.84517 21.27 4.69515 21.4405 4.73254C21.611 4.76994 21.6666 4.94912 21.7778 5.30747C21.9097 5.73226 22.0027 6.19165 22.0694 6.68802C22.25 8.03143 22.25 9.75214 22.25 11.9428V12.0572C22.25 14.2479 22.25 15.9685 22.0694 17.312C21.8843 18.6886 21.4973 19.7809 20.6391 20.6391C19.7809 21.4973 18.6886 21.8843 17.312 22.0694C15.9686 22.25 14.2479 22.25 12.0572 22.25H11.9428C9.7521 22.25 8.03144 22.25 6.68802 22.0694C5.31137 21.8843 4.21911 21.4973 3.36091 20.6391C2.50272 19.7809 2.11568 18.6886 1.93059 17.312C1.74998 15.9685 1.74999 14.2479 1.75 12.0572V11.9428C1.74999 9.75212 1.74998 8.03144 1.93059 6.68802C2.11568 5.31136 2.50272 4.21911 3.36091 3.36091C4.21911 2.50271 5.31137 2.11568 6.68802 1.93059C8.03144 1.74997 9.75212 1.74999 11.9428 1.75H12.0572Z" fill="#A6A6B0"/>
</svg>
