<svg width="48" height="48" viewBox="0 0 48 48" fill="none" xmlns="http://www.w3.org/2000/svg">
<rect width="48" height="48" rx="8" fill="white"/>
<path fill-rule="evenodd" clip-rule="evenodd" d="M29.8548 23.5272C28.5401 25.7859 26.3428 27.1779 24.1041 27.1779C24.0415 27.1779 23.9788 27.1779 23.9148 27.1779C21.7095 27.1779 19.5121 25.7859 18.1975 23.5272L17.6935 22.6632L19.4228 21.6565L19.9255 22.5205C20.6855 23.8259 22.1335 25.2459 24.0095 25.1765C25.8988 25.2352 27.3668 23.8272 28.1268 22.5205L28.6295 21.6565L30.3575 22.6632L29.8548 23.5272ZM31.2535 12.4939C28.4575 11.5925 25.9121 12.3432 24.0001 14.6072C22.0868 12.3432 19.5415 11.5925 16.7455 12.4939C13.2175 13.6312 11.0161 16.8205 11.0001 20.8152C10.9668 27.6605 17.5548 33.0232 23.7308 35.7579L24.0015 35.8779L24.2721 35.7579C30.4468 33.0219 37.0335 27.6592 37.0001 20.8139C36.9841 16.8192 34.7828 13.6312 31.2535 12.4939Z" fill="#33A36D"/>
</svg>
