<svg width="48" height="48" viewBox="0 0 48 48" fill="none" xmlns="http://www.w3.org/2000/svg">
<rect width="48" height="48" rx="8" fill="white"/>
<path fill-rule="evenodd" clip-rule="evenodd" d="M10.6665 24.0001C10.6665 16.6401 16.6265 10.6668 23.9999 10.6668C31.3599 10.6668 37.3332 16.6401 37.3332 24.0001C37.3332 31.3735 31.3599 37.3335 23.9999 37.3335C16.6265 37.3335 10.6665 31.3735 10.6665 24.0001ZM26.9732 26.4401L29.1332 19.6135C29.2799 19.1468 28.8532 18.7068 28.3865 18.8535L21.5599 20.9868C21.2799 21.0801 21.0532 21.2935 20.9732 21.5735L18.8399 28.4135C18.6932 28.8668 19.1332 29.3068 19.5865 29.1601L26.3865 27.0268C26.6665 26.9468 26.8932 26.7201 26.9732 26.4401Z" fill="#33A36D"/>
</svg>
