<svg width="48" height="48" viewBox="0 0 48 48" fill="none" xmlns="http://www.w3.org/2000/svg">
<rect width="48" height="48" rx="8" fill="white"/>
<path fill-rule="evenodd" clip-rule="evenodd" d="M14.0532 10.6667H18.5599C20.4399 10.6667 21.9465 12.2 21.9465 14.0814V18.6267C21.9465 20.52 20.4399 22.04 18.5599 22.04H14.0532C12.1865 22.04 10.6665 20.52 10.6665 18.6267V14.0814C10.6665 12.2 12.1865 10.6667 14.0532 10.6667ZM14.0532 25.9596H18.5599C20.4399 25.9596 21.9465 27.481 21.9465 29.3743V33.9196C21.9465 35.7996 20.4399 37.333 18.5599 37.333H14.0532C12.1865 37.333 10.6665 35.7996 10.6665 33.9196V29.3743C10.6665 27.481 12.1865 25.9596 14.0532 25.9596ZM33.9467 10.6667H29.44C27.56 10.6667 26.0533 12.2 26.0533 14.0814V18.6267C26.0533 20.52 27.56 22.04 29.44 22.04H33.9467C35.8133 22.04 37.3333 20.52 37.3333 18.6267V14.0814C37.3333 12.2 35.8133 10.6667 33.9467 10.6667ZM29.44 25.9596H33.9467C35.8133 25.9596 37.3333 27.481 37.3333 29.3743V33.9196C37.3333 35.7996 35.8133 37.333 33.9467 37.333H29.44C27.56 37.333 26.0533 35.7996 26.0533 33.9196V29.3743C26.0533 27.481 27.56 25.9596 29.44 25.9596Z" fill="#33A36D"/>
</svg>
