<svg width="48" height="48" viewBox="0 0 48 48" fill="none" xmlns="http://www.w3.org/2000/svg">
<rect width="48" height="48" rx="8" fill="white"/>
<path fill-rule="evenodd" clip-rule="evenodd" d="M19.2369 12C19.7969 12 20.2516 12.4458 20.2516 12.9963C20.2516 13.5454 19.7983 13.9913 19.2369 13.9913L17.0649 13.9926C15.2623 13.9952 13.7956 15.4347 13.7956 17.2037V19.6827C13.7956 20.2318 13.3396 20.679 12.7796 20.679C12.2196 20.679 11.7649 20.2318 11.7649 19.6827V17.2037C11.7649 14.3378 14.1423 12.0039 17.0636 12.0013L19.2356 12H19.2369ZM28.8008 12.0004H30.9248C33.8541 12.0004 36.2355 14.3355 36.2355 17.208V19.6831C36.2355 20.2322 35.7821 20.6794 35.2208 20.6794C34.6608 20.6794 34.2061 20.2322 34.2061 19.6831V17.208C34.2061 15.4338 32.7341 13.9904 30.9248 13.9904H28.8008C28.2408 13.9904 27.7861 13.5458 27.7861 12.9967C27.7861 12.4462 28.2408 12.0004 28.8008 12.0004ZM27.6833 16.9902H20.318C18.6327 17.0072 17.278 18.3578 17.2927 20.0118V21.6723C17.2967 21.8658 17.4553 22.024 17.6527 22.0305H30.346C30.5447 22.0253 30.7033 21.8671 30.71 21.6723V20.0118C30.7113 19.2129 30.3967 18.4454 29.8287 17.8741C29.2647 17.3079 28.49 16.9902 27.6833 16.9902ZM10.3493 24.055H37.652C38.212 24.055 38.6667 24.5008 38.6667 25.0513C38.6667 25.6004 38.212 26.0449 37.652 26.0449H36.236V30.791C36.236 33.6649 33.8533 36 30.9253 36H28.8013C28.24 36 27.7853 35.5542 27.7853 35.0037C27.7853 34.4546 28.24 34.0087 28.8013 34.0087H30.9253C32.7347 34.0087 34.2067 32.5666 34.2067 30.791V26.0449H30.7093V27.3668C30.7227 29.0207 29.3693 30.3727 27.6827 30.3883H20.3173C18.632 30.3727 17.2787 29.0207 17.292 27.3668V26.0449H13.7947V30.7963C13.7947 32.5653 15.2627 34.0048 17.0667 34.0074L19.2373 34.0087C19.7973 34.0087 20.252 34.4546 20.252 35.0037C20.2507 35.5542 19.7973 36 19.236 36L17.064 35.9987C14.1427 35.9961 11.764 33.6622 11.764 30.7963V26.0449H10.3493C9.78934 26.0449 9.33334 25.6004 9.33334 25.0513C9.33334 24.5008 9.78934 24.055 10.3493 24.055Z" fill="#33A36D"/>
</svg>
