<svg width="74" height="74" viewBox="0 0 74 74" fill="none" xmlns="http://www.w3.org/2000/svg">
<path d="M0 37C0 24.8777 0 18.8165 2.13927 14.095C4.54229 8.79144 8.79144 4.54229 14.095 2.13927C18.8165 0 24.8777 0 37 0V0C49.1223 0 55.1835 0 59.905 2.13927C65.2086 4.54229 69.4577 8.79144 71.8607 14.095C74 18.8165 74 24.8777 74 37V37C74 49.1223 74 55.1835 71.8607 59.905C69.4577 65.2086 65.2086 69.4577 59.905 71.8607C55.1835 74 49.1223 74 37 74V74C24.8777 74 18.8165 74 14.095 71.8607C8.79144 69.4577 4.54229 65.2086 2.13927 59.905C0 55.1835 0 49.1223 0 37V37Z" fill="url(#paint0_linear_7307_1826)"/>
<path d="M37 72C30.9091 72 26.4495 71.9987 22.9195 71.738C19.4096 71.4788 16.9775 70.9711 14.9204 70.039C10.0588 67.8362 6.16377 63.9412 3.961 59.0796C3.02894 57.0225 2.5212 54.5904 2.26198 51.0805C2.00127 47.5505 2 43.0909 2 37C2 30.9091 2.00127 26.4495 2.26198 22.9195C2.5212 19.4096 3.02894 16.9775 3.961 14.9204C6.16377 10.0588 10.0588 6.16377 14.9204 3.961C16.9775 3.02894 19.4096 2.5212 22.9195 2.26198C26.4495 2.00127 30.9091 2 37 2C43.0909 2 47.5505 2.00127 51.0805 2.26198C54.5904 2.5212 57.0225 3.02894 59.0796 3.961C63.9412 6.16377 67.8362 10.0588 70.039 14.9204C70.9711 16.9775 71.4788 19.4096 71.738 22.9195C71.9987 26.4495 72 30.9091 72 37C72 43.0909 71.9987 47.5505 71.738 51.0805C71.4788 54.5904 70.9711 57.0225 70.039 59.0796C67.8362 63.9412 63.9412 67.8362 59.0796 70.039C57.0225 70.9711 54.5904 71.4788 51.0805 71.738C47.5505 71.9987 43.0909 72 37 72Z" stroke="white" stroke-opacity="0.5" stroke-width="4"/>
<g clip-path="url(#clip0_7307_1826)">
<path d="M39.4024 35.4686H38.9838V38.5235H39.4394C40.1167 38.5118 40.5981 37.885 40.5981 37C40.5986 36.2594 40.2841 35.4686 39.4024 35.4686Z" fill="white"/>
<path d="M34.0427 37.5489H34.8916L34.4669 36.371L34.0427 37.5489Z" fill="white"/>
<path d="M40.4514 31.0253C37.1575 29.1236 32.9294 30.2561 31.0272 33.5505C30.1056 35.1461 29.8614 37.0052 30.3381 38.785C30.8153 40.5649 31.9567 42.0527 33.5523 42.9738C34.6356 43.5995 35.8202 43.8967 36.9902 43.8967C39.3761 43.8967 41.6997 42.6592 42.9766 40.4491C44.8787 37.1552 43.7458 32.927 40.4514 31.0253ZM36.4408 39.8477C36.3648 39.8753 36.287 39.8884 36.2106 39.8884C35.9327 39.8884 35.672 39.7164 35.5722 39.4399L35.38 38.9059H33.5537L33.3616 39.4399C33.2345 39.7919 32.845 39.9756 32.4934 39.8481C32.1409 39.7211 31.9581 39.3325 32.0852 38.98L33.6287 34.6961C33.7736 34.3328 34.0994 34.112 34.4673 34.112C34.8348 34.112 35.1606 34.3328 35.2975 34.6741L36.8495 38.98C36.9761 39.332 36.7933 39.7211 36.4408 39.8477ZM39.452 39.88H38.3059C37.9314 39.88 37.6277 39.5763 37.6277 39.2017V34.7899C37.6277 34.4153 37.9314 34.1116 38.3059 34.1116H39.4028C40.9061 34.1116 41.9556 35.2994 41.9556 37C41.9552 38.6167 40.8794 39.8552 39.452 39.88Z" fill="white"/>
<path d="M37 22.4355C28.9689 22.4355 22.4355 28.9689 22.4355 37C22.4355 45.0311 28.9689 51.5645 37 51.5645C45.0311 51.5645 51.5645 45.0311 51.5645 37C51.5645 28.9689 45.0311 22.4355 37 22.4355ZM37 49.2208C34.0516 49.2208 31.3441 48.1713 29.2305 46.4266L31.8531 43.8039C31.2213 43.3277 30.6611 42.775 30.19 42.1525L27.5735 44.7691C25.8283 42.656 24.7792 39.9485 24.7792 37C24.7792 30.2613 30.2613 24.7792 37 24.7792C39.9485 24.7792 42.656 25.8288 44.7695 27.5735L42.1488 30.1942C42.7802 30.6705 43.3403 31.2231 43.811 31.8461L46.4266 29.2305C48.1717 31.3441 49.2208 34.0516 49.2208 37C49.2208 43.7388 43.7388 49.2208 37 49.2208Z" fill="white"/>
</g>
<defs>
<linearGradient id="paint0_linear_7307_1826" x1="37" y1="74" x2="37" y2="0" gradientUnits="userSpaceOnUse">
<stop stop-color="#00C0FF"/>
<stop offset="1" stop-color="#5558FF"/>
</linearGradient>
<clipPath id="clip0_7307_1826">
<rect width="30" height="30" fill="white" transform="translate(22 22)"/>
</clipPath>
</defs>
</svg>
