<svg width="48" height="48" viewBox="0 0 48 48" fill="none" xmlns="http://www.w3.org/2000/svg">
<path d="M24 4C21.3736 4 18.7728 4.51732 16.3463 5.52241C13.9198 6.5275 11.715 8.00069 9.85786 9.85786C8.00069 11.715 6.5275 13.9198 5.52241 16.3463C4.51732 18.7728 4 21.3736 4 24C4 26.6264 4.51732 29.2272 5.52241 31.6537C6.5275 34.0802 8.00069 36.285 9.85786 38.1421C11.715 39.9993 13.9198 41.4725 16.3463 42.4776C18.7728 43.4827 21.3736 44 24 44C29.3043 44 34.3914 41.8929 38.1421 38.1421C41.8929 34.3914 44 29.3043 44 24C44 18.6957 41.8929 13.6086 38.1421 9.85786C34.3914 6.10714 29.3043 4 24 4ZM26.5 15.6667C26.5 16.3293 26.2368 16.9647 25.7683 17.4333C25.2997 17.9018 24.6643 18.165 24.0017 18.165C23.3391 18.165 22.7036 17.9018 22.2351 17.4333C21.7665 16.9647 21.5033 16.3293 21.5033 15.6667C21.5033 15.0045 21.7664 14.3695 22.2346 13.9013C22.7028 13.433 23.3378 13.17 24 13.17C24.6622 13.17 25.2972 13.433 25.7654 13.9013C26.2336 14.3695 26.4967 15.0045 26.4967 15.6667H26.5ZM24 20.6667C24.442 20.6667 24.866 20.8423 25.1785 21.1548C25.4911 21.4674 25.6667 21.8913 25.6667 22.3333V32.3333C25.6667 32.7754 25.4911 33.1993 25.1785 33.5118C24.866 33.8244 24.442 34 24 34C23.558 34 23.134 33.8244 22.8215 33.5118C22.5089 33.1993 22.3333 32.7754 22.3333 32.3333V22.3333C22.3333 21.8913 22.5089 21.4674 22.8215 21.1548C23.134 20.8423 23.558 20.6667 24 20.6667Z" fill="black"/>
</svg>
