<svg width="80" height="80" viewBox="0 0 80 80" fill="none" xmlns="http://www.w3.org/2000/svg">
<rect width="80" height="80" rx="16" fill="url(#paint0_linear_2741_9554)" fill-opacity="0.6"/>
<g clip-path="url(#clip0_2741_9554)">
<path fill-rule="evenodd" clip-rule="evenodd" d="M41.0538 17.5H56.9462C60.0086 17.5 62.5 20.0823 62.5 23.2565V33.0867C62.5 36.2608 60.0086 38.8432 56.9462 38.8432H42.2108L37.3549 41.3597C37.174 41.4535 36.9776 41.5 36.7817 41.5C36.5474 41.5 36.3137 41.4335 36.1078 41.3016C35.73 41.0595 35.5 40.6319 35.5 40.1716V23.2565C35.5 20.0823 37.9914 17.5 41.0538 17.5ZM41.9937 32.2011H56.0063C56.7141 32.2011 57.288 31.6063 57.288 30.8727C57.288 30.1391 56.7141 29.5443 56.0063 29.5443H41.9937C41.2859 29.5443 40.712 30.1391 40.712 30.8727C40.712 31.6063 41.2859 32.2011 41.9937 32.2011ZM41.9937 26.8875H56.0063C56.7141 26.8875 57.288 26.2927 57.288 25.559C57.288 24.8254 56.7141 24.2306 56.0063 24.2306H41.9937C41.2859 24.2306 40.712 24.8254 40.712 25.559C40.712 26.2927 41.2859 26.8875 41.9937 26.8875ZM22.5 32.8157C23.955 32.2623 25 30.771 25 29.0232C25 26.8051 23.3175 25 21.25 25C19.1825 25 17.5 26.8051 17.5 29.0232C17.5 30.771 18.545 32.2623 20 32.8157C20 35.2832 20 37.1241 19.9992 38.5L20.9867 38.1969C21.3775 37.2296 21.8825 36.3025 22.5 35.4406V32.8157ZM42.3649 41.7216H57.6308C57.6695 41.7216 57.7074 41.7216 57.7462 41.7199C57.9142 42.4226 58 43.1459 58 43.8771V52.585C58 58.052 53.2378 62.5 47.3846 62.5H32.6154C26.7622 62.5 22 58.052 22 52.585V43.8771C22 38.7006 26.2692 34.438 31.6923 34V40.4284C31.6923 41.7828 32.4289 43.0166 33.6622 43.7288C34.3185 44.1081 35.0745 44.3081 35.8462 44.3081C36.4877 44.3081 37.1302 44.1667 37.7034 43.8986L42.3649 41.7216ZM33.0769 49.4812C33.8416 49.4812 34.4615 48.9021 34.4615 48.1879V45.6014C34.4615 44.8872 33.8416 44.3081 33.0769 44.3081C32.3122 44.3081 31.6923 44.8872 31.6923 45.6014V48.1879C31.6923 48.9021 32.3122 49.4812 33.0769 49.4812ZM37.2308 54.6542H42.7692C43.5339 54.6542 44.1538 54.0752 44.1538 53.361C44.1538 52.6467 43.5339 52.0677 42.7692 52.0677H37.2308C36.4661 52.0677 35.8462 52.6467 35.8462 53.361C35.8462 54.0752 36.4661 54.6542 37.2308 54.6542ZM46.9231 49.4812C47.6878 49.4812 48.3077 48.9021 48.3077 48.1879V45.6014C48.3077 44.8872 47.6878 44.3081 46.9231 44.3081C46.1584 44.3081 45.5385 44.8872 45.5385 45.6014V48.1879C45.5385 48.9021 46.1584 49.4812 46.9231 49.4812ZM20.5 41.5C18.7016 42.0184 17.5 43.6541 17.5 45.4902V51.0144C17.5 52.9064 18.7637 54.5065 20.4845 55C20.3814 54.3307 20.3285 53.6457 20.3285 52.9478C20.3285 50.6638 20.3281 48.9272 20.3278 47.6012V47.5999L20.3278 47.5972V47.597C20.3269 43.6099 20.3269 43.3412 20.3403 43.0731L20.3467 42.9519C20.3714 42.4603 20.4234 41.976 20.5 41.5ZM59.5 41.5C59.614 42.2062 59.6724 42.9243 59.6724 43.6489V52.9478C59.6724 53.6457 59.6195 54.3307 59.5164 55C61.2367 54.5065 62.5 52.9064 62.5 51.0144V45.4902C62.5 43.5927 61.2285 41.988 59.5 41.5Z" fill="white"/>
</g>
<defs>
<linearGradient id="paint0_linear_2741_9554" x1="40.0004" y1="80.0005" x2="40.0004" y2="-2.3842e-05" gradientUnits="userSpaceOnUse">
<stop offset="0.015625" stop-color="#9D0DA0"/>
<stop offset="0.989583" stop-color="#E76387"/>
</linearGradient>
<clipPath id="clip0_2741_9554">
<rect width="24" height="24" fill="white" transform="matrix(2 0 0 2 16 16)"/>
</clipPath>
</defs>
</svg>
