<svg width="40" height="40" viewBox="0 0 40 40" fill="none" xmlns="http://www.w3.org/2000/svg">
<rect width="40" height="40" rx="8" fill="url(#paint0_linear_3585_54066)"/>
<g clip-path="url(#clip0_3585_54066)">
<path fill-rule="evenodd" clip-rule="evenodd" d="M8.75 12.4432C8.75 10.4035 10.4035 8.75 12.4432 8.75H14.6591C15.067 8.75 15.3977 9.0807 15.3977 9.48864C15.3977 9.89657 15.067 10.2273 14.6591 10.2273H12.4432C11.2194 10.2273 10.2273 11.2194 10.2273 12.4432V14.6591C10.2273 15.067 9.89657 15.3977 9.48864 15.3977C9.0807 15.3977 8.75 15.067 8.75 14.6591V12.4432ZM8.75 27.5568C8.75 29.5965 10.4035 31.25 12.4432 31.25H14.6591C15.067 31.25 15.3977 30.9193 15.3977 30.5114C15.3977 30.1034 15.067 29.7727 14.6591 29.7727H12.4432C11.2194 29.7727 10.2273 28.7806 10.2273 27.5568V25.3409C10.2273 24.933 9.89657 24.6023 9.48864 24.6023C9.0807 24.6023 8.75 24.933 8.75 25.3409V27.5568ZM27.5568 8.75C29.5965 8.75 31.25 10.4035 31.25 12.4432V14.6591C31.25 15.067 30.9193 15.3977 30.5114 15.3977C30.1034 15.3977 29.7727 15.067 29.7727 14.6591V12.4432C29.7727 11.2194 28.7806 10.2273 27.5568 10.2273H25.3409C24.933 10.2273 24.6023 9.89657 24.6023 9.48864C24.6023 9.0807 24.933 8.75 25.3409 8.75H27.5568ZM31.25 27.5568C31.25 29.5965 29.5965 31.25 27.5568 31.25H25.3409C24.933 31.25 24.6023 30.9193 24.6023 30.5114C24.6023 30.1034 24.933 29.7727 25.3409 29.7727H27.5568C28.7806 29.7727 29.7727 28.7806 29.7727 27.5568V25.3409C29.7727 24.933 30.1034 24.6023 30.5114 24.6023C30.9193 24.6023 31.25 24.933 31.25 25.3409V27.5568ZM28.1818 20C28.1818 24.5187 24.5187 28.1818 20 28.1818C15.4813 28.1818 11.8182 24.5187 11.8182 20C11.8182 15.4813 15.4813 11.8182 20 11.8182C24.5187 11.8182 28.1818 15.4813 28.1818 20ZM22.9214 14.9661L21.2219 17.9788C20.4405 17.517 19.5112 17.549 18.7803 17.9791L16.933 14.7049C17.8651 14.1562 18.9258 13.8656 20.0009 13.8636H20.0112C21.0517 13.8637 22.1054 14.1342 23.0694 14.7036L22.9214 14.9661ZM18.7801 22.3507L16.9328 25.625C15.0994 24.5376 13.8636 22.5072 13.8636 20.187H17.559C17.559 21.1102 18.0507 21.918 18.7801 22.3507ZM25.1596 20.1428H22.4423C22.4406 21.0058 22.0031 21.8454 21.2217 22.3068L22.921 25.3192L23.0691 25.582C25.0326 24.4219 26.1328 22.3115 26.1364 20.1428H25.1596ZM21.4661 20.1428C21.4661 20.9709 20.8101 21.6421 20.0009 21.6421C19.1918 21.6421 18.5358 20.9709 18.5358 20.1428C18.5358 19.3148 19.1918 18.6435 20.0009 18.6435C20.8101 18.6435 21.4661 19.3148 21.4661 20.1428Z" fill="white"/>
</g>
<defs>
<linearGradient id="paint0_linear_3585_54066" x1="20.0001" y1="40" x2="20.0001" y2="0" gradientUnits="userSpaceOnUse">
<stop stop-color="#FFDE00"/>
<stop offset="1" stop-color="#FF5900"/>
</linearGradient>
<clipPath id="clip0_3585_54066">
<rect width="24" height="24" fill="white" transform="translate(8 8)"/>
</clipPath>
</defs>
</svg>
