<svg width="74" height="74" viewBox="0 0 74 74" fill="none" xmlns="http://www.w3.org/2000/svg">
<path d="M0 37C0 24.8777 0 18.8165 2.13927 14.095C4.54229 8.79144 8.79144 4.54229 14.095 2.13927C18.8165 0 24.8777 0 37 0V0C49.1223 0 55.1835 0 59.905 2.13927C65.2086 4.54229 69.4577 8.79144 71.8607 14.095C74 18.8165 74 24.8777 74 37V37C74 49.1223 74 55.1835 71.8607 59.905C69.4577 65.2086 65.2086 69.4577 59.905 71.8607C55.1835 74 49.1223 74 37 74V74C24.8777 74 18.8165 74 14.095 71.8607C8.79144 69.4577 4.54229 65.2086 2.13927 59.905C0 55.1835 0 49.1223 0 37V37Z" fill="url(#paint0_linear_7307_1873)"/>
<path d="M37 72C30.9091 72 26.4495 71.9987 22.9195 71.738C19.4096 71.4788 16.9775 70.9711 14.9204 70.039C10.0588 67.8362 6.16377 63.9412 3.961 59.0796C3.02894 57.0225 2.5212 54.5904 2.26198 51.0805C2.00127 47.5505 2 43.0909 2 37C2 30.9091 2.00127 26.4495 2.26198 22.9195C2.5212 19.4096 3.02894 16.9775 3.961 14.9204C6.16377 10.0588 10.0588 6.16377 14.9204 3.961C16.9775 3.02894 19.4096 2.5212 22.9195 2.26198C26.4495 2.00127 30.9091 2 37 2C43.0909 2 47.5505 2.00127 51.0805 2.26198C54.5904 2.5212 57.0225 3.02894 59.0796 3.961C63.9412 6.16377 67.8362 10.0588 70.039 14.9204C70.9711 16.9775 71.4788 19.4096 71.738 22.9195C71.9987 26.4495 72 30.9091 72 37C72 43.0909 71.9987 47.5505 71.738 51.0805C71.4788 54.5904 70.9711 57.0225 70.039 59.0796C67.8362 63.9412 63.9412 67.8362 59.0796 70.039C57.0225 70.9711 54.5904 71.4788 51.0805 71.738C47.5505 71.9987 43.0909 72 37 72Z" stroke="white" stroke-opacity="0.5" stroke-width="4"/>
<g clip-path="url(#clip0_7307_1873)">
<path fill-rule="evenodd" clip-rule="evenodd" d="M51.0625 27.4118C51.0625 29.8831 49.0592 31.8864 46.588 31.8864C44.1168 31.8864 42.1134 29.8831 42.1134 27.4118C42.1134 24.9406 44.1168 22.9373 46.588 22.9373C49.0592 22.9373 51.0625 24.9406 51.0625 27.4118ZM46.588 24.5354C47.1175 24.5354 47.5468 24.9646 47.5468 25.4942V26.453H48.5056C49.0352 26.453 49.4645 26.8823 49.4645 27.4118C49.4645 27.9414 49.0352 28.3707 48.5056 28.3707H47.5468V29.3295C47.5468 29.859 47.1175 30.2883 46.588 30.2883C46.0584 30.2883 45.6291 29.859 45.6291 29.3295V28.3707H44.6703C44.1408 28.3707 43.7115 27.9414 43.7115 27.4118C43.7115 26.8823 44.1408 26.453 44.6703 26.453H45.6291V25.4942C45.6291 24.9646 46.0584 24.5354 46.588 24.5354ZM36.8538 26.1599C37.0286 26.0951 37.2248 26.1526 37.3416 26.3025C37.6411 26.6851 44.6706 35.728 44.6706 39.9569C44.6706 44.3186 41.2297 47.867 36.9996 47.867C32.7704 47.867 29.3294 44.3186 29.3294 39.9569C29.3294 36.6958 33.385 31.0013 35.5641 27.9417L35.5645 27.9411L35.5649 27.9406C36.0372 27.2774 36.4841 26.6502 36.5749 26.4727C36.6109 26.3297 36.7141 26.2106 36.8538 26.1599ZM33.1503 37.9837C33.3404 37.4894 33.0938 36.9347 32.5996 36.7446C32.1053 36.5545 31.5505 36.801 31.3604 37.2953C30.7462 38.8923 30.309 42.7483 33.5659 45.413C33.9757 45.7483 34.5798 45.6879 34.9151 45.2781C35.2504 44.8682 35.19 44.2641 34.7802 43.9288C32.4119 41.9911 32.6991 39.1566 33.1503 37.9837ZM24.2153 44.6706C23.5093 44.6706 22.9369 45.243 22.9369 45.949C22.9369 46.6551 23.5093 47.2275 24.2153 47.2275H25.4938C26.1998 47.2275 26.7722 46.6551 26.7722 45.949C26.7722 45.243 26.1998 44.6706 25.4938 44.6706H24.2153ZM24.2153 48.5059C23.5093 48.5059 22.9369 49.0783 22.9369 49.7843C22.9369 50.4904 23.5093 51.0628 24.2153 51.0628H29.3291C30.0351 51.0628 30.6075 50.4904 30.6075 49.7843C30.6075 49.0783 30.0351 48.5059 29.3291 48.5059H24.2153Z" fill="white"/>
</g>
<defs>
<linearGradient id="paint0_linear_7307_1873" x1="37" y1="74" x2="37" y2="0" gradientUnits="userSpaceOnUse">
<stop stop-color="#00C0FF"/>
<stop offset="1" stop-color="#5558FF"/>
</linearGradient>
<clipPath id="clip0_7307_1873">
<rect width="30" height="30" fill="white" transform="translate(22 22)"/>
</clipPath>
</defs>
</svg>
