<svg width="32" height="32" viewBox="0 0 32 32" fill="none" xmlns="http://www.w3.org/2000/svg">
<g clip-path="url(#clip0_2741_9603)">
<path d="M14.3718 29.6103C10.7605 29.6103 6.7968 28.5375 2.93767 26.4314C2.73336 26.3199 2.57192 26.1438 2.47949 25.9304C-0.817701 18.3209 -0.826514 12.2161 2.4533 7.78426C9.7078 -2.01836 30.1974 0.185636 31.0724 0.286261C31.4783 0.331761 31.8199 0.609823 31.9474 0.997386C32.0748 1.38557 31.9647 1.81182 31.6655 2.0892C31.6697 2.0892 29.7259 4.5237 28.3556 16.4514C27.7244 21.9451 25.2542 25.9568 21.2112 28.0541C19.2024 29.0963 16.8712 29.6103 14.3718 29.6103Z" fill="#D9D9D9"/>
<path d="M31.6617 2.08908C31.9609 1.8117 32.071 1.38545 31.9436 0.997266C31.9331 0.965203 31.9128 0.938766 31.8992 0.908203C26.245 3.30595 9.93944 12.0466 3.02344 26.477C6.85431 28.551 10.7846 29.6101 14.3679 29.6101C16.8673 29.6101 19.1985 29.0962 21.2074 28.054C25.2503 25.9566 27.7206 21.945 28.3517 16.4512C29.7221 4.52358 31.6659 2.08908 31.6617 2.08908Z" fill="#D9D9D9"/>
<path d="M1.25185 31.9945C1.14953 31.9945 1.04585 31.9795 0.942909 31.9475C0.391909 31.7776 0.0835961 31.1929 0.253909 30.6415C5.89135 12.4145 26.4333 2.22992 30.5219 0.372669C31.0471 0.136107 31.6664 0.366544 31.9043 0.892044C32.143 1.41686 31.9105 2.03623 31.3853 2.27479C27.4395 4.06617 7.62291 13.885 2.24916 31.2589C2.11053 31.7069 1.69747 31.9945 1.25185 31.9945Z" fill="#D1D1D1"/>
<path d="M18.4846 20.0484C18.4101 19.4753 17.8796 19.0715 17.3149 19.1469C15.9545 19.323 14.4905 19.3169 12.9632 19.1286C11.5947 18.9586 10.4346 18.6717 9.70168 18.4609C9.05431 18.2746 8.62943 18.1169 8.50581 18.0695C8.28799 16.8666 8.23387 15.6192 8.36681 14.3473C8.49293 13.1419 8.77537 11.9148 9.20706 10.7006C9.40012 10.1574 9.11593 9.56057 8.57281 9.36751C8.02862 9.17376 7.43274 9.45794 7.23899 10.0018C6.75224 11.3716 6.43306 12.7605 6.28993 14.1297C6.10974 15.8531 6.21037 17.5465 6.58906 19.1632C6.70193 19.6445 7.13087 19.9695 7.60474 19.9695C7.61556 19.9695 7.62668 19.9661 7.63749 19.9658C7.65374 19.9734 7.66787 19.9838 7.68462 19.9906C7.70706 20.0001 8.24037 20.2143 9.12456 20.4678C9.92881 20.6996 11.2031 21.0144 12.7069 21.2006C13.5809 21.3087 14.4388 21.3624 15.2751 21.3624C16.0657 21.3624 16.837 21.3141 17.5827 21.2176C18.1548 21.1437 18.5583 20.6201 18.4846 20.0484Z" fill="#D1D1D1"/>
<path d="M21.1623 12.5009C20.426 12.5009 19.6931 12.4397 18.9711 12.3167C18.1591 12.1793 17.3806 11.9686 16.6577 11.6912C16.1067 11.4798 15.7879 11.3044 15.7532 11.2847C15.4707 11.1263 15.2769 10.8414 15.2297 10.5212C15.2297 10.5212 15.1876 10.2357 15.1672 9.75031C15.1417 9.14256 15.1607 8.5185 15.2246 7.89637C15.3144 7.02006 15.4904 6.17569 15.7481 5.38712C15.9269 4.8385 16.5184 4.54006 17.0649 4.71881C17.6133 4.89756 17.9124 5.48769 17.7333 6.03562C17.5218 6.68281 17.3767 7.38031 17.3023 8.10844C17.2356 8.76037 17.2391 9.31312 17.2537 9.66181C17.2541 9.66862 17.2544 9.67537 17.2548 9.6815C17.3017 9.7005 17.3523 9.72087 17.4057 9.74131C17.8143 9.89769 18.4781 10.1145 19.3208 10.258C20.2729 10.4191 21.2478 10.4531 22.2224 10.362C22.7853 10.3069 23.3058 10.7284 23.3604 11.3029C23.4151 11.8767 22.9936 12.3866 22.4195 12.441C22.0005 12.4812 21.5807 12.5009 21.1623 12.5009Z" fill="#D1D1D1"/>
<path d="M15.7565 11.2846C15.7912 11.3043 16.11 11.4798 16.661 11.6912C17.384 11.9686 18.1623 12.1793 18.9744 12.3166C19.6964 12.4397 20.4292 12.5008 21.1655 12.5008C21.584 12.5008 22.0038 12.4811 22.4226 12.441C22.9967 12.3866 23.4182 11.8768 23.3635 11.303C23.3088 10.7285 22.7883 10.307 22.2255 10.362C21.2509 10.4531 20.276 10.4191 19.3239 10.258C18.4813 10.1145 17.8173 9.89771 17.4088 9.74133C17.3787 9.72977 17.3517 9.71889 17.3234 9.70752C16.732 10.1657 16.1407 10.64 15.5508 11.1304C15.6128 11.1895 15.6807 11.2421 15.7565 11.2846Z" fill="#D1D1D1"/>
<path d="M17.3183 19.1471C15.958 19.3232 14.494 19.317 12.9667 19.1287C11.5982 18.9588 10.4381 18.6718 9.70516 18.4611C9.07122 18.2787 8.65478 18.1253 8.52153 18.0742C8.04184 18.6468 7.57472 19.2332 7.12109 19.8323C7.27041 19.9128 7.43284 19.9697 7.60822 19.9697C7.61903 19.9697 7.63016 19.9662 7.64097 19.9659C7.65722 19.9735 7.67134 19.9839 7.68809 19.9907C7.71053 20.0003 8.24384 20.2144 9.12803 20.4679C9.93228 20.6997 11.2066 21.0145 12.7104 21.2007C13.5843 21.3088 14.4423 21.3625 15.2785 21.3625C16.0692 21.3625 16.8405 21.3143 17.5862 21.2177C18.1583 21.1437 18.5618 20.6202 18.488 20.0484C18.4135 19.4755 17.8829 19.0717 17.3183 19.1471Z" fill="#D1D1D1"/>
</g>
<defs>
<clipPath id="clip0_2741_9603">
<rect width="16" height="16" fill="white" transform="scale(2)"/>
</clipPath>
</defs>
</svg>
