<svg width="24" height="24" viewBox="0 0 24 24" fill="none" xmlns="http://www.w3.org/2000/svg">
<path d="M5.99998 2.57143C5.09067 2.57143 4.2186 2.93265 3.57562 3.57563C2.93263 4.21861 2.57141 5.09068 2.57141 6V8.86371C2.57141 9.09104 2.66172 9.30906 2.82246 9.4698C2.98321 9.63055 3.20123 9.72085 3.42855 9.72085C3.65588 9.72085 3.8739 9.63055 4.03465 9.4698C4.19539 9.30906 4.2857 9.09104 4.2857 8.86371V6C4.2857 5.54534 4.46631 5.10931 4.7878 4.78781C5.10929 4.46632 5.54533 4.28571 5.99998 4.28571H8.86541C9.09274 4.28571 9.31076 4.19541 9.4715 4.03466C9.63225 3.87392 9.72255 3.6559 9.72255 3.42857C9.72255 3.20124 9.63225 2.98322 9.4715 2.82248C9.31076 2.66173 9.09274 2.57143 8.86541 2.57143H5.99998ZM15.1363 2.57143C14.9089 2.57143 14.6909 2.66173 14.5302 2.82248C14.3694 2.98322 14.2791 3.20124 14.2791 3.42857C14.2791 3.6559 14.3694 3.87392 14.5302 4.03466C14.6909 4.19541 14.9089 4.28571 15.1363 4.28571H18C18.4546 4.28571 18.8907 4.46632 19.2122 4.78781C19.5337 5.10931 19.7143 5.54534 19.7143 6V8.86371C19.7143 9.09104 19.8046 9.30906 19.9653 9.4698C20.1261 9.63055 20.3441 9.72085 20.5714 9.72085C20.7987 9.72085 21.0168 9.63055 21.1775 9.4698C21.3382 9.30906 21.4286 9.09104 21.4286 8.86371V6C21.4286 5.09068 21.0673 4.21861 20.4243 3.57563C19.7814 2.93265 18.9093 2.57143 18 2.57143H15.1363ZM4.2857 15.1363C4.2857 14.909 4.19539 14.6909 4.03465 14.5302C3.8739 14.3694 3.65588 14.2791 3.42855 14.2791C3.20123 14.2791 2.98321 14.3694 2.82246 14.5302C2.66172 14.6909 2.57141 14.909 2.57141 15.1363V18C2.57141 18.9093 2.93263 19.7814 3.57562 20.4244C4.2186 21.0673 5.09067 21.4286 5.99998 21.4286H8.8637C9.09102 21.4286 9.30904 21.3383 9.46979 21.1775C9.63053 21.0168 9.72084 20.7988 9.72084 20.5714C9.72084 20.3441 9.63053 20.1261 9.46979 19.9653C9.30904 19.8046 9.09102 19.7143 8.8637 19.7143H5.99998C5.54533 19.7143 5.10929 19.5337 4.7878 19.2122C4.46631 18.8907 4.2857 18.4547 4.2857 18V15.1363ZM21.4286 15.1363C21.4286 14.909 21.3382 14.6909 21.1775 14.5302C21.0168 14.3694 20.7987 14.2791 20.5714 14.2791C20.3441 14.2791 20.1261 14.3694 19.9653 14.5302C19.8046 14.6909 19.7143 14.909 19.7143 15.1363V18C19.7143 18.4547 19.5337 18.8907 19.2122 19.2122C18.8907 19.5337 18.4546 19.7143 18 19.7143H15.1363C14.9089 19.7143 14.6909 19.8046 14.5302 19.9653C14.3694 20.1261 14.2791 20.3441 14.2791 20.5714C14.2791 20.7988 14.3694 21.0168 14.5302 21.1775C14.6909 21.3383 14.9089 21.4286 15.1363 21.4286H18C18.9093 21.4286 19.7814 21.0673 20.4243 20.4244C21.0673 19.7814 21.4286 18.9093 21.4286 18V15.1363Z" fill="white"/>
<path d="M12.889 5.36653C12.7731 5.25049 12.6348 5.1583 12.4822 5.09536C12.3295 5.03242 12.1656 5 12 5C11.8344 5 11.6705 5.03242 11.5178 5.09536C11.3652 5.1583 11.2269 5.25049 11.1111 5.36653L8.42677 8.05617C7.50405 8.98055 6.99126 10.225 7.00011 11.5184C7.00897 12.8118 7.53874 14.0494 8.47404 14.9616L8.48233 14.9689C9.31315 15.7853 10.4131 16.2853 11.5854 16.3796V17.5935C11.5854 17.7013 11.6291 17.8047 11.7068 17.8809C11.7846 17.9572 11.89 18 12 18C12.11 18 12.2154 17.9572 12.2932 17.8809C12.3709 17.8047 12.4146 17.7013 12.4146 17.5935V16.3812C13.5875 16.2867 14.6877 15.7861 15.5185 14.9689L15.526 14.9607L15.5351 14.9526C16.4664 14.0396 16.9928 12.8033 16.9999 11.5121C17.0071 10.2208 16.4944 8.97898 15.5732 8.05617L12.889 5.36735V5.36653ZM12.4146 15.5543C12.1389 15.5811 11.8611 15.5811 11.5854 15.5543V11.0873C11.5854 10.9795 11.6291 10.8761 11.7068 10.7998C11.7846 10.7236 11.89 10.6808 12 10.6808C12.11 10.6808 12.2154 10.7236 12.2932 10.7998C12.3709 10.8761 12.4146 10.9795 12.4146 11.0873V15.5527V15.5543Z" fill="white"/>
</svg>
