<svg width="120" height="120" viewBox="0 0 120 120" fill="none" xmlns="http://www.w3.org/2000/svg">
<circle cx="60" cy="60" r="51" fill="white" fill-opacity="0.1"/>
<circle cx="60" cy="60" r="36" fill="white" fill-opacity="0.1"/>
<path fill-rule="evenodd" clip-rule="evenodd" d="M99.2893 73.1678L96.2388 38.2837C95.8396 33.719 91.8152 30.3421 87.2505 30.7413L30.1737 35.7334C25.6095 36.1324 22.2325 40.1564 22.6317 44.7211L25.6827 79.6051C26.0819 84.1698 30.1057 87.5464 34.6705 87.1472L91.7473 82.1555C96.312 81.7564 99.6885 77.7325 99.2893 73.1678Z" fill="url(#paint0_linear_838_18949)"/>
<path fill-rule="evenodd" clip-rule="evenodd" d="M27.7077 36.3364C25.8105 37.128 24.2737 38.5942 23.3938 40.4521L48.0895 58.9176C55.9823 64.819 67.0486 63.8512 73.7972 56.6693L94.8106 34.3053C93.6224 32.5798 91.8268 31.3663 89.7827 30.9073L27.7077 36.3364Z" fill="url(#paint1_linear_838_18949)"/>
<path fill-rule="evenodd" clip-rule="evenodd" d="M48.0248 54.4062L25.8559 77.9992L25.6055 78.7226L25.6829 79.6055C26.0821 84.1702 30.1059 87.5468 34.6707 87.1476L91.7475 82.1559C96.3122 81.7568 99.6887 77.7329 99.2895 73.1682L99.2125 72.2851C99.2012 72.1537 99.1618 72.0263 99.0978 71.9111C99.0337 71.7958 98.946 71.6954 98.8405 71.6164L72.8671 52.1957L71.6238 52.3047L70.9943 52.9745C65.5014 58.8204 56.4988 59.6144 50.0681 54.8252L49.3273 54.2716C48.7413 53.8335 48.1406 54.3043 48.0248 54.4062ZM48.0248 54.4062L48.0637 54.3649C48.007 54.4251 47.9936 54.4346 48.0137 54.4161L48.0248 54.4062Z" fill="url(#paint2_linear_838_18949)"/>
<path fill-rule="evenodd" clip-rule="evenodd" d="M25.7336 37.5038C25.6218 37.5931 25.532 37.7069 25.4709 37.8363C25.4099 37.9657 25.3792 38.1074 25.3814 38.2505C25.3836 38.3936 25.4185 38.5343 25.4835 38.6618C25.5484 38.7893 25.6417 38.9003 25.7562 38.9862L48.921 56.3069C56.1169 61.6874 66.2062 60.8054 72.3585 54.2575L92.1654 33.1784C92.2634 33.074 92.3362 32.9486 92.3782 32.8117C92.4201 32.6748 92.4301 32.5301 92.4074 32.3887C92.3846 32.2473 92.3298 32.1131 92.247 31.9962C92.1642 31.8794 92.0558 31.7831 91.9299 31.7147C90.5 30.9363 88.8719 30.598 87.2502 30.7424L30.1735 35.7345C28.5515 35.8738 27.0069 36.4894 25.7336 37.5038Z" fill="url(#paint3_linear_838_18949)"/>
<path d="M82.2485 32.3195C81.9184 28.3216 83.046 24.6238 85.6682 21.9851C87.7972 19.8426 90.6705 18.4182 93.9166 18.1503C101.161 17.5522 107.518 22.9399 108.116 30.184C108.384 33.4313 107.449 36.5004 105.684 38.9524C103.511 41.9703 100.05 43.697 96.053 44.027C88.8088 44.625 82.8465 39.5636 82.2485 32.3195Z" fill="url(#paint4_linear_838_18949)"/>
<path d="M96.0467 38.6091C95.9142 38.6201 95.7808 38.6048 95.6542 38.5642C95.5276 38.5236 95.4102 38.4585 95.3088 38.3726C95.2073 38.2866 95.1238 38.1815 95.063 38.0632C95.0022 37.945 94.9653 37.8159 94.9544 37.6834L94.0382 26.5847L93.0292 26.668C92.4714 26.7141 91.9829 26.2995 91.9369 25.7424C91.8909 25.1852 92.305 24.6961 92.8626 24.6501L94.8805 24.4835C95.013 24.4725 95.1464 24.4878 95.273 24.5284C95.3996 24.569 95.517 24.6341 95.6184 24.7201C95.7199 24.806 95.8034 24.9111 95.8642 25.0294C95.925 25.1476 95.9619 25.2767 95.9728 25.4092L96.9723 37.5168C96.9833 37.6493 96.9681 37.7827 96.9275 37.9093C96.8869 38.0359 96.8218 38.1533 96.7358 38.2547C96.6498 38.3562 96.5447 38.4397 96.4265 38.5005C96.3082 38.5613 96.1792 38.5982 96.0467 38.6091Z" fill="white"/>
<path d="M97.4352 42.7875C90.1911 43.3855 83.8337 37.9978 83.2357 30.7537C82.9677 27.5072 83.9033 24.4373 85.6681 21.9855C83.0464 24.6241 81.5528 28.3524 81.8828 32.35C82.4809 39.5941 88.8383 44.9819 96.0823 44.3838C100.08 44.0538 103.511 41.9716 105.684 38.9527C103.555 41.0957 100.682 42.5195 97.4352 42.7875Z" fill="black" fill-opacity="0.1"/>
<path fill-rule="evenodd" clip-rule="evenodd" d="M25.4569 97.556L15.2516 96.1626C14.6604 96.0823 14.0598 96.252 13.5818 96.6344C13.1038 97.0168 12.7875 97.5806 12.7022 98.2021C12.5256 99.4959 13.3813 100.682 14.6115 100.85L24.8168 102.244C26.047 102.412 27.1895 101.498 27.3662 100.204C27.4506 99.5827 27.297 98.9546 26.939 98.4581C26.581 97.9615 26.0479 97.6371 25.4569 97.556ZM26.4402 90.3541L13.0643 88.5278C12.4731 88.4475 11.8725 88.6171 11.3945 88.9995C10.9165 89.382 10.6002 89.9458 10.5149 90.5673C10.3383 91.8611 11.194 93.0476 12.4242 93.2155L25.8001 95.0418C27.0304 95.2098 28.1728 94.2961 28.3495 93.0023C28.5261 91.7089 27.6707 90.5224 26.4402 90.3541Z" fill="white"/>
<defs>
<linearGradient id="paint0_linear_838_18949" x1="-11.1332" y1="-1.93382" x2="92.9743" y2="63.2597" gradientUnits="userSpaceOnUse">
<stop stop-color="#FED200"/>
<stop offset="1" stop-color="#F59815"/>
</linearGradient>
<linearGradient id="paint1_linear_838_18949" x1="59.3274" y1="29.3564" x2="62.1659" y2="63.7394" gradientUnits="userSpaceOnUse">
<stop stop-color="#CC9005"/>
<stop offset="1" stop-color="#B37E04"/>
</linearGradient>
<linearGradient id="paint2_linear_838_18949" x1="42.3426" y1="56.9209" x2="99.707" y2="109.336" gradientUnits="userSpaceOnUse">
<stop stop-color="#FED200"/>
<stop offset="1" stop-color="#F59815"/>
</linearGradient>
<linearGradient id="paint3_linear_838_18949" x1="5.20856" y1="17.076" x2="75.6639" y2="86.5252" gradientUnits="userSpaceOnUse">
<stop stop-color="#FED200"/>
<stop offset="1" stop-color="#F59815"/>
</linearGradient>
<linearGradient id="paint4_linear_838_18949" x1="94.0994" y1="18.1352" x2="96.2357" y2="44.0119" gradientUnits="userSpaceOnUse">
<stop stop-color="#EE6363"/>
<stop offset="1" stop-color="#EA4343"/>
</linearGradient>
</defs>
</svg>
