<svg width="74" height="74" viewBox="0 0 74 74" fill="none" xmlns="http://www.w3.org/2000/svg">
<path d="M0 37C0 24.8777 0 18.8165 2.13927 14.095C4.54229 8.79144 8.79144 4.54229 14.095 2.13927C18.8165 0 24.8777 0 37 0V0C49.1223 0 55.1835 0 59.905 2.13927C65.2086 4.54229 69.4577 8.79144 71.8607 14.095C74 18.8165 74 24.8777 74 37V37C74 49.1223 74 55.1835 71.8607 59.905C69.4577 65.2086 65.2086 69.4577 59.905 71.8607C55.1835 74 49.1223 74 37 74V74C24.8777 74 18.8165 74 14.095 71.8607C8.79144 69.4577 4.54229 65.2086 2.13927 59.905C0 55.1835 0 49.1223 0 37V37Z" fill="url(#paint0_linear_7307_1877)"/>
<path d="M37 72C30.9091 72 26.4495 71.9987 22.9195 71.738C19.4096 71.4788 16.9775 70.9711 14.9204 70.039C10.0588 67.8362 6.16377 63.9412 3.961 59.0796C3.02894 57.0225 2.5212 54.5904 2.26198 51.0805C2.00127 47.5505 2 43.0909 2 37C2 30.9091 2.00127 26.4495 2.26198 22.9195C2.5212 19.4096 3.02894 16.9775 3.961 14.9204C6.16377 10.0588 10.0588 6.16377 14.9204 3.961C16.9775 3.02894 19.4096 2.5212 22.9195 2.26198C26.4495 2.00127 30.9091 2 37 2C43.0909 2 47.5505 2.00127 51.0805 2.26198C54.5904 2.5212 57.0225 3.02894 59.0796 3.961C63.9412 6.16377 67.8362 10.0588 70.039 14.9204C70.9711 16.9775 71.4788 19.4096 71.738 22.9195C71.9987 26.4495 72 30.9091 72 37C72 43.0909 71.9987 47.5505 71.738 51.0805C71.4788 54.5904 70.9711 57.0225 70.039 59.0796C67.8362 63.9412 63.9412 67.8362 59.0796 70.039C57.0225 70.9711 54.5904 71.4788 51.0805 71.738C47.5505 71.9987 43.0909 72 37 72Z" stroke="white" stroke-opacity="0.5" stroke-width="4"/>
<g clip-path="url(#clip0_7307_1877)">
<path fill-rule="evenodd" clip-rule="evenodd" d="M37.6586 22.9375H47.5914C49.5054 22.9375 51.0625 24.5515 51.0625 26.5353V32.6792C51.0625 34.663 49.5054 36.277 47.5914 36.277H38.3817L35.3468 37.8498C35.2338 37.9084 35.111 37.9375 34.9886 37.9375C34.8421 37.9375 34.696 37.8959 34.5674 37.8135C34.3313 37.6622 34.1875 37.395 34.1875 37.1072V26.5353C34.1875 24.5515 35.7446 22.9375 37.6586 22.9375ZM38.246 32.1257H47.004C47.4463 32.1257 47.805 31.754 47.805 31.2954C47.805 30.8369 47.4463 30.4652 47.004 30.4652H38.246C37.8037 30.4652 37.445 30.8369 37.445 31.2954C37.445 31.754 37.8037 32.1257 38.246 32.1257ZM38.246 28.8047H47.004C47.4463 28.8047 47.805 28.4329 47.805 27.9744C47.805 27.5159 47.4463 27.1441 47.004 27.1441H38.246C37.8037 27.1441 37.445 27.5159 37.445 27.9744C37.445 28.4329 37.8037 28.8047 38.246 28.8047ZM26.0625 32.5098C26.9719 32.1639 27.625 31.2319 27.625 30.1395C27.625 28.7532 26.5734 27.625 25.2812 27.625C23.9891 27.625 22.9375 28.7532 22.9375 30.1395C22.9375 31.2319 23.5906 32.1639 24.5 32.5098C24.5 34.052 24.5 35.2025 24.4995 36.0625L25.1167 35.8731C25.3609 35.2685 25.6766 34.689 26.0625 34.1504V32.5098ZM38.4781 38.076H48.0192C48.0435 38.076 48.0671 38.076 48.0913 38.0749C48.1963 38.5141 48.25 38.9662 48.25 39.4232V44.8656C48.25 48.2825 45.2737 51.0625 41.6154 51.0625H32.3846C28.7263 51.0625 25.75 48.2825 25.75 44.8656V39.4232C25.75 36.1879 28.4183 33.5237 31.8077 33.25V37.2677C31.8077 38.1143 32.2681 38.8854 33.0388 39.3305C33.449 39.5676 33.9215 39.6926 34.4038 39.6926C34.8048 39.6926 35.2063 39.6042 35.5646 39.4366L38.4781 38.076ZM32.6731 42.9257C33.151 42.9257 33.5385 42.5638 33.5385 42.1175V40.5009C33.5385 40.0545 33.151 39.6926 32.6731 39.6926C32.1952 39.6926 31.8077 40.0545 31.8077 40.5009V42.1175C31.8077 42.5638 32.1952 42.9257 32.6731 42.9257ZM35.2692 46.1589H38.7308C39.2087 46.1589 39.5962 45.797 39.5962 45.3506C39.5962 44.9042 39.2087 44.5423 38.7308 44.5423H35.2692C34.7913 44.5423 34.4038 44.9042 34.4038 45.3506C34.4038 45.797 34.7913 46.1589 35.2692 46.1589ZM41.3269 42.9257C41.8048 42.9257 42.1923 42.5638 42.1923 42.1175V40.5009C42.1923 40.0545 41.8048 39.6926 41.3269 39.6926C40.849 39.6926 40.4615 40.0545 40.4615 40.5009V42.1175C40.4615 42.5638 40.849 42.9257 41.3269 42.9257ZM24.8125 37.9375C23.6885 38.2615 22.9375 39.2838 22.9375 40.4314V43.884C22.9375 45.0665 23.7273 46.0666 24.8028 46.375C24.7384 45.9567 24.7053 45.5285 24.7053 45.0924C24.7053 43.6649 24.7051 42.5795 24.7049 41.7508V41.7499L24.7049 41.7482V41.7481C24.7043 39.2562 24.7043 39.0882 24.7127 38.9207L24.7167 38.8449C24.7321 38.5377 24.7646 38.235 24.8125 37.9375ZM49.1875 37.9375C49.2588 38.3789 49.2952 38.8277 49.2952 39.2805V45.0924C49.2952 45.5285 49.2622 45.9567 49.1978 46.375C50.2729 46.0666 51.0625 45.0665 51.0625 43.884V40.4314C51.0625 39.2454 50.2678 38.2425 49.1875 37.9375Z" fill="white"/>
</g>
<defs>
<linearGradient id="paint0_linear_7307_1877" x1="36.9994" y1="74.0002" x2="36.9994" y2="0" gradientUnits="userSpaceOnUse">
<stop stop-color="#9CFFAC"/>
<stop offset="1" stop-color="#00B59C"/>
</linearGradient>
<clipPath id="clip0_7307_1877">
<rect width="30" height="30" fill="white" transform="translate(22 22)"/>
</clipPath>
</defs>
</svg>
