<svg width="80" height="80" viewBox="0 0 80 80" fill="none" xmlns="http://www.w3.org/2000/svg">
<rect width="80" height="80" rx="16" fill="url(#paint0_linear_2741_9514)"/>
<path d="M60.639 41.8036C58.2357 39.3996 54.325 39.3996 51.9216 41.8036L46.3805 47.3463C42.0712 47.3379 37.8955 46.8284 36.5603 46.1781C37.538 45.7096 39.8919 45.2434 41.391 44.9459C45.4138 44.1486 48.5913 43.5186 48.5913 41.2663C48.5913 40.2305 47.439 39.4584 46.4721 38.9936C44.1085 37.859 35.1804 35.1261 19.4626 47.7029C19.0255 48.0535 18.8787 48.6557 19.1062 49.1675L24.038 60.2676C24.2334 60.7056 24.6684 61 25.1651 61C25.4383 61 25.7081 60.9085 25.9272 60.7363C34.2388 54.1999 43.1922 54.6008 46.1324 54.7201C46.4575 54.7346 46.7128 54.7455 46.8922 54.7455C48.5381 54.7455 50.0866 54.1035 51.2509 52.9388L60.6389 43.5478C60.87 43.3166 61.0001 43.0022 61.0001 42.6757C61.0002 42.348 60.8702 42.0349 60.639 41.8036ZM42.1114 31.361C43.4677 32.7918 44.528 34.1238 45.0459 35.4805C45.4546 36.569 47.0404 36.449 47.3637 35.4805C47.8816 34.0991 48.9419 32.767 50.2981 31.361C49.9777 31.139 49.6571 30.8678 49.3858 30.5964C49.0652 30.2757 48.8186 29.9551 48.5721 29.6098C47.6597 30.5717 46.8459 31.5091 46.2048 32.4711C45.5636 31.5091 44.7498 30.5717 43.8375 29.6098C43.5909 29.9551 43.3444 30.2757 43.0237 30.5964C42.7524 30.8677 42.4318 31.139 42.1114 31.361ZM34.2944 30.5964C35.4782 31.7557 37.007 32.3971 38.6591 32.3971C39.8919 32.3971 41.0756 32.027 42.0867 31.361C41.3469 30.5717 40.5331 29.7824 39.6946 28.9684C39.0781 28.3765 38.437 27.7598 37.796 27.0937C37.3028 26.625 37.3028 25.8356 37.796 25.3669C38.2645 24.8736 39.0535 24.8736 39.522 25.3669C40.1631 26.0082 40.8043 26.6002 41.4208 27.1923C42.2839 28.031 43.0976 28.8204 43.8373 29.6098C45.3661 27.217 45.1196 23.9609 43.0236 21.8644C42.2345 21.0996 40.3357 19.9649 32.8148 19.0277C32.4448 18.9785 32.0751 19.1018 31.8037 19.373C31.5325 19.6443 31.4093 20.0144 31.4587 20.3843C32.3711 27.8337 33.4561 29.7577 34.2944 30.5964ZM50.9886 27.2169C51.6051 26.625 52.2462 26.0082 52.8874 25.3669C53.3559 24.8736 54.1449 24.8736 54.6134 25.3669C55.1066 25.8356 55.1066 26.625 54.6134 27.0937C53.9724 27.7598 53.3313 28.3765 52.69 28.9931C51.8271 29.8073 51.0132 30.5964 50.2981 31.361C51.3092 32.027 52.4928 32.3971 53.7505 32.3971C55.4025 32.3971 56.9315 31.7557 58.1151 30.5964C58.8795 29.8071 60.0138 27.9077 60.9508 20.3843C61.0002 20.0143 60.877 19.6442 60.6058 19.373C60.3345 19.1017 59.9647 18.9785 59.5946 19.0031C52.1475 19.9404 50.2243 21.0256 49.3858 21.8644C47.2898 23.961 47.0432 27.217 48.5721 29.6098C49.3118 28.845 50.1256 28.0556 50.9886 27.2169Z" fill="white"/>
<defs>
<linearGradient id="paint0_linear_2741_9514" x1="40.0004" y1="80" x2="40.0004" y2="-4.76837e-05" gradientUnits="userSpaceOnUse">
<stop stop-color="#FF81FF"/>
<stop offset="1" stop-color="#A93AFF"/>
</linearGradient>
</defs>
</svg>
