<svg width="74" height="74" viewBox="0 0 74 74" fill="none" xmlns="http://www.w3.org/2000/svg">
<path d="M0 37C0 24.8777 0 18.8165 2.13927 14.095C4.54229 8.79144 8.79144 4.54229 14.095 2.13927C18.8165 0 24.8777 0 37 0V0C49.1223 0 55.1835 0 59.905 2.13927C65.2086 4.54229 69.4577 8.79144 71.8607 14.095C74 18.8165 74 24.8777 74 37V37C74 49.1223 74 55.1835 71.8607 59.905C69.4577 65.2086 65.2086 69.4577 59.905 71.8607C55.1835 74 49.1223 74 37 74V74C24.8777 74 18.8165 74 14.095 71.8607C8.79144 69.4577 4.54229 65.2086 2.13927 59.905C0 55.1835 0 49.1223 0 37V37Z" fill="url(#paint0_linear_7307_1869)"/>
<path d="M37 72C30.9091 72 26.4495 71.9987 22.9195 71.738C19.4096 71.4788 16.9775 70.9711 14.9204 70.039C10.0588 67.8362 6.16377 63.9412 3.961 59.0796C3.02894 57.0225 2.5212 54.5904 2.26198 51.0805C2.00127 47.5505 2 43.0909 2 37C2 30.9091 2.00127 26.4495 2.26198 22.9195C2.5212 19.4096 3.02894 16.9775 3.961 14.9204C6.16377 10.0588 10.0588 6.16377 14.9204 3.961C16.9775 3.02894 19.4096 2.5212 22.9195 2.26198C26.4495 2.00127 30.9091 2 37 2C43.0909 2 47.5505 2.00127 51.0805 2.26198C54.5904 2.5212 57.0225 3.02894 59.0796 3.961C63.9412 6.16377 67.8362 10.0588 70.039 14.9204C70.9711 16.9775 71.4788 19.4096 71.738 22.9195C71.9987 26.4495 72 30.9091 72 37C72 43.0909 71.9987 47.5505 71.738 51.0805C71.4788 54.5904 70.9711 57.0225 70.039 59.0796C67.8362 63.9412 63.9412 67.8362 59.0796 70.039C57.0225 70.9711 54.5904 71.4788 51.0805 71.738C47.5505 71.9987 43.0909 72 37 72Z" stroke="white" stroke-opacity="0.5" stroke-width="4"/>
<g clip-path="url(#clip0_7307_1869)">
<path fill-rule="evenodd" clip-rule="evenodd" d="M22.9375 27.554C22.9375 25.0044 25.0044 22.9375 27.554 22.9375H30.3239C30.8338 22.9375 31.2472 23.3509 31.2472 23.8608C31.2472 24.3707 30.8338 24.7841 30.3239 24.7841H27.554C26.0242 24.7841 24.7841 26.0242 24.7841 27.554V30.3239C24.7841 30.8338 24.3707 31.2472 23.8608 31.2472C23.3509 31.2472 22.9375 30.8338 22.9375 30.3239V27.554ZM22.9375 46.446C22.9375 48.9956 25.0044 51.0625 27.554 51.0625H30.3239C30.8338 51.0625 31.2472 50.6491 31.2472 50.1392C31.2472 49.6293 30.8338 49.2159 30.3239 49.2159H27.554C26.0242 49.2159 24.7841 47.9758 24.7841 46.446V43.6761C24.7841 43.1662 24.3707 42.7528 23.8608 42.7528C23.3509 42.7528 22.9375 43.1662 22.9375 43.6761V46.446ZM46.446 22.9375C48.9956 22.9375 51.0625 25.0044 51.0625 27.554V30.3239C51.0625 30.8338 50.6491 31.2472 50.1392 31.2472C49.6293 31.2472 49.2159 30.8338 49.2159 30.3239V27.554C49.2159 26.0242 47.9758 24.7841 46.446 24.7841H43.6761C43.1662 24.7841 42.7528 24.3707 42.7528 23.8608C42.7528 23.3509 43.1662 22.9375 43.6761 22.9375H46.446ZM51.0625 46.446C51.0625 48.9956 48.9956 51.0625 46.446 51.0625H43.6761C43.1662 51.0625 42.7528 50.6491 42.7528 50.1392C42.7528 49.6293 43.1662 49.2159 43.6761 49.2159H46.446C47.9758 49.2159 49.2159 47.9758 49.2159 46.446V43.6761C49.2159 43.1662 49.6293 42.7528 50.1392 42.7528C50.6491 42.7528 51.0625 43.1662 51.0625 43.6761V46.446ZM47.2273 37C47.2273 42.6484 42.6484 47.2273 37 47.2273C31.3516 47.2273 26.7727 42.6484 26.7727 37C26.7727 31.3516 31.3516 26.7727 37 26.7727C42.6484 26.7727 47.2273 31.3516 47.2273 37ZM40.6517 30.7077L38.5273 34.4735C37.5506 33.8962 36.389 33.9362 35.4754 34.4739L33.1662 30.3811C34.3314 29.6952 35.6573 29.3321 37.0011 29.3295H37.014C38.3147 29.3296 39.6317 29.6677 40.8368 30.3795L40.6517 30.7077ZM35.4752 39.9384L33.166 44.0312C30.8743 42.672 29.3295 40.134 29.3295 37.2338H33.9487C33.9487 38.3877 34.5634 39.3975 35.4752 39.9384ZM43.4495 37.1785H40.0528C40.0508 38.2572 39.5038 39.3067 38.5271 39.8835L40.6513 43.649L40.8363 43.9775C43.2908 42.5273 44.666 39.8894 44.6705 37.1785H43.4495ZM38.8326 37.1785C38.8326 38.2136 38.0126 39.0527 37.0012 39.0527C35.9897 39.0527 35.1698 38.2136 35.1698 37.1785C35.1698 36.1435 35.9897 35.3044 37.0012 35.3044C38.0126 35.3044 38.8326 36.1435 38.8326 37.1785Z" fill="white"/>
</g>
<defs>
<linearGradient id="paint0_linear_7307_1869" x1="37" y1="73.9999" x2="37" y2="0" gradientUnits="userSpaceOnUse">
<stop stop-color="#FFA68D"/>
<stop offset="1" stop-color="#FD3A84"/>
</linearGradient>
<clipPath id="clip0_7307_1869">
<rect width="30" height="30" fill="white" transform="translate(22 22)"/>
</clipPath>
</defs>
</svg>
