<svg width="32" height="32" viewBox="0 0 32 32" fill="none" xmlns="http://www.w3.org/2000/svg">
<rect width="32" height="32" rx="16" fill="#F3FBF8"/>
<path d="M16.6172 5.96367C17.6005 5.25022 19.2246 4.83342 21.001 5.88616C22.2699 6.63818 22.9411 8.17763 22.704 9.88548C22.4648 11.6088 21.3173 13.512 18.9639 15.195C18.1924 15.7477 17.4912 16.25 16.5016 16.25C15.512 16.25 14.8107 15.7477 14.0392 15.195C11.6858 13.512 10.5383 11.6088 10.2991 9.88548C10.062 8.17763 10.7332 6.63818 12.0021 5.88616C13.7785 4.83342 15.4026 5.25022 16.3859 5.96367L16.5016 6.04742L16.6172 5.96367Z" fill="url(#paint0_linear_2301_2963)"/>
<path d="M9.95526 17.25C9.52244 17.25 9.12561 17.2499 8.8028 17.2933C8.44732 17.3411 8.07159 17.4535 7.76257 17.7626C7.45355 18.0716 7.3411 18.4473 7.29331 18.8028C7.24991 19.1256 7.24995 19.5224 7.25 19.9553L7.25 22.5635C7.24996 22.8917 7.24993 23.1992 7.27988 23.4561C7.31321 23.7421 7.39038 24.0427 7.59756 24.3203C7.80474 24.5979 8.07102 24.7574 8.33569 24.8707C8.57351 24.9725 8.8683 25.06 9.18291 25.1533L14.1818 26.6366C14.9063 26.8516 15.6827 26.7581 16.3377 26.3802L23.8533 22.0438C24.7865 21.5054 25.0266 20.2638 24.4051 19.4032C23.7123 18.4437 22.5017 18.0209 21.3712 18.3724L21.3697 18.3729L19.2442 19.0259C18.9956 19.1023 18.8712 19.1405 18.8322 19.2122C18.7933 19.2839 18.8398 19.4474 18.9328 19.7743C19.0037 20.0236 19.0121 20.2627 19 20.3973C19 21.3786 18.331 22.171 17.4667 22.4099L14.9258 23.1124C14.0041 23.3673 13.0169 23.2796 12.1539 22.8621L10.5336 22.0781C10.2229 21.9278 10.0929 21.554 10.2432 21.2433C10.3935 20.9326 10.7673 20.8026 11.078 20.9529L12.6983 21.7369C13.2869 22.0217 13.9622 22.082 14.5927 21.9076L17.1336 21.2051C17.4837 21.1083 17.75 20.7884 17.75 20.3973C17.75 18.9842 16.5733 18.6252 15.1741 18.6252L14.1315 18.6251C13.9497 18.6251 13.7714 18.5841 13.6108 18.5064L11.5688 17.5184C11.2032 17.3415 10.8014 17.25 10.3948 17.25L9.95526 17.25Z" fill="url(#paint1_linear_2301_2963)"/>
<defs>
<linearGradient id="paint0_linear_2301_2963" x1="23.6202" y1="16.8" x2="9.3538" y2="16.2278" gradientUnits="userSpaceOnUse">
<stop stop-color="#28D581"/>
<stop offset="1" stop-color="#33A36D"/>
</linearGradient>
<linearGradient id="paint1_linear_2301_2963" x1="25.9664" y1="27.225" x2="6.04463" y2="25.9297" gradientUnits="userSpaceOnUse">
<stop stop-color="#28D581"/>
<stop offset="1" stop-color="#33A36D"/>
</linearGradient>
</defs>
</svg>
