<svg width="32" height="32" viewBox="0 0 32 32" fill="none" xmlns="http://www.w3.org/2000/svg">
<rect width="32" height="32" rx="16" fill="#FFF9E6"/>
<g clip-path="url(#clip0_2301_2976)">
<path d="M6.85938 16C6.85938 15.6117 6.54456 15.2969 6.15625 15.2969H4.70312C4.31481 15.2969 4 15.6117 4 16C4 16.3883 4.31481 16.7031 4.70312 16.7031H6.15625C6.54456 16.7031 6.85938 16.3883 6.85938 16ZM27.2969 15.2969H25.8438C25.4554 15.2969 25.1406 15.6117 25.1406 16C25.1406 16.3883 25.4554 16.7031 25.8438 16.7031H27.2969C27.6852 16.7031 28 16.3883 28 16C28 15.6117 27.6852 15.2969 27.2969 15.2969ZM16 4C15.6117 4 15.2969 4.31481 15.2969 4.70312V6.15625C15.2969 6.54456 15.6117 6.85938 16 6.85938C16.3883 6.85938 16.7031 6.54456 16.7031 6.15625V4.70312C16.7031 4.31481 16.3883 4 16 4ZM16 25.1406C15.6117 25.1406 15.2969 25.4554 15.2969 25.8438V27.2969C15.2969 27.6852 15.6117 28 16 28C16.3883 28 16.7031 27.6852 16.7031 27.2969V25.8438C16.7031 25.4554 16.3883 25.1406 16 25.1406ZM8.54223 22.4634L7.54788 23.4578C7.27328 23.7324 7.27328 24.1775 7.54788 24.4521C7.82247 24.7267 8.26769 24.7267 8.54223 24.4521L9.53659 23.4578C9.81119 23.1832 9.81119 22.738 9.53659 22.4634C9.26205 22.1888 8.81683 22.1888 8.54223 22.4634ZM23.4578 9.53659L24.4521 8.54223C24.7267 8.26764 24.7267 7.82247 24.4521 7.54788C24.1776 7.27328 23.7324 7.27328 23.4578 7.54788L22.4634 8.54223C22.1888 8.81683 22.1888 9.262 22.4634 9.53659C22.738 9.81123 23.1832 9.81119 23.4578 9.53659ZM8.54223 7.54788C8.26769 7.27328 7.82247 7.27328 7.54788 7.54788C7.27328 7.82247 7.27328 8.26764 7.54788 8.54223L8.54223 9.53659C8.81683 9.81119 9.26205 9.81114 9.53659 9.53659C9.81119 9.262 9.81119 8.81683 9.53659 8.54223L8.54223 7.54788ZM23.4578 22.4634C23.1832 22.1888 22.738 22.1888 22.4634 22.4634C22.1888 22.738 22.1888 23.1832 22.4634 23.4578L23.4578 24.4521C23.7324 24.7267 24.1776 24.7267 24.4521 24.4521C24.7267 24.1775 24.7267 23.7324 24.4521 23.4578L23.4578 22.4634ZM12.502 24.4449C12.1434 24.2962 11.732 24.4666 11.5834 24.8254L11.0452 26.1246C10.8966 26.4833 11.067 26.8946 11.4257 27.0432C11.7857 27.1923 12.1963 27.0203 12.3444 26.6627L12.8826 25.3635C13.0312 25.0048 12.8608 24.5935 12.502 24.4449ZM20.5743 4.95677C20.2155 4.80808 19.8042 4.97847 19.6556 5.3373L19.1174 6.63648C18.9688 6.99522 19.1392 7.40655 19.498 7.55514C19.8572 7.70402 20.2682 7.53278 20.4166 7.17461L20.9548 5.87542C21.1034 5.51669 20.933 5.10536 20.5743 4.95677ZM5.3373 12.3444L6.63648 12.8826C6.72447 12.919 6.81559 12.9363 6.90527 12.9363C7.18117 12.9363 7.44297 12.7728 7.55514 12.502C7.70373 12.1433 7.53339 11.732 7.17461 11.5834L5.87542 11.0452C5.51664 10.8965 5.10536 11.0669 4.95677 11.4257C4.80817 11.7845 4.97852 12.1958 5.3373 12.3444ZM26.6627 19.6556L25.3635 19.1174C25.0047 18.9688 24.5935 19.1391 24.4449 19.498C24.2963 19.8567 24.4666 20.268 24.8254 20.4166L26.1246 20.9548C26.4845 21.1039 26.8952 20.9318 27.0432 20.5743C27.1918 20.2155 27.0215 19.8042 26.6627 19.6556ZM20.4166 24.8253C20.268 24.4666 19.8567 24.2962 19.498 24.4448C19.1392 24.5934 18.9688 25.0047 19.1174 25.3635L19.6556 26.6627C19.8039 27.0207 20.2148 27.1921 20.5743 27.0432C20.933 26.8946 21.1034 26.4833 20.9548 26.1245L20.4166 24.8253ZM12.3444 5.3373C12.1958 4.97852 11.7845 4.80812 11.4257 4.95677C11.067 5.10536 10.8966 5.51669 11.0452 5.87542L11.5834 7.17461C11.7317 7.53264 12.1426 7.70406 12.502 7.55514C12.8608 7.40655 13.0312 6.99522 12.8826 6.63648L12.3444 5.3373ZM24.4449 12.502C24.5931 12.8601 25.0041 13.0315 25.3635 12.8826L26.6627 12.3444C27.0215 12.1958 27.1918 11.7845 27.0432 11.4257C26.8947 11.067 26.4834 10.8966 26.1246 11.0452L24.8254 11.5834C24.4666 11.732 24.2962 12.1433 24.4449 12.502ZM7.55514 19.498C7.40659 19.1392 6.99527 18.9688 6.63648 19.1174L5.3373 19.6556C4.97852 19.8042 4.80817 20.2155 4.95677 20.5743C5.10503 20.9323 5.51598 21.1037 5.87542 20.9548L7.17461 20.4166C7.53339 20.268 7.70378 19.8567 7.55514 19.498Z" fill="#FFCD5E"/>
<path d="M16 23.7344C20.2716 23.7344 23.7344 20.2716 23.7344 16C23.7344 11.7284 20.2716 8.26562 16 8.26562C11.7284 8.26562 8.26562 11.7284 8.26562 16C8.26562 20.2716 11.7284 23.7344 16 23.7344Z" fill="#FFCD5E"/>
</g>
<defs>
<clipPath id="clip0_2301_2976">
<rect width="24" height="24" fill="white" transform="translate(4 4)"/>
</clipPath>
</defs>
</svg>
