<svg width="64" height="64" viewBox="0 0 64 64" fill="none" xmlns="http://www.w3.org/2000/svg">
<path fill-rule="evenodd" clip-rule="evenodd" d="M2 11.8485C2 6.40932 6.40932 2 11.8485 2H17.7576C18.8454 2 19.7273 2.88186 19.7273 3.9697C19.7273 5.05753 18.8454 5.93939 17.7576 5.93939H11.8485C8.58498 5.93939 5.93939 8.58498 5.93939 11.8485V17.7576C5.93939 18.8454 5.05753 19.7273 3.9697 19.7273C2.88186 19.7273 2 18.8454 2 17.7576V11.8485ZM2 52.1515C2 57.5907 6.40932 62 11.8485 62H17.7576C18.8454 62 19.7273 61.1181 19.7273 60.0303C19.7273 58.9425 18.8454 58.0606 17.7576 58.0606H11.8485C8.58498 58.0606 5.93939 55.415 5.93939 52.1515V46.2424C5.93939 45.1546 5.05753 44.2727 3.9697 44.2727C2.88186 44.2727 2 45.1546 2 46.2424V52.1515ZM52.1515 2C57.5907 2 62 6.40932 62 11.8485V17.7576C62 18.8454 61.1181 19.7273 60.0303 19.7273C58.9425 19.7273 58.0606 18.8454 58.0606 17.7576V11.8485C58.0606 8.58498 55.415 5.93939 52.1515 5.93939H46.2424C45.1546 5.93939 44.2727 5.05753 44.2727 3.9697C44.2727 2.88186 45.1546 2 46.2424 2H52.1515ZM62 52.1515C62 57.5907 57.5907 62 52.1515 62H46.2424C45.1546 62 44.2727 61.1181 44.2727 60.0303C44.2727 58.9425 45.1546 58.0606 46.2424 58.0606H52.1515C55.415 58.0606 58.0606 55.415 58.0606 52.1515V46.2424C58.0606 45.1546 58.9425 44.2727 60.0303 44.2727C61.1181 44.2727 62 45.1546 62 46.2424V52.1515ZM26.4483 8.31144C26.1686 7.61219 25.375 7.27207 24.6757 7.55177C23.9765 7.83147 23.6364 8.62507 23.9161 9.32432L24.9049 11.7965C22.6941 12.4928 21.0909 14.5592 21.0909 17V19.7273H42.9091V17C42.9091 14.5592 41.3059 12.4928 39.0951 11.7965L40.0839 9.32432C40.3636 8.62507 40.0235 7.83147 39.3243 7.55177C38.625 7.27207 37.8314 7.61219 37.5517 8.31144L36.2581 11.5455H27.7419L26.4483 8.31144ZM18.3636 31.7147C15.9411 31.1747 14.2528 29.9159 13.1602 28.3477C11.7493 26.3224 11.4404 23.9397 11.5736 22.3414C11.6362 21.5909 12.2953 21.0332 13.0458 21.0957C13.7963 21.1582 14.354 21.8174 14.2915 22.5679C14.1974 23.6968 14.434 25.405 15.398 26.7888C16.0092 27.6661 16.9627 28.4872 18.4781 28.9307C19.04 26.0181 21.6028 23.8182 24.6794 23.8182H29.2727V29.2727C29.2727 30.779 30.4938 32 32 32C33.5062 32 34.7273 30.779 34.7273 29.2727V23.8182H39.3206C42.3995 23.8182 44.9639 26.0214 45.5231 28.9373C47.0518 28.4954 48.0117 27.6705 48.626 26.7888C49.59 25.405 49.8266 23.6968 49.7325 22.5679C49.67 21.8174 50.2277 21.1582 50.9782 21.0957C51.7287 21.0332 52.3878 21.5909 52.4504 22.3414C52.5836 23.9397 52.2747 26.3224 50.8637 28.3477C49.7676 29.9211 48.0718 31.183 45.6364 31.72V34.0455H51.7967C52.5498 34.0455 53.1603 34.656 53.1603 35.4091C53.1603 36.1622 52.5498 36.7727 51.7967 36.7727H45.6364V39.0945C48.0758 39.6297 49.773 40.8947 50.8687 42.4719C52.2755 44.497 52.5832 46.879 52.4505 48.4765C52.3881 49.227 51.7291 49.7849 50.9786 49.7225C50.2281 49.6601 49.6702 49.0012 49.7325 48.2506C49.8264 47.1208 49.5903 45.4119 48.6288 44.0279C48.0157 43.1453 47.0577 42.3202 45.5318 41.8791C44.6962 48.6093 38.9564 53.8182 32 53.8182C25.0459 53.8182 19.3076 48.6127 18.4691 41.8858C16.9565 42.3285 16.0051 43.1497 15.3951 44.0279C14.4337 45.4119 14.1975 47.1208 14.2914 48.2506C14.3538 49.0012 13.7959 49.6601 13.0454 49.7225C12.2949 49.7849 11.6359 49.227 11.5735 48.4765C11.4408 46.879 11.7485 44.497 13.1553 42.4719C14.2473 40.8998 15.9371 39.638 18.3636 39.0998V36.7727H12.2273C11.4742 36.7727 10.8636 36.1622 10.8636 35.4091C10.8636 34.656 11.4742 34.0455 12.2273 34.0455H18.3636V31.7147Z" fill="url(#paint0_linear_2365_14516)"/>
<defs>
<linearGradient id="paint0_linear_2365_14516" x1="32.0003" y1="62" x2="32.0003" y2="1.99996" gradientUnits="userSpaceOnUse">
<stop stop-color="#FF81FF"/>
<stop offset="1" stop-color="#A93AFF"/>
</linearGradient>
</defs>
</svg>
