<svg width="74" height="74" viewBox="0 0 74 74" fill="none" xmlns="http://www.w3.org/2000/svg">
<path d="M0 37C0 24.8777 0 18.8165 2.13927 14.095C4.54229 8.79144 8.79144 4.54229 14.095 2.13927C18.8165 0 24.8777 0 37 0V0C49.1223 0 55.1835 0 59.905 2.13927C65.2086 4.54229 69.4577 8.79144 71.8607 14.095C74 18.8165 74 24.8777 74 37V37C74 49.1223 74 55.1835 71.8607 59.905C69.4577 65.2086 65.2086 69.4577 59.905 71.8607C55.1835 74 49.1223 74 37 74V74C24.8777 74 18.8165 74 14.095 71.8607C8.79144 69.4577 4.54229 65.2086 2.13927 59.905C0 55.1835 0 49.1223 0 37V37Z" fill="url(#paint0_linear_7307_1849)"/>
<path d="M37 72C30.9091 72 26.4495 71.9987 22.9195 71.738C19.4096 71.4788 16.9775 70.9711 14.9204 70.039C10.0588 67.8362 6.16377 63.9412 3.961 59.0796C3.02894 57.0225 2.5212 54.5904 2.26198 51.0805C2.00127 47.5505 2 43.0909 2 37C2 30.9091 2.00127 26.4495 2.26198 22.9195C2.5212 19.4096 3.02894 16.9775 3.961 14.9204C6.16377 10.0588 10.0588 6.16377 14.9204 3.961C16.9775 3.02894 19.4096 2.5212 22.9195 2.26198C26.4495 2.00127 30.9091 2 37 2C43.0909 2 47.5505 2.00127 51.0805 2.26198C54.5904 2.5212 57.0225 3.02894 59.0796 3.961C63.9412 6.16377 67.8362 10.0588 70.039 14.9204C70.9711 16.9775 71.4788 19.4096 71.738 22.9195C71.9987 26.4495 72 30.9091 72 37C72 43.0909 71.9987 47.5505 71.738 51.0805C71.4788 54.5904 70.9711 57.0225 70.039 59.0796C67.8362 63.9412 63.9412 67.8362 59.0796 70.039C57.0225 70.9711 54.5904 71.4788 51.0805 71.738C47.5505 71.9987 43.0909 72 37 72Z" stroke="white" stroke-opacity="0.5" stroke-width="4"/>
<g clip-path="url(#clip0_7307_1849)">
<path fill-rule="evenodd" clip-rule="evenodd" d="M22.9375 27.554C22.9375 25.0044 25.0044 22.9375 27.554 22.9375H30.3239C30.8338 22.9375 31.2472 23.3509 31.2472 23.8608C31.2472 24.3707 30.8338 24.7841 30.3239 24.7841H27.554C26.0242 24.7841 24.7841 26.0242 24.7841 27.554V30.3239C24.7841 30.8338 24.3707 31.2472 23.8608 31.2472C23.3509 31.2472 22.9375 30.8338 22.9375 30.3239V27.554ZM47.0135 32.5245C46.6728 31.2269 45.9467 30.108 44.9136 29.2887C43.9072 28.4907 42.6743 28.0511 41.4421 28.0511C40.4974 28.0511 39.5963 28.2982 38.7637 28.7853C38.1063 29.1702 37.5148 29.6936 36.9983 30.3468C35.8233 28.8595 34.2721 28.0511 32.5564 28.0511C31.3247 28.0511 30.0923 28.4907 29.0861 29.2887C28.0533 30.108 27.3273 31.2267 26.9866 32.5243C26.7368 33.476 26.623 34.8117 27.116 36.418H30.2117L31.3295 34.2465C31.4311 34.0493 31.6385 33.9247 31.8654 33.9247C32.0925 33.9247 32.2999 34.0493 32.4013 34.2465L34.4325 38.192L36.4638 34.2465C36.5652 34.0493 36.7726 33.9247 36.9997 33.9247C37.2266 33.9247 37.434 34.0493 37.5356 34.2465L38.6534 36.418H42.8271C43.1581 36.418 43.4262 36.6786 43.4262 36.9999C43.4262 37.3214 43.1581 37.582 42.8271 37.582H38.2831C38.0562 37.582 37.8488 37.4574 37.7472 37.2602L36.9997 35.808L34.9684 39.7535C34.8669 39.9507 34.6595 40.0752 34.4325 40.0752C34.2055 40.0752 33.9981 39.9507 33.8966 39.7535L31.8656 35.808L31.1179 37.2603C31.0163 37.4574 30.8089 37.582 30.582 37.582H27.5648C27.765 38.0133 28.0097 38.4599 28.3069 38.9199C29.938 41.4464 32.7657 43.7875 36.7111 45.8778C36.8005 45.9252 36.8993 45.9489 36.9981 45.9489C37.0969 45.9489 37.1955 45.9252 37.2849 45.8779C41.2316 43.7873 44.0601 41.4464 45.692 38.92C47.4551 36.1902 47.3838 33.9354 47.0135 32.5245ZM27.554 51.0625C25.0044 51.0625 22.9375 48.9956 22.9375 46.446V43.6761C22.9375 43.1662 23.3509 42.7528 23.8608 42.7528C24.3707 42.7528 24.7841 43.1662 24.7841 43.6761V46.446C24.7841 47.9758 26.0242 49.2159 27.554 49.2159H30.3239C30.8338 49.2159 31.2472 49.6293 31.2472 50.1392C31.2472 50.6491 30.8338 51.0625 30.3239 51.0625H27.554ZM51.0625 27.554C51.0625 25.0044 48.9956 22.9375 46.446 22.9375H43.6761C43.1662 22.9375 42.7528 23.3509 42.7528 23.8608C42.7528 24.3707 43.1662 24.7841 43.6761 24.7841H46.446C47.9758 24.7841 49.2159 26.0242 49.2159 27.554V30.3239C49.2159 30.8338 49.6293 31.2472 50.1392 31.2472C50.6491 31.2472 51.0625 30.8338 51.0625 30.3239V27.554ZM46.446 51.0625C48.9956 51.0625 51.0625 48.9956 51.0625 46.446V43.6761C51.0625 43.1662 50.6491 42.7528 50.1392 42.7528C49.6293 42.7528 49.2159 43.1662 49.2159 43.6761V46.446C49.2159 47.9758 47.9758 49.2159 46.446 49.2159H43.6761C43.1662 49.2159 42.7528 49.6293 42.7528 50.1392C42.7528 50.6491 43.1662 51.0625 43.6761 51.0625H46.446Z" fill="white"/>
</g>
<defs>
<linearGradient id="paint0_linear_7307_1849" x1="37" y1="73.9999" x2="37" y2="0" gradientUnits="userSpaceOnUse">
<stop stop-color="#FFA68D"/>
<stop offset="1" stop-color="#FD3A84"/>
</linearGradient>
<clipPath id="clip0_7307_1849">
<rect width="30" height="30" fill="white" transform="translate(22 22)"/>
</clipPath>
</defs>
</svg>
