<svg width="74" height="74" viewBox="0 0 74 74" fill="none" xmlns="http://www.w3.org/2000/svg">
<path d="M0 37C0 24.8777 0 18.8165 2.13927 14.095C4.54229 8.79144 8.79144 4.54229 14.095 2.13927C18.8165 0 24.8777 0 37 0V0C49.1223 0 55.1835 0 59.905 2.13927C65.2086 4.54229 69.4577 8.79144 71.8607 14.095C74 18.8165 74 24.8777 74 37V37C74 49.1223 74 55.1835 71.8607 59.905C69.4577 65.2086 65.2086 69.4577 59.905 71.8607C55.1835 74 49.1223 74 37 74V74C24.8777 74 18.8165 74 14.095 71.8607C8.79144 69.4577 4.54229 65.2086 2.13927 59.905C0 55.1835 0 49.1223 0 37V37Z" fill="url(#paint0_linear_7307_1865)"/>
<path d="M37 72C30.9091 72 26.4495 71.9987 22.9195 71.738C19.4096 71.4788 16.9775 70.9711 14.9204 70.039C10.0588 67.8362 6.16377 63.9412 3.961 59.0796C3.02894 57.0225 2.5212 54.5904 2.26198 51.0805C2.00127 47.5505 2 43.0909 2 37C2 30.9091 2.00127 26.4495 2.26198 22.9195C2.5212 19.4096 3.02894 16.9775 3.961 14.9204C6.16377 10.0588 10.0588 6.16377 14.9204 3.961C16.9775 3.02894 19.4096 2.5212 22.9195 2.26198C26.4495 2.00127 30.9091 2 37 2C43.0909 2 47.5505 2.00127 51.0805 2.26198C54.5904 2.5212 57.0225 3.02894 59.0796 3.961C63.9412 6.16377 67.8362 10.0588 70.039 14.9204C70.9711 16.9775 71.4788 19.4096 71.738 22.9195C71.9987 26.4495 72 30.9091 72 37C72 43.0909 71.9987 47.5505 71.738 51.0805C71.4788 54.5904 70.9711 57.0225 70.039 59.0796C67.8362 63.9412 63.9412 67.8362 59.0796 70.039C57.0225 70.9711 54.5904 71.4788 51.0805 71.738C47.5505 71.9987 43.0909 72 37 72Z" stroke="white" stroke-opacity="0.5" stroke-width="4"/>
<path d="M45.4113 33.52C45.07 29.1784 41.4278 25.75 37 25.75C33.2125 25.75 29.9613 28.21 28.9113 31.7978C25.9197 32.8366 23.875 35.6716 23.875 38.875C23.875 43.0103 27.2397 46.375 31.375 46.375H43.5625C47.1803 46.375 50.125 43.4303 50.125 39.8125C50.125 36.8603 48.1844 34.3263 45.4113 33.52ZM41.0247 40.4753L39.1497 38.6003C38.8816 38.3322 38.8009 37.9291 38.9463 37.5784C39.0906 37.2288 39.4337 37 39.8125 37H40.6169C40.1978 35.3875 38.7428 34.1875 37 34.1875C36.4769 34.1875 35.9716 34.2925 35.4981 34.4997C35.0219 34.7059 34.4706 34.4903 34.2634 34.0169C34.0553 33.5425 34.2719 32.9894 34.7462 32.7822C35.4578 32.4709 36.2172 32.3125 37 32.3125C39.7816 32.3125 42.0916 34.3441 42.5406 37H43.5625C43.9413 37 44.2844 37.2288 44.4287 37.5784C44.5741 37.9291 44.4934 38.3322 44.2253 38.6003L42.3503 40.4753C42.1675 40.6581 41.9275 40.75 41.6875 40.75C41.4475 40.75 41.2075 40.6581 41.0247 40.4753ZM29.7747 37.2747L31.6497 35.3997C32.0163 35.0331 32.6087 35.0331 32.9753 35.3997L34.8503 37.2747C35.1184 37.5428 35.1991 37.9459 35.0537 38.2966C34.9094 38.6472 34.5663 38.875 34.1875 38.875H33.3831C33.8022 40.4884 35.2572 41.6875 37 41.6875C37.5212 41.6875 38.0256 41.5825 38.4991 41.3762C38.9725 41.1662 39.5256 41.3866 39.7328 41.86C39.9409 42.3344 39.7234 42.8875 39.2491 43.0938C38.5384 43.405 37.7809 43.5625 37 43.5625C34.2184 43.5625 31.9084 41.5309 31.4594 38.875H30.4375C30.0587 38.875 29.7156 38.6472 29.5713 38.2966C29.4259 37.9459 29.5066 37.5428 29.7747 37.2747Z" fill="white"/>
<defs>
<linearGradient id="paint0_linear_7307_1865" x1="37.0002" y1="74" x2="37.0002" y2="0" gradientUnits="userSpaceOnUse">
<stop stop-color="#FFDE00"/>
<stop offset="1" stop-color="#FF5900"/>
</linearGradient>
</defs>
</svg>
