<svg width="32" height="32" viewBox="0 0 32 32" fill="none" xmlns="http://www.w3.org/2000/svg">
<rect width="32" height="32" rx="16" fill="#EBF9FF"/>
<path d="M21.0655 10.9517C19.8527 8.8435 17.404 5.5 16 5.5C14.596 5.5 12.1472 8.8435 10.9345 10.9517C9.40596 13.6053 7.16946 18.6175 9.35121 22.375C10.4552 24.2785 12.8597 26.5 16 26.5C19.1402 26.5 21.5447 24.2785 22.6487 22.375C24.8305 18.6175 22.594 13.6053 21.0655 10.9517Z" fill="url(#paint0_linear_2301_2969)"/>
<path d="M16 23.5C15.8011 23.5 15.6103 23.421 15.4697 23.2803C15.329 23.1397 15.25 22.9489 15.25 22.75C15.25 22.5511 15.329 22.3603 15.4697 22.2197C15.6103 22.079 15.8011 22 16 22C17.365 22 18.4533 20.641 18.757 20.1175C18.8033 20.0269 18.8676 19.9467 18.9459 19.8818C19.0243 19.8169 19.115 19.7685 19.2125 19.7398C19.3101 19.711 19.4125 19.7024 19.5136 19.7144C19.6146 19.7265 19.7121 19.759 19.8002 19.8099C19.8882 19.8608 19.965 19.9292 20.0258 20.0107C20.0867 20.0923 20.1303 20.1853 20.154 20.2843C20.1777 20.3832 20.1811 20.4859 20.1638 20.5862C20.1466 20.6864 20.1091 20.7822 20.0538 20.8675C19.4868 21.85 17.995 23.5 16 23.5Z" fill="#D9F7FF"/>
<defs>
<linearGradient id="paint0_linear_2301_2969" x1="16" y1="26.5" x2="16" y2="5.5" gradientUnits="userSpaceOnUse">
<stop stop-color="#00C0FF"/>
<stop offset="1" stop-color="#5558FF"/>
</linearGradient>
</defs>
</svg>
