<svg width="74" height="74" viewBox="0 0 74 74" fill="none" xmlns="http://www.w3.org/2000/svg">
<path d="M0 37C0 24.8777 0 18.8165 2.13927 14.095C4.54229 8.79144 8.79144 4.54229 14.095 2.13927C18.8165 0 24.8777 0 37 0V0C49.1223 0 55.1835 0 59.905 2.13927C65.2086 4.54229 69.4577 8.79144 71.8607 14.095C74 18.8165 74 24.8777 74 37V37C74 49.1223 74 55.1835 71.8607 59.905C69.4577 65.2086 65.2086 69.4577 59.905 71.8607C55.1835 74 49.1223 74 37 74V74C24.8777 74 18.8165 74 14.095 71.8607C8.79144 69.4577 4.54229 65.2086 2.13927 59.905C0 55.1835 0 49.1223 0 37V37Z" fill="url(#paint0_linear_7307_1882)"/>
<path d="M37 72C30.9091 72 26.4495 71.9987 22.9195 71.738C19.4096 71.4788 16.9775 70.9711 14.9204 70.039C10.0588 67.8362 6.16377 63.9412 3.961 59.0796C3.02894 57.0225 2.5212 54.5904 2.26198 51.0805C2.00127 47.5505 2 43.0909 2 37C2 30.9091 2.00127 26.4495 2.26198 22.9195C2.5212 19.4096 3.02894 16.9775 3.961 14.9204C6.16377 10.0588 10.0588 6.16377 14.9204 3.961C16.9775 3.02894 19.4096 2.5212 22.9195 2.26198C26.4495 2.00127 30.9091 2 37 2C43.0909 2 47.5505 2.00127 51.0805 2.26198C54.5904 2.5212 57.0225 3.02894 59.0796 3.961C63.9412 6.16377 67.8362 10.0588 70.039 14.9204C70.9711 16.9775 71.4788 19.4096 71.738 22.9195C71.9987 26.4495 72 30.9091 72 37C72 43.0909 71.9987 47.5505 71.738 51.0805C71.4788 54.5904 70.9711 57.0225 70.039 59.0796C67.8362 63.9412 63.9412 67.8362 59.0796 70.039C57.0225 70.9711 54.5904 71.4788 51.0805 71.738C47.5505 71.9987 43.0909 72 37 72Z" stroke="white" stroke-opacity="0.5" stroke-width="4"/>
<path fill-rule="evenodd" clip-rule="evenodd" d="M37 27.2772C36.1902 27.2772 35.5339 26.6209 35.5339 25.8118V23.4661C35.5339 22.6563 36.1902 22 37 22C37.8098 22 38.4661 22.6563 38.4661 23.4661V25.8118C38.4661 26.6209 37.8091 27.2772 37 27.2772ZM37 29.486C32.8567 29.486 29.486 32.8574 29.486 37.0007C29.486 41.1439 32.8567 44.5153 37 44.5153C41.1426 44.5153 44.5139 41.1446 44.5139 37.0007C44.5139 32.8567 41.1426 29.486 37 29.486ZM35.5339 48.1882C35.5339 47.3784 36.1902 46.7221 37 46.7221C37.8091 46.7221 38.4661 47.3784 38.4661 48.1882V50.5332C38.4661 51.3437 37.8098 52 37 52C36.1902 52 35.5339 51.3437 35.5339 50.5332V48.1882ZM43.8742 30.1251C43.3023 29.5525 43.3023 28.6244 43.8742 28.0518L45.533 26.393C46.105 25.8211 47.0337 25.8211 47.6063 26.393C48.1789 26.9657 48.1789 27.8944 47.6063 28.4663L45.9475 30.1251C45.3756 30.6977 44.4475 30.6977 43.8742 30.1251ZM28.0518 43.8756C28.6244 43.3023 29.5525 43.3023 30.1251 43.8756C30.6977 44.4469 30.6977 45.3756 30.1251 45.9475L28.4663 47.607C27.8944 48.1789 26.9657 48.1789 26.393 47.607C25.8204 47.035 25.8211 46.1056 26.393 45.5337L28.0518 43.8756ZM46.7221 37C46.7221 36.1902 47.3784 35.5339 48.1882 35.5339H50.5339C51.3437 35.5339 52 36.1902 52 37C52 37.8098 51.3437 38.4655 50.5339 38.4655H48.1882C47.3784 38.4655 46.7221 37.8098 46.7221 37ZM25.8111 35.5339C26.6209 35.5339 27.2772 36.1902 27.2772 37C27.2772 37.8098 26.6209 38.4655 25.8118 38.4655H23.4661C22.6563 38.4655 22 37.8098 22 37C22 36.1902 22.6563 35.5339 23.4661 35.5339H25.8111ZM43.8742 43.8756C44.4469 43.3036 45.3756 43.3036 45.9475 43.8756L47.6063 45.5343C48.1789 46.1056 48.1789 47.035 47.6063 47.607C47.0337 48.1789 46.1056 48.1789 45.533 47.607L43.8742 45.9482C43.3016 45.3756 43.3016 44.4475 43.8742 43.8756ZM30.1251 28.0518C30.6977 28.6244 30.6977 29.5525 30.1251 30.1251C29.5525 30.6984 28.6244 30.6984 28.0518 30.1251L26.393 28.4663C25.8204 27.8944 25.8204 26.9657 26.393 26.3937C26.9657 25.8211 27.8937 25.8211 28.4663 26.3937L30.1251 28.0518Z" fill="white"/>
<defs>
<linearGradient id="paint0_linear_7307_1882" x1="37.0002" y1="74" x2="37.0002" y2="0" gradientUnits="userSpaceOnUse">
<stop stop-color="#FFDE00"/>
<stop offset="1" stop-color="#FF5900"/>
</linearGradient>
</defs>
</svg>
