<svg width="74" height="74" viewBox="0 0 74 74" fill="none" xmlns="http://www.w3.org/2000/svg">
<path d="M0 37C0 24.8777 0 18.8165 2.13927 14.095C4.54229 8.79144 8.79144 4.54229 14.095 2.13927C18.8165 0 24.8777 0 37 0V0C49.1223 0 55.1835 0 59.905 2.13927C65.2086 4.54229 69.4577 8.79144 71.8607 14.095C74 18.8165 74 24.8777 74 37V37C74 49.1223 74 55.1835 71.8607 59.905C69.4577 65.2086 65.2086 69.4577 59.905 71.8607C55.1835 74 49.1223 74 37 74V74C24.8777 74 18.8165 74 14.095 71.8607C8.79144 69.4577 4.54229 65.2086 2.13927 59.905C0 55.1835 0 49.1223 0 37V37Z" fill="url(#paint0_linear_7307_1830)"/>
<path d="M37 72C30.9091 72 26.4495 71.9987 22.9195 71.738C19.4096 71.4788 16.9775 70.9711 14.9204 70.039C10.0588 67.8362 6.16377 63.9412 3.961 59.0796C3.02894 57.0225 2.5212 54.5904 2.26198 51.0805C2.00127 47.5505 2 43.0909 2 37C2 30.9091 2.00127 26.4495 2.26198 22.9195C2.5212 19.4096 3.02894 16.9775 3.961 14.9204C6.16377 10.0588 10.0588 6.16377 14.9204 3.961C16.9775 3.02894 19.4096 2.5212 22.9195 2.26198C26.4495 2.00127 30.9091 2 37 2C43.0909 2 47.5505 2.00127 51.0805 2.26198C54.5904 2.5212 57.0225 3.02894 59.0796 3.961C63.9412 6.16377 67.8362 10.0588 70.039 14.9204C70.9711 16.9775 71.4788 19.4096 71.738 22.9195C71.9987 26.4495 72 30.9091 72 37C72 43.0909 71.9987 47.5505 71.738 51.0805C71.4788 54.5904 70.9711 57.0225 70.039 59.0796C67.8362 63.9412 63.9412 67.8362 59.0796 70.039C57.0225 70.9711 54.5904 71.4788 51.0805 71.738C47.5505 71.9987 43.0909 72 37 72Z" stroke="white" stroke-opacity="0.5" stroke-width="4"/>
<path d="M37.772 42.3451L35.7755 44.5001H40.0859C39.8892 44.4993 39.6924 44.4179 39.5423 44.2559L37.772 42.3451ZM37 37.8333C37.426 37.8333 37.772 37.4598 37.772 37C37.772 36.5402 37.426 36.1667 37 36.1667C36.574 36.1667 36.228 36.5402 36.228 37C36.228 37.4598 36.574 37.8333 37 37.8333ZM49.353 31.1666H30.8235C30.3967 31.1666 30.0515 31.5393 30.0515 32V48.6667C30.0515 49.1274 30.3968 49.5 30.8235 49.5H49.353C49.7798 49.5 50.125 49.1273 50.125 48.6667V32C50.125 31.5393 49.7797 31.1666 49.353 31.1666ZM37 34.5C38.2772 34.5 39.3162 35.6214 39.3162 37C39.3162 38.3786 38.2772 39.5 37 39.5C35.7228 39.5 34.6838 38.3786 34.6838 37C34.6838 35.6214 35.7228 34.5 37 34.5ZM47.0368 45.3333C47.0368 45.794 46.6915 46.1667 46.2648 46.1667H33.9118C33.5997 46.1667 33.3177 45.9641 33.1985 45.6524C33.0787 45.3407 33.145 44.9826 33.3659 44.7442L37.2263 40.5775C37.5279 40.252 38.0164 40.252 38.318 40.5775L40.0883 42.4883L45.7189 36.4108C45.9391 36.1723 46.2709 36.1007 46.5603 36.2301C46.8491 36.3587 47.0368 36.6631 47.0368 37V45.3333ZM40.0905 44.5H45.4926V39.0117L40.6341 44.2558C40.484 44.4178 40.2872 44.4993 40.0905 44.5V44.5ZM45.4927 29.5V28.6667C45.4927 28.206 45.1473 27.8334 44.7206 27.8334H27.7353C27.3085 27.8334 26.9633 28.2061 26.9633 28.6667V43.6667C26.9633 44.1274 27.3086 44.5001 27.7353 44.5001H28.5073V32C28.5073 30.6214 29.5463 29.5 30.8235 29.5H45.4927ZM40.8603 26.1666V25.3333C40.8603 24.8727 40.515 24.5 40.0883 24.5H24.647C24.2202 24.5 23.875 24.8727 23.875 25.3333V38.6667C23.875 39.1274 24.2203 39.5 24.647 39.5H25.4191V28.6666C25.4191 27.288 26.458 26.1666 27.7352 26.1666H40.8603Z" fill="white"/>
<defs>
<linearGradient id="paint0_linear_7307_1830" x1="36.9994" y1="74.0002" x2="36.9994" y2="0" gradientUnits="userSpaceOnUse">
<stop stop-color="#9CFFAC"/>
<stop offset="1" stop-color="#00B59C"/>
</linearGradient>
</defs>
</svg>
