<svg width="48" height="48" viewBox="0 0 48 48" fill="none" xmlns="http://www.w3.org/2000/svg">
<path d="M40 8H8C5.794 8 4 9.794 4 12V36C4 38.206 5.794 40 8 40H40C42.206 40 44 38.206 44 36V12C44 9.794 42.206 8 40 8ZM17.43 16C19.732 16 21.43 17.698 21.43 20C21.43 22.302 19.732 24 17.43 24C15.128 24 13.43 22.302 13.43 20C13.43 17.698 15.126 16 17.43 16ZM24.86 32H10V31.07C10 28.324 13.352 25.5 17.43 25.5C21.508 25.5 24.86 28.324 24.86 31.07V32ZM38 30H30V26H38V30ZM38 22H28V18H38V22Z" fill="black"/>
</svg>
