<svg width="74" height="74" viewBox="0 0 74 74" fill="none" xmlns="http://www.w3.org/2000/svg">
<path d="M0 37C0 24.8777 0 18.8165 2.13927 14.095C4.54229 8.79144 8.79144 4.54229 14.095 2.13927C18.8165 0 24.8777 0 37 0V0C49.1223 0 55.1835 0 59.905 2.13927C65.2086 4.54229 69.4577 8.79144 71.8607 14.095C74 18.8165 74 24.8777 74 37V37C74 49.1223 74 55.1835 71.8607 59.905C69.4577 65.2086 65.2086 69.4577 59.905 71.8607C55.1835 74 49.1223 74 37 74V74C24.8777 74 18.8165 74 14.095 71.8607C8.79144 69.4577 4.54229 65.2086 2.13927 59.905C0 55.1835 0 49.1223 0 37V37Z" fill="url(#paint0_linear_7307_1841)"/>
<path d="M37 72C30.9091 72 26.4495 71.9987 22.9195 71.738C19.4096 71.4788 16.9775 70.9711 14.9204 70.039C10.0588 67.8362 6.16377 63.9412 3.961 59.0796C3.02894 57.0225 2.5212 54.5904 2.26198 51.0805C2.00127 47.5505 2 43.0909 2 37C2 30.9091 2.00127 26.4495 2.26198 22.9195C2.5212 19.4096 3.02894 16.9775 3.961 14.9204C6.16377 10.0588 10.0588 6.16377 14.9204 3.961C16.9775 3.02894 19.4096 2.5212 22.9195 2.26198C26.4495 2.00127 30.9091 2 37 2C43.0909 2 47.5505 2.00127 51.0805 2.26198C54.5904 2.5212 57.0225 3.02894 59.0796 3.961C63.9412 6.16377 67.8362 10.0588 70.039 14.9204C70.9711 16.9775 71.4788 19.4096 71.738 22.9195C71.9987 26.4495 72 30.9091 72 37C72 43.0909 71.9987 47.5505 71.738 51.0805C71.4788 54.5904 70.9711 57.0225 70.039 59.0796C67.8362 63.9412 63.9412 67.8362 59.0796 70.039C57.0225 70.9711 54.5904 71.4788 51.0805 71.738C47.5505 71.9987 43.0909 72 37 72Z" stroke="white" stroke-opacity="0.5" stroke-width="4"/>
<path d="M49.8994 38.1272C48.3973 36.6247 45.9531 36.6247 44.451 38.1272L40.9878 41.5915C38.2945 41.5862 35.6847 41.2678 34.8502 40.8613C35.4612 40.5685 36.9325 40.2771 37.8694 40.0912C40.3837 39.5929 42.3695 39.1991 42.3695 37.7915C42.3695 37.1441 41.6494 36.6615 41.045 36.371C39.5678 35.6619 33.9878 33.9538 24.1641 41.8143C23.891 42.0335 23.7992 42.4098 23.9414 42.7297L27.0238 49.6673C27.1459 49.941 27.4178 50.125 27.7282 50.125C27.899 50.125 28.0676 50.0678 28.2045 49.9602C33.3992 45.8749 38.9951 46.1255 40.8328 46.2001C41.0359 46.2091 41.1955 46.2159 41.3076 46.2159C42.3363 46.2159 43.3041 45.8147 44.0318 45.0867L49.8993 39.2174C50.0438 39.0728 50.125 38.8764 50.125 38.6723C50.1251 38.4675 50.0439 38.2718 49.8994 38.1272V38.1272ZM38.3196 31.6006C39.1673 32.4949 39.83 33.3274 40.1537 34.1753C40.4091 34.8556 41.4003 34.7806 41.6023 34.1753C41.926 33.3119 42.5887 32.4794 43.4363 31.6006C43.236 31.4619 43.0357 31.2924 42.8661 31.1227C42.6658 30.9223 42.5116 30.7219 42.3575 30.5061C41.7873 31.1073 41.2787 31.6932 40.878 32.2944C40.4773 31.6932 39.9686 31.1073 39.3984 30.5061C39.2443 30.7219 39.0903 30.9223 38.8898 31.1227C38.7203 31.2923 38.5199 31.4619 38.3196 31.6006V31.6006ZM33.434 31.1227C34.1739 31.8473 35.1294 32.2482 36.1619 32.2482C36.9325 32.2482 37.6722 32.0169 38.3042 31.6006C37.8418 31.1073 37.3332 30.614 36.8091 30.1052C36.4238 29.7353 36.0231 29.3499 35.6225 28.9335C35.3143 28.6406 35.3143 28.1473 35.6225 27.8543C35.9153 27.546 36.4084 27.546 36.7013 27.8543C37.102 28.2551 37.5027 28.6251 37.888 28.9952C38.4274 29.5194 38.936 30.0127 39.3983 30.5061C40.3538 29.0106 40.1997 26.9756 38.8897 25.6652C38.3966 25.1873 37.2098 24.4781 32.5092 23.8923C32.278 23.8615 32.0469 23.9386 31.8773 24.1081C31.7078 24.2777 31.6308 24.509 31.6617 24.7402C32.232 29.396 32.91 30.5986 33.434 31.1227V31.1227ZM43.8679 29.0105C44.2532 28.6406 44.6539 28.2551 45.0546 27.8543C45.3474 27.546 45.8405 27.546 46.1334 27.8543C46.4416 28.1473 46.4416 28.6406 46.1334 28.9335C45.7328 29.3499 45.3321 29.7353 44.9313 30.1207C44.3919 30.6295 43.8833 31.1227 43.4363 31.6006C44.0682 32.0169 44.808 32.2482 45.594 32.2482C46.6266 32.2482 47.5822 31.8473 48.322 31.1227C48.7997 30.6294 49.5086 29.4423 50.0943 24.7402C50.1251 24.5089 50.0481 24.2776 49.8786 24.1081C49.709 23.9385 49.4779 23.8615 49.2466 23.8769C44.5922 24.4628 43.3902 25.141 42.8661 25.6652C41.5561 26.9756 41.402 29.0106 42.3575 30.5061C42.8199 30.0281 43.3285 29.5348 43.8679 29.0105V29.0105Z" fill="white"/>
<defs>
<linearGradient id="paint0_linear_7307_1841" x1="37.0003" y1="74" x2="37.0003" y2="-4.41075e-05" gradientUnits="userSpaceOnUse">
<stop stop-color="#FF81FF"/>
<stop offset="1" stop-color="#A93AFF"/>
</linearGradient>
</defs>
</svg>
