<svg width="74" height="74" viewBox="0 0 74 74" fill="none" xmlns="http://www.w3.org/2000/svg">
<path d="M0 37C0 24.8777 0 18.8165 2.13927 14.095C4.54229 8.79144 8.79144 4.54229 14.095 2.13927C18.8165 0 24.8777 0 37 0V0C49.1223 0 55.1835 0 59.905 2.13927C65.2086 4.54229 69.4577 8.79144 71.8607 14.095C74 18.8165 74 24.8777 74 37V37C74 49.1223 74 55.1835 71.8607 59.905C69.4577 65.2086 65.2086 69.4577 59.905 71.8607C55.1835 74 49.1223 74 37 74V74C24.8777 74 18.8165 74 14.095 71.8607C8.79144 69.4577 4.54229 65.2086 2.13927 59.905C0 55.1835 0 49.1223 0 37V37Z" fill="url(#paint0_linear_7307_1857)"/>
<path d="M37 72C30.9091 72 26.4495 71.9987 22.9195 71.738C19.4096 71.4788 16.9775 70.9711 14.9204 70.039C10.0588 67.8362 6.16377 63.9412 3.961 59.0796C3.02894 57.0225 2.5212 54.5904 2.26198 51.0805C2.00127 47.5505 2 43.0909 2 37C2 30.9091 2.00127 26.4495 2.26198 22.9195C2.5212 19.4096 3.02894 16.9775 3.961 14.9204C6.16377 10.0588 10.0588 6.16377 14.9204 3.961C16.9775 3.02894 19.4096 2.5212 22.9195 2.26198C26.4495 2.00127 30.9091 2 37 2C43.0909 2 47.5505 2.00127 51.0805 2.26198C54.5904 2.5212 57.0225 3.02894 59.0796 3.961C63.9412 6.16377 67.8362 10.0588 70.039 14.9204C70.9711 16.9775 71.4788 19.4096 71.738 22.9195C71.9987 26.4495 72 30.9091 72 37C72 43.0909 71.9987 47.5505 71.738 51.0805C71.4788 54.5904 70.9711 57.0225 70.039 59.0796C67.8362 63.9412 63.9412 67.8362 59.0796 70.039C57.0225 70.9711 54.5904 71.4788 51.0805 71.738C47.5505 71.9987 43.0909 72 37 72Z" stroke="white" stroke-opacity="0.5" stroke-width="4"/>
<g clip-path="url(#clip0_7307_1857)">
<path fill-rule="evenodd" clip-rule="evenodd" d="M27.554 22.9375C25.0044 22.9375 22.9375 25.0044 22.9375 27.554V30.3239C22.9375 30.8338 23.3509 31.2472 23.8608 31.2472C24.3707 31.2472 24.7841 30.8338 24.7841 30.3239V27.554C24.7841 26.0242 26.0242 24.7841 27.554 24.7841H30.3239C30.8338 24.7841 31.2472 24.3707 31.2472 23.8608C31.2472 23.3509 30.8338 22.9375 30.3239 22.9375H27.554ZM27.554 51.0625C25.0044 51.0625 22.9375 48.9956 22.9375 46.446V43.6761C22.9375 43.1662 23.3509 42.7528 23.8608 42.7528C24.3707 42.7528 24.7841 43.1662 24.7841 43.6761V46.446C24.7841 47.9758 26.0242 49.2159 27.554 49.2159H30.3239C30.8338 49.2159 31.2472 49.6293 31.2472 50.1392C31.2472 50.6491 30.8338 51.0625 30.3239 51.0625H27.554ZM51.0625 27.554C51.0625 25.0044 48.9956 22.9375 46.446 22.9375H43.6761C43.1662 22.9375 42.7528 23.3509 42.7528 23.8608C42.7528 24.3707 43.1662 24.7841 43.6761 24.7841H46.446C47.9758 24.7841 49.2159 26.0242 49.2159 27.554V30.3239C49.2159 30.8338 49.6293 31.2472 50.1392 31.2472C50.6491 31.2472 51.0625 30.8338 51.0625 30.3239V27.554ZM46.446 51.0625C48.9956 51.0625 51.0625 48.9956 51.0625 46.446V43.6761C51.0625 43.1662 50.6491 42.7528 50.1392 42.7528C49.6293 42.7528 49.2159 43.1662 49.2159 43.6761V46.446C49.2159 47.9758 47.9758 49.2159 46.446 49.2159H43.6761C43.1662 49.2159 42.7528 49.6293 42.7528 50.1392C42.7528 50.6491 43.1662 51.0625 43.6761 51.0625H46.446ZM43.2283 34.4439C42.171 34.4439 41.3108 35.3041 41.3108 36.3614C41.3108 36.832 41.4814 37.2631 41.7637 37.5971H42.281C43.3717 37.5971 44.3721 37.2066 45.1394 36.5122C45.2276 35.3773 44.3258 34.4439 43.2283 34.4439ZM34.2803 29.3305C34.2803 31.0927 32.8466 32.5264 31.0844 32.5264C29.748 32.5264 28.6013 31.7016 28.1248 30.5346C29.3892 28.8209 31.1071 27.5411 33.053 26.8158C33.7994 27.4013 34.2803 28.3105 34.2803 29.3305ZM45.8433 30.9534C43.3372 27.2015 38.8146 25.4208 34.4605 26.3976C35.1441 27.1835 35.5585 28.2094 35.5585 29.3304C35.5585 31.7975 33.5514 33.8046 31.0843 33.8046C29.5432 33.8046 28.1816 33.0214 27.3765 31.8322C26.3666 34.4902 28.2906 37.597 31.3924 37.597H40.2814C39.3987 35.4993 40.9487 33.1654 43.2286 33.1654C44.5461 33.1654 45.6798 33.967 46.1681 35.108C46.8001 33.7489 46.6848 32.2134 45.8433 30.9534ZM34.9123 38.8756H38.7682C38.8389 40.4533 39.2042 42.0025 39.7997 43.4699C39.9502 43.8407 40.033 44.2461 40.033 44.6708C40.033 46.4614 38.5603 47.9081 36.7601 47.8657C34.5407 47.8135 33.0158 45.5207 33.8878 43.438C34.4955 41.9861 34.8598 40.4452 34.9123 38.8756Z" fill="white"/>
</g>
<defs>
<linearGradient id="paint0_linear_7307_1857" x1="36.9994" y1="74.0002" x2="36.9994" y2="0" gradientUnits="userSpaceOnUse">
<stop stop-color="#9CFFAC"/>
<stop offset="1" stop-color="#00B59C"/>
</linearGradient>
<clipPath id="clip0_7307_1857">
<rect width="30" height="30" fill="white" transform="translate(22 22)"/>
</clipPath>
</defs>
</svg>
