<svg width="74" height="74" viewBox="0 0 74 74" fill="none" xmlns="http://www.w3.org/2000/svg">
<path d="M0 37C0 24.8777 0 18.8165 2.13927 14.095C4.54229 8.79144 8.79144 4.54229 14.095 2.13927C18.8165 0 24.8777 0 37 0V0C49.1223 0 55.1835 0 59.905 2.13927C65.2086 4.54229 69.4577 8.79144 71.8607 14.095C74 18.8165 74 24.8777 74 37V37C74 49.1223 74 55.1835 71.8607 59.905C69.4577 65.2086 65.2086 69.4577 59.905 71.8607C55.1835 74 49.1223 74 37 74V74C24.8777 74 18.8165 74 14.095 71.8607C8.79144 69.4577 4.54229 65.2086 2.13927 59.905C0 55.1835 0 49.1223 0 37V37Z" fill="url(#paint0_linear_7307_1853)"/>
<path d="M37 72C30.9091 72 26.4495 71.9987 22.9195 71.738C19.4096 71.4788 16.9775 70.9711 14.9204 70.039C10.0588 67.8362 6.16377 63.9412 3.961 59.0796C3.02894 57.0225 2.5212 54.5904 2.26198 51.0805C2.00127 47.5505 2 43.0909 2 37C2 30.9091 2.00127 26.4495 2.26198 22.9195C2.5212 19.4096 3.02894 16.9775 3.961 14.9204C6.16377 10.0588 10.0588 6.16377 14.9204 3.961C16.9775 3.02894 19.4096 2.5212 22.9195 2.26198C26.4495 2.00127 30.9091 2 37 2C43.0909 2 47.5505 2.00127 51.0805 2.26198C54.5904 2.5212 57.0225 3.02894 59.0796 3.961C63.9412 6.16377 67.8362 10.0588 70.039 14.9204C70.9711 16.9775 71.4788 19.4096 71.738 22.9195C71.9987 26.4495 72 30.9091 72 37C72 43.0909 71.9987 47.5505 71.738 51.0805C71.4788 54.5904 70.9711 57.0225 70.039 59.0796C67.8362 63.9412 63.9412 67.8362 59.0796 70.039C57.0225 70.9711 54.5904 71.4788 51.0805 71.738C47.5505 71.9987 43.0909 72 37 72Z" stroke="white" stroke-opacity="0.5" stroke-width="4"/>
<path d="M48.1397 36.0625C47.5612 36.0625 47.0919 35.5652 47.0919 34.9522C47.0919 31.8378 45.9476 28.911 43.8697 26.708C43.4601 26.2739 43.4601 25.5723 43.8697 25.138C44.2794 24.704 44.9417 24.704 45.3513 25.138C47.8254 27.7595 49.1875 31.245 49.1875 34.9522C49.1875 35.5652 48.7182 36.0625 48.1397 36.0625Z" fill="white"/>
<path d="M25.8603 36.0625C25.282 36.0625 24.8125 35.5652 24.8125 34.9522C24.8125 31.245 26.1747 27.7595 28.6486 25.138C29.0582 24.704 29.7205 24.704 30.1301 25.138C30.54 25.5723 30.54 26.2739 30.1301 26.708C28.0523 28.9098 26.9082 31.8378 26.9082 34.9522C26.9082 35.5652 26.4387 36.0625 25.8603 36.0625Z" fill="white"/>
<path d="M47.5515 42.1094C45.8504 40.7314 44.875 38.7175 44.875 36.5839V33.5781C44.875 29.7843 41.9343 26.6437 38.125 26.1176V24.9531C38.125 24.3569 37.621 23.875 37.0001 23.875C36.379 23.875 35.875 24.3569 35.875 24.9531V26.1176C32.0647 26.6437 29.125 29.7843 29.125 33.5781V36.5839C29.125 38.7175 28.1496 40.7314 26.4386 42.1179C26.0009 42.4769 25.75 42.9987 25.75 43.5507C25.75 44.5912 26.6331 45.4375 27.7189 45.4375H46.2813C47.3669 45.4375 48.25 44.5912 48.25 43.5507C48.25 42.9987 47.9991 42.4769 47.5515 42.1094Z" fill="white"/>
<path d="M37 50.125C38.8484 50.125 40.3947 48.9146 40.75 47.3125H33.25C33.6051 48.9146 35.1514 50.125 37 50.125Z" fill="white"/>
<defs>
<linearGradient id="paint0_linear_7307_1853" x1="37" y1="74" x2="37" y2="0" gradientUnits="userSpaceOnUse">
<stop stop-color="#00C0FF"/>
<stop offset="1" stop-color="#5558FF"/>
</linearGradient>
</defs>
</svg>
