<svg width="32" height="32" viewBox="0 0 32 32" fill="none" xmlns="http://www.w3.org/2000/svg">
<rect width="32" height="32" rx="16" fill="#FFF9E6"/>
<path fill-rule="evenodd" clip-rule="evenodd" d="M8.9288 8.92891C7.0402 10.8176 6 13.3289 6 16C6 18.6711 7.0402 21.1824 8.9288 23.0711C10.8174 24.9598 13.3294 26 16.0004 26C18.6714 26 21.1826 24.9598 23.0712 23.0711C24.9598 21.1824 26 18.6711 26 16C26 13.3289 24.9598 10.8176 23.0712 8.92891C21.1826 7.04023 18.6706 6 15.9996 6C13.3286 6 10.8174 7.04023 8.9288 8.92891ZM12.1763 9.37734C11.8962 9.53906 11.8005 9.89727 11.9622 10.1773L13.7278 13.2355C13.8055 13.3703 13.9336 13.4684 14.084 13.5086C14.234 13.5488 14.3941 13.5277 14.5289 13.4496C14.9734 13.1922 15.4824 13.0559 16.0004 13.0559C16.5183 13.0559 17.0273 13.1922 17.4718 13.4496C17.5616 13.5016 17.6632 13.5285 17.7655 13.5285C17.8163 13.5285 17.8671 13.5219 17.9167 13.5086C18.0671 13.4684 18.1952 13.3703 18.2729 13.2355L20.0385 10.1773C20.2002 9.89727 20.1045 9.53906 19.8244 9.37734C18.6674 8.70742 17.3452 8.35352 16.0003 8.35352C14.6555 8.35352 13.3332 8.70742 12.1763 9.37734ZM12.469 22.7016C12.3668 22.7016 12.2655 22.6748 12.1756 22.6228C11.0345 21.9627 10.0775 21.0134 9.40808 19.8775C8.71814 18.7069 8.35343 17.366 8.35343 16C8.35343 15.6764 8.61577 15.4141 8.93935 15.4141H12.4697C12.7933 15.4141 13.0556 15.6764 13.0556 16C13.0556 17.0479 13.6197 18.025 14.5278 18.5502C14.8078 18.7121 14.9036 19.0703 14.7419 19.3504L12.9763 22.4086C12.8986 22.5432 12.7705 22.6415 12.6203 22.6817C12.5705 22.695 12.5196 22.7016 12.469 22.7016ZM19.3782 22.6817C19.428 22.695 19.4789 22.7016 19.5296 22.7016C19.6317 22.7016 19.733 22.6748 19.823 22.6228C20.964 21.9627 21.921 21.0134 22.5904 19.8775C23.2804 18.7068 23.645 17.366 23.645 16C23.645 15.6764 23.3827 15.4141 23.0591 15.4141H19.5288C19.2052 15.4141 18.9429 15.6764 18.9429 16C18.9429 17.0479 18.3788 18.025 17.4707 18.5502C17.1907 18.7121 17.0948 19.0703 17.2566 19.3504L19.0222 22.4086C19.0999 22.5433 19.228 22.6415 19.3782 22.6817ZM15.9994 14.2375C15.0276 14.2375 14.237 15.0281 14.237 16C14.237 16.9719 15.0276 17.7625 15.9994 17.7625C16.9713 17.7625 17.7621 16.9719 17.7621 16C17.7621 15.0281 16.9713 14.2375 15.9994 14.2375Z" fill="url(#paint0_linear_2301_2982)"/>
<defs>
<linearGradient id="paint0_linear_2301_2982" x1="16.0001" y1="26" x2="16.0001" y2="6" gradientUnits="userSpaceOnUse">
<stop stop-color="#FFDE00"/>
<stop offset="1" stop-color="#FF5900"/>
</linearGradient>
</defs>
</svg>
