<svg width="74" height="74" viewBox="0 0 74 74" fill="none" xmlns="http://www.w3.org/2000/svg">
<path d="M0 37C0 24.8777 0 18.8165 2.13927 14.095C4.54229 8.79144 8.79144 4.54229 14.095 2.13927C18.8165 0 24.8777 0 37 0V0C49.1223 0 55.1835 0 59.905 2.13927C65.2086 4.54229 69.4577 8.79144 71.8607 14.095C74 18.8165 74 24.8777 74 37V37C74 49.1223 74 55.1835 71.8607 59.905C69.4577 65.2086 65.2086 69.4577 59.905 71.8607C55.1835 74 49.1223 74 37 74V74C24.8777 74 18.8165 74 14.095 71.8607C8.79144 69.4577 4.54229 65.2086 2.13927 59.905C0 55.1835 0 49.1223 0 37V37Z" fill="url(#paint0_linear_7307_1861)"/>
<path d="M37 72C30.9091 72 26.4495 71.9987 22.9195 71.738C19.4096 71.4788 16.9775 70.9711 14.9204 70.039C10.0588 67.8362 6.16377 63.9412 3.961 59.0796C3.02894 57.0225 2.5212 54.5904 2.26198 51.0805C2.00127 47.5505 2 43.0909 2 37C2 30.9091 2.00127 26.4495 2.26198 22.9195C2.5212 19.4096 3.02894 16.9775 3.961 14.9204C6.16377 10.0588 10.0588 6.16377 14.9204 3.961C16.9775 3.02894 19.4096 2.5212 22.9195 2.26198C26.4495 2.00127 30.9091 2 37 2C43.0909 2 47.5505 2.00127 51.0805 2.26198C54.5904 2.5212 57.0225 3.02894 59.0796 3.961C63.9412 6.16377 67.8362 10.0588 70.039 14.9204C70.9711 16.9775 71.4788 19.4096 71.738 22.9195C71.9987 26.4495 72 30.9091 72 37C72 43.0909 71.9987 47.5505 71.738 51.0805C71.4788 54.5904 70.9711 57.0225 70.039 59.0796C67.8362 63.9412 63.9412 67.8362 59.0796 70.039C57.0225 70.9711 54.5904 71.4788 51.0805 71.738C47.5505 71.9987 43.0909 72 37 72Z" stroke="white" stroke-opacity="0.5" stroke-width="4"/>
<g clip-path="url(#clip0_7307_1861)">
<path fill-rule="evenodd" clip-rule="evenodd" d="M22.9375 27.554C22.9375 25.0044 25.0044 22.9375 27.554 22.9375H30.3239C30.8338 22.9375 31.2472 23.3509 31.2472 23.8608C31.2472 24.3707 30.8338 24.7841 30.3239 24.7841H27.554C26.0242 24.7841 24.7841 26.0242 24.7841 27.554V30.3239C24.7841 30.8338 24.3707 31.2472 23.8608 31.2472C23.3509 31.2472 22.9375 30.8338 22.9375 30.3239V27.554ZM22.9375 46.446C22.9375 48.9956 25.0044 51.0625 27.554 51.0625H30.3239C30.8338 51.0625 31.2472 50.6491 31.2472 50.1392C31.2472 49.6293 30.8338 49.2159 30.3239 49.2159H27.554C26.0242 49.2159 24.7841 47.9758 24.7841 46.446V43.6761C24.7841 43.1662 24.3707 42.7528 23.8608 42.7528C23.3509 42.7528 22.9375 43.1662 22.9375 43.6761V46.446ZM46.446 22.9375C48.9956 22.9375 51.0625 25.0044 51.0625 27.554V30.3239C51.0625 30.8338 50.6491 31.2472 50.1392 31.2472C49.6293 31.2472 49.2159 30.8338 49.2159 30.3239V27.554C49.2159 26.0242 47.9758 24.7841 46.446 24.7841H43.6761C43.1662 24.7841 42.7528 24.3707 42.7528 23.8608C42.7528 23.3509 43.1662 22.9375 43.6761 22.9375H46.446ZM51.0625 46.446C51.0625 48.9956 48.9956 51.0625 46.446 51.0625H43.6761C43.1662 51.0625 42.7528 50.6491 42.7528 50.1392C42.7528 49.6293 43.1662 49.2159 43.6761 49.2159H46.446C47.9758 49.2159 49.2159 47.9758 49.2159 46.446V43.6761C49.2159 43.1662 49.6293 42.7528 50.1392 42.7528C50.6491 42.7528 51.0625 43.1662 51.0625 43.6761V46.446ZM34.3976 25.896C34.2665 25.5682 33.8945 25.4088 33.5668 25.5399C33.239 25.671 33.0796 26.043 33.2107 26.3708L33.6742 27.5296C32.6379 27.856 31.8864 28.8246 31.8864 29.9688V31.2472H42.1136V29.9688C42.1136 28.8246 41.3621 27.856 40.3258 27.5296L40.7893 26.3708C40.9204 26.043 40.761 25.671 40.4332 25.5399C40.1055 25.4088 39.7335 25.5682 39.6024 25.896L38.996 27.4119H35.004L34.3976 25.896ZM30.608 36.8663C29.4724 36.6132 28.681 36.0231 28.1689 35.288C27.5075 34.3386 27.3627 33.2217 27.4251 32.4725C27.4544 32.1207 27.7634 31.8593 28.1152 31.8886C28.467 31.9179 28.7284 32.2269 28.6991 32.5787C28.655 33.1079 28.7659 33.9086 29.2178 34.5572C29.5043 34.9685 29.9513 35.3534 30.6616 35.5613C30.925 34.196 32.1263 33.1648 33.5685 33.1648H35.7216V35.7216C35.7216 36.4276 36.294 37 37 37C37.706 37 38.2784 36.4276 38.2784 35.7216V33.1648H40.4315C41.8748 33.1648 43.0768 34.1975 43.339 35.5643C44.0555 35.3572 44.5055 34.9706 44.7934 34.5572C45.2453 33.9086 45.3562 33.1079 45.3121 32.5787C45.2828 32.2269 45.5442 31.9179 45.896 31.8886C46.2478 31.8593 46.5568 32.1207 46.5861 32.4725C46.6485 33.2217 46.5038 34.3386 45.8424 35.288C45.3286 36.0255 44.5336 36.617 43.392 36.8688V37.9588H46.2797C46.6327 37.9588 46.9189 38.245 46.9189 38.598C46.9189 38.951 46.6327 39.2372 46.2797 39.2372H43.392V40.3256C44.5355 40.5764 45.3311 41.1694 45.8447 41.9087C46.5041 42.858 46.6484 43.9745 46.5862 44.7234C46.5569 45.0752 46.248 45.3367 45.8962 45.3074C45.5444 45.2782 45.2829 44.9693 45.3121 44.6175C45.3561 44.0879 45.2454 43.2868 44.7948 42.6381C44.5074 42.2243 44.0583 41.8376 43.343 41.6308C42.9513 44.7856 40.2608 47.2273 37 47.2273C33.7403 47.2273 31.0504 44.7872 30.6574 41.634C29.9484 41.8415 29.5024 42.2264 29.2165 42.6381C28.7658 43.2868 28.6551 44.0879 28.6991 44.6175C28.7283 44.9693 28.4668 45.2782 28.115 45.3074C27.7632 45.3367 27.4543 45.0752 27.4251 44.7234C27.3629 43.9745 27.5071 42.858 28.1665 41.9087C28.6784 41.1718 29.4705 40.5803 30.608 40.328V39.2372H27.7315C27.3785 39.2372 27.0923 38.951 27.0923 38.598C27.0923 38.245 27.3785 37.9588 27.7315 37.9588H30.608V36.8663Z" fill="white"/>
</g>
<defs>
<linearGradient id="paint0_linear_7307_1861" x1="37.0003" y1="74" x2="37.0003" y2="-4.41075e-05" gradientUnits="userSpaceOnUse">
<stop stop-color="#FF81FF"/>
<stop offset="1" stop-color="#A93AFF"/>
</linearGradient>
<clipPath id="clip0_7307_1861">
<rect width="30" height="30" fill="white" transform="translate(22 22)"/>
</clipPath>
</defs>
</svg>
