<svg width="48" height="48" viewBox="0 0 48 48" fill="none" xmlns="http://www.w3.org/2000/svg">
<g clip-path="url(#clip0_2741_9595)">
<path d="M27.6506 28.3557C25.9895 19.8017 18.1533 15.9143 10.1558 17.4291C11.0728 12.6297 15.566 8.70546 18.4858 5.05753C18.8999 4.54024 19.1132 3.63049 18.4858 3.14304C16.9466 1.9473 15.5101 1.57499 14.1868 1.76376C14.095 1.51257 13.852 1.3253 13.5364 1.42453C8.83922 2.90355 5.79738 7.92106 3.76227 12.0793C1.07681 17.5676 -0.270393 23.9211 0.0452068 30.0197C0.542854 39.6345 9.12722 48.8025 19.3495 46.1332C26.8122 44.1847 28.9304 34.9467 27.6506 28.3557ZM8.52412 36.0495C8.52487 36.0462 8.52685 36.0443 8.5276 36.0413C8.57436 35.861 8.6144 35.6789 8.65692 35.4971C8.7952 35.6757 8.92079 35.8739 9.03171 36.0895C8.85638 36.1124 8.68577 36.1271 8.52263 36.1305C8.52163 36.1022 8.52511 36.0768 8.52412 36.0495ZM6.36193 13.486C6.48528 13.5387 6.6161 13.572 6.75238 13.5847C6.35297 14.3855 5.98465 15.2002 5.65288 16.0331C5.52281 15.9956 5.38653 15.9737 5.2475 15.9739C5.58524 15.1309 5.96326 14.3039 6.36193 13.486ZM5.33654 37.8918C5.65786 38.2239 6.00255 38.5419 6.36143 38.8483C6.30771 38.9177 6.2622 38.9923 6.22365 39.0707C5.90382 38.6964 5.6019 38.3074 5.33654 37.8918ZM14.5563 37.8588C14.1445 37.3211 13.8334 36.7274 13.6379 36.0791C13.6332 36.0313 13.6175 35.9836 13.5916 35.9358C13.5314 35.7127 13.4839 35.4837 13.4536 35.2469C14.1291 36.1651 14.672 37.1878 15.1756 38.2214C14.9585 38.1221 14.7525 38.0003 14.5563 37.8588Z" fill="#D3E8DB"/>
<path d="M29.2092 15.8822C30.1132 12.2308 32.5788 9.7102 34.3699 6.41717C34.6612 5.88172 34.5468 5.04907 33.937 4.7658C32.822 4.24776 31.82 3.67301 30.7054 3.2465C30.3679 2.52701 29.3492 2.05473 28.5693 2.75755C27.1902 4.0003 25.6846 5.59422 24.4816 7.37491C22.8865 9.33167 21.741 11.7068 21.3605 13.9913C21.3155 14.2619 21.3622 14.5362 21.4682 14.7864C21.4107 14.8861 21.353 14.9846 21.2953 15.0846C21.0041 15.5892 21.17 16.2674 21.682 16.5596C27.7538 20.0215 30.2654 25.6586 30.0866 31.598C29.7792 32.4645 29.7011 33.4003 29.8182 34.3411C29.3268 37.33 28.2014 40.3229 26.5394 43.0869C26.1658 43.7079 26.3051 44.2891 26.6697 44.6831C26.7652 44.9939 27.0161 45.2568 27.4673 45.3588C37.1472 47.5453 46.8855 42.9128 47.9358 32.3515C48.9131 22.5239 38.6757 14.2417 29.2092 15.8822ZM32.8917 43.1919C32.9257 43.1598 32.9561 43.1245 32.9897 43.0916C33.8783 43.0228 34.6905 42.7731 35.3807 42.3714C35.3886 42.4057 35.3938 42.4373 35.402 42.4719C35.4244 42.5666 35.4727 42.6385 35.5112 42.7196C34.6572 42.9367 33.781 43.0981 32.8917 43.1919ZM39.7575 24.7152C39.6658 24.8836 39.5852 25.0527 39.5041 25.2221C39.4976 25.1748 39.4966 25.1261 39.4894 25.0788C39.5016 24.7292 39.5633 24.3688 39.6583 24.0015C39.6685 24.0084 39.6799 24.0144 39.6901 24.0214C39.7389 24.2238 39.7787 24.4302 39.8097 24.6404C39.7936 24.6662 39.7727 24.6879 39.7575 24.7152ZM44.3821 35.3133C44.3858 35.0825 44.3821 34.85 44.3739 34.616C44.5256 34.3583 44.6654 34.0939 44.7842 33.8204C44.6867 34.3429 44.5447 34.8353 44.3821 35.3133Z" fill="#D3E8DB"/>
</g>
<defs>
<clipPath id="clip0_2741_9595">
<rect width="24" height="24" fill="white" transform="scale(2)"/>
</clipPath>
</defs>
</svg>
