<svg width="32" height="32" viewBox="0 0 32 32" fill="none" xmlns="http://www.w3.org/2000/svg">
<path fill-rule="evenodd" clip-rule="evenodd" d="M1.66667 16.0001C1.66667 23.9162 8.08393 30.3334 16 30.3334C23.9161 30.3334 30.3333 23.9162 30.3333 16.0001C30.3333 8.084 23.9161 1.66675 16 1.66675C8.08393 1.66675 1.66667 8.084 1.66667 16.0001ZM15.5759 14.7031C15.9052 14.7474 16.3609 14.8659 16.7476 15.2526C17.1343 15.6393 17.2528 16.0949 17.2971 16.4243C17.3337 16.6971 17.3335 17.0145 17.3333 17.2809V17.3334V22.6667C17.3333 23.4031 16.7364 24.0001 16 24.0001C15.2636 24.0001 14.6667 23.4031 14.6667 22.6667V17.3334C13.9303 17.3334 13.3333 16.7365 13.3333 16.0001C13.3333 15.2637 13.9303 14.6667 14.6667 14.6667H14.7192C14.9857 14.6666 15.3029 14.6663 15.5759 14.7031ZM15.9939 9.33341C15.2608 9.33341 14.6665 9.93037 14.6665 10.6667C14.6665 11.4031 15.2608 12.0001 15.9939 12.0001H16.0059C16.7389 12.0001 17.3332 11.4031 17.3332 10.6667C17.3332 9.93037 16.7389 9.33341 16.0059 9.33341H15.9939Z" fill="#858585"/>
</svg>
