<svg width="74" height="74" viewBox="0 0 74 74" fill="none" xmlns="http://www.w3.org/2000/svg">
<path d="M0 37C0 24.8777 0 18.8165 2.13927 14.095C4.54229 8.79144 8.79144 4.54229 14.095 2.13927C18.8165 0 24.8777 0 37 0V0C49.1223 0 55.1835 0 59.905 2.13927C65.2086 4.54229 69.4577 8.79144 71.8607 14.095C74 18.8165 74 24.8777 74 37V37C74 49.1223 74 55.1835 71.8607 59.905C69.4577 65.2086 65.2086 69.4577 59.905 71.8607C55.1835 74 49.1223 74 37 74V74C24.8777 74 18.8165 74 14.095 71.8607C8.79144 69.4577 4.54229 65.2086 2.13927 59.905C0 55.1835 0 49.1223 0 37V37Z" fill="url(#paint0_linear_7307_1845)"/>
<path d="M37 72C30.9091 72 26.4495 71.9987 22.9195 71.738C19.4096 71.4788 16.9775 70.9711 14.9204 70.039C10.0588 67.8362 6.16377 63.9412 3.961 59.0796C3.02894 57.0225 2.5212 54.5904 2.26198 51.0805C2.00127 47.5505 2 43.0909 2 37C2 30.9091 2.00127 26.4495 2.26198 22.9195C2.5212 19.4096 3.02894 16.9775 3.961 14.9204C6.16377 10.0588 10.0588 6.16377 14.9204 3.961C16.9775 3.02894 19.4096 2.5212 22.9195 2.26198C26.4495 2.00127 30.9091 2 37 2C43.0909 2 47.5505 2.00127 51.0805 2.26198C54.5904 2.5212 57.0225 3.02894 59.0796 3.961C63.9412 6.16377 67.8362 10.0588 70.039 14.9204C70.9711 16.9775 71.4788 19.4096 71.738 22.9195C71.9987 26.4495 72 30.9091 72 37C72 43.0909 71.9987 47.5505 71.738 51.0805C71.4788 54.5904 70.9711 57.0225 70.039 59.0796C67.8362 63.9412 63.9412 67.8362 59.0796 70.039C57.0225 70.9711 54.5904 71.4788 51.0805 71.738C47.5505 71.9987 43.0909 72 37 72Z" stroke="white" stroke-opacity="0.5" stroke-width="4"/>
<path d="M49.5417 45.785C49.565 46.8 49.18 47.745 48.4683 48.4566C47.7683 49.1566 46.8467 49.53 45.8667 49.53C45.8433 49.53 45.82 49.53 45.7967 49.53C44.7817 49.5066 43.8483 49.0866 43.16 48.3516L40.255 45.225C42.3667 44.105 44.105 42.3666 45.225 40.255L48.3517 43.16C49.0983 43.8483 49.5067 44.7816 49.53 45.785H49.5417ZM44.875 34.6666C44.875 40.29 40.3017 44.875 34.6667 44.875C29.0317 44.875 24.4583 40.29 24.4583 34.6666C24.4583 29.0433 29.0317 24.4583 34.6667 24.4583C40.3017 24.4583 44.875 29.0433 44.875 34.6666ZM40.2083 34.6666C40.2083 31.61 37.7233 29.125 34.6667 29.125C34.1883 29.125 33.7917 29.5216 33.7917 30C33.7917 30.4783 34.1883 30.875 34.6667 30.875C36.755 30.875 38.4583 32.5783 38.4583 34.6666C38.4583 35.145 38.855 35.5416 39.3333 35.5416C39.8117 35.5416 40.2083 35.145 40.2083 34.6666Z" fill="white"/>
<defs>
<linearGradient id="paint0_linear_7307_1845" x1="37.0002" y1="74" x2="37.0002" y2="0" gradientUnits="userSpaceOnUse">
<stop stop-color="#FFDE00"/>
<stop offset="1" stop-color="#FF5900"/>
</linearGradient>
</defs>
</svg>
