<svg width="20" height="20" viewBox="0 0 20 20" fill="none" xmlns="http://www.w3.org/2000/svg">
<path fill-rule="evenodd" clip-rule="evenodd" d="M10.625 14.3971C10.625 12.3138 12.3138 10.625 14.3971 10.625C16.4804 10.625 18.1693 12.3138 18.1693 14.3971C18.1693 15.138 17.9557 15.8289 17.5867 16.4118L18.7133 17.5348C19.0392 17.8597 19.0401 18.3873 18.7152 18.7133C18.3903 19.0392 17.8627 19.0401 17.5367 18.7152L16.4073 17.5895C15.8254 17.9568 15.1361 18.1693 14.3971 18.1693C12.3138 18.1693 10.625 16.4804 10.625 14.3971ZM14.3971 12.2917C13.2343 12.2917 12.2917 13.2343 12.2917 14.3971C12.2917 15.5599 13.2343 16.5026 14.3971 16.5026C15.5599 16.5026 16.5026 15.5599 16.5026 14.3971C16.5026 13.2343 15.5599 12.2917 14.3971 12.2917Z" fill="#33A36D"/>
<path d="M7.29199 14.3197C7.29199 14.4885 7.29199 14.5729 7.33174 14.6347C7.37148 14.6965 7.45408 14.7341 7.61928 14.8093C7.80368 14.8934 8.03766 15.0083 8.35341 15.1653L8.89041 15.4324C9.17333 15.5731 9.31483 15.6434 9.39616 15.5857C9.47749 15.5279 9.45666 15.3621 9.41491 15.0304C9.38874 14.8229 9.37533 14.6115 9.37533 14.3969C9.37533 12.6112 10.3073 11.0432 11.7115 10.1527C11.7932 10.1008 11.8341 10.0749 11.8547 10.0374C11.8753 9.99992 11.8753 9.95375 11.8753 9.86142V3.39966C11.8753 3.24895 11.8753 3.1736 11.8378 3.1131C11.8003 3.0526 11.7329 3.01905 11.5979 2.95195L9.28583 1.8023C8.72833 1.52509 8.2716 1.29799 7.87726 1.14584C7.63389 1.05194 7.5122 1.00499 7.40486 1.07541L7.39634 1.08125C7.29199 1.15605 7.29199 1.29688 7.29199 1.57854V14.3197Z" fill="#33A36D"/>
<path d="M18.9583 10.7767C18.9583 11.3494 18.9583 11.6358 18.8515 11.6769C18.7447 11.718 18.5383 11.4895 18.1258 11.0325C17.2067 10.0146 15.8766 9.37483 14.3971 9.37483C14.1073 9.37483 13.8232 9.39941 13.5467 9.44649C13.3445 9.48099 13.2433 9.49824 13.1842 9.44833C13.125 9.39841 13.125 9.30083 13.125 9.10583V3.61619C13.125 3.53742 13.189 3.47363 13.2678 3.47363H15.0441C15.7922 3.47361 16.4173 3.47358 16.9138 3.54182C17.4396 3.61406 17.9129 3.77313 18.2919 4.16048C18.669 4.54592 18.8222 5.02416 18.892 5.55488C18.9584 6.05967 18.9583 6.69623 18.9583 7.46285V10.7767Z" fill="#33A36D"/>
<path d="M6.04199 1.63108C6.04199 1.35814 6.04199 1.22166 5.94545 1.1466C5.93433 1.13795 5.91934 1.12835 5.90682 1.12189C5.79819 1.06571 5.68365 1.11862 5.45457 1.22442C5.07054 1.40178 4.62892 1.65797 4.08969 1.9708L3.01591 2.5937C2.62584 2.81995 2.29405 3.01241 2.03436 3.19994C1.75739 3.39993 1.52287 3.62119 1.35031 3.92409C1.17816 4.22626 1.10639 4.5418 1.07321 4.88371C1.04197 5.20569 1.04198 5.5943 1.04199 6.05358V12.9195C1.04198 13.5271 1.04198 14.0294 1.08065 14.4224C1.11972 14.8191 1.20596 15.2177 1.4656 15.5399C1.74868 15.891 2.14773 16.1298 2.59219 16.2091C3.00312 16.2824 3.39258 16.1592 3.75158 15.9971C4.10651 15.8369 4.58298 15.5604 5.09884 15.2612C5.33478 15.1243 5.54583 15.0019 5.74275 14.9001C5.89362 14.8222 5.96905 14.7832 6.00553 14.7233C6.04199 14.6634 6.04199 14.5846 6.04199 14.4269V1.63108Z" fill="#33A36D"/>
</svg>
