<svg width="48" height="48" viewBox="0 0 48 48" fill="none" xmlns="http://www.w3.org/2000/svg">
<path d="M4.1001 26H15.0541C15.3963 32.3337 17.4152 38.4628 20.9041 43.76C16.534 43.0735 12.5145 40.9583 9.47413 37.745C6.43377 34.5316 4.54393 30.4014 4.1001 26ZM4.1001 22C4.54393 17.5986 6.43377 13.4683 9.47413 10.255C12.5145 7.04169 16.534 4.92644 20.9041 4.23999C17.4152 9.53721 15.3963 15.6663 15.0541 22H4.1001ZM43.9001 22H32.9461C32.6039 15.6663 30.585 9.53721 27.0961 4.23999C31.4662 4.92644 35.4857 7.04169 38.5261 10.255C41.5664 13.4683 43.4563 17.5986 43.9001 22ZM43.9001 26C43.4563 30.4014 41.5664 34.5316 38.5261 37.745C35.4857 40.9583 31.4662 43.0735 27.0961 43.76C30.585 38.4628 32.6039 32.3337 32.9461 26H43.9021H43.9001ZM19.0601 26H28.9401C28.6109 31.399 26.9107 36.6249 24.0001 41.184C21.0895 36.6249 19.3893 31.399 19.0601 26ZM19.0601 22C19.3893 16.601 21.0895 11.3751 24.0001 6.81599C26.9107 11.3751 28.6109 16.601 28.9401 22H19.0601Z" fill="black"/>
</svg>
