<svg width="88" height="88" viewBox="0 0 88 88" fill="none" xmlns="http://www.w3.org/2000/svg">
<g filter="url(#filter0_d)">
<path fill-rule="evenodd" clip-rule="evenodd" d="M44 76C62.7777 76 78 60.7777 78 42C78 23.2223 62.7777 8 44 8C25.2223 8 10 23.2223 10 42C10 60.7777 25.2223 76 44 76Z" fill="white"/>
</g>
<path fill-rule="evenodd" clip-rule="evenodd" d="M46.2291 55.3988C51.3239 58.2868 57.832 56.5841 60.7654 51.5956C62.0498 49.4115 62.4358 46.9595 62.0365 44.6506L62.0418 44.6537L60.1408 31.6668L48.7041 36.1812L46.2291 55.3988Z" fill="#D7FA91"/>
<path fill-rule="evenodd" clip-rule="evenodd" d="M27.4318 50.523C30.9254 56.4641 38.6765 58.492 44.7444 55.0524C50.8122 51.6129 52.899 44.0083 49.4054 38.0672C47.891 35.4917 45.5762 33.6523 42.9456 32.6742L42.9463 32.6738L28.1756 26.7879L25.9116 42.2551L25.918 42.2516C25.4424 45.0014 25.9021 47.9216 27.4318 50.523Z" fill="#A5DC69"/>
<path fill-rule="evenodd" clip-rule="evenodd" d="M62.7817 44.617C62.7805 44.5948 62.7783 44.5724 62.7751 44.5502L60.8741 31.5634C60.8417 31.3424 60.7078 31.1482 60.5108 31.0367C60.3139 30.9252 60.0757 30.9087 59.8645 30.992L51.1161 34.4452C50.7365 34.5951 50.5525 35.0187 50.7051 35.3913C50.8577 35.7641 51.2893 35.9447 51.6688 35.7949L59.5417 32.6872L61.2958 44.6709C61.2968 44.7047 61.3002 44.7385 61.306 44.7724C61.6896 46.9893 61.2697 49.2833 60.1238 51.232C58.8042 53.4761 56.671 55.0799 54.117 55.7481C51.5623 56.4164 48.8926 56.0687 46.5994 54.7689C46.5836 54.7599 46.5673 54.7524 46.5511 54.7447C47.0427 54.3778 47.5051 53.9807 47.9365 53.5558L56.6089 51.2743C57.0042 51.1703 57.2387 50.7714 57.1328 50.3834C57.0269 49.9954 56.6204 49.7651 56.2255 49.8691L49.5525 51.6246C50.2857 50.5536 50.8594 49.3725 51.2514 48.1089L57.2048 46.5427C57.6001 46.4388 57.8346 46.0399 57.7287 45.6519C57.6228 45.2639 57.2163 45.0335 56.8214 45.1375L52.4408 46.29L54.0881 43.4886L57.5692 42.5728C57.9645 42.4689 58.199 42.07 58.0931 41.682C57.9871 41.294 57.5807 41.0636 57.1858 41.1676L55.1358 41.707L56.7121 39.0263C56.9167 38.6785 56.7953 38.2336 56.441 38.0328C56.0866 37.8319 55.6336 37.9511 55.4291 38.299L53.8528 40.9796L53.3034 38.9668C53.1975 38.5788 52.7912 38.3485 52.3962 38.4525C52.0009 38.5564 51.7664 38.9553 51.8723 39.3433L52.8051 42.7612L51.8412 44.4003C51.8697 42.0721 51.2629 39.7713 50.0468 37.7033C48.5155 35.0993 46.0988 33.0769 43.239 32.0055C43.2343 32.0035 43.2295 32.0015 43.2248 31.9996L39.8728 30.6639C39.4934 30.5128 39.0617 30.6921 38.9078 31.0643C38.7539 31.4366 38.9365 31.8607 39.3157 32.0118L42.6371 33.3353C42.6522 33.342 42.6675 33.3483 42.6831 33.3541C45.2378 34.304 47.3974 36.1068 48.7637 38.4305C50.3542 41.1354 50.7738 44.2882 49.9451 47.3084C49.1805 50.0943 47.4379 52.459 45.0038 54.0389L43.7605 51.9247L46.4559 42.0487C46.5618 41.6606 46.3273 41.2618 45.932 41.1578C45.5365 41.0539 45.1307 41.2841 45.0248 41.6721L42.713 50.1433L39.9703 45.4792L41.8402 38.6277C41.9462 38.2396 41.7117 37.8409 41.3164 37.7369C40.9211 37.6329 40.5151 37.8632 40.4091 38.2512L38.9228 43.6976L36.7608 40.021L37.8869 35.8948C37.9928 35.5068 37.7583 35.108 37.3631 35.004C36.9677 34.9001 36.5617 35.1303 36.4558 35.5183L35.7131 38.2394L33.6649 34.7564C33.4604 34.4084 33.0073 34.2892 32.653 34.4902C32.2987 34.691 32.1772 35.1359 32.3819 35.4837L34.43 38.9667L31.6586 38.2376C31.2633 38.1336 30.8573 38.3639 30.7514 38.7519C30.6454 39.14 30.8799 39.5388 31.2752 39.6428L35.4777 40.7484L37.6397 44.425L32.0926 42.9657C31.6973 42.8617 31.2913 43.0921 31.1854 43.4801C31.0794 43.8681 31.3139 44.2669 31.7092 44.3709L38.6874 46.2068L41.4301 50.8708L32.8023 48.6011C32.4069 48.4971 32.001 48.7274 31.8951 49.1154C31.7891 49.5035 32.0237 49.9023 32.4189 50.0063L42.4778 52.6525L43.7209 54.7665C38.1228 57.5058 31.2334 55.5329 28.0737 50.1596C26.6925 47.8108 26.1864 45.0457 26.6487 42.3736C26.655 42.3375 26.6583 42.3015 26.6589 42.2657L28.7742 27.8115L33.6817 29.7671C34.0612 29.9182 34.4928 29.7388 34.6467 29.3666C34.8005 28.9943 34.6179 28.5702 34.2388 28.4191L28.4542 26.114C28.2432 26.03 28.0042 26.0458 27.8068 26.1572C27.6092 26.2685 27.4748 26.463 27.4423 26.6845L25.1784 42.1517C25.1748 42.1762 25.1725 42.2008 25.1715 42.2252C24.6798 45.2009 25.2533 48.2729 26.7902 50.8866C29.2653 55.0957 33.775 57.45 38.4108 57.4499C40.4583 57.4499 42.53 56.9889 44.4622 56.0273L45.3726 57.5756C45.5099 57.8089 45.7588 57.9393 46.0149 57.9393C46.1405 57.9393 46.2679 57.9079 46.3846 57.8418C46.739 57.641 46.8604 57.1961 46.6557 56.8483L46.3182 56.2742C47.9551 57.1085 49.7405 57.5353 51.5472 57.5353C52.5317 57.5353 53.5225 57.409 54.4985 57.1536C57.4356 56.3852 59.8892 54.5404 61.407 51.9592C62.7099 49.7437 63.1967 47.1398 62.7817 44.617Z" fill="black"/>
<path fill-rule="evenodd" clip-rule="evenodd" d="M36.7176 30.9195C36.9124 30.9195 37.1036 30.8417 37.2413 30.7064C37.3798 30.5704 37.4584 30.3828 37.4584 30.1914C37.4584 30.0002 37.3798 29.8132 37.2413 29.6772C37.1036 29.5419 36.9125 29.4641 36.7176 29.4641C36.5227 29.4641 36.3316 29.5419 36.1938 29.6772C36.0561 29.8132 35.9768 30.0001 35.9768 30.1914C35.9768 30.3834 36.056 30.5704 36.1938 30.7064C36.3317 30.8418 36.5227 30.9195 36.7176 30.9195Z" fill="black"/>
<path fill-rule="evenodd" clip-rule="evenodd" d="M56.6813 36.9177C56.8263 37.1137 57.0523 37.2177 57.2814 37.2177C57.4323 37.2177 57.5847 37.1726 57.7161 37.0789C58.0472 36.8429 58.1207 36.388 57.8803 36.0631L57.8758 36.0571C57.6354 35.7321 57.1721 35.6599 56.8411 35.896C56.5101 36.132 56.4365 36.5869 56.677 36.9119L56.6813 36.9177Z" fill="black"/>
<defs>
<filter id="filter0_d" x="0" y="0" width="88" height="88" filterUnits="userSpaceOnUse" color-interpolation-filters="sRGB">
<feFlood flood-opacity="0" result="BackgroundImageFix"/>
<feColorMatrix in="SourceAlpha" type="matrix" values="0 0 0 0 0 0 0 0 0 0 0 0 0 0 0 0 0 0 127 0"/>
<feOffset dy="2"/>
<feGaussianBlur stdDeviation="5"/>
<feColorMatrix type="matrix" values="0 0 0 0 0 0 0 0 0 0 0 0 0 0 0 0 0 0 0.101961 0"/>
<feBlend mode="normal" in2="BackgroundImageFix" result="effect1_dropShadow"/>
<feBlend mode="normal" in="SourceGraphic" in2="effect1_dropShadow" result="shape"/>
</filter>
</defs>
</svg>
