<svg width="68" height="68" viewBox="0 0 68 68" fill="none" xmlns="http://www.w3.org/2000/svg">
<circle cx="34" cy="34" r="34" fill="url(#paint0_linear_2771_7875)"/>
<path fill-rule="evenodd" clip-rule="evenodd" d="M34.0003 18.9998C30.7787 18.9998 28.167 21.507 28.167 24.5998V27.0961C30.0299 27.0326 31.9427 26.9998 34.0003 26.9998C36.058 26.9998 37.9708 27.0326 39.8337 27.0961V24.5998C39.8337 21.507 37.222 18.9998 34.0003 18.9998ZM24.8337 24.5998V27.4432C22.2209 28.2108 20.2491 30.4176 19.8745 33.0881C19.6276 34.8488 19.417 36.6987 19.417 38.5998C19.417 40.5009 19.6276 42.3508 19.8745 44.1115C20.3271 47.3387 23.1123 49.8886 26.5424 50.04C28.9231 50.1451 31.3407 50.1998 34.0003 50.1998C36.66 50.1998 39.0777 50.1451 41.4583 50.04C44.8883 49.8886 47.6735 47.3387 48.1262 44.1115C48.373 42.3508 48.5837 40.5009 48.5837 38.5998C48.5837 36.6987 48.373 34.8488 48.1262 33.0881C47.7517 30.4176 45.7798 28.2108 43.167 27.4432V24.5998C43.167 19.7397 39.063 15.7998 34.0003 15.7998C28.9377 15.7998 24.8337 19.7397 24.8337 24.5998ZM33.9892 36.1998C32.6147 36.1998 31.5003 37.2744 31.5003 38.5998C31.5003 39.9252 32.6147 40.9998 33.9892 40.9998H34.0115C35.386 40.9998 36.5003 39.9252 36.5003 38.5998C36.5003 37.2744 35.386 36.1998 34.0115 36.1998H33.9892Z" fill="white"/>
<defs>
<linearGradient id="paint0_linear_2771_7875" x1="72.7278" y1="71.4" x2="-4.91436" y2="68.6594" gradientUnits="userSpaceOnUse">
<stop stop-color="#28D581"/>
<stop offset="1" stop-color="#33A36D"/>
</linearGradient>
</defs>
</svg>
