<svg width="24" height="24" viewBox="0 0 24 24" fill="none" xmlns="http://www.w3.org/2000/svg">
<rect width="24" height="24" rx="8" fill="white"/>
<path d="M12 13.3333V11M12 8.66667H12.0067M10.6 16.8L11.5733 18.0978C11.7181 18.2908 11.7905 18.3873 11.8792 18.4218C11.9569 18.452 12.0431 18.452 12.1208 18.4218C12.2095 18.3873 12.2819 18.2908 12.4267 18.0978L13.4 16.8C13.5954 16.5394 13.6931 16.4091 13.8123 16.3097C13.9713 16.177 14.1589 16.0832 14.3603 16.0357C14.5114 16 14.6743 16 15 16C15.9319 16 16.3978 16 16.7654 15.8478C17.2554 15.6448 17.6448 15.2554 17.8478 14.7654C18 14.3978 18 13.9319 18 13V9.2C18 8.07989 18 7.51984 17.782 7.09202C17.5903 6.71569 17.2843 6.40973 16.908 6.21799C16.4802 6 15.9201 6 14.8 6H9.2C8.0799 6 7.51984 6 7.09202 6.21799C6.71569 6.40973 6.40973 6.71569 6.21799 7.09202C6 7.51984 6 8.07989 6 9.2V13C6 13.9319 6 14.3978 6.15224 14.7654C6.35523 15.2554 6.74458 15.6448 7.23463 15.8478C7.60218 16 8.06812 16 9 16C9.32572 16 9.48858 16 9.63967 16.0357C9.84113 16.0832 10.0287 16.177 10.1877 16.3097C10.3069 16.4091 10.4046 16.5394 10.6 16.8Z" stroke="#33A36D" stroke-width="1.5" stroke-linecap="round" stroke-linejoin="round"/>
</svg>
