<svg width="16" height="16" viewBox="0 0 16 16" fill="none" xmlns="http://www.w3.org/2000/svg">
<path d="M8 0C12.4114 0 16 3.58862 16 8C16 12.4114 12.4114 16 8 16C3.58862 16 0 12.4114 0 8C0 3.58862 3.58862 0 8 0ZM4.19531 12.1379C4.32532 12.2679 4.49597 12.3334 4.66663 12.3334C4.83728 12.3334 5.00806 12.2679 5.13794 12.1379L8.47131 8.80469C8.59668 8.68005 8.66663 8.51062 8.66663 8.33337V4C8.66663 3.63135 8.36804 3.33337 8 3.33337C7.63196 3.33337 7.33337 3.63135 7.33337 4V8.05737L4.19531 11.1953C3.93469 11.4561 3.93469 11.8773 4.19531 12.1379V12.1379Z" fill="#307B51"/>
</svg>
