<svg width="36" height="36" viewBox="0 0 36 36" fill="none" xmlns="http://www.w3.org/2000/svg">
<path d="M29.4757 13.7813C29.1204 14.0313 28.0495 14.7736 26.2628 16.0079C24.4761 17.2422 23.1074 18.1926 22.1565 18.8591C22.0521 18.9322 21.8301 19.091 21.4906 19.3358C21.151 19.5808 20.8689 19.7787 20.6443 19.9297C20.4197 20.0807 20.148 20.25 19.8292 20.4374C19.5105 20.6247 19.2101 20.7656 18.928 20.8588C18.6458 20.9529 18.3846 20.9994 18.1443 20.9994H18.1286H18.1128C17.8725 20.9994 17.6112 20.9528 17.329 20.8588C17.047 20.7656 16.7463 20.6245 16.4279 20.4374C16.1093 20.2498 15.8376 20.0806 15.613 19.9297C15.3883 19.7787 15.1063 19.5808 14.7666 19.3358C14.4272 19.0908 14.205 18.9322 14.1005 18.8591C13.1394 18.1926 10.6942 16.4998 6.76573 13.781C6.00302 13.25 5.3658 12.6092 4.8539 11.8592C4.34163 11.1095 4.08576 10.323 4.08576 9.50015C4.08576 8.81256 4.33405 8.22396 4.83041 7.73442C5.32671 7.24478 5.91453 7.00009 6.59347 7.00009H29.6638C30.4683 7.00009 31.0874 7.27088 31.521 7.81247C31.9546 8.35416 32.1714 9.03125 32.1714 9.84368C32.1714 10.4999 31.884 11.211 31.3094 11.9766C30.7348 12.7423 30.1234 13.3439 29.4757 13.7813Z" fill="#BBC0C9"/>
<path d="M5.65326 15.453C9.08002 17.7653 11.682 19.5623 13.458 20.8437C14.0536 21.281 14.5367 21.6224 14.9078 21.8671C15.2788 22.1119 15.7722 22.3619 16.3888 22.6169C17.0052 22.8724 17.5796 22.9998 18.1126 22.9998H18.1285H18.1443C18.6772 22.9998 19.2519 22.8724 19.8683 22.6169C20.4846 22.3619 20.9784 22.1119 21.3493 21.8671C21.7201 21.6224 22.2034 21.281 22.7989 20.8437C24.2096 19.8125 26.806 18.0154 30.5883 15.453C31.184 15.0574 31.7116 14.604 32.1714 14.0937V26.4996C32.1714 27.1875 31.926 27.7758 31.4348 28.2654C30.9438 28.7551 30.3533 28.9999 29.6637 28.9999H6.59328C5.9038 28.9999 5.31341 28.7551 4.82232 28.2654C4.33107 27.7756 4.08574 27.1876 4.08574 26.4996V14.0937C4.53511 14.5935 5.05738 15.0469 5.65326 15.453Z" fill="#BBC0C9"/>
</svg>
