<svg width="18" height="18" viewBox="0 0 18 18" fill="none" xmlns="http://www.w3.org/2000/svg">
<path d="M2 8.15625H17V15.5313C17 16.6358 16.1046 17.5312 15 17.5312H4C2.89543 17.5312 2 16.6358 2 15.5312V8.15625Z" fill="#4DB5FF"/>
<path d="M17 5.34375V8.15625H2V5.34375H2.9375C2.9375 6.37497 3.78128 7.21875 4.8125 7.21875V6.28125C4.29687 6.28125 3.875 5.85938 3.875 5.34375H7.625C7.625 6.37497 8.46878 7.21875 9.5 7.21875V6.28125C8.98437 6.28125 8.5625 5.85938 8.5625 5.34375H12.3125C12.3125 6.37497 13.1563 7.21875 14.1875 7.21875V6.28125C13.6719 6.28125 13.25 5.85938 13.25 5.34375H17Z" fill="#80EAFF"/>
<path d="M6.6875 5.34375H5.75C5.75 4.82812 5.32813 4.40625 4.8125 4.40625C4.29687 4.40625 3.875 4.82812 3.875 5.34375C3.875 5.85938 4.29687 6.28125 4.8125 6.28125V7.21875C3.78128 7.21875 2.9375 6.37497 2.9375 5.34375C2.9375 4.31253 3.78128 3.46875 4.8125 3.46875C5.84372 3.46875 6.6875 4.31253 6.6875 5.34375Z" fill="#4DB5FF"/>
<path d="M4.8125 6.28125V7.21875C3.78128 7.21875 2.9375 6.37497 2.9375 5.34375H3.875C3.875 5.85938 4.29687 6.28125 4.8125 6.28125Z" fill="#3377FF"/>
<path d="M11.375 5.34375H10.4375C10.4375 4.82812 10.0156 4.40625 9.5 4.40625C8.98437 4.40625 8.5625 4.82812 8.5625 5.34375C8.5625 5.85938 8.98437 6.28125 9.5 6.28125V7.21875C8.46878 7.21875 7.625 6.37497 7.625 5.34375C7.625 4.31253 8.46878 3.46875 9.5 3.46875C10.5312 3.46875 11.375 4.31253 11.375 5.34375Z" fill="#4DB5FF"/>
<path d="M9.5 6.28125V7.21875C8.46878 7.21875 7.625 6.37497 7.625 5.34375H8.5625C8.5625 5.85938 8.98437 6.28125 9.5 6.28125Z" fill="#3377FF"/>
<path d="M16.0625 5.34375H15.125C15.125 4.82812 14.7031 4.40625 14.1875 4.40625C13.6719 4.40625 13.25 4.82812 13.25 5.34375C13.25 5.85938 13.6719 6.28125 14.1875 6.28125V7.21875C13.1563 7.21875 12.3125 6.37497 12.3125 5.34375C12.3125 4.31253 13.1563 3.46875 14.1875 3.46875C15.2187 3.46875 16.0625 4.31253 16.0625 5.34375Z" fill="#4DB5FF"/>
<path d="M14.1875 6.28125V7.21875C13.1563 7.21875 12.3125 6.37497 12.3125 5.34375H13.25C13.25 5.85938 13.6719 6.28125 14.1875 6.28125Z" fill="#3377FF"/>
<rect x="4" y="10" width="2" height="2" fill="white"/>
<rect x="4" y="14" width="2" height="2" fill="white"/>
<rect x="8" y="10" width="2" height="2" fill="white"/>
<rect x="8" y="14" width="2" height="2" fill="white"/>
<rect x="12" y="10" width="2" height="2" fill="white"/>
</svg>
