<svg width="18" height="18" viewBox="0 0 18 18" fill="none" xmlns="http://www.w3.org/2000/svg">
<path d="M8.68994 12.7241H9.31063V18H8.68994V12.7241Z" fill="#763A02"/>
<path d="M8.06934 0.931034L9.00037 0L9.93141 0.931034V12.1034L9.00037 13.0345L8.06934 12.1034V0.931034Z" fill="#FFA900"/>
<path d="M2.48291 6.51721L3.41394 7.44824H14.5863L15.5174 6.51721L14.5863 5.58618H3.41394L2.48291 6.51721Z" fill="#FFA900"/>
<path d="M13.6551 11.1724V9.93103L5.58611 1.86206H4.34473V3.10344L12.4137 11.1724H13.6551Z" fill="#FFA900"/>
<path d="M12.4137 1.86206H13.6551V3.10344L5.58611 11.1724H4.34473V9.93103L12.4137 1.86206Z" fill="#FFA900"/>
<path d="M6.00195 1.71246L6.50595 0.496216L7.7222 0.999906L11.9978 11.322L11.4938 12.5382L10.2776 12.0345L6.00195 1.71246Z" fill="#FF8800"/>
<path d="M2.979 9.01115L4.19525 9.51515L14.5173 5.23953L15.021 4.02329L13.8048 3.51929L3.48269 7.79491L2.979 9.01115Z" fill="#FF8800"/>
<path d="M15.0822 9.0366L14.6074 7.88957L4.06469 3.52271L2.91797 3.99784L3.3928 5.14488L13.9355 9.51174L15.0822 9.0366Z" fill="#FF8800"/>
<path d="M10.3727 0.909886L11.5198 0.435059L11.9949 1.58178L7.62803 12.1245L6.481 12.5993L6.00586 11.4526L10.3727 0.909886Z" fill="#FF8800"/>
<path d="M9.00002 2.79309C11.0568 2.79309 12.7242 4.46046 12.7242 6.51723C12.7242 8.574 11.0568 10.2414 9.00002 10.2414C6.94324 10.2414 5.27588 8.574 5.27588 6.51723C5.27588 4.46046 6.94324 2.79309 9.00002 2.79309Z" fill="#763A02"/>
<path d="M5.8963 14.2759H1.86182V14.5862C1.86387 16.4708 3.39108 17.998 5.27561 18H9.31009V17.6897C9.30804 15.8051 7.78083 14.2779 5.8963 14.2759Z" fill="#33BC00"/>
<path d="M12.1037 14.2759C10.2192 14.2779 8.692 15.8051 8.68994 17.6897V18H12.7244C14.609 17.998 16.1362 16.4708 16.1382 14.5862V14.2759H12.1037Z" fill="#008100"/>
<path d="M12.0589 4.39636C11.7214 7.19122 9.35611 9.29765 6.54102 9.31037C8.08191 10.6701 10.4334 10.5233 11.7931 8.98241C12.9269 7.6977 13.0367 5.80486 12.0592 4.3976L12.0589 4.39636Z" fill="#804300"/>
</svg>
