<svg width="64" height="64" viewBox="0 0 64 64" fill="none" xmlns="http://www.w3.org/2000/svg">
<path fill-rule="evenodd" clip-rule="evenodd" d="M11.8485 2C6.40932 2 2 6.40932 2 11.8485V17.7576C2 18.8454 2.88186 19.7273 3.9697 19.7273C5.05753 19.7273 5.93939 18.8454 5.93939 17.7576V11.8485C5.93939 8.58498 8.58498 5.93939 11.8485 5.93939H17.7576C18.8454 5.93939 19.7273 5.05753 19.7273 3.9697C19.7273 2.88186 18.8454 2 17.7576 2H11.8485ZM11.8485 62C6.40932 62 2 57.5907 2 52.1515V46.2424C2 45.1546 2.88186 44.2727 3.9697 44.2727C5.05753 44.2727 5.93939 45.1546 5.93939 46.2424V52.1515C5.93939 55.415 8.58498 58.0606 11.8485 58.0606H17.7576C18.8454 58.0606 19.7273 58.9425 19.7273 60.0303C19.7273 61.1181 18.8454 62 17.7576 62H11.8485ZM62 11.8485C62 6.40932 57.5907 2 52.1515 2H46.2424C45.1546 2 44.2727 2.88186 44.2727 3.9697C44.2727 5.05753 45.1546 5.93939 46.2424 5.93939H52.1515C55.415 5.93939 58.0606 8.58498 58.0606 11.8485V17.7576C58.0606 18.8454 58.9425 19.7273 60.0303 19.7273C61.1181 19.7273 62 18.8454 62 17.7576V11.8485ZM52.1515 62C57.5907 62 62 57.5907 62 52.1515V46.2424C62 45.1546 61.1181 44.2727 60.0303 44.2727C58.9425 44.2727 58.0606 45.1546 58.0606 46.2424V52.1515C58.0606 55.415 55.415 58.0606 52.1515 58.0606H46.2424C45.1546 58.0606 44.2727 58.9425 44.2727 60.0303C44.2727 61.1181 45.1546 62 46.2424 62H52.1515ZM45.2871 26.5469C43.0314 26.5469 41.1964 28.3821 41.1964 30.6377C41.1964 31.6415 41.5604 32.5614 42.1625 33.2739H43.2662C45.5929 33.2739 47.7272 32.4407 49.364 30.9594C49.5521 28.5383 47.6284 26.5469 45.2871 26.5469ZM26.198 15.6385C26.198 19.3979 23.1394 22.4564 19.3801 22.4564C16.5292 22.4564 14.0828 20.6968 13.0662 18.2072C15.7636 14.5512 19.4286 11.8209 23.5797 10.2736C25.172 11.5228 26.198 13.4625 26.198 15.6385ZM50.8657 19.1006C45.5193 11.0965 35.8711 7.29762 26.5824 9.38152C28.0406 11.0581 28.9249 13.2468 28.9249 15.6381C28.9249 20.9013 24.643 25.1832 19.3799 25.1832C16.0921 25.1832 13.1874 23.5123 11.47 20.9753C9.31533 26.6458 13.4199 33.2737 20.0371 33.2737H39.0004C37.1172 28.7984 40.4238 23.8196 45.2877 23.8196C48.0984 23.8196 50.5169 25.5296 51.5587 27.9638C52.9069 25.0642 52.6609 21.7885 50.8657 19.1006ZM27.5463 36.0013H35.7722C35.9231 39.367 36.7022 42.6719 37.9727 45.8025C38.2937 46.5936 38.4705 47.4582 38.4705 48.3644C38.4705 52.1844 35.3287 55.2706 31.4882 55.1803C26.7534 55.0688 23.5005 50.1775 25.3607 45.7343C26.6571 42.637 27.4343 39.3497 27.5463 36.0013Z" fill="url(#paint0_linear_2365_14519)"/>
<defs>
<linearGradient id="paint0_linear_2365_14519" x1="31.9995" y1="62.0002" x2="31.9995" y2="2" gradientUnits="userSpaceOnUse">
<stop stop-color="#9CFFAC"/>
<stop offset="1" stop-color="#00B59C"/>
</linearGradient>
</defs>
</svg>
