<svg width="32" height="32" viewBox="0 0 32 32" fill="none" xmlns="http://www.w3.org/2000/svg">
<mask id="mask0" mask-type="alpha" maskUnits="userSpaceOnUse" x="0" y="0" width="32" height="32">
<rect x="32" y="32" width="32" height="32" transform="rotate(-180 32 32)" fill="#C4C4C4"/>
</mask>
<g mask="url(#mask0)">
<rect width="32" height="32" rx="6" fill="#FFF2F2"/>
<rect x="0.5" y="0.5" width="31" height="31" rx="5.5" stroke="#FF0000" stroke-opacity="0.1"/>
<path d="M11.222 22.2766C11.2389 22.6809 11.5716 23 11.9762 23H19.0234C19.428 23 19.7607 22.6809 19.7777 22.2766L20.2809 11.6526H10.7188L11.222 22.2766ZM17.094 14.2914C17.094 14.1221 17.2313 13.9848 17.4006 13.9848H17.891C18.0603 13.9848 18.1977 14.1221 18.1977 14.2914V20.3612C18.1977 20.5305 18.0604 20.6678 17.891 20.6678H17.4006C17.2313 20.6678 17.094 20.5306 17.094 20.3612V14.2914ZM14.948 14.2914C14.948 14.1221 15.0853 13.9848 15.2546 13.9848H15.745C15.9143 13.9848 16.0516 14.1221 16.0516 14.2914V20.3612C16.0516 20.5305 15.9144 20.6678 15.745 20.6678H15.2546C15.0853 20.6678 14.948 20.5306 14.948 20.3612V14.2914ZM12.802 14.2914C12.802 14.1221 12.9393 13.9848 13.1086 13.9848H13.5991C13.7683 13.9848 13.9056 14.1221 13.9056 14.2914V20.3612C13.9056 20.5305 13.7684 20.6678 13.5991 20.6678H13.1086C12.9393 20.6678 12.802 20.5306 12.802 20.3612V14.2914Z" fill="#FF3535"/>
<path d="M20.6163 8.77272H17.3652V8.15808C17.3652 8.0708 17.2944 8 17.2071 8H13.7931C13.7058 8 13.635 8.0708 13.635 8.15808V8.77269H10.3839C10.1222 8.77269 9.91016 8.98479 9.91016 9.24643V10.7346H21.09V9.24647C21.09 8.98483 20.8779 8.77272 20.6163 8.77272Z" fill="#FF3535"/>
</g>
</svg>
