<svg width="64" height="64" viewBox="0 0 64 64" fill="none" xmlns="http://www.w3.org/2000/svg">
<rect width="64" height="64" rx="16" fill="#FFE7E9"/>
<path d="M36.5227 19.0113C38.4828 19.0113 40.0773 17.4387 40.0773 15.5056C40.0773 13.5724 38.4828 12 36.5227 12C34.5625 12 32.968 13.5726 32.968 15.5056C32.968 17.4387 34.5625 19.0113 36.5227 19.0113ZM46.0015 14.3371H42.3271C42.4052 14.7148 42.447 15.1056 42.447 15.5056C42.447 18.7271 39.7892 21.3484 36.5227 21.3484C33.2562 21.3484 30.5983 18.7271 30.5983 15.5056C30.5983 15.1055 30.6401 14.7148 30.7183 14.3371H27.0438C25.0837 14.3371 23.4892 15.9096 23.4892 17.8427V38.8765C23.4892 40.8096 25.0837 42.3821 27.0438 42.3821H46.0015C47.9617 42.3821 49.5562 40.8095 49.5562 38.8765V17.8427C49.5562 15.9096 47.9617 14.3371 46.0015 14.3371ZM38.8924 35.3709H29.4135C28.7585 35.3709 28.2286 34.8483 28.2286 34.2023C28.2286 33.5565 28.7585 33.0338 29.4135 33.0338H38.8924C39.5472 33.0338 40.0773 33.5565 40.0773 34.2023C40.0772 34.8483 39.5472 35.3709 38.8924 35.3709ZM43.6318 30.6967H29.4135C28.7585 30.6967 28.2286 30.1741 28.2286 29.5281C28.2286 28.8823 28.7585 28.3596 29.4135 28.3596H43.6318C44.2868 28.3596 44.8167 28.8823 44.8167 29.5281C44.8167 30.1741 44.2867 30.6967 43.6318 30.6967ZM43.6318 26.0226H29.4135C28.7585 26.0226 28.2286 25.4999 28.2286 24.8539C28.2286 24.2081 28.7585 23.6855 29.4135 23.6855H43.6318C44.2868 23.6855 44.8167 24.2081 44.8167 24.8539C44.8167 25.4999 44.2867 26.0226 43.6318 26.0226ZM21.1195 38.8766V23.3886L16.7873 24.3439C15.8582 24.5482 15.0657 25.0982 14.5554 25.8948C14.0463 26.6879 13.8797 27.6282 14.0867 28.5457L18.7787 49.0671C19.2146 50.9604 21.1459 52.1232 23.0379 51.7021L41.5213 47.6122C42.4493 47.408 43.2407 46.858 43.751 46.0614C44.0167 45.6467 44.1831 45.1908 44.2574 44.7194H27.0438C23.7773 44.7193 21.1195 42.098 21.1195 38.8766Z" fill="url(#paint0_linear_2365_14258)"/>
<defs>
<linearGradient id="paint0_linear_2365_14258" x1="31.778" y1="51.7881" x2="31.778" y2="12" gradientUnits="userSpaceOnUse">
<stop stop-color="#FFA68D"/>
<stop offset="1" stop-color="#FD3A84"/>
</linearGradient>
</defs>
</svg>
