<?xml version="1.0" encoding="UTF-8"?>
<svg width="32px" height="32px" viewBox="0 0 32 32" version="1.1" xmlns="http://www.w3.org/2000/svg" xmlns:xlink="http://www.w3.org/1999/xlink">
    <title>Cloud 2</title>
    <defs>
        <rect id="path-1" x="7.10542736e-15" y="-7.10542736e-15" width="32" height="32"></rect>
    </defs>
    <g id="Page-1" stroke="none" stroke-width="1" fill="none" fill-rule="evenodd">
        <g id="Cloud-2">
            <mask id="mask-2" fill="white">
                <use xlink:href="#path-1"></use>
            </mask>
            <g id="Rectangle" transform="translate(16.000000, 16.000000) rotate(-180.000000) translate(-16.000000, -16.000000) "></g>
            <g id="Group" mask="url(#mask-2)">
                <rect id="Rectangle" fill="#F8F8F8" fill-rule="nonzero" x="0" y="0" width="32" height="32" rx="6"></rect>
                <rect id="Rectangle" stroke-opacity="0.1" stroke="#000000" x="0.5" y="0.5" width="31" height="31" rx="5.5"></rect>
                <path d="M16.45,19.7288 L16.45,20.8182 C16.45,20.9713 16.5741,21.0955 16.7273,21.0955 C16.8804,21.0955 17.0045,20.9713 17.0045,20.8182 L17.0045,20.5884 C17.4716,21.1735 18.192,21.55 19,21.55 C20.3314,21.55 21.4228,20.5323 21.5396,19.2316 C21.5538,19.0743 21.4246,18.95 21.2727,18.95 C21.1184,18.95 20.9995,19.0748 20.9833,19.2214 C20.8732,20.2192 20.0271,20.9955 19,20.9955 C18.3424,20.9955 17.759,20.6769 17.3963,20.1864 L17.6364,20.1864 C17.7895,20.1864 17.9136,20.0622 17.9136,19.9091 C17.9136,19.756 17.7895,19.6318 17.6364,19.6318 L16.547,19.6318 C16.4934,19.6318 16.45,19.6753 16.45,19.7288 Z M19,16.45 C17.6686,16.45 16.5772,17.4677 16.4604,18.7684 C16.4462,18.9257 16.5754,19.05 16.7273,19.05 C16.8816,19.05 17.0005,18.9252 17.0167,18.7786 C17.1268,17.7808 17.9729,17.0045 19,17.0045 C19.6576,17.0045 20.241,17.3231 20.6037,17.8136 L20.3636,17.8136 C20.2105,17.8136 20.0864,17.9378 20.0864,18.0909 C20.0864,18.244 20.2105,18.3682 20.3636,18.3682 L21.4091,18.3682 C21.4869,18.3682 21.55,18.3051 21.55,18.2273 L21.55,17.1818 C21.55,17.0287 21.4259,16.9045 21.2727,16.9045 C21.1196,16.9045 20.9955,17.0287 20.9955,17.1818 L20.9955,17.4116 C20.5284,16.8265 19.808,16.45 19,16.45 Z" id="Shape" stroke="#FF3D00" stroke-width="0.1" fill="#FF3D00" fill-rule="nonzero"></path>
                <path d="M26.6935,15.3614 C26.4093,14.512 25.9356,13.7377 25.3078,13.0965 C24.68,12.4553 23.9145,11.9638 23.0686,11.6589 C23.0434,10.3128 22.5588,9.01526 21.6944,7.97944 C20.83,6.94363 19.6372,6.23117 18.3119,5.95912 C16.9867,5.68707 15.6079,5.8716 14.4021,6.4824 C13.1962,7.09321 12.235,8.09395 11.6764,9.32022 C11.5911,9.31405 11.5053,9.31096 11.418,9.31096 C10.5218,9.31209 9.66124,9.66075 9.01915,10.2829 C8.37707,10.9051 8.00399,11.7517 7.97911,12.6432 C7.11426,12.7595 6.32617,13.1985 5.77449,13.8714 C5.2228,14.5442 4.94878,15.4006 5.00791,16.2669 C5.06705,17.1333 5.45491,17.9449 6.09296,18.5373 C6.73101,19.1298 7.57152,19.4588 8.44425,19.4577 L11.6338,19.4577 C11.8894,19.4577 12.0966,19.2505 12.0966,18.9949 L12.0966,18.9949 C12.0966,18.7393 11.8894,18.5321 11.6338,18.5321 L8.44425,18.5321 C7.77864,18.5328 7.14003,18.2703 6.66889,17.8025 C6.19775,17.3347 5.93268,16.6998 5.932,16.0376 C5.93131,15.3753 6.19507,14.7399 6.66524,14.2711 C7.1354,13.8023 7.77347,13.5386 8.43907,13.5379 L8.99052,13.5811 L8.92592,13.0227 C8.91497,12.9267 8.90945,12.8302 8.90938,12.7337 C8.91006,12.0716 9.17469,11.4368 9.64519,10.9687 C10.1157,10.5006 10.7536,10.2373 11.419,10.2366 C11.5751,10.2365 11.7308,10.2508 11.8842,10.2793 L12.2661,10.3497 L12.4041,9.98974 C12.8227,8.89564 13.6133,7.98206 14.6386,7.40779 C15.6639,6.83352 16.859,6.63487 18.0162,6.84637 C19.1735,7.05786 20.2196,7.66613 20.9729,8.56545 C21.7261,9.46477 22.1389,10.5983 22.1394,11.769 C22.1394,11.8394 22.1393,11.9078 22.1347,11.9716 L22.1171,12.3346 L22.4675,12.4375 C23.4409,12.7246 24.3042,13.298 24.9439,14.0823 C25.5837,14.8667 25.97,15.8252 26.0522,16.8321 C26.0893,17.5342 25.9943,18.2354 25.7739,18.8998 C25.6854,19.1665 25.8741,19.4582 26.1551,19.4582 L26.2457,19.4582 C26.4436,19.4582 26.6198,19.333 26.6847,19.1461 L26.6847,19.1461 C27.1015,17.9199 27.1051,16.5919 26.6951,15.3634 L26.6935,15.3614 Z" id="Path" fill="#FF3D00" fill-rule="nonzero"></path>
                <path d="M24.4523,18.7753 C24.4494,18.4314 24.413,18.0885 24.3438,17.7515 C24.3257,17.6631 24.3056,17.5762 24.2833,17.4918 C24.2776,17.4713 24.2725,17.4512 24.2668,17.4312 C24.2668,17.4312 24.2668,17.4312 24.2668,17.4276 C24.2404,17.3278 24.2089,17.226 24.1717,17.1164 L24.1717,17.1098 C24.1634,17.0851 24.1546,17.0583 24.1453,17.0352 C24.1305,16.993 24.115,16.9509 24.0988,16.9087 C24.0844,16.8717 24.0699,16.8352 24.0544,16.7992 C24.0529,16.7946 24.0512,16.7902 24.0492,16.7858 C24.0244,16.7256 23.9975,16.6691 23.98,16.6269 C23.9407,16.5402 23.899,16.4545 23.8549,16.3698 C23.8332,16.3276 23.811,16.286 23.7877,16.2448 C23.7644,16.2037 23.7458,16.1698 23.7241,16.1332 C23.7024,16.0967 23.6807,16.0607 23.6585,16.0247 C23.6564,16.021 23.6542,16.0174 23.6518,16.0139 C23.6378,15.9908 23.6234,15.9682 23.6084,15.9455 C23.5732,15.8905 23.537,15.8365 23.4993,15.7831 C23.474,15.746 23.4476,15.7095 23.4208,15.673 C23.4011,15.6463 23.3815,15.6216 23.3608,15.5938 C23.3401,15.5661 23.3241,15.545 23.3045,15.5208 C23.2848,15.4966 23.2626,15.4694 23.2409,15.4421 C23.2192,15.4149 23.1892,15.3784 23.1608,15.347 C23.1324,15.3156 23.1029,15.2812 23.0735,15.2488 C23.044,15.2164 23.012,15.1814 22.9804,15.1459 C22.9489,15.1104 22.9226,15.0858 22.8931,15.0565 L22.8781,15.0415 C22.8574,15.021 22.8368,15.0004 22.8156,14.9809 C22.7944,14.9613 22.7856,14.9515 22.7706,14.9382 C22.7437,14.913 22.7189,14.8868 22.69,14.8641 L22.6843,14.8585 C22.6507,14.8286 22.6171,14.7988 22.5809,14.77 C22.5448,14.7412 22.5112,14.7109 22.4776,14.6821 L22.3845,14.608 L22.3551,14.5854 L22.2776,14.5278 L22.244,14.5037 C22.2202,14.4857 22.1959,14.4687 22.1716,14.4522 L22.1292,14.4224 L22.0336,14.3638 C22.0011,14.3422 21.9685,14.3216 21.9354,14.3011 C21.9199,14.2908 21.9039,14.281 21.8879,14.2717 L21.8243,14.2337 C21.7985,14.2183 21.7726,14.2028 21.7458,14.1884 C21.7381,14.1835 21.7302,14.179 21.722,14.1751 C21.692,14.1576 21.662,14.1411 21.6315,14.1236 L21.5892,14.101 C21.5561,14.0835 21.523,14.0666 21.4894,14.0496 L21.4749,14.0424 C21.4481,14.029 21.4207,14.0157 21.3928,14.0028 L21.3209,13.9694 C21.308,13.9632 21.2946,13.957 21.2811,13.9519 C21.2543,13.9395 21.2295,13.9277 21.2,13.9164 C21.185,13.9092 21.1695,13.903 21.1545,13.8974 C21.1261,13.885 21.0972,13.8732 21.0682,13.8619 C21.0501,13.8547 21.0326,13.8475 21.0165,13.8413 L20.9375,13.812 C20.9261,13.8074 20.9152,13.8033 20.9039,13.7997 C20.8682,13.7868 20.8326,13.7745 20.7964,13.7627 C20.7617,13.7508 20.7271,13.7395 20.693,13.7287 L20.4175,13.6434 L20.4113,13.65 L20.3984,13.6464 L20.3498,13.6346 C20.292,13.6209 20.2336,13.608 20.1746,13.596 C19.4902,13.4575 18.7853,13.4517 18.0986,13.5791 L17.495,13.7287 C17.4562,13.7405 17.4174,13.7534 17.3792,13.7663 L17.3725,13.7663 L17.2722,13.8012 L17.2438,13.8115 C17.2014,13.8269 17.1595,13.8429 17.1177,13.8593 L17.0143,13.9005 L16.9714,13.9185 L16.8991,13.9503 C16.8794,13.9586 16.8598,13.9673 16.8407,13.9766 C16.8215,13.9858 16.8009,13.9946 16.7812,14.0043 C16.7528,14.0172 16.7249,14.0311 16.697,14.045 L16.6681,14.0594 C16.6381,14.0743 16.6086,14.0897 16.5792,14.1056 C16.5631,14.1134 16.5476,14.1216 16.5321,14.1303 C16.5047,14.1447 16.4804,14.1596 16.4515,14.1746 C16.437,14.1828 16.4226,14.1905 16.4086,14.1992 C16.3838,14.2129 16.359,14.2273 16.3342,14.2424 C16.3182,14.2517 16.3027,14.2609 16.2877,14.2707 C16.2618,14.2861 16.236,14.3021 16.2112,14.318 L16.1631,14.3489 C16.1425,14.3617 16.1228,14.3751 16.1027,14.389 C16.0825,14.4029 16.0675,14.4121 16.051,14.4245 C16.0215,14.444 15.9926,14.4646 15.9636,14.4857 C15.9568,14.4898 15.9502,14.4945 15.944,14.4995 C15.9187,14.5175 15.8923,14.5355 15.8691,14.5546 C15.8458,14.5736 15.8349,14.5798 15.8174,14.5931 C15.7998,14.6065 15.7895,14.6142 15.776,14.6255 C15.7512,14.6446 15.7243,14.6641 15.7016,14.6847 C15.6551,14.7222 15.6086,14.7608 15.5636,14.8004 C15.5393,14.8209 15.5156,14.8425 15.4918,14.8636 C15.2761,15.0579 15.0768,15.2695 14.8959,15.4961 C14.8726,15.5244 14.8504,15.5532 14.8282,15.582 L14.8189,15.5948 C14.792,15.6298 14.7672,15.6648 14.7403,15.7003 C14.7135,15.7357 14.6845,15.7784 14.6576,15.818 C14.6308,15.8576 14.6132,15.8833 14.5925,15.9162 C14.5718,15.9491 14.5517,15.979 14.5321,16.0109 C14.5302,16.013 14.5288,16.0154 14.5279,16.0181 C14.5072,16.051 14.4871,16.0839 14.4674,16.1173 C14.4618,16.1266 14.4561,16.1358 14.4509,16.1451 C14.4323,16.177 14.4142,16.2093 14.3961,16.2417 L14.3842,16.2639 C14.3651,16.2988 14.346,16.3338 14.3279,16.3693 C14.3247,16.3745 14.322,16.38 14.3196,16.3857 C14.3041,16.4156 14.2886,16.4454 14.2742,16.4757 C14.2659,16.4911 14.2581,16.5076 14.2509,16.5235 C14.2354,16.5559 14.2199,16.5883 14.2054,16.6212 C14.205,16.6229 14.205,16.6247 14.2054,16.6264 L14.0933,16.8917 L14.0416,17.0218 L14.0416,17.0285 C14.0318,17.0568 14.0214,17.0851 14.0116,17.1144 L13.9961,17.1612 L13.9139,17.4342 C13.8866,17.5371 13.8623,17.6399 13.839,17.7484 C13.7698,18.0854 13.7335,18.4283 13.7304992,18.7723 C13.7304992,18.7892 13.7304992,18.8062 13.7304992,18.8237 C13.7303,19.1847 13.7669,19.5447 13.8395,19.8984 C13.853,19.9622 13.8669,20.0259 13.884,20.0949 C13.901,20.1638 13.9165,20.2203 13.9356,20.2825 L13.9651,20.3854 C13.9842,20.4456 14.0039,20.5052 14.024,20.5649 L14.0282,20.5767 C14.0375,20.6024 14.0462,20.6281 14.055,20.6533 L14.0581,20.661 C14.3255,21.3904 14.7498,22.0529 15.3016,22.6019 C15.8533,23.151 16.519,23.5734 17.2521,23.8395 L17.2598,23.842 C17.2851,23.8508 17.3115,23.8595 17.3368,23.8693 L17.3492,23.8734 C17.4086,23.8934 17.4686,23.913 17.5291,23.9315 L17.6324,23.9613 C17.695,23.9788 17.758,23.9953 17.8226,24.0128 C17.8872,24.0302 17.9539,24.0436 18.0175,24.0565 C18.7303,24.2018 19.4654,24.2018 20.1783,24.0565 C20.2418,24.0436 20.308,24.0292 20.3715,24.0133 C20.4351,23.9973 20.5002,23.9814 20.571,23.9618 L20.586,23.9572 L20.6522,23.9382 L20.6615,23.9382 C20.6992,23.9269 20.7369,23.915 20.7742,23.9027 L20.8496,23.8775 C21.7756,23.5587 22.5963,22.9939 23.2228,22.2443 C23.2564,22.2042 23.2895,22.1636 23.3215,22.1224 C23.7301,21.6047 24.0385,21.0161 24.2311,20.3864 C24.2363,20.37 24.241,20.3535 24.2456,20.335 L24.258,20.2939 C24.2776,20.227 24.2952,20.1607 24.3097,20.101 C24.3242,20.0414 24.3407,19.9704 24.3541,19.9061 C24.4267,19.5523 24.4632002,19.192 24.4632002,18.8309 C24.4528,18.8093 24.4528,18.7923 24.4523,18.7753 Z M23.5221,18.8268 C23.5221,19.1256 23.4918,19.4236 23.4316,19.7164 C23.4208,19.7678 23.4089,19.8233 23.3949,19.8794 C23.381,19.9354 23.3696,19.9791 23.3551,20.028 L23.3308,20.1118 C23.3029,20.203 23.2721,20.293 23.2383,20.3818 C23.2115,20.4528 23.1825,20.5232 23.152,20.5926 C23.1257,20.6533 23.0972,20.713 23.0678,20.7726 C23.0419,20.824 23.0161,20.8754 22.9877,20.9269 C22.9592,20.9783 22.936,21.0184 22.9101,21.0637 C22.8843,21.1089 22.8585,21.1449 22.8357,21.1845 C22.4539,21.7852 21.9321,22.2854 21.3147,22.6428 L21.246,22.6819 C21.2207,22.6963 21.1943,22.7102 21.1695,22.7236 C21.1106,22.7544 21.0512,22.7843 20.9912,22.8131 C20.9223,22.8473 20.8534,22.8782 20.7845,22.9056 C20.7442,22.9221 20.7033,22.9385 20.662,22.954 C20.63,22.9663 20.5984,22.9781 20.5659,22.9889 L20.5359,22.9992 C20.4873,23.0162 20.4377,23.0326 20.3886,23.0475 L20.3142,23.0686 L20.3018,23.0727 C20.2501,23.0882 20.1984,23.1015 20.1467,23.1139 C20.0951,23.1262 20.0382,23.1391 19.985,23.1499 C19.3951,23.2692 18.7872,23.2692 18.1973,23.1499 C18.1456,23.1396 18.0939,23.1278 18.0381,23.1144 C17.9823,23.101 17.9348,23.0877 17.8831,23.0733 L17.8376,23.0599 L17.8019,23.0496 L17.6469,22.9982 C17.6211,22.9884 17.5952,22.9792 17.5683,22.9704 L17.5637,22.9704 C17.4888,22.9426 17.4143,22.9133 17.3415,22.882 C17.3415,22.882 17.3389,22.882 17.3373,22.882 C16.296,22.4372 15.4661,21.6114 15.0194,20.5751 L15.0194,20.571 C14.9879,20.4985 14.9584,20.4245 14.9305,20.3499 L14.9305,20.3453 C14.9212,20.3191 14.9124,20.2939 14.9026,20.2671 C14.8856,20.2157 14.869,20.1643 14.8509,20.1154 L14.8406,20.0794 C14.8359,20.0645 14.8318,20.0496 14.8272,20.0347 C14.8127,19.9833 14.7982,19.9318 14.7858,19.8804 C14.7734,19.829 14.7605,19.7729 14.7496,19.72 C14.6894,19.4274 14.6591,19.1295 14.6591998,18.8309 L14.6591998,18.7933 C14.6613,18.508 14.6912,18.2235 14.7486,17.9438 C14.7486,17.9438 14.7486,17.9438 14.7486,17.9408 C14.7533,17.9181 14.7584,17.896 14.7631,17.8739 C14.7775,17.8081 14.793,17.7448 14.8101,17.6836 C14.8101,17.6806 14.8101,17.678 14.8101,17.6749 C14.8225,17.6322 14.8349,17.5885 14.8478,17.5463 L14.8597,17.5067 L14.8887,17.4183 C14.9045,17.3713 14.9217,17.3251 14.9403,17.2795 L14.9512,17.2517 L14.9651,17.2167 L14.9879,17.1602 L15.022,17.0794 L15.0349,17.0496 C15.0468,17.0234 15.0587,16.9982 15.0711,16.9709 C15.0876,16.9346 15.1049,16.8986 15.1228,16.8629 C15.1388,16.831 15.1553,16.7992 15.1745,16.7673 C15.1936,16.7354 15.2055,16.7097 15.2215,16.6814 C15.2375,16.6531 15.2515,16.63 15.2675,16.6017 C15.2835,16.5734 15.2964,16.5503 15.3119,16.5282 C15.3398,16.4824 15.3688,16.4377 15.3988,16.3929 C15.4132,16.371 15.4282,16.3489 15.4437,16.3266 L15.483,16.2711 C15.528,16.2078 15.5745,16.1461 15.6236,16.0854 C15.6396,16.0638 15.6572,16.0427 15.6752,16.0217 C15.6933,16.0006 15.7099,15.979 15.7269,15.9584 C15.7786,15.8962 15.8355,15.835 15.8928,15.7764 C15.9114,15.7561 15.9306,15.7366 15.9502,15.7177 C15.9871,15.6804 16.0248,15.6439 16.0634,15.6082 C16.102,15.5726 16.1449,15.534 16.1921,15.4925 C16.2329,15.4575 16.2748,15.4226 16.3171,15.3897 L16.3745,15.3444 C16.3988,15.3254 16.4231,15.3074 16.4474,15.2894 C16.4717,15.2714 16.4913,15.257 16.514,15.2411 L16.5466,15.2179 L16.604,15.1788 C16.6277,15.1624 16.652,15.1464 16.6763,15.131 C16.7006,15.1156 16.7249,15.0996 16.7497,15.0847 C16.7745,15.0698 16.806,15.0498 16.8345,15.0333 C16.8629,15.0169 16.8774,15.0081 16.8991,14.9963 C16.9208,14.9845 16.9533,14.9654 16.9807,14.951 C17.0081,14.9366 17.0283,14.9253 17.0526,14.9135 C17.0769,14.9017 17.0913,14.8934 17.111,14.8837 C17.1435,14.8672 17.1761,14.8518 17.2092,14.8364 L17.2887,14.8004 C17.3959,14.7531 17.5049,14.7099 17.6159,14.6708 C17.6676,14.6528 17.7193,14.6358 17.7709,14.6194 C17.8056,14.6086 17.8428,14.5978 17.8831,14.5864 L17.9802,14.5602 L17.9854,14.5602 L18.0541,14.5433 C18.1017,14.5314 18.1503,14.5211 18.1978,14.5114 C18.7875,14.3924 19.3953,14.3924 19.985,14.5114 C20.033,14.5211 20.0816,14.5314 20.1307,14.5433 L20.1979,14.5602 L20.2031,14.5602 L20.2547,14.5751 L20.3064,14.5895 L20.4098,14.6199 C20.5004,14.6483 20.5895,14.6794 20.677,14.7129 C21.7284,15.1153 22.5866,15.9004 23.0776,16.9092 C23.0952,16.9442 23.1117,16.9797 23.1293,17.0157 C23.1468,17.0517 23.1665,17.099 23.1856,17.1452 C23.2156,17.2193 23.2419,17.2867 23.2652,17.3509 L23.2652,17.3561 C23.2724,17.3756 23.2797,17.3957 23.2874,17.4183 C23.3184,17.5103 23.3443,17.5952 23.367,17.6795 C23.3923,17.7731 23.4125,17.859 23.4301,17.9418 C23.4879,18.2222 23.518,18.5076 23.52,18.7939 L23.52,18.8314 L23.5221,18.8268 Z" id="Shape" fill="#FF3D00" fill-rule="nonzero"></path>
            </g>
        </g>
    </g>
</svg>