<svg width="64" height="64" viewBox="0 0 64 64" fill="none" xmlns="http://www.w3.org/2000/svg">
<circle cx="32" cy="32" r="32" fill="#F8ECC4"/>
<path d="M16.3569 38.9395H47.6154L47.5251 39.8459C47.2455 42.0827 45.6552 43.3887 44.039 43.3887H19.9333C18.1067 43.3887 16.6769 41.8161 16.4492 39.8625C16.4467 39.8422 16.4593 39.9661 16.3569 38.9395Z" fill="#FFB800"/>
<path d="M48.9786 25.2797L47.8146 36.9473H16.159L15.0223 25.5274C14.718 22.8494 17.6065 21.6117 18.94 23.1441C22.1483 26.8435 22.4917 27.5737 23.5695 27.4452C23.9746 27.396 24.2641 27.2145 24.5045 26.993C31.0364 20.7262 30.6092 21.132 30.6765 21.0789C31.5556 20.4026 32.6861 20.5141 33.3485 21.0656C39.9485 26.6114 39.6427 26.3672 39.7901 26.4511C40.4063 26.8053 41.1331 26.7602 41.7542 26.151C45.4221 22.547 45.1895 22.7716 45.2576 22.7171C46.9354 21.4108 49.2471 22.9288 48.9786 25.2797Z" fill="#FFB800"/>
</svg>
