<svg width="64" height="64" viewBox="0 0 64 64" fill="none" xmlns="http://www.w3.org/2000/svg">
<rect width="64" height="64" rx="16" fill="#E4FAED"/>
<g clip-path="url(#clip0_2365_14251)">
<path d="M33.2508 46.7738V38.7054C33.442 38.7054 33.6208 38.714 33.7974 38.7054C35.0862 38.6343 36.399 38.6979 37.6585 38.462C41.4536 37.7524 44.4785 34.2765 44.86 30.3225C44.9217 29.6818 44.9279 29.0304 44.929 28.3843C44.929 27.8631 44.5966 27.4992 44.1022 27.5002C42.6525 27.5067 41.1944 27.4378 39.7562 27.5821C36.8662 27.8717 34.6346 29.3685 33.0219 31.8462C32.9508 31.9539 32.8818 32.068 32.7815 32.2252C32.7177 32.0842 32.6675 31.9851 32.6289 31.8817C31.2408 28.1991 27.9672 25.8431 24.1333 25.7806C23.0233 25.7634 21.9123 25.7731 20.8022 25.7806C20.1479 25.7806 19.8615 26.1036 19.8417 26.7777C19.7466 29.3879 20.4207 31.731 22.1108 33.7123C23.8637 35.7636 26.0827 36.8619 28.7407 36.9556C29.6521 36.9868 30.5656 36.9556 31.5126 36.9556V46.7921C30.9189 46.4766 30.3493 46.1848 29.7901 45.8747C26.3753 43.9914 23.1059 41.8755 20.1793 39.2406C18.2394 37.4951 16.521 35.5612 15.2668 33.217C11.9472 27.0297 15.5375 19.8205 21.6144 18.3453C25.5015 17.401 28.8389 18.523 31.5617 21.537C32.1888 22.2336 32.5944 22.2315 33.2341 21.537C36.1063 18.3852 39.6099 17.2545 43.6298 18.4928C47.611 19.7215 49.9533 22.6148 50.6735 26.8434C51.0916 29.306 50.4645 31.5652 49.2666 33.6832C47.9225 36.0522 46.0892 37.9786 44.0646 39.724C40.8328 42.5119 37.2477 44.7344 33.4943 46.6834C33.4149 46.7183 33.3336 46.7485 33.2508 46.7738Z" fill="url(#paint0_linear_2365_14251)"/>
</g>
<defs>
<linearGradient id="paint0_linear_2365_14251" x1="53.3617" y1="48.2317" x2="11.3744" y2="46.3373" gradientUnits="userSpaceOnUse">
<stop stop-color="#28D581"/>
<stop offset="1" stop-color="#33A36D"/>
</linearGradient>
<clipPath id="clip0_2365_14251">
<rect width="19.2" height="19.2" fill="white" transform="matrix(2 0 0 2 12.8008 12.8008)"/>
</clipPath>
</defs>
</svg>
