<svg width="68" height="46" viewBox="0 0 68 46" fill="none" xmlns="http://www.w3.org/2000/svg">
<mask id="mask0" style="mask-type:alpha" maskUnits="userSpaceOnUse" x="-6" y="-18" width="80" height="81">
<rect x="-6" y="-17.2222" width="80" height="80" fill="#C4C4C4"/>
</mask>
<g mask="url(#mask0)">
<path d="M2.71375 36.657H65.2306L65.05 38.4699C64.4909 42.9434 61.3103 45.5554 58.0779 45.5554H9.8665C6.21336 45.5554 3.35377 42.4103 2.89835 38.5031C2.89331 38.4624 2.91841 38.7103 2.71375 36.657Z" fill="#FFB800"/>
<path d="M67.9571 9.33726L65.6291 32.6724H2.31807L0.0445828 9.83265C-0.563965 4.47672 5.21299 2.00123 7.88 5.06601C14.2966 12.4647 14.9835 13.9253 17.139 13.6683C17.9492 13.5697 18.5281 13.2068 19.0089 12.7638C32.0728 0.230306 31.2184 1.04192 31.3529 0.93554C33.1111 -0.417023 35.3722 -0.193897 36.6969 0.908978C49.897 12.0007 49.2854 11.5122 49.5801 11.6801C50.8126 12.3884 52.2661 12.2982 53.5084 11.0798C60.8442 3.87176 60.379 4.32093 60.5151 4.21203C63.8708 1.59934 68.4942 4.63543 67.9571 9.33726Z" fill="#FFB800"/>
</g>
</svg>
