<svg width="32" height="32" viewBox="0 0 32 32" fill="none" xmlns="http://www.w3.org/2000/svg">
<g clip-path="url(#clip0_828_5547)">
<path d="M1.6666 14.56C1.6666 7.46665 7.6266 1.65332 14.6666 1.65332C21.2266 1.65332 26.8666 6.71999 27.5866 13.16C27.6266 13.5467 27.6399 13.7467 27.5199 13.84C27.3866 13.92 27.1866 13.84 26.7866 13.6667C25.7066 13.2 24.5199 12.9467 23.2933 12.9467C22.3066 12.9467 21.3733 13.0933 20.4799 13.4C20.1866 13.4933 20.0399 13.5333 19.9333 13.4933C19.8266 13.44 19.7733 13.28 19.6799 12.9867C18.9866 10.8267 16.9733 9.26665 14.5866 9.26665C11.6399 9.26665 9.23993 11.6533 9.23993 14.6C9.23993 17.28 11.2133 19.5067 13.7999 19.8667C14.1066 19.9067 14.2533 19.9333 14.3199 20.0133C14.3733 20.0933 14.3599 20.24 14.3066 20.5467C14.2399 20.9733 14.1999 21.4 14.1999 21.8533C14.1999 24.4267 15.2933 26.4933 16.6399 28.0667C16.7599 28.2133 16.8933 28.36 17.0399 28.5067C17.2533 28.7333 17.3599 28.84 17.3466 28.9733C17.3199 29.0933 17.1999 29.1733 16.9333 29.3333C16.7066 29.4667 16.4799 29.6 16.2666 29.7467H16.2399H16.2133C15.6799 30.04 15.0799 30.2 14.4799 30.2C13.8666 30.2 13.2666 30.04 12.7466 29.7333L12.7199 29.72L12.6933 29.7067C10.0666 28.08 7.27993 26.0667 5.13326 23.5733C2.97326 21.0667 1.6666 18.1867 1.6666 14.56Z" fill="white"/>
<path fill-rule="evenodd" clip-rule="evenodd" d="M23.3333 14.9999C19.5333 14.9999 16.3333 18.1199 16.3333 21.9466C16.3333 23.9066 17.1599 25.5333 18.2933 26.8533C19.4133 28.1466 20.8533 29.1866 22.1733 30.0133H22.1866H22.1999C22.5333 30.1999 22.9199 30.2933 23.3066 30.2933C23.6933 30.2933 24.0666 30.1866 24.4133 29.9999L24.4266 29.9866L24.4399 29.9733C25.7599 29.1466 27.2133 28.1066 28.3333 26.7999C29.4533 25.4799 30.2933 23.8399 30.2933 21.8799C30.2933 18.0533 27.0799 14.9199 23.2933 14.9199L23.3333 14.9999ZM23.3199 19.3333C21.8533 19.3333 20.6533 20.5199 20.6533 21.9999C20.6533 23.4666 21.8399 24.6666 23.3066 24.6666H23.3199C24.7733 24.6666 25.9733 23.4666 25.9733 21.9999C25.9733 20.5199 24.7733 19.3333 23.3066 19.3333H23.2799H23.3199Z" fill="white"/>
</g>
<defs>
<clipPath id="clip0_828_5547">
<rect width="16" height="16" fill="white" transform="scale(2)"/>
</clipPath>
</defs>
</svg>
