<svg width="16" height="16" viewBox="0 0 16 16" fill="none" xmlns="http://www.w3.org/2000/svg">
<path d="M14.2395 10.6847C13.8094 11.8502 13.159 12.8636 12.3061 13.6966C11.3353 14.6445 10.0641 15.3978 8.5277 15.9352C8.47677 15.9529 8.42469 15.9671 8.37182 15.9778C8.30201 15.9916 8.23095 15.999 8.16051 16H8.14673C8.07164 16 7.9962 15.9924 7.92139 15.9778C7.86851 15.9672 7.81664 15.9527 7.76648 15.9355C6.22826 15.3991 4.95545 14.6461 3.98367 13.6981C3.13035 12.8652 2.4801 11.8524 2.05067 10.6869C1.26976 8.56774 1.3142 6.23327 1.34998 4.3573L1.3506 4.32849C1.35779 4.17358 1.36242 4.01086 1.36498 3.83118C1.37804 2.94899 2.07945 2.21911 2.96179 2.16993C4.80139 2.06724 6.22448 1.46727 7.44042 0.282113L7.45104 0.272332C7.65295 0.0871446 7.90735 -0.00366789 8.16051 0.000113364C8.40467 0.00326961 8.64782 0.0939884 8.84251 0.272301L8.85289 0.282082C10.0691 1.46727 11.4922 2.06724 13.3318 2.16989C14.2141 2.21911 14.9155 2.94896 14.9286 3.83114C14.9311 4.01208 14.9358 4.17455 14.943 4.32849L14.9434 4.34068C14.979 6.22021 15.0232 8.5593 14.2395 10.6847Z" fill="#32AA70"/>
<path d="M12.1334 7.99977C12.1334 10.1937 10.352 11.9796 8.15989 11.9874H8.14586C5.94727 11.9874 4.1582 10.1985 4.1582 7.99977C4.1582 5.80118 5.94727 4.01221 8.14586 4.01221H8.15992C10.352 4.02002 12.1334 5.80593 12.1334 7.99977Z" fill="#FBF9F7"/>
<path d="M9.95673 7.42593L8.16082 9.22209L7.77276 9.61015C7.72919 9.6538 7.67744 9.68841 7.62046 9.712C7.56347 9.73559 7.5024 9.74768 7.44073 9.74759C7.37904 9.74768 7.31794 9.73558 7.26094 9.712C7.20394 9.68841 7.15216 9.6538 7.10857 9.61015L6.27423 8.77543C6.09088 8.59206 6.09088 8.29506 6.27423 8.11159C6.45735 7.92825 6.7547 7.92825 6.93804 8.11159L7.44073 8.61428L9.29291 6.76209C9.47626 6.57865 9.77363 6.57865 9.95673 6.76209C10.1401 6.94546 10.1401 7.24284 9.95673 7.42593Z" fill="#27AE60"/>
</svg>
