<svg width="27" height="28" viewBox="0 0 27 28" fill="none" xmlns="http://www.w3.org/2000/svg">
<g clip-path="url(#clip0_7214_30228)">
<path d="M24.034 14.6211C23.5735 18.1633 19.5663 20.6649 14.5754 20.8453C9.44346 18.5387 8.83804 7.94121 16.0885 6.07135C21.0815 7.44849 24.5071 10.9822 24.034 14.6211Z" fill="#F3F5FC"/>
<path d="M14.5754 20.8454C13.6903 20.8773 12.7738 20.8361 11.841 20.7149C10.7712 20.5758 9.74949 20.3402 8.79428 20.0241C8.558 19.9462 8.303 19.9486 8.06947 20.0331L4.60688 21.2824C4.04286 21.4857 3.4882 20.9573 3.66449 20.3842L4.27513 18.3993C4.33604 18.2007 4.33994 17.9891 4.2864 17.7884C4.23285 17.5877 4.124 17.4061 3.97226 17.2643C2.26732 15.6694 1.35178 13.7033 1.61146 11.7059C2.15372 7.535 7.61277 4.80677 13.8045 5.61176C14.5947 5.71449 15.3585 5.86981 16.0886 6.07136C9.96423 10.1974 11.3115 17.6073 14.5754 20.8454Z" fill="#D7DDF5"/>
<path d="M16.8085 11.3998C16.7932 11.5189 16.7545 11.6338 16.6946 11.7378C16.6346 11.8419 16.5547 11.933 16.4594 12.006C16.3644 12.0794 16.2557 12.1334 16.1398 12.1647C16.0238 12.196 15.9028 12.2041 15.7837 12.1884L12.0581 11.7041C11.6833 11.1453 11.9942 10.108 12.6741 9.94003L16.0195 10.375C16.5203 10.44 16.8736 10.8989 16.8085 11.3998Z" fill="#77899B"/>
<path d="M12.674 9.93998C12.4071 10.5047 12.2007 11.096 12.058 11.704L10.2096 11.4637C9.70871 11.3986 9.35542 10.9397 9.42047 10.4393C9.43577 10.3202 9.47449 10.2052 9.53442 10.1011C9.59434 9.99697 9.67428 9.90574 9.76963 9.83267C9.86469 9.75924 9.97333 9.70532 10.0893 9.67402C10.2053 9.64272 10.3263 9.63465 10.4454 9.65028L12.674 9.93998Z" fill="#6B7D8E"/>
<path d="M18.0313 16.1226C18.016 16.2417 17.9773 16.3566 17.9174 16.4606C17.8575 16.5647 17.7775 16.6558 17.6822 16.7288C17.5871 16.8022 17.4785 16.8561 17.3625 16.8874C17.2466 16.9187 17.1255 16.9268 17.0064 16.9112L12.1009 16.2734C11.2132 15.7281 11.2273 14.7491 11.8253 14.3935L17.2422 15.0977C17.7431 15.1628 18.0964 15.6217 18.0313 16.1226Z" fill="#77899B"/>
<path d="M12.1009 16.2734L7.81985 15.7168C7.31894 15.6517 6.96617 15.1929 7.03122 14.6925C7.04653 14.5734 7.08521 14.4585 7.14504 14.3544C7.20487 14.2503 7.28467 14.159 7.37987 14.0858C7.47492 14.0123 7.58356 13.9584 7.69953 13.9271C7.8155 13.8958 7.93652 13.8877 8.05562 13.9034L11.8253 14.3934C11.8589 15.0338 11.9537 15.6646 12.1009 16.2734Z" fill="#6B7D8E"/>
</g>
<defs>
<clipPath id="clip0_7214_30228">
<rect width="24" height="24" fill="white" transform="translate(3.09375 0.304688) rotate(7.40745)"/>
</clipPath>
</defs>
</svg>
