<svg width="12" height="12" viewBox="0 0 12 12" fill="none" xmlns="http://www.w3.org/2000/svg">
<path d="M5.86913 11.7385C4.53736 10.9159 3.29935 9.94598 2.17776 8.84643C1.38595 8.06136 0.78124 7.10277 0.409833 6.0439C-0.253785 3.97888 0.518708 1.61886 2.67547 0.918231C3.81385 0.560726 5.05193 0.78019 6.00393 1.50824C6.95628 0.781004 8.19396 0.561612 9.33239 0.918231C11.4892 1.61886 12.2668 3.97888 11.6032 6.0439C11.2348 7.10177 10.6337 8.06028 9.84566 8.84643C8.72304 9.94478 7.48517 10.9146 6.15428 11.7385L6.00912 11.8333L5.86913 11.7385Z" fill="#FFBF2E"/>
<path opacity="0.5" d="M9.6341 4.83288C9.51692 4.82534 9.4078 4.76677 9.33229 4.67091C9.25679 4.57505 9.22154 4.45032 9.23479 4.32593C9.24747 3.91622 9.01435 3.54329 8.65485 3.3982C8.42688 3.33597 8.28883 3.08909 8.34586 2.84562C8.39997 2.60606 8.62429 2.45711 8.84975 2.51103C8.87822 2.51575 8.90562 2.52606 8.93056 2.54144C9.65139 2.81884 10.1181 3.5654 10.0809 4.38169C10.0798 4.50541 10.0315 4.62332 9.94728 4.70839C9.86303 4.79346 9.75 4.83839 9.6341 4.83288Z" fill="white"/>
</svg>
