<svg width="48" height="48" viewBox="0 0 48 48" fill="none" xmlns="http://www.w3.org/2000/svg">
<g clip-path="url(#clip0_1236_17230)">
<path d="M0.00610352 9C0.00610352 7.4087 0.638245 5.88258 1.76346 4.75736C2.88868 3.63214 4.4148 3 6.0061 3H42.0061C43.5974 3 45.1235 3.63214 46.2487 4.75736C47.374 5.88258 48.0061 7.4087 48.0061 9V39C48.0061 40.5913 47.374 42.1174 46.2487 43.2426C45.1235 44.3679 43.5974 45 42.0061 45H6.0061C4.4148 45 2.88868 44.3679 1.76346 43.2426C0.638245 42.1174 0.00610352 40.5913 0.00610352 39V9ZM3.0061 36V39C3.0061 39.7957 3.32217 40.5587 3.88478 41.1213C4.44739 41.6839 5.21045 42 6.0061 42H42.0061C42.8018 42 43.5648 41.6839 44.1274 41.1213C44.69 40.5587 45.0061 39.7957 45.0061 39V28.5L33.6751 22.659C33.3938 22.5181 33.0752 22.4692 32.7646 22.5193C32.4539 22.5693 32.1669 22.7158 31.9441 22.938L20.8141 34.068L12.8341 28.752C12.546 28.5602 12.2004 28.4739 11.8559 28.5078C11.5114 28.5417 11.1893 28.6937 10.9441 28.938L3.0061 36ZM18.0061 16.5C18.0061 15.3065 17.532 14.1619 16.6881 13.318C15.8442 12.4741 14.6996 12 13.5061 12C12.3126 12 11.168 12.4741 10.3241 13.318C9.48021 14.1619 9.0061 15.3065 9.0061 16.5C9.0061 17.6935 9.48021 18.8381 10.3241 19.682C11.168 20.5259 12.3126 21 13.5061 21C14.6996 21 15.8442 20.5259 16.6881 19.682C17.532 18.8381 18.0061 17.6935 18.0061 16.5Z" fill="black"/>
</g>
<defs>
<clipPath id="clip0_1236_17230">
<rect width="24" height="24" fill="white" transform="scale(2)"/>
</clipPath>
</defs>
</svg>
