<svg width="24" height="24" viewBox="0 0 24 24" fill="none" xmlns="http://www.w3.org/2000/svg">
<rect width="24" height="24" rx="8" fill="#33A36D"/>
<g clip-path="url(#clip0_2817_333)">
<path d="M19.4701 12.388C19.2441 12.3378 19.0097 12.3401 18.7847 12.3946C18.5597 12.4491 18.3503 12.5544 18.1723 12.7025L14.9703 15.3096C14.75 15.4871 14.4757 15.5839 14.1928 15.5841H11.6228C11.5684 15.6004 11.5103 15.599 11.4568 15.58C11.4033 15.561 11.3573 15.5253 11.3255 15.4783C11.295 15.4057 11.2851 15.3261 11.2971 15.2482C11.3091 15.1704 11.3423 15.0974 11.3932 15.0373C11.4442 14.9772 11.5107 14.9324 11.5855 14.9078C11.6604 14.8832 11.7405 14.8798 11.8172 14.898C12.7087 15.0335 14.1691 15.0695 14.6416 14.3263C15.1189 13.5311 14.3449 12.36 13.2324 12.6027C12.4293 12.7505 11.6035 12.7192 10.8138 12.5112C10.1696 12.1032 9.39796 11.9459 8.6454 12.0692C7.89285 12.1925 7.21176 12.5878 6.7314 13.1801L4.16995 15.6898C4.06166 15.7975 4.00054 15.9438 4 16.0966C3.99947 16.2493 4.05956 16.396 4.16709 16.5045L6.86575 19.2034C6.97289 19.3103 7.11773 19.3708 7.26905 19.3718C7.42037 19.3729 7.56605 19.3145 7.67469 19.2091L8.42932 18.4659C11.5885 18.4402 13.5497 18.4345 14.2157 18.4659C14.5665 18.4896 14.9183 18.4361 15.2462 18.3092C15.5741 18.1823 15.8702 17.985 16.1137 17.7313L19.8648 13.377C19.9328 13.2927 19.9771 13.1917 19.9932 13.0846C20.0093 12.9774 19.9967 12.8679 19.9565 12.7673C19.9164 12.6667 19.8502 12.5785 19.7648 12.5119C19.6793 12.4452 19.5777 12.4025 19.4704 12.388H19.4701Z" fill="white"/>
<path d="M19.9584 6.13322C19.9305 5.9331 19.889 5.71904 19.8334 5.49127C19.7778 5.26357 19.6954 5.0703 19.586 4.91152C19.4767 4.75281 19.3542 4.6734 19.2188 4.6734C19.2032 4.6061 19.1277 4.61386 18.9922 4.69671C18.8568 4.77955 18.7934 4.8072 18.8022 4.77955C18.8108 4.75192 18.7638 4.7864 18.6614 4.88304C18.559 4.97967 18.5079 5.02797 18.5079 5.02797L18.3541 5.18063C18.2188 5.30834 18.0218 5.40579 17.7631 5.47307C17.5044 5.54047 17.2206 5.58178 16.9115 5.59733C16.6025 5.61291 16.2926 5.62328 15.9818 5.62841C15.6697 5.63363 15.3579 5.64916 15.0469 5.67496C14.7344 5.70087 14.4826 5.74486 14.2917 5.80697C13.9132 5.93118 13.559 6.096 13.2292 6.30135C12.8993 6.50667 12.6033 6.74652 12.3411 7.02088C12.079 7.29521 11.8723 7.61356 11.7213 7.97591C11.5704 8.33815 11.4948 8.71782 11.4948 9.11465C11.4948 9.29757 11.5104 9.47698 11.5416 9.65301C11.5486 9.68749 11.5763 9.76344 11.625 9.88076C11.6736 9.99815 11.6979 10.0637 11.6979 10.0776C11.6979 10.143 11.6441 10.226 11.5364 10.3259C11.4288 10.426 11.3108 10.5227 11.1823 10.6158C11.0538 10.7089 10.9358 10.822 10.8281 10.9548C10.7205 11.0877 10.6667 11.2146 10.6667 11.3353C10.6667 11.3595 10.6692 11.3827 10.6745 11.4052C10.6797 11.4277 10.685 11.444 10.6902 11.4543C10.6953 11.4647 10.7049 11.4819 10.7188 11.506C10.7297 11.5247 10.7401 11.5437 10.7501 11.563C10.8091 11.663 10.856 11.7355 10.8907 11.7804C10.9254 11.8252 10.9792 11.8665 11.0521 11.9046C11.125 11.9425 11.2136 11.9615 11.3177 11.9615C11.4185 11.9615 11.5226 11.9063 11.6303 11.7959C11.7379 11.6856 11.829 11.5646 11.9037 11.4336C11.9783 11.3025 12.0565 11.1817 12.1381 11.0713C12.2196 10.9609 12.2882 10.9057 12.3438 10.9057C12.4236 10.9057 12.5903 10.9696 12.8438 11.0973C13.0972 11.225 13.25 11.2974 13.3021 11.3147C13.7813 11.4769 14.2778 11.558 14.7917 11.558C15.5695 11.558 16.3299 11.3715 17.073 10.9989C17.8335 10.6227 18.4541 10.1604 18.935 9.61165C19.416 9.06287 19.7362 8.40217 19.896 7.62906C19.9653 7.29088 20 6.9579 20 6.63005C20 6.49891 19.9862 6.33327 19.9584 6.13322ZM17.2343 7.88787C17.1683 7.95345 17.0901 7.98624 16.9998 7.98624C16.3679 7.98624 15.8237 8.07597 15.367 8.25537C14.9105 8.43478 14.4444 8.73848 13.9686 9.16636C13.8993 9.23193 13.7829 9.34577 13.6197 9.50799C13.4565 9.67021 13.328 9.7927 13.2343 9.87549C13.1614 9.94106 13.0833 9.97388 12.9999 9.97388C12.9096 9.97388 12.8315 9.94106 12.7655 9.87549C12.6995 9.81009 12.6665 9.73229 12.6665 9.64257C12.6665 9.55973 12.6995 9.48222 12.7655 9.40963C13.1891 8.94375 13.5979 8.56501 13.9921 8.27348C14.3862 7.98193 14.8367 7.75073 15.3437 7.57987C15.8506 7.40903 16.4026 7.32364 16.9998 7.32364C17.0901 7.32364 17.1683 7.35643 17.2343 7.42198C17.3002 7.48763 17.3333 7.56526 17.3333 7.65495C17.3333 7.74466 17.3004 7.82231 17.2343 7.88787Z" fill="white"/>
</g>
<defs>
<clipPath id="clip0_2817_333">
<rect width="16" height="16" fill="white" transform="translate(4 4)"/>
</clipPath>
</defs>
</svg>
