<svg width="32" height="32" viewBox="0 0 32 32" fill="none" xmlns="http://www.w3.org/2000/svg">
<path fill-rule="evenodd" clip-rule="evenodd" d="M10.2216 29.3334H21.7771C26.2975 29.3334 29.3333 26.1626 29.3333 21.4445V10.5557C29.3333 5.83757 26.2975 2.66675 21.7784 2.66675H10.2216C5.70253 2.66675 2.66667 5.83757 2.66667 10.5557V21.4445C2.66667 26.1626 5.70253 29.3334 10.2216 29.3334ZM11.3318 14.6667C9.49362 14.6667 8 13.1711 8 11.3334C8 9.49572 9.49362 8.00008 11.3318 8.00008C13.1687 8.00008 14.6636 9.49572 14.6636 11.3334C14.6636 13.1711 13.1687 14.6667 11.3318 14.6667ZM26.4278 19.912C26.8742 21.0568 26.6423 22.4328 26.165 23.5666C25.5992 24.9151 24.5158 25.9361 23.1509 26.3819C22.5449 26.5801 21.9094 26.6667 21.2752 26.6667H10.0382C8.91999 26.6667 7.9305 26.3984 7.11934 25.8989C6.61119 25.5852 6.52136 24.8615 6.89811 24.3922C7.52827 23.6079 8.15039 22.8209 8.77787 22.0269C9.97384 20.5078 10.7796 20.0675 11.6753 20.4542C12.0386 20.6138 12.4033 20.8532 12.7787 21.1064C13.7789 21.7861 15.1693 22.7204 17.0008 21.7063C18.2541 21.0043 18.9811 19.8003 19.6141 18.7517L19.6247 18.7342C19.6695 18.6606 19.714 18.5871 19.7583 18.5137L19.7584 18.5137C19.9711 18.1617 20.181 17.8144 20.4184 17.4944C20.7161 17.094 21.8195 15.8418 23.2488 16.7335C24.1592 17.2949 24.9248 18.0544 25.744 18.8676C26.0564 19.1786 26.2789 19.5322 26.4278 19.912Z" fill="#858585"/>
</svg>
