<svg width="48" height="48" viewBox="0 0 48 48" fill="none" xmlns="http://www.w3.org/2000/svg">
<path fill-rule="evenodd" clip-rule="evenodd" d="M24 4C12.954 4 4 12.954 4 24C4 35.046 12.954 44 24 44C35.046 44 44 35.046 44 24C44 12.954 35.046 4 24 4ZM24 18C23.4696 18 22.9609 18.2107 22.5858 18.5858C22.2107 18.9609 22 19.4696 22 20C22 20.5304 21.7893 21.0391 21.4142 21.4142C21.0391 21.7893 20.5304 22 20 22C19.4696 22 18.9609 21.7893 18.5858 21.4142C18.2107 21.0391 18 20.5304 18 20C18.0004 18.941 18.2811 17.9011 18.8135 16.9857C19.3459 16.0703 20.1112 15.3122 21.0314 14.7882C21.9517 14.2643 22.9942 13.9932 24.0531 14.0026C25.112 14.012 26.1496 14.3015 27.0604 14.8416C27.9713 15.3817 28.7229 16.1533 29.2391 17.078C29.7552 18.0026 30.0174 19.0474 29.9991 20.1062C29.9808 21.165 29.6826 22.2001 29.1347 23.1064C28.5869 24.0126 27.809 24.7577 26.88 25.266C26.5935 25.4127 26.3344 25.6075 26.114 25.842C26.0666 25.8918 26.0281 25.9493 26 26.012V27C26 27.5304 25.7893 28.0391 25.4142 28.4142C25.0391 28.7893 24.5304 29 24 29C23.4696 29 22.9609 28.7893 22.5858 28.4142C22.2107 28.0391 22 27.5304 22 27V26C22 24.84 22.506 23.906 23.078 23.24C23.64 22.58 24.338 22.096 24.958 21.756C25.3483 21.5432 25.6566 21.2065 25.8341 20.799C26.0117 20.3915 26.0485 19.9364 25.9386 19.5057C25.8288 19.075 25.5786 18.6931 25.2275 18.4205C24.8764 18.1478 24.4445 17.9998 24 18ZM25.998 26.022V26.014V26.024V26.022ZM24 30C23.4696 30 22.9609 30.2107 22.5858 30.5858C22.2107 30.9609 22 31.4696 22 32C22 32.5304 22.2107 33.0391 22.5858 33.4142C22.9609 33.7893 23.4696 34 24 34H24.02C24.5504 34 25.0591 33.7893 25.4342 33.4142C25.8093 33.0391 26.02 32.5304 26.02 32C26.02 31.4696 25.8093 30.9609 25.4342 30.5858C25.0591 30.2107 24.5504 30 24.02 30H24Z" fill="black"/>
</svg>
