<svg width="48" height="48" viewBox="0 0 48 48" fill="none" xmlns="http://www.w3.org/2000/svg">
<g clip-path="url(#clip0_1866_29601)">
<rect width="48" height="48" rx="24" fill="url(#paint0_linear_1866_29601)"/>
<circle cx="24" cy="80" r="54" fill="white" fill-opacity="0.2"/>
<g clip-path="url(#clip1_1866_29601)">
<path d="M35.4872 16.8347C35.0358 14.7966 33.06 12.9296 31.0163 12.533C29.7708 12.2841 26.2969 11.9766 24 12.0005C21.7031 11.9752 18.2297 12.2817 16.9842 12.5316C14.9405 12.9296 12.9647 14.7966 12.5156 16.8347C12.2564 18.0722 12.0037 19.756 12 22.0542C12.0037 24.3511 12.2564 26.0353 12.5156 27.2733C12.967 29.3114 14.9428 31.1785 16.9866 31.575C17.6588 31.7091 18.9811 31.861 20.4164 31.9678C20.5789 32.2232 20.7555 32.495 20.9461 32.7835C21.7078 33.9375 22.2905 34.7414 22.7325 35.3016C23.4675 36.2335 24.5372 36.2335 25.2722 35.3016C25.7142 34.7414 26.2969 33.9375 27.0586 32.7835C27.2492 32.4953 27.4258 32.2235 27.5883 31.9678C29.0241 31.861 30.3459 31.7091 31.0186 31.575C33.0623 31.1785 35.0381 29.3114 35.4895 27.2733C35.7464 26.0353 35.9986 24.3521 36.0028 22.0542C35.9963 19.7555 35.7441 18.0727 35.4872 16.8347Z" fill="#F9973E"/>
<path d="M24 12.0005C21.7031 11.9752 18.2297 12.2817 16.9842 12.5316C14.9405 12.9296 12.9647 14.7966 12.5156 16.8347C12.2564 18.0722 12.0037 19.756 12 22.0542C12.0037 24.3511 12.2564 26.0353 12.5156 27.2733C12.7814 28.4728 13.5755 29.6133 14.6006 30.4294C15.6006 30.6688 16.6253 30.7895 17.6536 30.7889C24.855 30.7889 30.6928 24.9511 30.6928 17.7502C30.6945 15.8749 30.2899 14.0214 29.5069 12.3174C27.9052 12.1374 25.6495 11.9836 24 12.0005Z" fill="#FCA84C"/>
<path d="M25.3246 29.0229C25.2934 29.1689 25.2207 29.3028 25.1151 29.4084C25.0096 29.5139 24.8757 29.5867 24.7297 29.6178C24.2455 29.6921 23.7528 29.6921 23.2686 29.6178C23.1226 29.5867 22.9887 29.514 22.8831 29.4084C22.7776 29.3029 22.7048 29.169 22.6738 29.0229C22.5988 28.5386 22.5988 28.0457 22.6738 27.5614C22.7048 27.4153 22.7776 27.2814 22.8831 27.1759C22.9887 27.0703 23.1226 26.9976 23.2686 26.9665C23.7528 26.8921 24.2455 26.8921 24.7297 26.9665C24.876 26.9978 25.01 27.0708 25.1156 27.1767C25.2212 27.2826 25.2938 27.4169 25.3246 27.5632C25.3996 28.0475 25.3996 28.5405 25.3246 29.0248V29.0229ZM28.1783 21.3453C27.8164 21.8571 27.2741 22.3245 26.4716 22.8153C25.4558 23.4415 25.2932 23.6989 25.2932 24.2028V24.402C25.2964 24.5742 25.2653 24.7454 25.2017 24.9055C25.138 25.0656 25.0431 25.2114 24.9224 25.3344C24.8018 25.4573 24.6578 25.555 24.499 25.6217C24.3401 25.6884 24.1696 25.7227 23.9973 25.7227C23.825 25.7227 23.6545 25.6884 23.4956 25.6217C23.3368 25.555 23.1928 25.4573 23.0721 25.3344C22.9515 25.2114 22.8566 25.0656 22.7929 24.9055C22.7293 24.7454 22.6982 24.5742 22.7014 24.402V23.9403C22.7014 23.3459 22.85 22.8415 23.1557 22.3986C23.4519 21.9692 23.8963 21.5876 24.5544 21.1962C25.768 20.4823 25.9902 20.0815 25.9902 19.5495C25.9902 18.8811 25.4207 18.4489 24.5371 18.4489C23.5719 18.4489 22.9433 18.8876 22.6691 19.7534C22.5802 20.0319 22.4047 20.2748 22.1681 20.4465C21.9314 20.6181 21.6461 20.7097 21.3538 20.7078C21.32 20.7078 21.2858 20.7078 21.2525 20.704C21.0425 20.6892 20.8386 20.6266 20.6565 20.521C20.4744 20.4154 20.3188 20.2696 20.2016 20.0946C20.0845 19.9228 20.0083 19.7265 19.9787 19.5207C19.9491 19.315 19.967 19.1051 20.031 18.9073C20.3122 18.0058 20.889 17.2254 21.6683 16.692C22.4539 16.1567 23.4463 15.874 24.5371 15.874C25.67 15.874 26.7214 16.2354 27.4977 16.8917C28.2969 17.5667 28.7366 18.4981 28.7366 19.5139C28.7389 20.2123 28.5557 20.8132 28.1783 21.3453Z" fill="white"/>
</g>
</g>
<defs>
<linearGradient id="paint0_linear_1866_29601" x1="24" y1="0" x2="24" y2="48" gradientUnits="userSpaceOnUse">
<stop stop-color="#FDC07D"/>
<stop offset="1" stop-color="#FCA84C"/>
</linearGradient>
<clipPath id="clip0_1866_29601">
<rect width="48" height="48" rx="24" fill="white"/>
</clipPath>
<clipPath id="clip1_1866_29601">
<rect width="24" height="24" fill="white" transform="translate(12 12)"/>
</clipPath>
</defs>
</svg>
