<svg width="24" height="24" viewBox="0 0 24 24" fill="none" xmlns="http://www.w3.org/2000/svg">
<path fill-rule="evenodd" clip-rule="evenodd" d="M17.66 5.25001L15.982 3.52301C15.694 3.22601 15.701 2.75 15.997 2.462C16.294 2.174 16.77 2.181 17.058 2.47701C17.058 2.47701 18.434 3.89401 19.295 4.78101C19.955 5.46001 19.955 6.54001 19.295 7.21901C18.434 8.10601 17.058 9.52301 17.058 9.52301C16.77 9.81901 16.294 9.82601 15.997 9.53801C15.701 9.25001 15.694 8.77401 15.982 8.47701L17.66 6.75001H8.01999C7.15799 6.75001 6.33099 7.09201 5.72199 7.70201C5.11199 8.31101 4.76999 9.13801 4.76999 10V12C4.76999 12.414 4.43399 12.75 4.01999 12.75C3.60599 12.75 3.26999 12.414 3.26999 12C3.26999 12 3.26999 11.102 3.26999 10C3.26999 8.74001 3.77099 7.53201 4.66099 6.64101C5.55199 5.75001 6.75999 5.25001 8.01999 5.25001H17.66Z" fill="#9E9E9E"/>
<path fill-rule="evenodd" clip-rule="evenodd" d="M5.38 17.25H15.02C15.882 17.25 16.709 16.908 17.318 16.298C17.928 15.689 18.27 14.862 18.27 14V12C18.27 11.586 18.606 11.25 19.02 11.25C19.434 11.25 19.77 11.586 19.77 12V14C19.77 15.26 19.27 16.468 18.379 17.359C17.488 18.25 16.28 18.75 15.02 18.75H5.38L7.058 20.477C7.346 20.774 7.34 21.25 7.043 21.538C6.746 21.826 6.271 21.819 5.982 21.523C5.982 21.523 4.606 20.106 3.745 19.219C3.085 18.54 3.085 17.46 3.745 16.781C4.606 15.894 5.982 14.477 5.982 14.477C6.271 14.181 6.746 14.174 7.043 14.462C7.34 14.75 7.346 15.226 7.058 15.523L5.38 17.25Z" fill="#9E9E9E"/>
</svg>
