<svg width="12" height="12" viewBox="0 0 12 12" fill="none" xmlns="http://www.w3.org/2000/svg">
<g clip-path="url(#clip0_7214_30346)">
<path d="M5.99805 0.625C6.5227 0.625 6.93595 1.02127 7.19975 1.55596L8.0808 3.33258C8.1075 3.38757 8.17085 3.46499 8.26605 3.53582C8.36115 3.60658 8.4543 3.64561 8.51555 3.6559L10.1103 3.92306C10.6864 4.01987 11.1693 4.30225 11.326 4.79395C11.4826 5.28525 11.2532 5.7958 10.8389 6.2108L10.8385 6.21125L9.59955 7.46045C9.55045 7.50995 9.49545 7.6032 9.46095 7.7247C9.4267 7.8454 9.42365 7.95535 9.4392 8.02635L9.4394 8.02735L9.79385 9.5727C9.9409 10.2158 9.89215 10.8537 9.43855 11.1871C8.98335 11.5217 8.36135 11.3734 7.79625 11.0368L6.3013 10.1445C6.2385 10.107 6.1307 10.0766 6.00055 10.0766C5.87135 10.0766 5.7613 10.1066 5.6944 10.1455L5.69345 10.1461L4.20144 11.0366C3.63702 11.3744 3.01577 11.52 2.56055 11.1851C2.10724 10.8516 2.05607 10.215 2.20355 9.57235L2.55795 8.02735L2.55816 8.02635C2.5737 7.95535 2.57066 7.8454 2.5364 7.7247C2.5019 7.6032 2.44689 7.50995 2.39779 7.46045L1.15792 6.2103C0.746324 5.7953 0.517604 5.2852 0.672974 4.79462C0.828794 4.30262 1.31071 4.0199 1.88716 3.92303L3.48066 3.6561L3.48116 3.65601C3.53958 3.64587 3.63135 3.60728 3.72624 3.53634C3.8213 3.46527 3.88479 3.38768 3.91156 3.33258L3.91291 3.32983L4.79281 1.55549L4.79316 1.55479C5.0595 1.02054 5.474 0.625 5.99805 0.625Z" fill="url(#paint0_linear_7214_30346)"/>
</g>
<defs>
<linearGradient id="paint0_linear_7214_30346" x1="5.9998" y1="11.3757" x2="5.9998" y2="-14.5" gradientUnits="userSpaceOnUse">
<stop stop-color="#FFDE00"/>
<stop offset="1" stop-color="#FF5900"/>
</linearGradient>
<clipPath id="clip0_7214_30346">
<rect width="12" height="12" fill="white"/>
</clipPath>
</defs>
</svg>
