<svg width="40" height="40" viewBox="0 0 40 40" fill="none" xmlns="http://www.w3.org/2000/svg">
    <defs>
        <linearGradient id="paint0_linear_731_5594" x1="33.3505" y1="30.1442" x2="7.1084"
            y2="28.9602" gradientUnits="userSpaceOnUse">
            <stop stop-color="#28D581" />
            <stop offset="1" stop-color="#33A36D" />
        </linearGradient>
    </defs>
    <rect width="40" height="40" rx="8" fill="#E4FAED" />
    <path
        d="M20.7811 29.233V24.1903C20.9007 24.1903 21.0124 24.1956 21.1228 24.1903C21.9282 24.1458 22.7487 24.1856 23.5359 24.0382C25.9079 23.5947 27.7984 21.4222 28.0369 18.951C28.0754 18.5505 28.0794 18.1434 28.08 17.7396C28.08 17.4138 27.8723 17.1864 27.5633 17.187C26.6572 17.1911 25.7459 17.148 24.847 17.2382C23.0408 17.4192 21.646 18.3547 20.6381 19.9033C20.5936 19.9706 20.5505 20.0419 20.4878 20.1402C20.448 20.052 20.4166 19.9901 20.3924 19.9255C19.5249 17.6238 17.4789 16.1513 15.0827 16.1123C14.389 16.1015 13.6946 16.1076 13.0008 16.1123C12.5918 16.1123 12.4129 16.3142 12.4004 16.7355C12.341 18.3668 12.7623 19.8313 13.8187 21.0696C14.9142 22.3516 16.3011 23.0381 17.9623 23.0966C18.5319 23.1162 19.1029 23.0966 19.6947 23.0966V29.2445C19.3237 29.0473 18.9677 28.8649 18.6182 28.6711C16.484 27.494 14.4406 26.1716 12.6114 24.5247C11.399 23.4338 10.325 22.2251 9.54112 20.76C7.46636 16.8929 9.71031 12.3872 13.5084 11.4652C15.9378 10.875 18.0237 11.5763 19.7255 13.46C20.1174 13.8954 20.3709 13.8941 20.7707 13.46C22.5658 11.4901 24.7556 10.7835 27.268 11.5574C29.7563 12.3253 31.2202 14.1337 31.6703 16.7765C31.9316 18.3157 31.5397 19.7276 30.791 21.0514C29.9509 22.532 28.8051 23.736 27.5398 24.8269C25.5199 26.5693 23.2792 27.9584 20.9333 29.1765C20.8837 29.1983 20.8329 29.2172 20.7811 29.233Z"
        fill="url(#paint0_linear_731_5594)" />
</svg>
