<svg width="24" height="24" viewBox="0 0 24 24" fill="none" xmlns="http://www.w3.org/2000/svg">
<path d="M2 10C1.73478 10 1.48043 9.89464 1.29289 9.70711C1.10536 9.51957 1 9.26522 1 9V5C1 3.93913 1.42143 2.92172 2.17157 2.17157C2.92172 1.42143 3.93913 1 5 1H9C9.26522 1 9.51957 1.10536 9.70711 1.29289C9.89464 1.48043 10 1.73478 10 2C10 2.26522 9.89464 2.51957 9.70711 2.70711C9.51957 2.89464 9.26522 3 9 3H5C4.46957 3 3.96086 3.21071 3.58579 3.58579C3.21071 3.96086 3 4.46957 3 5V9C3 9.26522 2.89464 9.51957 2.70711 9.70711C2.51957 9.89464 2.26522 10 2 10Z" fill="#30B675"/>
<path d="M22 10C21.7348 10 21.4804 9.89464 21.2929 9.70711C21.1054 9.51957 21 9.26522 21 9V5C21 4.46957 20.7893 3.96086 20.4142 3.58579C20.0391 3.21071 19.5304 3 19 3H15C14.7348 3 14.4804 2.89464 14.2929 2.70711C14.1054 2.51957 14 2.26522 14 2C14 1.73478 14.1054 1.48043 14.2929 1.29289C14.4804 1.10536 14.7348 1 15 1H19C20.0609 1 21.0783 1.42143 21.8284 2.17157C22.5786 2.92172 23 3.93913 23 5V9C23 9.26522 22.8946 9.51957 22.7071 9.70711C22.5196 9.89464 22.2652 10 22 10Z" fill="#30B675"/>
<path d="M5 23C3.93913 23 2.92172 22.5786 2.17157 21.8284C1.42143 21.0783 1 20.0609 1 19V15C1 14.7348 1.10536 14.4804 1.29289 14.2929C1.48043 14.1054 1.73478 14 2 14C2.26522 14 2.51957 14.1054 2.70711 14.2929C2.89464 14.4804 3 14.7348 3 15V19C3 19.5304 3.21071 20.0391 3.58579 20.4142C3.96086 20.7893 4.46957 21 5 21H9C9.26522 21 9.51957 21.1054 9.70711 21.2929C9.89464 21.4804 10 21.7348 10 22C10 22.2652 9.89464 22.5196 9.70711 22.7071C9.51957 22.8946 9.26522 23 9 23H5Z" fill="#30B675"/>
<path d="M15 23C14.7348 23 14.4804 22.8946 14.2929 22.7071C14.1054 22.5196 14 22.2652 14 22C14 21.7348 14.1054 21.4804 14.2929 21.2929C14.4804 21.1054 14.7348 21 15 21H19C19.5304 21 20.0391 20.7893 20.4142 20.4142C20.7893 20.0391 21 19.5304 21 19V15C21 14.7348 21.1054 14.4804 21.2929 14.2929C21.4804 14.1054 21.7348 14 22 14C22.2652 14 22.5196 14.1054 22.7071 14.2929C22.8946 14.4804 23 14.7348 23 15V19C23 20.0609 22.5786 21.0783 21.8284 21.8284C21.0783 22.5786 20.0609 23 19 23H15Z" fill="#30B675"/>
<g clip-path="url(#clip0_2747_37912)">
<path d="M5.20963 6.28177C5.16089 5.97546 5.39193 5.69573 5.70196 5.68574C6.77074 5.65131 9.13294 5.74742 10.7563 7.08826C11.3769 7.6009 11.6474 8.19416 11.7459 8.72857C12.0281 10.2594 10.8963 11.6302 9.33927 11.6422C8.79586 11.6464 8.16219 11.4928 7.54155 10.9802C5.91823 9.63935 5.3777 7.33781 5.20963 6.28177Z" fill="#30B675"/>
<path d="M11.7459 8.72857C11.6474 8.19414 11.3769 7.6009 10.7563 7.08826C9.13294 5.74742 6.77074 5.65131 5.70196 5.68574C5.39195 5.69573 5.16089 5.97546 5.20963 6.28177C5.22065 6.35107 5.23329 6.4257 5.24773 6.50509C6.40511 6.4971 8.53936 6.67219 10.0411 7.91268C10.6618 8.42531 10.9323 9.01858 11.0308 9.55298C11.1386 10.1381 11.0399 10.6998 10.7899 11.1712C11.5207 10.639 11.9281 9.71717 11.7459 8.72857Z" fill="#30B675"/>
<path d="M18.7838 8.03649C18.8455 7.78861 18.6758 7.54271 18.4221 7.51254C17.5476 7.40852 15.6026 7.31992 14.1756 8.30502C13.63 8.68163 13.366 9.14924 13.2473 9.58076C12.9073 10.8168 13.7387 12.0218 15.0154 12.142C15.461 12.184 15.9918 12.1029 16.5374 11.7263C17.9644 10.7412 18.5711 8.89109 18.7838 8.03649Z" fill="#30B675"/>
<path d="M18.4224 7.51262C18.3015 7.49823 18.16 7.48414 18.0023 7.47314C17.7548 8.38459 17.1379 10.0667 15.801 10.9896C15.2554 11.3662 14.7246 11.4473 14.279 11.4053C13.9687 11.3761 13.6848 11.2828 13.4375 11.1406C13.7502 11.6846 14.3161 12.0762 15.0157 12.1421C15.4613 12.184 15.9921 12.103 16.5377 11.7263C17.9647 10.7412 18.5714 8.89114 18.7841 8.03657C18.8458 7.78869 18.6761 7.54281 18.4224 7.51262Z" fill="#30B675"/>
<path d="M7.89349 8.02671C7.90745 8.03566 9.29967 8.92977 10.051 9.75341C11.2461 11.0636 11.9036 12.7748 11.9025 14.5717L11.9011 16.8334H12.3138L12.3128 15.1559C12.3119 13.6851 12.85 12.2846 13.8282 11.2122C14.4879 10.4889 15.2901 9.90552 16.2123 9.47827C16.3151 9.43067 16.3598 9.30872 16.3123 9.20592C16.2647 9.10312 16.1428 9.0584 16.0399 9.10601C15.0679 9.55628 14.2218 10.1719 13.5251 10.9357C12.9161 11.6033 12.4668 12.3896 12.1972 13.24C11.9515 11.8379 11.3184 10.5342 10.3541 9.47689C9.56666 8.61363 8.17341 7.71868 8.11449 7.681C8.01907 7.61999 7.89221 7.64789 7.83117 7.74334C7.77014 7.83882 7.79801 7.96567 7.89349 8.02671Z" fill="#30B675"/>
<path d="M16.8275 17.7546C16.8253 17.7521 16.8231 17.7497 16.821 17.7472C16.4538 17.3323 15.951 17.164 15.4738 17.2424C15.3901 17.0877 15.2896 16.9415 15.1711 16.8076C14.8444 16.4385 14.4357 16.2188 14.0112 16.1481C13.5533 15.5413 12.8722 15.156 12.1112 15.156C11.3501 15.156 10.669 15.5413 10.2111 16.1481C9.78664 16.2188 9.3779 16.4385 9.05123 16.8076C8.93281 16.9415 8.83224 17.0877 8.74853 17.2424C8.27134 17.164 7.76858 17.3323 7.40139 17.7472C7.39922 17.7497 7.39704 17.7521 7.39489 17.7546C7.30318 17.8594 7.26453 17.9885 7.26777 18.1144H16.9546C16.9578 17.9885 16.9192 17.8594 16.8275 17.7546Z" fill="#30B675"/>
<path d="M16.827 17.7546C16.8248 17.7521 16.8227 17.7497 16.8205 17.7472C16.4533 17.3323 15.9505 17.164 15.4733 17.2424C15.3896 17.0877 15.2891 16.9415 15.1706 16.8076C14.844 16.4385 14.4352 16.2188 14.0107 16.1481C13.5528 15.5413 12.8717 15.156 12.1107 15.156C11.932 15.156 11.7578 15.1772 11.5898 15.2176C12.0919 15.3381 12.538 15.6294 12.8788 16.0348C12.9394 16.1069 13.0228 16.1555 13.1142 16.1783C13.4861 16.271 13.8397 16.4808 14.129 16.8076C14.1921 16.8789 14.2501 16.9538 14.3032 17.0315C14.3848 17.1509 14.5189 17.2233 14.6636 17.2237C15.0673 17.2246 15.4708 17.3991 15.7788 17.7472C15.781 17.7496 15.7832 17.7521 15.7853 17.7546C15.8771 17.8594 15.9157 17.9885 15.9125 18.1144H16.9541C16.9574 17.9885 16.9187 17.8594 16.827 17.7546Z" fill="#30B675"/>
<path d="M17.9253 18.3197H6.04204C5.92872 18.3197 5.83691 18.2278 5.83691 18.1146C5.83691 18.0013 5.92875 17.9094 6.04204 17.9094H17.9253C18.0386 17.9094 18.1304 18.0013 18.1304 18.1146C18.1304 18.2278 18.0386 18.3197 17.9253 18.3197Z" fill="#30B675"/>
</g>
<rect x="4" y="13" width="16" height="1" rx="0.5" fill="#30B675"/>
<defs>
<clipPath id="clip0_2747_37912">
<rect width="13.5938" height="13.5938" fill="white" transform="translate(5.20312 5.20312)"/>
</clipPath>
</defs>
</svg>
