<svg width="48" height="48" viewBox="0 0 48 48" fill="none" xmlns="http://www.w3.org/2000/svg">
<path d="M12 5.14282C10.1813 5.14282 8.4372 5.86527 7.15123 7.15123C5.86527 8.4372 5.14282 10.1813 5.14282 12V17.7274C5.14282 18.182 5.32343 18.6181 5.64492 18.9396C5.96642 19.2611 6.40245 19.4417 6.85711 19.4417C7.31176 19.4417 7.7478 19.2611 8.06929 18.9396C8.39078 18.6181 8.57139 18.182 8.57139 17.7274V12C8.57139 11.0907 8.93262 10.2186 9.5756 9.5756C10.2186 8.93262 11.0907 8.57139 12 8.57139H17.7308C18.1855 8.57139 18.6215 8.39078 18.943 8.06929C19.2645 7.7478 19.4451 7.31176 19.4451 6.85711C19.4451 6.40245 19.2645 5.96642 18.943 5.64492C18.6215 5.32343 18.1855 5.14282 17.7308 5.14282H12ZM30.2725 5.14282C29.8179 5.14282 29.3818 5.32343 29.0604 5.64492C28.7389 5.96642 28.5583 6.40245 28.5583 6.85711C28.5583 7.31176 28.7389 7.7478 29.0604 8.06929C29.3818 8.39078 29.8179 8.57139 30.2725 8.57139H36C36.9093 8.57139 37.7813 8.93262 38.4243 9.5756C39.0673 10.2186 39.4285 11.0907 39.4285 12V17.7274C39.4285 18.182 39.6091 18.6181 39.9306 18.9396C40.2521 19.2611 40.6882 19.4417 41.1428 19.4417C41.5975 19.4417 42.0335 19.2611 42.355 18.9396C42.6765 18.6181 42.8571 18.182 42.8571 17.7274V12C42.8571 10.1813 42.1347 8.4372 40.8487 7.15123C39.5627 5.86527 37.8186 5.14282 36 5.14282H30.2725ZM8.57139 30.2725C8.57139 29.8179 8.39078 29.3818 8.06929 29.0604C7.7478 28.7389 7.31176 28.5583 6.85711 28.5583C6.40245 28.5583 5.96642 28.7389 5.64492 29.0604C5.32343 29.3818 5.14282 29.8179 5.14282 30.2725V36C5.14282 37.8186 5.86527 39.5627 7.15123 40.8487C8.4372 42.1347 10.1813 42.8571 12 42.8571H17.7274C18.182 42.8571 18.6181 42.6765 18.9396 42.355C19.2611 42.0335 19.4417 41.5975 19.4417 41.1428C19.4417 40.6882 19.2611 40.2521 18.9396 39.9306C18.6181 39.6091 18.182 39.4285 17.7274 39.4285H12C11.0907 39.4285 10.2186 39.0673 9.5756 38.4243C8.93262 37.7813 8.57139 36.9093 8.57139 36V30.2725ZM42.8571 30.2725C42.8571 29.8179 42.6765 29.3818 42.355 29.0604C42.0335 28.7389 41.5975 28.5583 41.1428 28.5583C40.6882 28.5583 40.2521 28.7389 39.9306 29.0604C39.6091 29.3818 39.4285 29.8179 39.4285 30.2725V36C39.4285 36.9093 39.0673 37.7813 38.4243 38.4243C37.7813 39.0673 36.9093 39.4285 36 39.4285H30.2725C29.8179 39.4285 29.3818 39.6091 29.0604 39.9306C28.7389 40.2521 28.5583 40.6882 28.5583 41.1428C28.5583 41.5975 28.7389 42.0335 29.0604 42.355C29.3818 42.6765 29.8179 42.8571 30.2725 42.8571H36C37.8186 42.8571 39.5627 42.1347 40.8487 40.8487C42.1347 39.5627 42.8571 37.8186 42.8571 36V30.2725Z" fill="black"/>
<path d="M25.7779 10.7331C25.5463 10.501 25.2697 10.3166 24.9644 10.1907C24.6591 10.0648 24.3312 10 24 10C23.6688 10 23.341 10.0648 23.0357 10.1907C22.7304 10.3166 22.4538 10.501 22.2221 10.7331L16.8535 16.1123C15.0081 17.9611 13.9825 20.45 14.0002 23.0368C14.0179 25.6236 15.0775 28.0988 16.9481 29.9231L16.9647 29.9378C18.6263 31.5706 20.8261 32.5706 23.1708 32.7591V35.1869C23.1708 35.4026 23.2581 35.6094 23.4136 35.7619C23.5692 35.9143 23.7801 36 24 36C24.2199 36 24.4309 35.9143 24.5864 35.7619C24.7419 35.6094 24.8293 35.4026 24.8293 35.1869V32.7624C27.1749 32.5734 29.3755 31.5721 31.037 29.9378L31.052 29.9215L31.0702 29.9052C32.9328 28.0793 33.9856 25.6066 33.9999 23.0242C34.0141 20.4417 32.9888 17.958 31.1465 16.1123L25.7779 10.7347V10.7331ZM24.8293 31.1086C24.2778 31.1622 23.7222 31.1622 23.1708 31.1086V22.1746C23.1708 21.9589 23.2581 21.7521 23.4136 21.5996C23.5692 21.4472 23.7801 21.3615 24 21.3615C24.2199 21.3615 24.4309 21.4472 24.5864 21.5996C24.7419 21.7521 24.8293 21.9589 24.8293 22.1746V31.1053V31.1086Z" fill="black"/>
</svg>
