<svg width="48" height="48" viewBox="0 0 48 48" fill="none" xmlns="http://www.w3.org/2000/svg">
<path fill-rule="evenodd" clip-rule="evenodd" d="M17.4042 4.01928C16.8354 3.94312 16.3558 4.10765 16.0294 4.25011C15.7293 4.38107 15.3907 4.57223 15.0623 4.75769L10.5639 7.3347C10.2723 7.541 9.87826 7.86942 9.65209 8.40086C9.40517 8.98104 9.48483 9.56579 9.54349 9.90403C9.60696 10.27 9.73864 10.7739 9.86465 11.2561C10.6571 14.2898 8.72131 17.5532 5.58756 18.393L5.53236 18.4078C5.05824 18.5348 4.61398 18.6539 4.26653 18.7791C3.94148 18.8963 3.39825 19.1163 3.01544 19.613C2.66364 20.0694 2.57039 20.5696 2.53369 20.9237C2.49983 21.2502 2.49992 21.6409 2.50001 22.0209V25.9792C2.49992 26.3593 2.49983 26.7499 2.53369 27.0765C2.57038 27.4305 2.66363 27.9307 3.0154 28.3871C3.39819 28.8838 3.94142 29.1038 4.26645 29.221C4.61389 29.3463 5.58748 29.6072 5.58748 29.6072C8.72005 30.4469 10.6546 33.7097 9.86165 36.7437C9.86165 36.7437 9.60384 37.7297 9.54034 38.0957C9.48164 38.434 9.40193 39.0187 9.64883 39.599C9.87499 40.1305 10.2691 40.4589 10.5607 40.6652L15.059 43.2423L15.0592 43.2424C15.3876 43.4278 15.7262 43.619 16.0263 43.7499C16.3528 43.8924 16.8324 44.0569 17.4012 43.9807C18.0195 43.8979 18.4779 43.5449 18.7414 43.3245C19.0213 43.0905 19.725 42.3925 19.725 42.3925C20.8918 41.2351 22.4459 40.6562 24 40.6558C25.5541 40.6562 27.1082 41.2351 28.275 42.3925C28.275 42.3925 28.9787 43.0905 29.2586 43.3245C29.5221 43.5449 29.9805 43.8979 30.5988 43.9807C31.1676 44.0569 31.6472 43.8924 31.9737 43.7499C32.2738 43.619 32.6124 43.4278 32.9408 43.2424L32.941 43.2423L37.4393 40.6652C37.7309 40.4589 38.125 40.1305 38.3512 39.599C38.5981 39.0187 38.5184 38.434 38.4597 38.0957C38.3962 37.7297 38.1384 36.7437 38.1384 36.7437C37.3454 33.7097 39.2799 30.4469 42.4125 29.6072C42.4125 29.6072 43.3861 29.3463 43.7336 29.221C44.0586 29.1038 44.6018 28.8838 44.9846 28.3871C45.3364 27.9307 45.4296 27.4305 45.4663 27.0765C45.5002 26.7499 45.5001 26.3593 45.5 25.9792V22.0209C45.5001 21.6409 45.5002 21.2502 45.4663 20.9237C45.4296 20.5696 45.3364 20.0694 44.9846 19.613C44.6018 19.1163 44.0585 18.8963 43.7335 18.7791C43.386 18.6539 42.9418 18.5348 42.4676 18.4078L42.4124 18.393C39.2787 17.5532 37.3429 14.2898 38.1353 11.2561C38.2614 10.7739 38.393 10.27 38.4565 9.90403C38.5152 9.56579 38.5948 8.98104 38.3479 8.40086C38.1217 7.86942 37.7277 7.541 37.4361 7.3347L32.9377 4.75769C32.6093 4.57223 32.2707 4.38107 31.9706 4.25011C31.6442 4.10765 31.1646 3.94312 30.5958 4.01928C29.9775 4.10208 29.5191 4.45497 29.2556 4.67531C28.9757 4.90926 28.2719 5.6073 28.2719 5.6073C27.1058 6.7636 25.553 7.34197 24 7.3424C22.447 7.34197 20.8942 6.7636 19.7281 5.6073C19.7281 5.6073 19.0243 4.90926 18.7444 4.67531C18.4809 4.45497 18.0225 4.10208 17.4042 4.01928ZM24 31C27.866 31 31 27.866 31 24C31 20.134 27.866 17 24 17C20.134 17 17 20.134 17 24C17 27.866 20.134 31 24 31Z" fill="url(#paint0_linear_2365_14232)"/>
<defs>
<linearGradient id="paint0_linear_2365_14232" x1="48.4896" y1="46" x2="-0.598104" y2="44.1373" gradientUnits="userSpaceOnUse">
<stop stop-color="#28D581"/>
<stop offset="1" stop-color="#33A36D"/>
</linearGradient>
</defs>
</svg>
