<svg width="25" height="24" viewBox="0 0 25 24" fill="none" xmlns="http://www.w3.org/2000/svg">
<g clip-path="url(#clip0_6722_36743)">
<path fill-rule="evenodd" clip-rule="evenodd" d="M14.2579 3H3.5C2.5 3 1.5 4 1.5 5V19C1.5 20.1 2.4 21 3.5 21H21.5C22.5 21 23.5 20 23.5 19V9.2916C22.5188 10.0095 21.3089 10.4333 20 10.4333C16.7231 10.4333 14.0667 7.7769 14.0667 4.5C14.0667 3.9818 14.1331 3.47912 14.2579 3ZM9 12.5L5.5 17H19.5L15 11L11.5 15.51L9 12.5Z" fill="#30B675"/>
<path fill-rule="evenodd" clip-rule="evenodd" d="M20 9C22.4853 9 24.5 6.98528 24.5 4.5C24.5 2.01472 22.4853 0 20 0C17.5147 0 15.5 2.01472 15.5 4.5C15.5 6.98528 17.5147 9 20 9ZM19.3004 2.05005H20.7004V5.05005H21.9833L20.0004 7.03289L18.0176 5.05005H19.3004V2.05005Z" fill="#30B675"/>
</g>
<defs>
<clipPath id="clip0_6722_36743">
<rect width="24" height="24" fill="white" transform="translate(0.5)"/>
</clipPath>
</defs>
</svg>
