<svg width="24" height="24" viewBox="0 0 24 24" fill="none" xmlns="http://www.w3.org/2000/svg">
<path d="M23.5304 12.048C23.3893 11.9085 23.1989 11.8303 23.0004 11.8303C22.802 11.8303 22.6116 11.9085 22.4704 12.048L22.0104 12.508V11.998C22.0104 6.47801 17.5204 1.98801 12.0004 1.98801C8.95043 1.98801 6.10043 3.35801 4.19043 5.73801C3.93043 6.05801 3.98043 6.53801 4.31043 6.79801C4.63043 7.04801 5.10043 6.99801 5.36043 6.67801C6.15587 5.68095 7.16608 4.87628 8.31576 4.32394C9.46544 3.77161 10.725 3.48587 12.0004 3.48801C16.6904 3.48801 20.5104 7.30801 20.5104 11.998V12.498L20.0504 12.038C19.7604 11.748 19.2804 11.748 18.9904 12.038C18.7004 12.328 18.7004 12.808 18.9904 13.098L20.7304 14.838C20.8725 14.9764 21.0621 15.0551 21.2604 15.058C21.4592 15.0575 21.6497 14.9784 21.7904 14.838L23.5304 13.098C23.8204 12.818 23.8204 12.338 23.5304 12.048ZM19.6904 17.2C19.6141 17.1378 19.5261 17.0914 19.4316 17.0637C19.3371 17.036 19.238 17.0275 19.1401 17.0386C19.0423 17.0498 18.9477 17.0805 18.8618 17.1288C18.776 17.1771 18.7007 17.2421 18.6404 17.32C17.845 18.3171 16.8348 19.1217 15.6851 19.6741C14.5354 20.2264 13.2759 20.5121 12.0004 20.51C7.31043 20.51 3.49043 16.69 3.49043 12V11.5L3.95043 11.96C4.10043 12.11 4.29043 12.18 4.48043 12.18C4.67043 12.18 4.86043 12.1 5.00043 11.95C5.29043 11.66 5.29043 11.18 5.00043 10.89L3.27043 9.15001C3.20043 9.09001 3.11043 9.03001 3.02043 8.99001C2.93062 8.95045 2.83356 8.93002 2.73543 8.93002C2.6373 8.93002 2.54024 8.95045 2.45043 8.99001C2.36043 9.03001 2.28043 9.09001 2.21043 9.15001L0.47043 10.89C0.18043 11.18 0.18043 11.66 0.47043 11.95C0.76043 12.24 1.24043 12.24 1.53043 11.95L1.99043 11.49V12C1.99043 17.52 6.48043 22.01 12.0004 22.01C15.0504 22.01 17.9004 20.64 19.8104 18.26C19.8727 18.1828 19.919 18.0939 19.9467 17.9986C19.9744 17.9034 19.9829 17.8035 19.9718 17.705C19.9606 17.6064 19.93 17.511 19.8817 17.4243C19.8334 17.3376 19.7684 17.2614 19.6904 17.2Z" fill="#30B675"/>
<path d="M13.6869 11.4443C13.211 11.1813 12.705 10.9809 12.2041 10.773C11.9136 10.6528 11.6355 10.5125 11.3901 10.3172C10.9067 9.93145 10.9994 9.30528 11.5654 9.05732C11.7257 8.98719 11.8935 8.96465 12.0638 8.95463C12.7201 8.91956 13.3437 9.03979 13.9374 9.32532C14.2329 9.46809 14.3306 9.423 14.4308 9.11493C14.536 8.78932 14.6236 8.4587 14.7213 8.13058C14.7864 7.91017 14.7063 7.7649 14.4984 7.67223C14.1177 7.50441 13.727 7.38419 13.3162 7.31906C12.7802 7.23641 12.7802 7.23391 12.7777 6.6954C12.7752 5.93648 12.7752 5.93648 12.0138 5.93648C11.9035 5.93648 11.7933 5.93397 11.6831 5.93648C11.3275 5.9465 11.2674 6.00911 11.2573 6.36728C11.2523 6.52758 11.2573 6.68788 11.2548 6.85069C11.2523 7.32658 11.2498 7.31906 10.794 7.48437C9.69191 7.88512 9.01063 8.63653 8.938 9.83878C8.87288 10.9033 9.42892 11.6221 10.3031 12.1456C10.8416 12.4687 11.4377 12.6591 12.0087 12.912C12.2317 13.0097 12.4446 13.1224 12.6299 13.2777C13.1784 13.7311 13.0782 14.485 12.427 14.7705C12.0789 14.9233 11.7107 14.9609 11.3325 14.9133C10.7489 14.8406 10.1903 14.6879 9.66436 14.4148C9.35628 14.2545 9.26611 14.2971 9.16091 14.6303C9.07075 14.9183 8.9906 15.2088 8.91045 15.4994C8.80274 15.8901 8.84282 15.9828 9.21602 16.1656C9.69191 16.3961 10.2004 16.5138 10.7188 16.5964C11.1246 16.6616 11.1371 16.6791 11.1421 17.0999C11.1446 17.2902 11.1446 17.4831 11.1471 17.6734C11.1496 17.9139 11.2649 18.0542 11.5128 18.0592C11.7933 18.0642 12.0764 18.0642 12.3569 18.0567C12.5873 18.0517 12.705 17.9264 12.705 17.6935C12.705 17.433 12.7176 17.17 12.7076 16.9095C12.695 16.644 12.8102 16.5088 13.0657 16.4386C13.6543 16.2783 14.1553 15.9627 14.541 15.4919C15.613 14.1894 15.2047 12.2834 13.6869 11.4443Z" fill="#30B675"/>
</svg>
