<svg width="48" height="48" viewBox="0 0 48 48" fill="none" xmlns="http://www.w3.org/2000/svg">
<path fill-rule="evenodd" clip-rule="evenodd" d="M22.729 41.4562C27.0498 41.4623 31.2388 39.9681 34.5802 37.2286L40.7579 43.4039C40.9294 43.5879 41.1362 43.7355 41.3659 43.8379C41.5956 43.9402 41.8436 43.9953 42.0951 43.9997C42.3465 44.0041 42.5963 43.9579 42.8295 43.8637C43.0627 43.7695 43.2745 43.6293 43.4524 43.4515C43.6302 43.2736 43.7704 43.0618 43.8646 42.8286C43.9588 42.5954 44.0051 42.3456 44.0006 42.0942C43.9962 41.8427 43.9412 41.5947 43.8388 41.365C43.7364 41.1352 43.5888 40.9285 43.4048 40.757L37.2296 34.5792C39.9205 31.2866 41.4107 27.1762 41.4552 22.9241C41.4997 18.672 40.0958 14.5313 37.4744 11.183C34.853 7.83477 31.1702 5.47831 27.0316 4.50117C22.893 3.52403 18.5451 3.9844 14.703 5.80656C10.8608 7.62873 7.75315 10.7042 5.89107 14.5272C4.02898 18.3502 3.52335 22.693 4.45734 26.8415C5.39132 30.99 7.70931 34.6972 11.0301 37.3533C14.3508 40.0095 18.4767 41.4564 22.729 41.4562ZM22.729 7.74564C20.2869 7.74553 17.8818 8.34239 15.723 9.48424C13.5643 10.6261 11.7174 12.2783 10.3432 14.2971C8.96895 16.3159 8.10901 18.6399 7.83826 21.067C7.5675 23.4941 7.89413 25.9505 8.78971 28.2225C9.68529 30.4945 11.1227 32.5131 12.9767 34.1026C14.8307 35.6921 17.0452 36.8043 19.4273 37.3424C21.8094 37.8805 24.2869 37.8281 26.6442 37.1898C29.0014 36.5516 31.1669 35.3467 32.9521 33.6803C33.1228 33.3735 33.3763 33.1208 33.6837 32.9512C35.6758 30.8169 37.0009 28.1471 37.4962 25.27C37.9915 22.3928 37.6354 19.4337 36.4717 16.7561C35.308 14.0786 33.3874 11.7994 30.946 10.1986C28.5045 8.59787 25.6485 7.74527 22.729 7.74564Z" fill="black"/>
<path d="M31.4683 13.9868V16.0896C31.4683 26.2115 26.2507 30.8092 19.8153 30.8092H17.9683C18.1742 27.6424 19.085 25.7257 21.4623 23.4484C22.6314 22.3286 22.5324 21.682 21.9565 22.0532C17.9906 24.6081 16.0213 28.0609 15.9339 33.5744L15.9309 33.9634H13.9888C13.9888 32.5304 14.1014 31.2298 14.3248 30.0396C14.1014 28.6791 13.9888 26.8328 13.9888 24.5008C13.9888 18.6939 18.3363 13.9868 23.6996 13.9868C25.6418 13.9868 27.584 15.0382 31.4683 13.9868Z" fill="black"/>
</svg>
