<svg width="48" height="48" viewBox="0 0 48 48" fill="none" xmlns="http://www.w3.org/2000/svg">
<path d="M38.0989 19.5622C37.5269 11.9842 31.4219 6 24 6C17.6514 6 12.2017 10.2938 10.4417 16.5562C5.42729 18.3693 2 23.3176 2 28.9091C2 36.1271 7.63986 42 14.5714 42H35C41.0641 42 46 36.8602 46 30.5455C46 25.3925 42.7471 20.9695 38.0989 19.5622ZM30.7461 31.7024L27.6033 28.4296C27.1539 27.9616 27.0187 27.258 27.2623 26.646C27.5043 26.0356 28.0794 25.6364 28.7143 25.6364H30.0626C29.3601 22.8218 26.9213 20.7273 24 20.7273C23.1231 20.7273 22.2761 20.9105 21.4826 21.2722C20.6843 21.6322 19.7603 21.2558 19.413 20.4295C19.0641 19.6015 19.4271 18.636 20.2223 18.2744C21.415 17.7311 22.6879 17.4545 24 17.4545C28.6624 17.4545 32.5344 21.0005 33.2871 25.6364H35C35.6349 25.6364 36.21 26.0356 36.452 26.646C36.6956 27.258 36.5604 27.9616 36.111 28.4296L32.9681 31.7024C32.6617 32.0215 32.2594 32.1818 31.8571 32.1818C31.4549 32.1818 31.0526 32.0215 30.7461 31.7024ZM11.889 26.1158L15.0319 22.8431C15.6463 22.2033 16.6394 22.2033 17.2539 22.8431L20.3967 26.1158C20.8461 26.5838 20.9813 27.2875 20.7377 27.8995C20.4957 28.5115 19.9206 28.9091 19.2857 28.9091H17.9374C18.6399 31.7253 21.0787 33.8182 24 33.8182C24.8737 33.8182 25.7191 33.6349 26.5127 33.2749C27.3063 32.9084 28.2334 33.2929 28.5807 34.1193C28.9296 34.9473 28.565 35.9127 27.7699 36.2727C26.5787 36.816 25.309 37.0909 24 37.0909C19.3376 37.0909 15.4656 33.5449 14.7129 28.9091H13C12.3651 28.9091 11.79 28.5115 11.548 27.8995C11.3044 27.2875 11.4396 26.5838 11.889 26.1158Z" fill="black"/>
</svg>
