<svg width="48" height="48" viewBox="0 0 48 48" fill="none" xmlns="http://www.w3.org/2000/svg">
<g clip-path="url(#clip0_1002_11698)">
<path d="M44.5275 33.491L36.6525 26.9285C36.2614 26.6004 35.7154 26.5348 35.256 26.7474C34.794 26.9653 34.5 27.4273 34.5 27.9365V31.874H32.3029C30.4811 31.874 28.8169 30.95 27.8509 29.4065L19.3511 15.809C17.4218 12.7194 14.0933 10.874 10.4471 10.874H3V16.124H10.4471C12.2689 16.124 13.9331 17.048 14.8991 18.5915L23.3989 32.189C25.3309 35.2786 28.6594 37.124 32.3029 37.124H34.5V41.0615C34.5 41.5708 34.794 42.0328 35.256 42.2506C35.4319 42.332 35.6235 42.374 35.8125 42.374C36.1144 42.374 36.4136 42.2716 36.6525 42.0695L44.5275 35.507C44.8294 35.2576 45 34.8875 45 34.499C45 34.1105 44.8294 33.7404 44.5275 33.491Z" fill="#BBC0C9"/>
<path d="M44.5276 12.491L36.6526 5.92852C36.2615 5.60303 35.7155 5.53477 35.2561 5.75002C34.7941 5.96265 34.5001 6.42727 34.5001 6.93652V10.874H32.303C28.6568 10.874 25.3283 12.7194 23.399 15.809L22.9238 16.5703L26.0187 21.5236L27.851 18.5915C28.817 17.048 30.4812 16.124 32.303 16.124H34.5001V20.0615C34.5001 20.5708 34.7941 21.0354 35.2561 21.2506C35.432 21.332 35.6236 21.374 35.8126 21.374C36.1145 21.374 36.4137 21.269 36.6526 21.0695L44.5276 14.507C44.8295 14.2576 45.0001 13.8875 45.0001 13.499C45.0001 13.1105 44.8295 12.7404 44.5276 12.491Z" fill="#BBC0C9"/>
<path d="M16.7314 26.4744L14.9017 29.4065C13.9358 30.95 12.2689 31.874 10.4471 31.874H3V37.124H10.4471C14.0906 37.124 17.4191 35.2786 19.3511 32.189L19.8263 31.4278L16.7314 26.4744Z" fill="#BBC0C9"/>
</g>
<defs>
<clipPath id="clip0_1002_11698">
<rect width="21" height="21" fill="white" transform="translate(3 3) scale(2)"/>
</clipPath>
</defs>
</svg>
