<svg width="26" height="25" viewBox="0 0 26 25" fill="none" xmlns="http://www.w3.org/2000/svg">
<path d="M15.56 1.09997C15.7283 1.01772 15.9164 0.984428 16.1028 1.00388C16.2891 1.02333 16.4663 1.09474 16.614 1.20997L25.614 8.20997C25.73 8.30009 25.8248 8.41466 25.8915 8.54555C25.9582 8.67643 25.9953 8.8204 26 8.96723C26.0048 9.11407 25.9772 9.26015 25.9191 9.39509C25.861 9.53002 25.7739 9.65051 25.664 9.74797L16.664 17.748C16.5199 17.876 16.3418 17.9596 16.1513 17.9887C15.9607 18.0179 15.7658 17.9914 15.59 17.9123C15.4142 17.8333 15.265 17.7051 15.1603 17.5433C15.0556 17.3814 14.9999 17.1927 15 17V13.112C14.528 13.192 13.912 13.332 13.192 13.572C11.446 14.156 9.084 15.33 6.708 17.708C6.56262 17.8539 6.37572 17.9514 6.17285 17.9871C5.96998 18.0228 5.76103 17.995 5.57457 17.9074C5.38811 17.8199 5.23323 17.6769 5.1311 17.498C5.02898 17.3191 4.98459 17.113 5.004 16.908C5.29 13.766 6.206 11.474 7.452 9.82197C8.52144 8.39609 9.97477 7.30419 11.642 6.67397C12.7173 6.26641 13.8511 6.03412 15 5.98597V1.99997C14.9996 1.81255 15.0519 1.6288 15.1509 1.46967C15.25 1.31054 15.3917 1.18244 15.56 1.09997ZM0 7.99997C0 6.67389 0.526784 5.40212 1.46447 4.46444C2.40215 3.52676 3.67392 2.99997 5 2.99997H9C9.26522 2.99997 9.51957 3.10533 9.70711 3.29287C9.89464 3.4804 10 3.73476 10 3.99997C10 4.26519 9.89464 4.51954 9.70711 4.70708C9.51957 4.89462 9.26522 4.99997 9 4.99997H5C4.20435 4.99997 3.44129 5.31604 2.87868 5.87865C2.31607 6.44126 2 7.20432 2 7.99997V20C2 20.7956 2.31607 21.5587 2.87868 22.1213C3.44129 22.6839 4.20435 23 5 23H17C17.7956 23 18.5587 22.6839 19.1213 22.1213C19.6839 21.5587 20 20.7956 20 20V18C20 17.7348 20.1054 17.4804 20.2929 17.2929C20.4804 17.1053 20.7348 17 21 17C21.2652 17 21.5196 17.1053 21.7071 17.2929C21.8946 17.4804 22 17.7348 22 18V20C22 21.3261 21.4732 22.5978 20.5355 23.5355C19.5979 24.4732 18.3261 25 17 25H5C3.67392 25 2.40215 24.4732 1.46447 23.5355C0.526784 22.5978 0 21.3261 0 20V7.99997Z" fill="black"/>
</svg>
