<svg width="46" height="46" viewBox="0 0 46 46" fill="none" xmlns="http://www.w3.org/2000/svg">
<g clip-path="url(#clip0_2108_23421)">
<path d="M45.927 23C45.927 35.7026 35.6296 46 22.927 46C-7.54921 44.8725 -7.54095 1.12296 22.9273 0C35.6296 0 45.927 10.2974 45.927 23Z" fill="url(#paint0_linear_2108_23421)"/>
<path d="M25.7152 26.6445C28.6637 27.8833 29.3397 30.4625 27.4165 32.9941C27.1986 33.2703 26.825 33.3704 26.4982 33.2402C23.5497 32.0013 22.8736 29.4221 24.7968 26.8905C25.0147 26.6143 25.3883 26.5142 25.7152 26.6445ZM30.4786 25.1183C32.0459 24.2134 32.3418 22.0635 32.3703 21.8214C32.4116 21.472 32.2181 21.1369 31.895 20.998C28.9326 19.7892 26.6327 21.135 26.2021 24.2848C26.1609 24.6342 26.3542 24.9691 26.6775 25.1081C26.9016 25.2045 28.9113 26.0232 30.4786 25.1183ZM18.0251 28.2979C19.5924 29.2028 21.6021 28.3841 21.8262 28.2878C22.1494 28.1488 22.3428 27.8139 22.3016 27.4644C21.8695 24.3001 19.554 22.9735 16.6087 24.1776C16.2854 24.3166 16.0921 24.6515 16.1333 25.001C16.1619 25.2432 16.4578 27.393 18.0251 28.2979V28.2979ZM9.93663 20.4371L11.4306 20.9809C11.8431 21.131 12.2993 20.9184 12.4494 20.5058L15.8931 11.0443C16.0432 10.6317 15.8306 10.1756 15.418 10.0254L13.9241 9.48169C13.8369 9.44998 13.7449 9.43372 13.6522 9.43372H10.2085C9.76952 9.43372 9.41356 9.78959 9.41356 10.2287V19.6902C9.41365 20.0243 9.62263 20.3228 9.93663 20.4371V20.4371ZM35.3601 15.3767L26.6121 10.7919C25.8751 10.4048 25.0439 10.2615 24.2259 10.3747L17.4918 11.3002L14.0172 20.8463L15.6528 21.4416C17.7733 22.2134 20.1523 21.9155 22.0171 20.6451C22.6587 20.208 23.3716 19.9181 24.1362 19.7833L26.6909 19.3328C27.7718 19.1422 28.4935 18.1115 28.3029 17.0305C28.1124 15.9496 27.0815 15.2279 26.0006 15.4185L20.5543 16.379C19.5099 16.5235 19.2481 15.0343 20.2782 14.8134L25.7245 13.8529C27.667 13.5104 29.526 14.812 29.8686 16.7545C29.9 16.9326 29.9178 17.111 29.9225 17.2886L33.5719 18.9901C34.9087 19.6134 36.4404 18.6376 36.4404 17.1626C36.4404 16.4128 36.0243 15.7248 35.3601 15.3767V15.3767ZM35.6455 34.9767C34.7737 34.9767 34.3801 34.7798 33.882 34.5307C32.4984 33.7129 30.3118 33.7151 28.932 34.5306C27.9097 35.1309 26.4234 35.1297 25.4028 34.5305C24.0188 33.713 21.8314 33.7149 20.4511 34.5305C19.429 35.1305 17.9427 35.13 16.9219 34.5306C15.5384 33.7131 13.3519 33.7148 11.972 34.5307C11.4738 34.7798 11.0803 34.9767 10.2084 34.9767C9.15517 35.0156 9.15535 36.5277 10.2084 36.5664H35.6455C36.6991 36.5274 36.6983 35.0154 35.6455 34.9767V34.9767Z" fill="url(#paint1_linear_2108_23421)"/>
</g>
<defs>
<linearGradient id="paint0_linear_2108_23421" x1="23" y1="46" x2="23" y2="-7.66664" gradientUnits="userSpaceOnUse">
<stop stop-color="#FFBEF9"/>
<stop offset="1" stop-color="#FFF1FF"/>
</linearGradient>
<linearGradient id="paint1_linear_2108_23421" x1="22.927" y1="36.5664" x2="22.927" y2="9.43363" gradientUnits="userSpaceOnUse">
<stop stop-color="#FF81FF"/>
<stop offset="1" stop-color="#A93AFF"/>
</linearGradient>
<clipPath id="clip0_2108_23421">
<rect width="46" height="46" fill="white"/>
</clipPath>
</defs>
</svg>
