<svg width="48" height="48" viewBox="0 0 48 48" fill="none" xmlns="http://www.w3.org/2000/svg">
<path d="M11.0001 29.9999C12.7494 29.9947 14.4325 29.3306 15.7141 28.1399L28.2341 35.2939C27.8146 36.9331 27.9995 38.6686 28.755 40.1826C29.5105 41.6966 30.786 42.8879 32.348 43.5383C33.91 44.1888 35.654 44.2549 37.2608 43.7246C38.8676 43.1942 40.2296 42.1029 41.0975 40.6505C41.9655 39.198 42.2813 37.4815 41.9871 35.8152C41.6929 34.149 40.8084 32.6444 39.4955 31.577C38.1827 30.5095 36.5293 29.9506 34.8381 30.0026C33.1469 30.0546 31.5309 30.7139 30.2861 31.8599L17.7661 24.7059C17.8981 24.2059 17.9701 23.6879 17.9821 23.1699L30.2821 16.1399C31.4664 17.2175 32.9853 17.8549 34.584 17.9454C36.1826 18.0358 37.7637 17.5737 39.062 16.6366C40.3603 15.6994 41.2969 14.3443 41.7145 12.7986C42.1321 11.2528 42.0055 9.61044 41.3557 8.147C40.706 6.68355 39.5728 5.48807 38.1461 4.76112C36.7195 4.03417 35.0862 3.81996 33.5203 4.15445C31.9545 4.48894 30.5513 5.35176 29.5462 6.59817C28.541 7.84458 27.9952 9.39875 28.0001 10.9999C28.0081 11.5759 28.0861 12.1499 28.2341 12.7059L16.8661 19.1999C16.2068 18.1801 15.2936 17.3492 14.2161 16.7891C13.1386 16.2289 11.9339 15.9587 10.7204 16.005C9.50691 16.0513 8.32632 16.4125 7.29465 17.0532C6.26297 17.6938 5.4157 18.5918 4.83608 19.6589C4.25646 20.7261 3.96444 21.9256 3.9887 23.1398C4.01296 24.3539 4.35268 25.5409 4.97446 26.584C5.59625 27.6272 6.47871 28.4906 7.53516 29.0895C8.5916 29.6884 9.78568 30.0021 11.0001 29.9999Z" fill="black"/>
</svg>
