<svg width="40" height="40" viewBox="0 0 40 40" fill="none" xmlns="http://www.w3.org/2000/svg">
    <defs>
        <linearGradient id="paint0_linear_731_5604" x1="20.0005" y1="31.7969" x2="20.0005"
            y2="8.20312" gradientUnits="userSpaceOnUse">
            <stop stop-color="#FFA68D" />
            <stop offset="1" stop-color="#FD3A84" />
        </linearGradient>
    </defs>
    <rect width="40" height="40" rx="8" fill="#FFE7E9" />
    <path
        d="M22.7753 12.3607C23.9216 12.3607 24.8541 11.4282 24.8541 10.2819C24.8541 9.13555 23.9216 8.20312 22.7753 8.20312C21.6289 8.20312 20.6964 9.13563 20.6964 10.2819C20.6964 11.4282 21.6289 12.3607 22.7753 12.3607ZM28.3187 9.58898H26.1698C26.2155 9.81297 26.2399 10.0447 26.2399 10.2819C26.2399 12.1922 24.6856 13.7466 22.7753 13.7466C20.8649 13.7466 19.3106 12.1922 19.3106 10.2819C19.3106 10.0446 19.335 9.81297 19.3807 9.58898H17.2318C16.0855 9.58898 15.153 10.5215 15.153 11.6677V24.1405C15.153 25.2868 16.0855 26.2192 17.2318 26.2192H28.3187C29.465 26.2192 30.3975 25.2867 30.3975 24.1405V11.6677C30.3975 10.5215 29.465 9.58898 28.3187 9.58898ZM24.1611 22.0617H18.6177C18.2346 22.0617 17.9247 21.7518 17.9247 21.3687C17.9247 20.9858 18.2346 20.6759 18.6177 20.6759H24.1611C24.5441 20.6759 24.8541 20.9858 24.8541 21.3687C24.854 21.7518 24.5441 22.0617 24.1611 22.0617ZM26.9328 19.29H18.6177C18.2346 19.29 17.9247 18.9801 17.9247 18.597C17.9247 18.2141 18.2346 17.9041 18.6177 17.9041H26.9328C27.3159 17.9041 27.6258 18.2141 27.6258 18.597C27.6258 18.9801 27.3158 19.29 26.9328 19.29ZM26.9328 16.5183H18.6177C18.2346 16.5183 17.9247 16.2084 17.9247 15.8253C17.9247 15.4423 18.2346 15.1324 18.6177 15.1324H26.9328C27.3159 15.1324 27.6258 15.4423 27.6258 15.8253C27.6258 16.2084 27.3158 16.5183 26.9328 16.5183ZM13.7671 24.1405V14.9564L11.2336 15.5229C10.6903 15.644 10.2267 15.9702 9.9283 16.4425C9.63057 16.9128 9.53315 17.4704 9.65424 18.0145L12.3982 30.1834C12.6531 31.306 13.7826 31.9955 14.8891 31.7459L25.6985 29.3206C26.2413 29.1995 26.7041 28.8734 27.0025 28.401C27.1579 28.1551 27.2553 27.8848 27.2987 27.6052H17.2318C15.3215 27.6052 13.7671 26.0508 13.7671 24.1405Z"
        fill="url(#paint0_linear_731_5604)" />
</svg>
