<svg width="40" height="40" viewBox="0 0 40 40" fill="none" xmlns="http://www.w3.org/2000/svg">
    <defs>
        <linearGradient id="paint0_linear_731_5632" x1="-1.41133" y1="-6.72671" x2="38.7539"
            y2="32.8297" gradientUnits="userSpaceOnUse">
            <stop stop-color="#64F0B4" />
            <stop offset="1" stop-color="#46BCE8" />
        </linearGradient>
    </defs>
    <rect width="40" height="40" rx="8" fill="#DBFFFC" />
    <path
        d="M12.3667 18.9171C12.3733 19.3277 12.3473 19.3733 12.4088 20.6777C12.59 24.5266 11.4928 24.6145 11.3855 24.8576H28.6145C28.5124 24.6264 27.4126 24.4722 27.5912 20.6777C27.6568 19.2858 27.6243 19.3059 27.6333 18.6122C27.6333 15.158 25.2787 12.062 21.8569 11.2069C21.9962 10.9277 22.0818 10.6176 22.0818 10.285C22.0818 9.13695 21.148 8.20312 20 8.20312C18.852 8.20312 17.9182 9.13695 17.9182 10.2849C17.9182 10.6264 18.0087 10.9441 18.1551 11.2287C14.8374 12.0893 12.3667 15.2515 12.3667 18.9171ZM20 9.59102C20.3829 9.59102 20.6939 9.90203 20.6939 10.2849C20.6939 10.6628 20.3902 10.968 20.0141 10.976C20.0064 10.976 19.9985 10.977 19.9909 10.977C19.6126 10.9719 19.3061 10.6646 19.3061 10.285C19.3061 9.90203 19.6171 9.59102 20 9.59102ZM10.9788 28.3272C10.9788 28.7108 11.2892 29.0211 11.6727 29.0211H28.3272C28.7108 29.0211 29.0211 28.7107 29.0211 28.3272V26.2454H10.9788V28.3272ZM28.8178 13.5513L30.2057 12.1634C30.4768 11.8923 30.4768 11.4533 30.2057 11.1822C29.9346 10.9111 29.4955 10.9111 29.2245 11.1822L27.8366 12.5701C27.5655 12.8412 27.5655 13.2802 27.8366 13.5513C28.1077 13.8223 28.5468 13.8223 28.8178 13.5513ZM31.103 15.1424H29.7151C29.3315 15.1424 29.0212 15.4528 29.0212 15.8364C29.0212 16.2199 29.3316 16.5303 29.7151 16.5303H31.103C31.4866 16.5303 31.7969 16.2199 31.7969 15.8364C31.7969 15.4528 31.4865 15.1424 31.103 15.1424ZM11.1822 13.5513C11.4533 13.8224 11.8923 13.8224 12.1634 13.5513C12.4345 13.2802 12.4345 12.8412 12.1634 12.5701L10.7755 11.1822C10.5045 10.9111 10.0653 10.9111 9.7943 11.1822C9.52328 11.4533 9.5232 11.8923 9.7943 12.1634L11.1822 13.5513ZM10.2849 15.1424H8.89703C8.51344 15.1424 8.20312 15.4528 8.20312 15.8364C8.20312 16.2199 8.51352 16.5303 8.89703 16.5303H10.2849C10.6685 16.5303 10.9788 16.2199 10.9788 15.8364C10.9788 15.4528 10.6685 15.1424 10.2849 15.1424ZM20 31.7969C20.9035 31.7969 21.6666 31.215 21.954 30.409H18.046C18.3334 31.215 19.0965 31.7969 20 31.7969Z"
        fill="url(#paint0_linear_731_5632)" />
</svg>
