<svg width="24" height="24" viewBox="0 0 24 24" fill="none" xmlns="http://www.w3.org/2000/svg">
<path d="M21.9999 11.9998C21.9999 17.5238 17.5229 21.9998 11.9999 21.9998C6.47688 21.9998 1.99988 17.5238 1.99988 11.9998C1.99988 6.47782 6.47688 1.99982 11.9999 1.99982C17.5229 1.99982 21.9999 6.47782 21.9999 11.9998Z" fill="#FF424E"/>
<path d="M11.995 14.9285C12.488 14.9285 12.8797 15.3215 12.8798 15.8035C12.8798 16.2855 12.4878 16.6785 12.0048 16.6785C11.5199 16.6783 11.1249 16.2854 11.1249 15.8035C11.1249 15.3215 11.516 14.9285 11.995 14.9285ZM11.995 7.33569C12.477 7.33569 12.87 7.72869 12.87 8.21069V12.6306C12.87 13.1126 12.477 13.5056 11.995 13.5056C11.513 13.5056 11.12 13.1126 11.12 12.6306V8.21069C11.12 7.72869 11.513 7.33569 11.995 7.33569Z" fill="white"/>
</svg>
