<svg width="40" height="40" viewBox="0 0 40 40" fill="none" xmlns="http://www.w3.org/2000/svg">
    <defs>
        <linearGradient id="paint0_linear_731_5646" x1="2" y1="7" x2="42.9049" y2="37.8"
            gradientUnits="userSpaceOnUse">
            <stop stop-color="#A694F2" />
            <stop offset="1" stop-color="#8089F4" />
        </linearGradient>
        <linearGradient id="paint1_linear_731_5646" x1="2" y1="7" x2="42.9049" y2="37.8"
            gradientUnits="userSpaceOnUse">
            <stop stop-color="#A694F2" />
            <stop offset="1" stop-color="#8089F4" />
        </linearGradient>
        <linearGradient id="paint2_linear_731_5646" x1="2" y1="7" x2="42.9049" y2="37.8"
            gradientUnits="userSpaceOnUse">
            <stop stop-color="#A694F2" />
            <stop offset="1" stop-color="#8089F4" />
        </linearGradient>
        <linearGradient id="paint3_linear_731_5646" x1="2" y1="7" x2="42.9049" y2="37.8"
            gradientUnits="userSpaceOnUse">
            <stop stop-color="#A694F2" />
            <stop offset="1" stop-color="#8089F4" />
        </linearGradient>
    </defs>
    <rect width="40" height="40" rx="8" fill="#E5E3FF" />
    <path
        d="M27.9535 31.3023C28.2019 30.8571 28.2005 30.3834 28.154 29.894C27.7991 25.8966 27.4506 21.8984 27.1084 17.8995C27.1015 17.8183 27.0894 17.7371 27.0764 17.6169L15.9912 17.6971C15.9063 18.5457 15.8224 19.3963 15.7396 20.249C15.4189 23.5276 15.0986 26.8059 14.7789 30.0841C14.7651 30.2029 14.7545 30.3259 14.7485 30.4473C14.7352 30.6435 14.7613 30.84 14.8252 31.0249C14.8891 31.2099 14.9896 31.3795 15.1206 31.5237C15.2516 31.6679 15.4104 31.7838 15.5876 31.8643C15.7648 31.9448 15.9567 31.9884 16.1519 31.9924C16.6786 32.0088 17.2076 31.9936 17.7339 31.9927C20.6695 31.9756 23.6072 31.968 26.5461 31.9362C26.8832 31.9316 27.2195 31.783 27.5575 31.7029L27.9535 31.3023Z"
        fill="url(#paint0_linear_731_5646)" />
    <path
        d="M2.00822 17.129C1.97148 17.5016 2.04979 17.6484 2.40972 17.6827C2.7927 17.7237 3.17953 17.7214 3.56301 17.676C3.94492 17.6252 4.24756 17.6847 4.51638 17.9754C6.27379 19.8751 8.03471 21.7719 9.79914 23.6659C10.9509 24.905 12.1035 26.1429 13.257 27.3796C13.2881 27.404 13.3211 27.4258 13.3557 27.445C13.3733 27.3003 13.3907 27.1767 13.4025 27.0516C13.5984 25.0625 13.7943 23.0745 13.9903 21.0875C14.0059 20.9935 13.9969 20.8973 13.9641 20.8084C13.9313 20.7196 13.8759 20.6412 13.8034 20.581C11.7595 18.6682 9.7251 16.7449 7.68226 14.831C7.38924 14.5563 7.31551 14.2496 7.36863 13.8531C7.4165 13.4664 7.41962 13.076 7.37793 12.6897C7.34282 12.3222 7.20591 12.2481 6.83094 12.2761L2.00822 17.129Z"
        fill="url(#paint1_linear_731_5646)" />
    <path
        d="M29.6085 27.3674C33.2626 26.1918 36.5158 22.629 36.7673 17.9035C36.888 15.669 36.2934 13.4629 35.071 11.6096C33.8486 9.75623 32.0629 8.35358 29.9766 7.60794C25.5216 6.01834 21.1058 7.7455 18.7411 10.4811C18.826 10.489 18.8936 10.4997 18.9612 10.4999C19.1279 10.5021 19.2951 10.4995 19.4618 10.4985C19.9625 10.4962 20.4851 10.586 20.9555 10.464C21.4091 10.3474 21.8016 9.99638 22.2353 9.77702C25.5579 8.09579 28.7556 8.2798 31.7299 10.4689C35.4533 13.2071 36.2163 18.7339 33.4697 22.5296C32.4806 23.8955 31.2266 24.9226 29.6738 25.5674C29.5083 25.6364 29.4523 25.7159 29.4743 25.8972C29.5298 26.3765 29.5637 26.8585 29.6085 27.3674Z"
        fill="url(#paint2_linear_731_5646)" />
    <path
        d="M28.0561 12.6861C27.6548 12.2822 27.1603 12.1305 26.5973 12.1348C23.2797 12.1573 19.9624 12.1762 16.6455 12.1916C16.59 12.1919 16.5344 12.1922 16.4788 12.1936C15.9793 12.1983 15.4993 12.4007 15.1429 12.7571C14.7864 13.1135 14.582 13.5952 14.574 14.098C14.5659 14.6008 14.7548 15.0843 15.0998 15.4439C15.4448 15.8035 15.9182 16.0103 16.4176 16.0196C17.0559 16.0401 17.6961 16.02 18.3356 16.0163C21.0787 16.0021 23.8214 15.9879 26.5638 15.9738C27.317 15.971 27.9215 15.6963 28.3288 15.0429C28.5596 14.6751 28.6584 14.2401 28.6087 13.8109C28.5591 13.3817 28.3639 12.9846 28.0561 12.6861Z"
        fill="url(#paint3_linear_731_5646)" />
</svg>
