<svg width="56" height="56" viewBox="0 0 56 56" fill="none" xmlns="http://www.w3.org/2000/svg">
<path d="M44.7245 4.9812C44.972 5.65779 47.7215 13.7098 42.0825 23.2049C38.6575 28.9722 33.4571 29.3538 32.9479 29.3774C32.6496 28.9639 29.7137 24.6547 32.0988 18.3855C36.0259 8.06394 44.0408 5.20826 44.7245 4.9812Z" fill="url(#paint0_linear_2757_5982)"/>
<path d="M11.2751 4.9812C11.0275 5.65779 8.27807 13.7098 13.917 23.2049C17.3421 28.9722 22.5424 29.3538 23.0517 29.3774C23.3499 28.9639 26.2859 24.6547 23.9006 18.3855C19.9736 8.06394 11.9588 5.20826 11.2751 4.9812Z" fill="url(#paint1_linear_2757_5982)"/>
<path d="M27.9999 0C27.1604 0.814734 17.4553 10.649 18.9988 28.5154C19.9362 39.3673 27.2718 43.5963 27.9999 43.9905C28.728 43.5963 36.0636 39.3672 37.001 28.5154C38.5445 10.649 28.8395 0.814734 27.9999 0Z" fill="url(#paint2_linear_2757_5982)"/>
<path d="M48.7775 27.3485C50.6035 21.0727 49.9855 15.2397 49.9855 15.2397C49.9855 15.2397 46.469 16.8062 37.6317 22.517C30.7624 26.956 28.637 34.7389 28 36.8365H36.0733C41.9418 36.8365 47.138 32.9834 48.7775 27.3485Z" fill="url(#paint3_linear_2757_5982)"/>
<path d="M7.22175 27.3483C5.39573 21.0725 6.01381 15.2395 6.01381 15.2395C6.01381 15.2395 9.53033 16.806 18.3676 22.5168C25.2369 26.9558 27.3623 34.7387 27.9993 36.8363H19.926C14.0575 36.8363 8.86128 32.9832 7.22175 27.3483Z" fill="url(#paint4_linear_2757_5982)"/>
<path d="M33.8382 55.9994H22.1622C19.0652 55.9994 16.4086 53.7912 15.8424 50.7464L13.3391 37.2854H42.6613L40.1581 50.7464C39.5917 53.7912 36.9351 55.9994 33.8382 55.9994Z" fill="url(#paint5_linear_2757_5982)"/>
<path d="M43.1713 40.3108H12.8268C11.5972 40.3108 10.6003 39.3139 10.6003 38.0843C10.6003 36.8548 11.5972 35.8579 12.8268 35.8579H43.1715C44.401 35.8579 45.3979 36.8548 45.3979 38.0843C45.3978 39.3139 44.401 40.3108 43.1713 40.3108Z" fill="#F2A559"/>
<path d="M43.1724 35.8582H39.6052V40.311H43.1724C44.402 40.311 45.3988 39.3142 45.3988 38.0846C45.3989 36.855 44.4021 35.8582 43.1724 35.8582Z" fill="#EA8F3D"/>
<g clip-path="url(#clip0_2757_5982)">
<path d="M55.5461 52.7161L48.2148 45.3849C49.656 43.376 50.5043 40.9133 50.5043 38.2521C50.5043 31.4853 45.0189 26 38.2521 26C31.4853 26 26 31.4853 26 38.2521C26 45.0189 31.4853 50.5043 38.2521 50.5043C40.9133 50.5043 43.376 49.656 45.3849 48.2148L52.7161 55.5461C53.3206 56.1512 54.3021 56.1512 54.9073 55.5461L55.5461 54.9073C56.1512 54.3021 56.1512 53.3206 55.5461 52.7161Z" fill="url(#paint6_linear_2757_5982)"/>
<path d="M55.546 52.7162C56.1511 53.3208 56.1511 54.3022 55.546 54.9074L54.9072 55.5462C54.302 56.1514 53.3205 56.1514 52.716 55.5462L45.3848 48.215C46.4755 47.4326 47.4324 46.4757 48.2147 45.385L55.546 52.7162Z" fill="url(#paint7_linear_2757_5982)"/>
<path d="M38.2528 47.5945C43.4126 47.5945 47.5955 43.4116 47.5955 38.2518C47.5955 33.092 43.4126 28.9092 38.2528 28.9092C33.093 28.9092 28.9102 33.092 28.9102 38.2518C28.9102 43.4116 33.093 47.5945 38.2528 47.5945Z" fill="#CBE3FA"/>
<path d="M31.0677 41.5603C31.2546 42.4101 30.0463 42.805 29.696 42.0084C29.171 40.8142 28.8887 39.4892 28.9114 38.0957C28.9949 32.9828 33.2396 28.8269 38.4067 28.9104C39.2869 28.9246 39.3899 30.1896 38.5245 30.3506C33.4105 31.3023 29.9003 36.2504 31.0677 41.5603Z" fill="#EEF7FF"/>
</g>
<defs>
<linearGradient id="paint0_linear_2757_5982" x1="46.615" y1="30.5972" x2="30.115" y2="30.2525" gradientUnits="userSpaceOnUse">
<stop stop-color="#28D581"/>
<stop offset="1" stop-color="#33A36D"/>
</linearGradient>
<linearGradient id="paint1_linear_2757_5982" x1="25.8315" y1="30.5972" x2="9.33157" y2="30.2525" gradientUnits="userSpaceOnUse">
<stop stop-color="#28D581"/>
<stop offset="1" stop-color="#33A36D"/>
</linearGradient>
<linearGradient id="paint2_linear_2757_5982" x1="38.4418" y1="46.19" x2="17.4862" y2="45.8818" gradientUnits="userSpaceOnUse">
<stop stop-color="#28D581"/>
<stop offset="1" stop-color="#33A36D"/>
</linearGradient>
<linearGradient id="paint3_linear_2757_5982" x1="51.6218" y1="37.9163" x2="26.4053" y2="37.0061" gradientUnits="userSpaceOnUse">
<stop stop-color="#28D581"/>
<stop offset="1" stop-color="#33A36D"/>
</linearGradient>
<linearGradient id="paint4_linear_2757_5982" x1="29.5349" y1="37.9161" x2="4.31835" y2="37.0058" gradientUnits="userSpaceOnUse">
<stop stop-color="#28D581"/>
<stop offset="1" stop-color="#33A36D"/>
</linearGradient>
<linearGradient id="paint5_linear_2757_5982" x1="41.4166" y1="54.2493" x2="5.24992" y2="34.9993" gradientUnits="userSpaceOnUse">
<stop stop-color="#FEAB49"/>
<stop offset="0.604408" stop-color="#FEC37D"/>
</linearGradient>
<linearGradient id="paint6_linear_2757_5982" x1="55.5" y1="55" x2="26.4826" y2="51.7112" gradientUnits="userSpaceOnUse">
<stop stop-color="#28D581"/>
<stop offset="1" stop-color="#6BD1A0"/>
</linearGradient>
<linearGradient id="paint7_linear_2757_5982" x1="55.5492" y1="55.0074" x2="40.4854" y2="49.8903" gradientUnits="userSpaceOnUse">
<stop stop-color="#FEAB49"/>
<stop offset="0.604408" stop-color="#FEC37D"/>
</linearGradient>
<clipPath id="clip0_2757_5982">
<rect width="30" height="30" fill="white" transform="translate(26 26)"/>
</clipPath>
</defs>
</svg>
