<svg width="32" height="32" viewBox="0 0 32 32" fill="none" xmlns="http://www.w3.org/2000/svg">
<path d="M25.3989 13.0415C25.0176 7.98945 20.9476 4 15.9997 4C11.7673 4 8.13415 6.86255 6.96082 11.0375C3.61787 12.2462 1.33301 15.5451 1.33301 19.2727C1.33301 24.0847 5.09291 28 9.71396 28H23.333C27.3758 28 30.6663 24.5735 30.6663 20.3636C30.6663 16.9284 28.4978 13.9796 25.3989 13.0415ZM20.4971 21.1349L18.4019 18.9531C18.1022 18.6411 18.0121 18.172 18.1745 17.764C18.3359 17.3571 18.7193 17.0909 19.1425 17.0909H20.0414C19.5731 15.2145 17.9472 13.8182 15.9997 13.8182C15.4151 13.8182 14.8504 13.9404 14.3214 14.1815C13.7892 14.4215 13.1732 14.1705 12.9417 13.6196C12.7091 13.0676 12.9511 12.424 13.4812 12.1829C14.2763 11.8207 15.1249 11.6364 15.9997 11.6364C19.108 11.6364 21.6893 14.0004 22.1911 17.0909H23.333C23.7562 17.0909 24.1397 17.3571 24.301 17.764C24.4634 18.172 24.3733 18.6411 24.0737 18.9531L21.9784 21.1349C21.7742 21.3476 21.506 21.4545 21.2378 21.4545C20.9696 21.4545 20.7014 21.3476 20.4971 21.1349ZM7.92567 17.4105L10.0209 15.2287C10.4305 14.8022 11.0926 14.8022 11.5022 15.2287L13.5975 17.4105C13.8971 17.7225 13.9872 18.1916 13.8248 18.5996C13.6635 19.0076 13.2801 19.2727 12.8568 19.2727H11.958C12.4262 21.1502 14.0521 22.5455 15.9997 22.5455C16.5821 22.5455 17.1458 22.4233 17.6748 22.1833C18.2039 21.9389 18.822 22.1953 19.0535 22.7462C19.2861 23.2982 19.043 23.9418 18.5129 24.1818C17.7188 24.544 16.8723 24.7273 15.9997 24.7273C12.8914 24.7273 10.3101 22.3633 9.80825 19.2727H8.66634C8.2431 19.2727 7.85967 19.0076 7.69834 18.5996C7.53596 18.1916 7.62606 17.7225 7.92567 17.4105Z" fill="#34BA77"/>
</svg>
