<svg width="24" height="24" viewBox="0 0 24 24" fill="none" xmlns="http://www.w3.org/2000/svg">
<path d="M6.86286 16.613L5.39997 18.0771V5.25C5.39997 5.01131 5.30515 4.78239 5.13637 4.6136C4.96758 4.44482 4.73867 4.35 4.49997 4.35C4.26128 4.35 4.03236 4.44482 3.86357 4.6136C3.69479 4.78239 3.59997 5.01131 3.59997 5.25V18.0771L2.13708 16.613L2.13704 16.6129C2.05338 16.5293 1.95406 16.4629 1.84475 16.4176C1.73544 16.3724 1.61828 16.3491 1.49997 16.3491C1.38166 16.3491 1.2645 16.3724 1.15519 16.4176C1.04589 16.4629 0.946565 16.5293 0.862905 16.6129C0.779244 16.6966 0.712881 16.7959 0.667604 16.9052C0.622327 17.0145 0.599023 17.1317 0.599023 17.25C0.599023 17.3683 0.622327 17.4855 0.667604 17.5948C0.712881 17.7041 0.779244 17.8034 0.862905 17.8871L0.862931 17.8871L3.86291 20.8856L3.86293 20.8856L3.8734 20.8961L3.87475 20.8974C4.0439 21.0623 4.27137 21.1537 4.50761 21.1517C4.74375 21.1497 4.96953 21.0545 5.1358 20.8868C5.13587 20.8867 5.13594 20.8867 5.13602 20.8866L8.13546 17.8871C8.30444 17.7184 8.39947 17.4894 8.39964 17.2506C8.39981 17.0118 8.3051 16.7827 8.13636 16.6138C7.96762 16.4448 7.73866 16.3498 7.49986 16.3496C7.26105 16.3494 7.03196 16.4441 6.86298 16.6129L6.86286 16.613ZM10.6136 5.8864C10.7824 6.05518 11.0113 6.15 11.25 6.15H12.75C12.9887 6.15 13.2176 6.05518 13.3864 5.8864C13.5551 5.71761 13.65 5.48869 13.65 5.25C13.65 5.01131 13.5551 4.78239 13.3864 4.6136C13.2176 4.44482 12.9887 4.35 12.75 4.35H11.25C11.0113 4.35 10.7824 4.44482 10.6136 4.6136C10.4448 4.78239 10.35 5.01131 10.35 5.25C10.35 5.48869 10.4448 5.71761 10.6136 5.8864ZM10.6136 10.3864C10.7824 10.5552 11.0113 10.65 11.25 10.65H15.75C15.9887 10.65 16.2176 10.5552 16.3864 10.3864C16.5551 10.2176 16.65 9.98869 16.65 9.75C16.65 9.51131 16.5551 9.28239 16.3864 9.1136C16.2176 8.94482 15.9887 8.85 15.75 8.85H11.25C11.0113 8.85 10.7824 8.94482 10.6136 9.1136C10.4448 9.28239 10.35 9.5113 10.35 9.75C10.35 9.9887 10.4448 10.2176 10.6136 10.3864ZM10.6136 14.8864C10.7824 15.0552 11.0113 15.15 11.25 15.15H18.75C18.9887 15.15 19.2176 15.0552 19.3864 14.8864C19.5551 14.7176 19.65 14.4887 19.65 14.25C19.65 14.0113 19.5551 13.7824 19.3864 13.6136C19.2176 13.4448 18.9887 13.35 18.75 13.35H11.25C11.0113 13.35 10.7824 13.4448 10.6136 13.6136C10.4448 13.7824 10.35 14.0113 10.35 14.25C10.35 14.4887 10.4448 14.7176 10.6136 14.8864ZM10.35 18.75C10.35 18.9887 10.4448 19.2176 10.6136 19.3864C10.7824 19.5552 11.0113 19.65 11.25 19.65H21.75C21.9887 19.65 22.2176 19.5552 22.3864 19.3864C22.5551 19.2176 22.65 18.9887 22.65 18.75C22.65 18.5113 22.5551 18.2824 22.3864 18.1136C22.2176 17.9448 21.9887 17.85 21.75 17.85H11.25C11.0113 17.85 10.7824 17.9448 10.6136 18.1136C10.4448 18.2824 10.35 18.5113 10.35 18.75Z" fill="black" stroke="black" stroke-width="0.3"/>
</svg>
