<svg width="40" height="40" viewBox="0 0 40 40" fill="none" xmlns="http://www.w3.org/2000/svg">
    <defs>
        <linearGradient id="paint0_linear_1602_18090" x1="20" y1="30.5624" x2="20" y2="9.4375"
            gradientUnits="userSpaceOnUse">
            <stop stop-color="#FF81FF" />
            <stop offset="1" stop-color="#A93AFF" />
        </linearGradient>
    </defs>
    <rect width="40" height="40" rx="8" fill="#FDD0FF" />
    <path
        d="M20 9.4375C14.5359 9.4375 10.25 11.9359 10.25 15.125V24.875C10.25 28.0641 14.5359 30.5625 20 30.5625C25.4641 30.5625 29.75 28.0641 29.75 24.875V15.125C29.75 11.9359 25.4641 9.4375 20 9.4375ZM28.125 20C28.125 20.975 27.3227 21.9703 25.9312 22.732C24.357 23.5953 22.2547 24.0625 20 24.0625C17.7453 24.0625 15.643 23.5953 14.0687 22.732C12.6773 21.9703 11.875 20.975 11.875 20V18.3141C13.6117 19.8273 16.5672 20.8125 20 20.8125C23.4328 20.8125 26.3883 19.8273 28.125 18.3141V20ZM25.9312 27.607C24.357 28.4703 22.2547 28.9375 20 28.9375C17.7453 28.9375 15.643 28.4703 14.0687 27.607C12.6773 26.8453 11.875 25.85 11.875 24.875V23.1891C13.6117 24.7023 16.5672 25.6875 20 25.6875C23.4328 25.6875 26.3883 24.7023 28.125 23.1891V24.875C28.125 25.85 27.3227 26.8453 25.9312 27.607Z"
        fill="url(#paint0_linear_1602_18090)" />
</svg>
