<svg width="24" height="24" viewBox="0 0 24 24" fill="none" xmlns="http://www.w3.org/2000/svg">
<rect width="24" height="24" rx="8" fill="#33A36D"/>
<g clip-path="url(#clip0_sa)">
<g transform="translate(4 4)">
<path d="M7 0.266602C7.49706 0.266602 7.90039 0.669936 7.90039 1.16699V1.27832C8.40686 1.33162 8.88271 1.55752 9.24609 1.9209C9.66477 2.33964 9.9003 2.90786 9.90039 3.5V6.16699C9.90033 7.46646 9.38371 8.71297 8.46484 9.63184C7.79048 10.3062 6.93914 10.7612 6.02051 10.957C6.17485 11.4589 6.47636 11.9314 6.91602 12.3223C7.58521 12.917 8.5133 13.2666 9.5 13.2666C10.4867 13.2666 11.4148 12.917 12.084 12.3223C12.7495 11.7306 13.0995 10.9525 13.0996 10.167V9.03027C11.965 8.83939 11.0997 7.85574 11.0996 6.66699C11.0996 5.34151 12.1745 4.2666 13.5 4.2666C14.8255 4.2666 15.9004 5.34151 15.9004 6.66699C15.9003 7.46893 15.5048 8.17643 14.9004 8.6123V10.167C14.9003 11.5028 14.3021 12.7595 13.2803 13.668C12.2617 14.5733 10.9001 15.0674 9.5 15.0674C8.09987 15.0674 6.73834 14.5733 5.71973 13.668C4.91262 12.9504 4.37027 12.0155 4.17773 10.9961C3.18342 10.8267 2.25785 10.3545 1.53516 9.63184C0.616286 8.71297 0.0996741 7.46646 0.0996094 6.16699V3.5C0.0996956 2.90786 0.335228 2.33964 0.753906 1.9209C1.11729 1.55752 1.59314 1.33162 2.09961 1.27832V1.16699C2.09961 0.669936 2.50294 0.266602 3 0.266602C3.49706 0.266602 3.90039 0.669936 3.90039 1.16699V2.16699L3.89551 2.25879C3.84936 2.71264 3.46598 3.06738 3 3.06738H2.33301C2.2182 3.06747 2.10853 3.11315 2.02734 3.19434C1.94623 3.27551 1.90048 3.38525 1.90039 3.5V6.16699C1.90046 6.98908 2.22631 7.77807 2.80762 8.35938C3.38897 8.94066 4.17789 9.2666 5 9.2666C5.82211 9.2666 6.61103 8.94066 7.19238 8.35938C7.77369 7.77807 8.09954 6.98908 8.09961 6.16699V3.5C8.09952 3.38525 8.05377 3.27551 7.97266 3.19434C7.89147 3.11315 7.7818 3.06747 7.66699 3.06738H7C6.53402 3.06738 6.15064 2.71264 6.10449 2.25879L6.09961 2.16699V1.16699C6.09961 0.669936 6.50294 0.266602 7 0.266602ZM13.5 6.06738C13.1686 6.06738 12.9004 6.33562 12.9004 6.66699C12.9005 6.99825 13.1687 7.2666 13.5 7.2666C13.8313 7.2666 14.0995 6.99825 14.0996 6.66699C14.0996 6.33562 13.8314 6.06738 13.5 6.06738Z" fill="white"/>
</g>
</g>
<defs>
<clipPath id="clip0_sa">
<rect width="16" height="16" fill="white" transform="translate(4 4)"/>
</clipPath>
</defs>
</svg>
