<svg width="64" height="64" viewBox="0 0 64 64" fill="none" xmlns="http://www.w3.org/2000/svg">
    <rect width="64" height="64" rx="16" fill="#E5E3FF" />
    <path
        d="M41.6197 45.2004C41.9223 44.6655 41.9206 44.0963 41.8639 43.5083C41.4316 38.7052 41.007 33.9012 40.59 29.0963C40.5817 28.9987 40.5669 28.9011 40.5511 28.7567L27.0458 28.8531C26.9423 29.8727 26.8402 30.8947 26.7392 31.9193C26.3485 35.8587 25.9583 39.7978 25.5688 43.7367C25.552 43.8795 25.539 44.0273 25.5318 44.1731C25.5156 44.4089 25.5474 44.6449 25.6252 44.8671C25.7031 45.0893 25.8255 45.2932 25.9851 45.4665C26.1447 45.6397 26.3382 45.7789 26.5541 45.8757C26.7699 45.9724 27.0037 46.0248 27.2415 46.0296C27.8832 46.0494 28.5277 46.0311 29.1689 46.0299C32.7455 46.0094 36.3245 46.0003 39.905 45.9621C40.3157 45.9565 40.7254 45.778 41.1373 45.6818L41.6197 45.2004Z"
        fill="url(#paint0_linear_2365_14283)" />
    <path
        d="M10.01 28.1704C9.96525 28.6182 10.0607 28.7946 10.4992 28.8358C10.9658 28.885 11.437 28.8823 11.9042 28.8277C12.3695 28.7667 12.7383 28.8382 13.0658 29.1875C15.2068 31.47 17.3522 33.7492 19.5019 36.0249C20.905 37.5138 22.3093 39.0012 23.7146 40.4871C23.7525 40.5164 23.7927 40.5426 23.8348 40.5656C23.8563 40.3918 23.8776 40.2433 23.8919 40.093C24.1306 37.703 24.3693 35.3143 24.608 32.9268C24.627 32.8139 24.616 32.6983 24.5761 32.5915C24.5362 32.4848 24.4687 32.3906 24.3803 32.3183C21.8902 30.02 19.4117 27.7089 16.9228 25.4094C16.5658 25.0792 16.476 24.7108 16.5407 24.2343C16.599 23.7698 16.6028 23.3007 16.552 22.8365C16.5093 22.3949 16.3425 22.3058 15.8856 22.3395L10.01 28.1704Z"
        fill="url(#paint1_linear_2365_14283)" />
    <path
        d="M43.636 40.4724C48.0879 39.0598 52.0513 34.779 52.3577 29.1011C52.5047 26.4163 51.7803 23.7655 50.2911 21.5386C48.8018 19.3117 46.6262 17.6264 44.0845 16.7305C38.6569 14.8205 33.277 16.8958 30.3961 20.1827C30.4995 20.1923 30.5818 20.2051 30.6642 20.2053C30.8673 20.2079 31.071 20.2048 31.2741 20.2037C31.884 20.2008 32.5208 20.3087 33.0938 20.1622C33.6465 20.0221 34.1247 19.6003 34.6531 19.3367C38.7011 17.3166 42.5968 17.5377 46.2205 20.1681C50.7569 23.4581 51.6864 30.0989 48.3402 34.6596C47.1351 36.3007 45.6073 37.5349 43.7156 38.3096C43.5139 38.3925 43.4457 38.488 43.4725 38.7059C43.5401 39.2818 43.5814 39.861 43.636 40.4724Z"
        fill="url(#paint2_linear_2365_14283)" />
    <path
        d="M41.7447 22.8321C41.2558 22.3468 40.6534 22.1645 39.9674 22.1697C35.9255 22.1967 31.884 22.2194 27.843 22.238C27.7753 22.2383 27.7076 22.2387 27.6399 22.2404C27.0312 22.246 26.4465 22.4892 26.0122 22.9175C25.5779 23.3457 25.3289 23.9244 25.3191 24.5286C25.3093 25.1327 25.5395 25.7136 25.9598 26.1457C26.3801 26.5778 26.9568 26.8263 27.5652 26.8374C28.3429 26.8621 29.1229 26.838 29.902 26.8336C33.244 26.8165 36.5855 26.7995 39.9265 26.7824C40.8443 26.7791 41.5806 26.449 42.077 25.6639C42.3581 25.222 42.4785 24.6993 42.418 24.1837C42.3575 23.668 42.1197 23.1907 41.7447 22.8321Z"
        fill="url(#paint3_linear_2365_14283)" />
    <defs>
        <linearGradient id="paint0_linear_2365_14283" x1="10" y1="16" x2="59.3335" y2="53.665"
            gradientUnits="userSpaceOnUse">
            <stop stop-color="#A694F2" />
            <stop offset="1" stop-color="#8089F4" />
        </linearGradient>
        <linearGradient id="paint1_linear_2365_14283" x1="10" y1="16" x2="59.3335" y2="53.665"
            gradientUnits="userSpaceOnUse">
            <stop stop-color="#A694F2" />
            <stop offset="1" stop-color="#8089F4" />
        </linearGradient>
        <linearGradient id="paint2_linear_2365_14283" x1="10" y1="16" x2="59.3335" y2="53.665"
            gradientUnits="userSpaceOnUse">
            <stop stop-color="#A694F2" />
            <stop offset="1" stop-color="#8089F4" />
        </linearGradient>
        <linearGradient id="paint3_linear_2365_14283" x1="10" y1="16" x2="59.3335" y2="53.665"
            gradientUnits="userSpaceOnUse">
            <stop stop-color="#A694F2" />
            <stop offset="1" stop-color="#8089F4" />
        </linearGradient>
    </defs>
</svg>
