<svg width="74" height="74" viewBox="0 0 74 74" fill="none" xmlns="http://www.w3.org/2000/svg">
<g clip-path="url(#clip0_828_5562)">
<rect x="2" y="2" width="70" height="70" rx="22" fill="url(#paint0_linear_828_5562)"/>
<circle cx="37" cy="111" r="75" fill="url(#paint1_linear_828_5562)"/>
<path d="M30.6 25C30.6 23.7114 31.6029 22.6667 32.84 22.6667H39.88C41.1171 22.6667 42.12 23.7114 42.12 25C42.12 26.2887 41.1171 27.3334 39.88 27.3334H32.84C31.6029 27.3334 30.6 26.2887 30.6 25Z" fill="#BAB8EA"/>
<path d="M28.7905 24.8026C28.9028 24.7864 29 24.882 29 25.0002C29 27.2094 30.7192 29.0002 32.84 29.0002H39.88C42.0008 29.0002 43.72 27.2094 43.72 25.0002C43.72 24.882 43.8172 24.7864 43.9295 24.8026C45.0817 24.9681 46.0387 25.3218 46.7944 26.1098C47.5647 26.9129 47.896 27.9241 48.0509 29.1251C48.2 30.282 48.2 31.753 48.2 33.5783V42.3992C48.2 44.2244 48.2 45.6955 48.0509 46.8524C47.896 48.0533 47.5647 49.0645 46.7944 49.8676C46.024 50.6709 45.0539 51.0165 43.9015 51.178C42.7917 51.3336 41.3808 51.3336 39.6303 51.3336H33.0897C31.3392 51.3336 29.9282 51.3336 28.8184 51.178C27.6661 51.0165 26.696 50.6709 25.9256 49.8676C25.1553 49.0645 24.824 48.0533 24.6691 46.8524C24.52 45.6955 24.52 44.2245 24.52 42.3993V33.5782C24.52 31.753 24.52 30.282 24.6691 29.1251C24.824 27.9241 25.1553 26.9129 25.9256 26.1098C26.6813 25.3218 27.6383 24.9681 28.7905 24.8026Z" fill="url(#paint2_linear_828_5562)"/>
<path fill-rule="evenodd" clip-rule="evenodd" d="M37.325 35.6667C37.325 35.1144 37.7548 34.6667 38.285 34.6667H42.765C43.2952 34.6667 43.725 35.1144 43.725 35.6667C43.725 36.219 43.2952 36.6667 42.765 36.6667H38.285C37.7548 36.6667 37.325 36.219 37.325 35.6667Z" fill="#BAB8EA"/>
<path d="M35.99 33.9997C36.167 34.5204 35.9052 35.0918 35.4055 35.2762C35.119 35.3818 34.7603 35.6221 34.3556 35.9917C33.961 36.3522 33.5726 36.7896 33.2245 37.2241C32.8783 37.6565 32.5836 38.0714 32.3752 38.379C32.2713 38.5322 32.1104 38.7836 32.0555 38.8694C31.87 39.1736 31.5414 39.3506 31.1959 39.3322C30.8504 39.3138 30.5411 39.1032 30.3864 38.7808C30.1233 38.2328 29.9038 38.0485 29.8325 37.9989C29.8263 37.9946 29.8209 37.9912 29.8164 37.9884C29.3567 37.914 29.005 37.4998 29.005 37.0002C29.005 36.448 29.4348 36.0002 29.965 36.0002C30.1396 36.0002 30.2534 36.0341 30.3347 36.0584L30.3387 36.0596C30.5033 36.1085 30.6941 36.1936 30.8975 36.3349C31.0098 36.4128 31.1229 36.5058 31.2358 36.6158C31.3903 36.4045 31.5631 36.1766 31.7502 35.943C32.1362 35.4609 32.5949 34.94 33.0897 34.488C33.5745 34.0451 34.1474 33.6186 34.7645 33.391C35.2643 33.2066 35.8129 33.4791 35.99 33.9997Z" fill="#BAB8EA"/>
<path fill-rule="evenodd" clip-rule="evenodd" d="M37.325 43.6667C37.325 43.1144 37.7548 42.6667 38.285 42.6667H42.765C43.2952 42.6667 43.725 43.1144 43.725 43.6667C43.725 44.219 43.2952 44.6667 42.765 44.6667H38.285C37.7548 44.6667 37.325 44.219 37.325 43.6667Z" fill="#BAB8EA"/>
<path fill-rule="evenodd" clip-rule="evenodd" d="M29.965 43.6666C29.965 42.9302 30.5381 42.3333 31.245 42.3333H32.525C33.2319 42.3333 33.805 42.9302 33.805 43.6666C33.805 44.403 33.2319 45 32.525 45H31.245C30.5381 45 29.965 44.403 29.965 43.6666Z" fill="#BAB8EA"/>
</g>
<rect x="1" y="1" width="72" height="72" rx="23" stroke="white" stroke-width="2"/>
<defs>
<linearGradient id="paint0_linear_828_5562" x1="37" y1="2" x2="37" y2="72" gradientUnits="userSpaceOnUse">
<stop stop-color="#E5E4F7"/>
<stop offset="1" stop-color="#BFBCEB"/>
</linearGradient>
<linearGradient id="paint1_linear_828_5562" x1="37" y1="27" x2="37" y2="77" gradientUnits="userSpaceOnUse">
<stop stop-color="white" stop-opacity="0"/>
<stop offset="1" stop-color="white"/>
</linearGradient>
<linearGradient id="paint2_linear_828_5562" x1="36.36" y1="24.8008" x2="36.36" y2="51.3336" gradientUnits="userSpaceOnUse">
<stop stop-color="#9591DE"/>
<stop offset="1" stop-color="#6861D1"/>
</linearGradient>
<clipPath id="clip0_828_5562">
<rect x="2" y="2" width="70" height="70" rx="22" fill="white"/>
</clipPath>
</defs>
</svg>
