<svg width="24" height="24" viewBox="0 0 24 24" fill="none" xmlns="http://www.w3.org/2000/svg">
<path d="M22.9736 2.20092C22.903 2.02938 22.7351 1.91744 22.5498 1.91744C19.1076 1.91744 15.9673 3.00273 14.1508 4.81921C13.1022 5.86781 12.6885 7.42007 13.0729 8.87235C13.1197 9.05034 13.2692 9.18336 13.4518 9.20903C13.6353 9.2347 13.8151 9.15033 13.9096 8.9916C14.7499 7.59531 15.7866 6.27699 16.9902 5.07241C17.1691 4.89352 17.4599 4.89352 17.6388 5.07241C17.8177 5.25131 17.8177 5.54214 17.6388 5.72104C17.2865 6.07332 16.9664 6.42286 16.6627 6.76964C16.6333 6.80357 16.6058 6.83754 16.5765 6.87147C14.8572 8.86044 13.8958 10.7118 13.4013 11.9081C12.805 10.0439 11.6875 6.84305 10.6674 5.49075C11.294 4.58161 11.2069 3.32564 10.3986 2.51833C9.43445 1.5532 7.84456 1 6.03724 1C5.85194 1 5.68405 1.11194 5.6134 1.28348C5.54184 1.45502 5.58127 1.65228 5.71248 1.78349C6.12992 2.19998 6.26383 3.01924 6.39413 3.81004C6.52714 4.61554 6.65194 5.37606 7.09686 5.82102C7.55188 6.27604 8.15006 6.50358 8.7482 6.50358C9.18671 6.50358 9.62341 6.37882 10.0051 6.13478C11.0711 7.62739 12.4582 11.8778 12.9362 13.5144C12.994 13.7107 13.1729 13.8438 13.3766 13.8438C13.3802 13.8438 13.3839 13.8438 13.3876 13.8438C13.5949 13.8392 13.7738 13.6943 13.8224 13.4924C13.827 13.475 14.0527 12.5732 14.7343 11.2264C15.4609 11.7365 16.2994 12.0053 17.1434 12.0044C18.2187 12.0044 19.2902 11.5934 20.1076 10.776C20.8929 9.99071 21.1314 8.54028 21.3837 7.00543C21.6562 5.35043 21.9378 3.63854 22.8745 2.70093C23.0057 2.56972 23.0452 2.37246 22.9736 2.20092Z" fill="#33A36D"/>
<path d="M6.35355 12.1511C5.56731 11.4052 2.42335 11.1649 1.47843 11.1089C1.35092 11.1089 1.22888 11.1465 1.13625 11.2327C1.04448 11.3199 0.992188 11.441 0.992188 11.5667V20.7417C0.992188 20.9949 1.1977 21.2004 1.45091 21.2004H4.20315C4.40131 21.2004 4.57745 21.0729 4.63891 20.8839C4.70586 20.6784 6.28659 14.9088 6.49482 12.5235C6.50677 12.385 6.45538 12.2474 6.35355 12.1511Z" fill="#33A36D"/>
<path d="M20.2548 17.0797L17.0438 18.4503C16.1548 18.4934 14.3062 18.4356 13.8328 18.442C13.3668 18.4484 10.9843 17.6843 11.3577 17.5329C11.4356 17.5008 11.6347 17.4943 11.998 17.5246C14.0934 17.6989 17.5025 18.121 17.5025 16.6072C17.5025 15.0935 13.8081 14.7724 12.9154 14.7724C12.0228 14.7724 10.5265 13.9714 9.2458 13.8549C8.73664 13.8091 8.03757 13.7393 7.32749 13.6953C7.0376 15.6678 6.19267 18.5264 5.75781 19.9245L10.6219 22.1245C12.4421 22.8126 13.6797 23.6914 17.5025 22.1245C17.5025 22.1245 23.007 19.7879 23.007 18.4549C23.007 17.353 21.7456 16.564 20.2548 17.0797Z" fill="#33A36D"/>
</svg>
