<svg width="20" height="20" viewBox="0 0 20 20" fill="none" xmlns="http://www.w3.org/2000/svg">
<path d="M4.8752 2.11837C4.11565 2.39772 3.44973 2.88459 2.95316 3.52362C2.45659 4.16265 2.14929 4.9282 2.06621 5.73321C1.91543 7.18243 1.83887 8.58008 1.83887 10.8223C1.83887 13.0645 1.91699 14.4617 2.06621 15.9109C2.16907 16.9 2.60899 17.8236 3.31213 18.5267C4.01528 19.2299 4.93887 19.6698 5.92793 19.7727C5.92793 19.7727 7.37637 20 9.8916 20C12.4225 20 14.0713 19.7727 14.0713 19.7727C15.0604 19.6698 15.9839 19.2299 16.6871 18.5267C17.3902 17.8236 17.8301 16.9 17.933 15.9109C18.0838 14.4617 18.1604 13.0637 18.1604 10.8223C18.1604 8.58087 18.0822 7.18282 17.933 5.73321C17.8502 4.9324 17.5456 4.17059 17.0534 3.53349C16.5612 2.89638 15.901 2.40927 15.1471 2.12696L15.026 2.0836C14.7166 1.97742 14.3962 1.90665 14.0709 1.87266C14.0709 1.87266 12.4217 1.64493 9.89121 1.64493C7.37598 1.64493 5.92754 1.87266 5.92754 1.87266C5.60429 1.90646 5.28587 1.97656 4.97832 2.08165L4.8752 2.11837Z" fill="#39B77A"/>
<path d="M15.1479 2.12696L15.0268 2.0836C14.7174 1.97742 14.397 1.90665 14.0717 1.87266C14.0717 1.87266 12.4225 1.64493 9.89199 1.64493C7.37676 1.64493 5.92832 1.87266 5.92832 1.87266C5.60507 1.90646 5.28666 1.97656 4.9791 2.08165L4.87559 2.11837C4.11597 2.39766 3.44997 2.8845 2.95332 3.52354C2.45668 4.16258 2.14932 4.92815 2.06621 5.73321C1.91543 7.18243 1.83887 8.58008 1.83887 10.8223C1.83887 12.7586 1.8959 14.0645 2.00879 15.3188C2.88576 15.5408 3.78695 15.6529 4.6916 15.6524C10.7029 15.6524 15.5764 10.7789 15.5764 4.76563C15.5764 3.89165 15.4715 3.02084 15.2639 2.17188C15.2248 2.15587 15.1857 2.14024 15.1467 2.1254L15.1479 2.12696Z" fill="#45C587"/>
<path d="M14.2343 3.75742C14.2025 4.06134 14.0671 4.34507 13.8509 4.56101C13.6347 4.77694 13.3508 4.91194 13.0468 4.94336C12.6015 4.98984 10.6871 5.01328 9.99995 5.01328C9.31284 5.01328 7.39683 4.98984 6.95308 4.94336C6.64912 4.91194 6.36521 4.77694 6.14899 4.56101C5.93277 4.34507 5.79739 4.06134 5.76558 3.75742C5.71939 3.33098 5.69605 2.90237 5.69566 2.47344C5.69566 2.47344 5.68628 1.70586 5.76558 1.25586C5.79725 0.951887 5.93258 0.668078 6.14883 0.452115C6.36508 0.236153 6.64906 0.101197 6.95308 0.0699219C7.39683 0.0234375 9.31128 0 9.99995 0C10.6886 0 12.6031 0.0234375 13.0468 0.0699219C13.3508 0.101197 13.6348 0.236153 13.8511 0.452115C14.0673 0.668078 14.2027 0.951887 14.2343 1.25586C14.283 1.65986 14.3064 2.06652 14.3042 2.47344C14.3042 2.47344 14.3054 3.25039 14.2343 3.75742Z" fill="white"/>
<path d="M10.5557 14.0543H6.0459C5.82017 14.0495 5.60531 13.9565 5.44737 13.7951C5.28943 13.6338 5.20098 13.417 5.20098 13.1912C5.20098 12.9654 5.28943 12.7486 5.44737 12.5873C5.60531 12.426 5.82017 12.3329 6.0459 12.3281H10.5557C10.6706 12.3257 10.7848 12.3462 10.8916 12.3885C10.9985 12.4307 11.0958 12.4939 11.1779 12.5743C11.26 12.6547 11.3253 12.7507 11.3698 12.8566C11.4144 12.9625 11.4373 13.0763 11.4373 13.1912C11.4373 13.3061 11.4144 13.4199 11.3698 13.5258C11.3253 13.6317 11.26 13.7277 11.1779 13.8081C11.0958 13.8885 10.9985 13.9517 10.8916 13.9939C10.7848 14.0362 10.6706 14.0567 10.5557 14.0543ZM13.9541 10.3613H6.0459C5.81694 10.3613 5.59736 10.2704 5.43547 10.1085C5.27357 9.94658 5.18262 9.727 5.18262 9.49805C5.18262 9.26909 5.27357 9.04951 5.43547 8.88761C5.59736 8.72572 5.81694 8.63477 6.0459 8.63477H13.9545C14.1834 8.63477 14.403 8.72572 14.5649 8.88761C14.7268 9.04951 14.8178 9.26909 14.8178 9.49805C14.8178 9.727 14.7268 9.94658 14.5649 10.1085C14.403 10.2704 14.1834 10.3613 13.9545 10.3613H13.9541Z" fill="white"/>
</svg>
