<svg width="64" height="64" viewBox="0 0 64 64" fill="none" xmlns="http://www.w3.org/2000/svg">
<rect width="64" height="64" rx="32" fill="#E4FAED"/>
<path d="M35.4973 18.5617C35.5462 18.1488 35.5707 17.9424 35.4569 17.8075C35.343 17.6726 35.1446 17.6715 34.7478 17.6692C34.3059 17.6666 33.8417 17.6666 33.3544 17.6666H29.3651C28.879 17.6666 28.4159 17.6666 27.9751 17.6691C27.5805 17.6714 27.3832 17.6725 27.2694 17.8065C27.1556 17.9404 27.1787 18.1459 27.2249 18.5567L27.2954 19.1838C27.425 19.9935 27.5103 20.5131 27.6192 20.894C27.7215 21.2519 27.8128 21.3657 27.8853 21.4296C27.9578 21.4936 28.0806 21.5688 28.4363 21.6151C28.8187 21.6648 29.3309 21.6666 30.1324 21.6666H32.5864C33.3879 21.6666 33.9002 21.6648 34.2825 21.6151C34.6382 21.5688 34.761 21.4936 34.8334 21.4296C34.906 21.3657 34.9974 21.2519 35.0996 20.894C35.2086 20.5126 35.2941 19.9922 35.4239 19.1807L35.4973 18.5617Z" fill="url(#paint0_linear_828_5532)"/>
<path fill-rule="evenodd" clip-rule="evenodd" d="M25.1001 17.8769C25.2272 17.9798 25.2479 18.1635 25.2892 18.5308L25.3914 19.4403L25.3975 19.4783C25.5152 20.2142 25.6336 20.9547 25.7793 21.4645C25.939 22.0232 26.18 22.5455 26.6446 22.9555C27.1092 23.3655 27.6434 23.5272 28.1988 23.5995C28.7142 23.6665 29.3477 23.6665 30.076 23.6664H32.6433C33.3716 23.6665 34.0051 23.6665 34.5206 23.5995C35.076 23.5272 35.6101 23.3655 36.0748 22.9555C36.5394 22.5455 36.7804 22.0232 36.94 21.4645C37.0863 20.9526 37.2045 20.2142 37.3226 19.4756L37.3272 19.4466L37.4363 18.5266C37.4796 18.1615 37.5012 17.9789 37.6282 17.877C37.7551 17.775 37.9233 17.7986 38.2596 17.8459L38.3302 17.8561C39.666 18.053 40.762 18.4715 41.6238 19.4164C42.4791 20.3542 42.8517 21.5346 43.0282 22.9742C43.2 24.3752 43.2 26.1645 43.2 28.4196V35.5799C43.2 37.8351 43.2 39.6243 43.0282 41.0253C42.8517 42.4648 42.4791 43.6453 41.6238 44.5831C40.762 45.528 39.666 45.9464 38.3302 46.1433C37.0431 46.3332 35.4031 46.3331 33.3546 46.3331H29.3654C27.3168 46.3331 25.6769 46.3332 24.3897 46.1433C23.054 45.9464 21.958 45.528 21.0962 44.5831C20.2409 43.6453 19.8683 42.4648 19.6918 41.0253C19.52 39.6243 19.52 37.8351 19.52 35.58V28.4196C19.52 26.1645 19.52 24.3752 19.6918 22.9742C19.8683 21.5346 20.2409 20.3542 21.0962 19.4164C21.958 18.4715 23.054 18.053 24.3897 17.8561L24.4657 17.8452C24.8038 17.7978 24.9729 17.7741 25.1001 17.8769ZM32.3226 30.6664C32.3226 30.114 32.7523 29.6664 33.2826 29.6664H37.7626C38.2927 29.6664 38.7226 30.114 38.7226 30.6664C38.7226 31.2187 38.2927 31.6664 37.7626 31.6664H33.2826C32.7523 31.6664 32.3226 31.2187 32.3226 30.6664ZM30.4029 30.2756C30.9028 30.0912 31.1644 29.5197 30.9874 28.9991C30.8104 28.4785 30.2618 28.2059 29.762 28.3903C29.1448 28.618 28.572 29.0445 28.0872 29.4873C27.5924 29.9393 27.1337 30.4604 26.7477 30.9424C26.5606 31.176 26.3878 31.4039 26.2333 31.6152C26.1204 31.5052 26.0073 31.4123 25.895 31.3343C25.6916 31.1929 25.5008 31.1079 25.3362 31.0589L25.3074 31.0501C25.2281 31.0255 25.1201 30.992 24.9625 30.9996C24.4323 30.9996 24.0025 31.4473 24.0025 31.9996C24.0025 32.4992 24.3543 32.9133 24.8139 32.9877C24.8184 32.9905 24.8238 32.994 24.83 32.9984C24.9013 33.0479 25.1208 33.2321 25.3838 33.7801C25.5386 34.1025 25.8479 34.3132 26.1934 34.3316C26.5389 34.3501 26.8675 34.1729 27.053 33.8688C27.1079 33.7831 27.2688 33.5316 27.3727 33.3784C27.5811 33.0708 27.8758 32.6559 28.222 32.2236C28.5701 31.7889 28.9585 31.3516 29.3531 30.9911C29.7577 30.6215 30.1166 30.3812 30.4029 30.2756ZM32.3226 38.6664C32.3226 38.114 32.7523 37.6664 33.2826 37.6664H37.7626C38.2927 37.6664 38.7226 38.114 38.7226 38.6664C38.7226 39.2187 38.2927 39.6664 37.7626 39.6664H33.2826C32.7523 39.6664 32.3226 39.2187 32.3226 38.6664ZM26.2425 37.3331C25.5356 37.3331 24.9625 37.93 24.9625 38.6664C24.9625 39.4027 25.5356 39.9997 26.2425 39.9997H27.5225C28.2294 39.9997 28.8026 39.4027 28.8026 38.6664C28.8026 37.93 28.2294 37.3331 27.5225 37.3331H26.2425Z" fill="url(#paint1_linear_828_5532)"/>
<defs>
<linearGradient id="paint0_linear_828_5532" x1="36.1189" y1="21.8666" x2="26.623" y2="21.1668" gradientUnits="userSpaceOnUse">
<stop stop-color="#28D581"/>
<stop offset="1" stop-color="#33A36D"/>
</linearGradient>
<linearGradient id="paint1_linear_828_5532" x1="44.8464" y1="47.7595" x2="17.7982" y2="46.967" gradientUnits="userSpaceOnUse">
<stop stop-color="#28D581"/>
<stop offset="1" stop-color="#33A36D"/>
</linearGradient>
</defs>
</svg>
