<svg width="64" height="64" viewBox="0 0 64 64" fill="none" xmlns="http://www.w3.org/2000/svg">
    <rect width="64" height="64" rx="16" fill="#DBFFFC" />
    <path
        d="M19.4586 30.8687C19.4691 31.561 19.4275 31.638 19.5259 33.8378C19.8159 40.3284 18.0604 40.4767 17.8886 40.8866H45.4551C45.2917 40.4968 43.532 40.2367 43.8179 33.8378C43.9228 31.4904 43.8707 31.5243 43.8851 30.3545C43.8851 24.5295 40.1179 19.3084 34.6429 17.8663C34.8658 17.3955 35.0028 16.8725 35.0028 16.3116C35.0028 14.3756 33.5086 12.8008 31.6719 12.8008C29.8351 12.8008 28.341 14.3756 28.341 16.3115C28.341 16.8874 28.4859 17.4232 28.72 17.9031C23.4117 19.3544 19.4586 24.687 19.4586 30.8687ZM31.6719 15.1413C32.2845 15.1413 32.7821 15.6658 32.7821 16.3115C32.7821 16.9488 32.2961 17.4635 31.6945 17.4769C31.6821 17.4769 31.6695 17.4787 31.6574 17.4787C31.052 17.47 30.5616 16.9518 30.5616 16.3116C30.5616 15.6658 31.0592 15.1413 31.6719 15.1413ZM17.238 46.7377C17.238 47.3846 17.7346 47.9079 18.3482 47.9079H44.9954C45.6091 47.9079 46.1056 47.3845 46.1056 46.7377V43.227H17.238V46.7377ZM45.7804 21.8199L48.001 19.4794C48.4347 19.0222 48.4347 18.2818 48.001 17.8246C47.5672 17.3675 46.8646 17.3675 46.431 17.8246L44.2104 20.1651C43.7766 20.6223 43.7766 21.3627 44.2104 21.8199C44.6441 22.2769 45.3468 22.2769 45.7804 21.8199ZM49.4366 24.5031H47.216C46.6022 24.5031 46.1058 25.0265 46.1058 25.6734C46.1058 26.3202 46.6024 26.8436 47.216 26.8436H49.4366C50.0504 26.8436 50.5469 26.3202 50.5469 25.6734C50.5469 25.0265 50.0503 24.5031 49.4366 24.5031ZM17.5634 21.8199C17.9971 22.2771 18.6996 22.2771 19.1334 21.8199C19.5671 21.3627 19.5671 20.6223 19.1334 20.1651L16.9128 17.8246C16.479 17.3675 15.7764 17.3675 15.3427 17.8246C14.9091 18.2818 14.909 19.0222 15.3427 19.4794L17.5634 21.8199ZM16.1278 24.5031H13.9071C13.2934 24.5031 12.7969 25.0265 12.7969 25.6734C12.7969 26.3202 13.2935 26.8436 13.9071 26.8436H16.1278C16.7415 26.8436 17.238 26.3202 17.238 25.6734C17.238 25.0265 16.7415 24.5031 16.1278 24.5031ZM31.6719 52.5889C33.1175 52.5889 34.3384 51.6077 34.7982 50.2484H28.5455C29.0054 51.6077 30.2262 52.5889 31.6719 52.5889Z"
        fill="url(#paint0_linear_2365_14270)" />
    <defs>
        <linearGradient id="paint0_linear_2365_14270" x1="-2.58626" y1="-12.3767" x2="65"
            y2="50.7756" gradientUnits="userSpaceOnUse">
            <stop stop-color="#64F0B4" />
            <stop offset="1" stop-color="#46BCE8" />
        </linearGradient>
    </defs>
</svg>
