<svg width="48" height="48" viewBox="0 0 48 48" fill="none" xmlns="http://www.w3.org/2000/svg">
<path d="M27.5 4H20.5C19.3931 4.00003 18.3251 4.40801 17.5001 5.14594C16.6751 5.88387 16.151 6.89998 16.028 8H12.5C11.3065 8 10.1619 8.47411 9.31802 9.31802C8.47411 10.1619 8 11.3065 8 12.5V39.5C8 40.6935 8.47411 41.8381 9.31802 42.682C10.1619 43.5259 11.3065 44 12.5 44H35.5C36.0909 44 36.6761 43.8836 37.2221 43.6575C37.768 43.4313 38.2641 43.0998 38.682 42.682C39.0998 42.2641 39.4313 41.768 39.6575 41.2221C39.8836 40.6761 40 40.091 40 39.5V12.5C40 11.9091 39.8836 11.3239 39.6575 10.7779C39.4313 10.232 39.0998 9.73588 38.682 9.31802C38.2641 8.90016 37.768 8.56869 37.2221 8.34254C36.6761 8.1164 36.0909 8 35.5 8H31.972C31.849 6.89998 31.3249 5.88387 30.4999 5.14594C29.6749 4.40801 28.6069 4.00003 27.5 4ZM20.5 7H27.5C27.8978 7 28.2794 7.15804 28.5607 7.43934C28.842 7.72064 29 8.10218 29 8.5C29 8.89782 28.842 9.27936 28.5607 9.56066C28.2794 9.84196 27.8978 10 27.5 10H20.5C20.1022 10 19.7206 9.84196 19.4393 9.56066C19.158 9.27936 19 8.89782 19 8.5C19 8.10218 19.158 7.72064 19.4393 7.43934C19.7206 7.15804 20.1022 7 20.5 7ZM34.56 17.44C34.8409 17.7213 34.9987 18.1025 34.9987 18.5C34.9987 18.8975 34.8409 19.2787 34.56 19.56L30.56 23.56C30.2787 23.8409 29.8975 23.9987 29.5 23.9987C29.1025 23.9987 28.7213 23.8409 28.44 23.56L26.44 21.56C26.2926 21.4227 26.1744 21.2571 26.0924 21.0731C26.0105 20.8891 25.9664 20.6905 25.9628 20.489C25.9593 20.2876 25.9963 20.0876 26.0718 19.9008C26.1472 19.714 26.2595 19.5444 26.4019 19.4019C26.5444 19.2595 26.714 19.1472 26.9008 19.0718C27.0876 18.9963 27.2876 18.9593 27.489 18.9628C27.6905 18.9664 27.8891 19.0105 28.0731 19.0924C28.2571 19.1744 28.4227 19.2926 28.56 19.44L29.5 20.38L32.44 17.44C32.7212 17.1591 33.1025 17.0013 33.5 17.0013C33.8975 17.0013 34.2788 17.1591 34.56 17.44ZM34.56 30.56L30.56 34.56C30.2787 34.8409 29.8975 34.9987 29.5 34.9987C29.1025 34.9987 28.7213 34.8409 28.44 34.56L26.44 32.56C26.2926 32.4227 26.1744 32.2571 26.0924 32.0731C26.0105 31.8891 25.9664 31.6905 25.9628 31.489C25.9593 31.2876 25.9963 31.0876 26.0718 30.9008C26.1472 30.714 26.2595 30.5444 26.4019 30.4019C26.5444 30.2595 26.714 30.1472 26.9008 30.0718C27.0876 29.9963 27.2876 29.9593 27.489 29.9628C27.6905 29.9664 27.8891 30.0105 28.0731 30.0924C28.2571 30.1744 28.4227 30.2926 28.56 30.44L29.5 31.38L32.44 28.44C32.5773 28.2926 32.7429 28.1744 32.9269 28.0924C33.1109 28.0105 33.3095 27.9664 33.511 27.9628C33.7124 27.9593 33.9124 27.9963 34.0992 28.0718C34.286 28.1472 34.4556 28.2595 34.5981 28.4019C34.7405 28.5444 34.8528 28.714 34.9282 28.9008C35.0037 29.0876 35.0407 29.2876 35.0372 29.489C35.0336 29.6905 34.9895 29.8891 34.9076 30.0731C34.8256 30.2571 34.7074 30.4227 34.56 30.56ZM14 20.5C14 20.1022 14.158 19.7206 14.4393 19.4393C14.7206 19.158 15.1022 19 15.5 19H22.5C22.8978 19 23.2794 19.158 23.5607 19.4393C23.842 19.7206 24 20.1022 24 20.5C24 20.8978 23.842 21.2794 23.5607 21.5607C23.2794 21.842 22.8978 22 22.5 22H15.5C15.1022 22 14.7206 21.842 14.4393 21.5607C14.158 21.2794 14 20.8978 14 20.5ZM15.5 30H22.5C22.8978 30 23.2794 30.158 23.5607 30.4393C23.842 30.7206 24 31.1022 24 31.5C24 31.8978 23.842 32.2794 23.5607 32.5607C23.2794 32.842 22.8978 33 22.5 33H15.5C15.1022 33 14.7206 32.842 14.4393 32.5607C14.158 32.2794 14 31.8978 14 31.5C14 31.1022 14.158 30.7206 14.4393 30.4393C14.7206 30.158 15.1022 30 15.5 30Z" fill="black"/>
</svg>
