<svg width="32" height="32" viewBox="0 0 32 32" fill="none" xmlns="http://www.w3.org/2000/svg">
<path fill-rule="evenodd" clip-rule="evenodd" d="M1 5.92424C1 3.20466 3.20466 1 5.92424 1H8.87879C9.42271 1 9.86364 1.44093 9.86364 1.98485C9.86364 2.52877 9.4227 2.9697 8.87879 2.9697H5.92424C4.29249 2.9697 2.9697 4.29249 2.9697 5.92424V8.87879C2.9697 9.42271 2.52877 9.86364 1.98485 9.86364C1.44093 9.86364 1 9.4227 1 8.87879V5.92424ZM1 26.0758C1 28.7953 3.20466 31 5.92424 31H8.87879C9.42271 31 9.86364 30.5591 9.86364 30.0152C9.86364 29.4712 9.4227 29.0303 8.87879 29.0303H5.92424C4.29249 29.0303 2.9697 27.7075 2.9697 26.0758V23.1212C2.9697 22.5773 2.52877 22.1364 1.98485 22.1364C1.44093 22.1364 1 22.5773 1 23.1212V26.0758ZM26.0758 1C28.7953 1 31 3.20466 31 5.92424V8.87879C31 9.4227 30.5591 9.86364 30.0152 9.86364C29.4712 9.86364 29.0303 9.42271 29.0303 8.87879V5.92424C29.0303 4.29249 27.7075 2.9697 26.0758 2.9697H23.1212C22.5773 2.9697 22.1364 2.52877 22.1364 1.98485C22.1364 1.44093 22.5773 1 23.1212 1H26.0758ZM31 26.0758C31 28.7953 28.7953 31 26.0758 31H23.1212C22.5773 31 22.1364 30.5591 22.1364 30.0152C22.1364 29.4712 22.5773 29.0303 23.1212 29.0303H26.0758C27.7075 29.0303 29.0303 27.7075 29.0303 26.0758V23.1212C29.0303 22.5773 29.4712 22.1364 30.0152 22.1364C30.5591 22.1364 31 22.5773 31 23.1212V26.0758ZM26.9091 16C26.9091 22.0249 22.0249 26.9091 16 26.9091C9.97508 26.9091 5.09091 22.0249 5.09091 16C5.09091 9.97508 9.97508 5.09091 16 5.09091C22.0249 5.09091 26.9091 9.97508 26.9091 16ZM19.8952 9.28819L17.6291 13.305C16.5873 12.6893 15.3483 12.732 14.3738 13.3054L11.9106 8.93989C13.1535 8.20823 14.5678 7.82086 16.0012 7.81818H16.015C17.4023 7.81821 18.8072 8.17893 20.0926 8.93812L19.8952 9.28819ZM14.3735 19.1343L11.9104 23.5C9.46591 22.0501 7.81818 19.343 7.81818 16.2494H12.7453C12.7453 17.4802 13.4009 18.5574 14.3735 19.1343ZM22.8795 16.1904H19.2563C19.2542 17.341 18.6707 18.4605 17.6289 19.0758L19.8947 23.0922L20.0921 23.4427C22.7102 21.8958 24.1771 19.082 24.1818 16.1904H22.8795ZM17.9547 16.1904C17.9547 17.2945 17.0801 18.1895 16.0013 18.1895C14.9224 18.1895 14.0478 17.2945 14.0478 16.1904C14.0478 15.0864 14.9224 14.1913 16.0013 14.1913C17.0801 14.1913 17.9547 15.0864 17.9547 16.1904Z" fill="url(#paint0_linear_6100_52723)"/>
<defs>
<linearGradient id="paint0_linear_6100_52723" x1="16.0001" y1="31" x2="16.0001" y2="1" gradientUnits="userSpaceOnUse">
<stop stop-color="#FFDE00"/>
<stop offset="1" stop-color="#FF5900"/>
</linearGradient>
</defs>
</svg>
