<svg width="24" height="24" viewBox="0 0 24 24" fill="none" xmlns="http://www.w3.org/2000/svg">
<rect width="24" height="24" rx="8" fill="#33A36D"/>
<g clip-path="url(#clip0_2817_318)">
<path d="M18.6945 6.3398C17.9865 5.60669 17.0584 5.1443 16.0625 5.02859C15.0667 4.91288 14.0624 5.15073 13.2146 5.70307L14.9906 7.57192C15.0615 7.65308 15.1162 7.74798 15.1514 7.85113C15.1866 7.95428 15.2017 8.06363 15.1957 8.17285C15.1898 8.28206 15.1629 8.38897 15.1167 8.48738C15.0705 8.58579 15.0059 8.67374 14.9266 8.74615C14.7787 8.881 14.5878 8.95462 14.3906 8.95288C14.2776 8.95377 14.1657 8.92991 14.0623 8.88288C13.9589 8.83584 13.8663 8.7667 13.7906 8.68L11.5346 6.3398C11.2111 6.00571 10.8385 5.72662 10.4306 5.51288C9.59843 5.0722 8.65273 4.91487 7.7288 5.0634C6.80488 5.21193 5.95007 5.6587 5.28666 6.3398C4.45651 7.33862 4.00006 8.61185 4.00006 9.92865C4.00006 11.2455 4.45651 12.5187 5.28666 13.5175C6.77465 15.1714 10.3906 19 12.0146 19C13.2786 19 15.7586 16.6764 17.4785 14.8654C17.9105 14.4189 18.2785 14.0385 18.5985 13.6664L18.7185 13.534C19.5496 12.5311 20.0044 11.2529 20 9.93231C19.9956 8.61175 19.5323 7.33679 18.6945 6.3398ZM13.5906 13.4514H12.7906V14.2783C12.7906 14.4976 12.7063 14.7079 12.5563 14.863C12.4062 15.0181 12.2028 15.1052 11.9906 15.1052C11.7784 15.1052 11.5749 15.0181 11.4249 14.863C11.2749 14.7079 11.1906 14.4976 11.1906 14.2783V13.4514H10.3906C10.1784 13.4514 9.97496 13.3642 9.82493 13.2092C9.67491 13.0541 9.59062 12.8437 9.59062 12.6244C9.59062 12.4051 9.67491 12.1948 9.82493 12.0397C9.97496 11.8846 10.1784 11.7975 10.3906 11.7975H11.1906V10.9706C11.1906 10.7513 11.2749 10.5409 11.4249 10.3859C11.5749 10.2308 11.7784 10.1437 11.9906 10.1437C12.2028 10.1437 12.4062 10.2308 12.5563 10.3859C12.7063 10.5409 12.7906 10.7513 12.7906 10.9706V11.7975H13.5906C13.8028 11.7975 14.0062 11.8846 14.1563 12.0397C14.3063 12.1948 14.3906 12.4051 14.3906 12.6244C14.3906 12.8437 14.3063 13.0541 14.1563 13.2092C14.0062 13.3642 13.8028 13.4514 13.5906 13.4514Z" fill="white"/>
</g>
<defs>
<clipPath id="clip0_2817_318">
<rect width="16" height="16" fill="white" transform="translate(4 4)"/>
</clipPath>
</defs>
</svg>
