<svg width="48" height="48" viewBox="0 0 48 48" fill="none" xmlns="http://www.w3.org/2000/svg">
<path d="M44.2563 8.36842H39.6316V3.74368C39.6316 2.50737 38.6242 1.5 37.3879 1.5H37.3192C36.06 1.5 35.0526 2.50737 35.0526 3.74368V8.36842H30.4508C29.2145 8.36842 28.2071 9.37579 28.1842 10.6121V10.6808C28.1842 11.94 29.1916 12.9474 30.4508 12.9474H35.0526V17.5492C35.0526 18.7855 36.06 19.8158 37.3192 19.7929H37.3879C38.6242 19.7929 39.6316 18.7855 39.6316 17.5492V12.9474H44.2563C45.4926 12.9474 46.5 11.94 46.5 10.7037V10.6121C46.5 9.37579 45.4926 8.36842 44.2563 8.36842ZM32.7632 17.5492V15.2368H30.4508C29.2374 15.2368 28.0926 14.7561 27.2226 13.9089C26.3755 13.0389 25.8947 11.8942 25.8947 10.6121C25.8947 9.7879 26.1237 9.03237 26.5129 8.36842H7.57895C5.06053 8.36842 3 10.4289 3 12.9474V40.4211C3 42.9395 5.06053 45 7.57895 45H35.0526C37.5711 45 39.6316 42.9395 39.6316 40.4211V21.4642C38.9447 21.8534 38.1663 22.1053 37.2963 22.1053C36.0938 22.0933 34.9443 21.6087 34.0961 20.7562C33.2479 19.9037 32.7691 18.7518 32.7632 17.5492ZM32.6716 40.4211H9.86842C9.65583 40.4211 9.44744 40.3619 9.2666 40.2501C9.08576 40.1383 8.93961 39.9784 8.84454 39.7883C8.74946 39.5981 8.70922 39.3852 8.72831 39.1735C8.7474 38.9618 8.82508 38.7596 8.95263 38.5895L13.4858 32.5682C13.9666 31.9271 14.9053 31.9729 15.3632 32.6139L19.0263 38.1316L25.0018 30.1642C25.4597 29.5689 26.3526 29.5461 26.8105 30.1413L33.5645 38.5666C34.1597 39.3221 33.6332 40.4211 32.6716 40.4211Z" fill="black"/>
<circle cx="16.5" cy="19.5" r="3.5" fill="white"/>
</svg>
