<svg width="48" height="48" viewBox="0 0 48 48" fill="none" xmlns="http://www.w3.org/2000/svg">
<mask id="mask0" style="mask-type:alpha" maskUnits="userSpaceOnUse" x="0" y="0" width="48" height="48">
<rect x="48" y="48" width="48" height="48" transform="rotate(-180 48 48)" fill="#C4C4C4"/>
</mask>
<g mask="url(#mask0)">
<path d="M16.2863 46H30.824C31.2188 46.0001 31.5522 45.707 31.6028 45.3155L33.9477 27.1587H13.1626L15.5076 45.3155C15.5581 45.707 15.8915 46.0001 16.2863 46Z" fill="#74839A"/>
<path d="M12.9898 12.1299C14.4441 13.042 16.1366 13.5016 17.8524 13.4504C19.1866 13.4398 20.5131 13.2483 21.7958 12.8812C22.2712 14.1025 22.5878 15.3798 22.7378 16.6817L22.7645 18.5234H11.7848C11.5588 18.5233 11.3438 18.6206 11.1947 18.7903C11.0456 18.96 10.9768 19.1857 11.006 19.4098L11.7212 24.9051C11.772 25.2961 12.1049 25.5887 12.4992 25.5889H34.622C35.0163 25.5887 35.3492 25.2961 35.4 24.9051L36.1152 19.4098C36.1443 19.1857 36.0756 18.96 35.9264 18.7903C35.7773 18.6206 35.5623 18.5233 35.3364 18.5234H24.3456L24.3833 16.6848C24.5263 15.3809 24.8431 14.1019 25.3254 12.882C26.6079 13.2484 27.9341 13.4395 29.2679 13.4504C30.9838 13.5016 32.6763 13.042 34.1306 12.1299C37.8988 9.60755 38.4484 3.79892 38.4727 3.55241C38.4738 3.5048 38.4701 3.4572 38.4617 3.41032C38.461 3.37908 38.4586 3.34789 38.4547 3.3169C38.4347 3.22304 38.3977 3.13364 38.3455 3.05312V3.04684C38.3377 3.03506 38.3251 3.02957 38.3173 3.01857C38.2695 2.95462 38.2127 2.89801 38.1485 2.85057C38.1189 2.83175 38.0882 2.81471 38.0566 2.79954C38.0253 2.77849 37.9922 2.76011 37.9577 2.74459C37.7316 2.66608 32.3681 0.785876 28.5842 3.31925C25.1817 5.59591 24.4037 10.5418 24.2663 11.6644C23.9437 12.1066 23.7043 12.6037 23.5598 13.1317C23.4143 12.6019 23.175 12.1026 22.8533 11.6573C22.7159 10.5253 21.934 5.59356 18.5354 3.31925C14.7554 0.786661 9.3919 2.6653 9.16502 2.74381C9.13063 2.75945 9.09756 2.77783 9.06611 2.79876C9.03467 2.81375 9.00424 2.8308 8.97504 2.84979C8.91028 2.89682 8.8531 2.95347 8.80547 3.01779C8.79762 3.02878 8.78506 3.03428 8.77721 3.04605V3.05233C8.72502 3.13285 8.68803 3.22225 8.66808 3.31611C8.66411 3.34711 8.66175 3.37829 8.66102 3.40953C8.65072 3.45648 8.6452 3.50435 8.64453 3.55241C8.66965 3.79892 9.22233 9.60755 12.9898 12.1299ZM15.71 22.4487H14.1399C13.7063 22.4487 13.3549 22.0972 13.3549 21.6637C13.3549 21.2301 13.7063 20.8786 14.1399 20.8786H15.71C16.1436 20.8786 16.4951 21.2301 16.4951 21.6637C16.4951 22.0972 16.1436 22.4487 15.71 22.4487ZM24.3456 20.8786C24.7792 20.8786 25.1307 21.2301 25.1307 21.6637C25.1307 22.0972 24.7792 22.4487 24.3456 22.4487H18.8503C18.4167 22.4487 18.0652 22.0972 18.0652 21.6637C18.0652 21.2301 18.4167 20.8786 18.8503 20.8786H24.3456Z" fill="#74839A"/>
</g>
</svg>
