<svg width="32" height="32" viewBox="0 0 32 32" fill="none" xmlns="http://www.w3.org/2000/svg">
<path d="M29.2829 20.3879C29.3824 20.4833 20.7421 5.80369 20.7289 5.74828C19.7768 4.1163 18.0522 2.99965 16.092 3C14.1317 2.99972 12.4071 4.11637 11.4568 5.74828C11.4419 5.80369 2.80163 20.4834 2.9 20.3864C1.99288 21.9639 1.99366 23.9661 3.05597 25.7048C4.1192 27.4419 5.9439 28.4737 7.77248 28.5253C7.77298 28.5258 11.9325 28.652 16.0918 28.6414C20.2512 28.6524 24.4105 28.5267 24.4105 28.527C26.24 28.4738 28.0647 27.4419 29.1279 25.7048C30.1903 23.9663 30.1909 21.9639 29.2829 20.3879Z" fill="url(#paint0_linear_4547_7262)"/>
<path d="M27.3879 21.4805C25.1779 17.5869 18.8595 6.82192 18.8826 6.81605C18.2989 5.8054 17.2319 5.17269 16.092 5.17297C14.952 5.17276 13.885 5.8054 13.3014 6.81605C13.3243 6.82177 7.00616 17.5869 4.7961 21.4804C4.23604 22.4646 4.27038 23.6904 4.87447 24.6941C5.47898 25.6972 6.56497 26.3465 7.70848 26.3734C13.2967 26.5025 18.8872 26.5025 24.4755 26.3734C25.619 26.3466 26.7051 25.6971 27.3095 24.6941C27.9136 23.6905 27.948 22.4646 27.3879 21.4805Z" fill="url(#paint1_linear_4547_7262)"/>
<path d="M25.9655 21.7707C23.7567 17.8632 17.4559 7.09715 17.4803 7.09468C17.0923 6.42063 16.379 5.99993 15.6166 6C14.8542 5.99986 14.141 6.42042 13.7529 7.09468C13.7774 7.09708 7.47673 17.8631 5.26773 21.7707C4.89382 22.4303 4.91368 23.2522 5.31402 23.9218C5.71507 24.5917 6.43979 25.0211 7.20536 25.0372C12.8123 25.1532 18.421 25.1532 24.0279 25.0372C24.7935 25.0212 25.5181 24.5916 25.9193 23.9218C26.3197 23.2522 26.3392 22.4304 25.9655 21.7707Z" fill="url(#paint2_linear_4547_7262)"/>
<path d="M24.0986 22.3425C22.0485 18.7132 17.9238 11.6414 16.5568 9.25127C16.3485 8.88901 15.8304 8.8893 15.6224 9.25169C15.31 9.79574 14.9972 10.3395 14.6838 10.883C17.0399 14.9875 19.4495 19.1128 21.752 23.1807C21.752 23.1814 23.3543 23.1621 23.6187 23.1573C24.0333 23.1512 24.3006 22.6987 24.0986 22.3425Z" fill="url(#paint3_linear_4547_7262)"/>
<path d="M12.012 15.504C10.5807 17.976 9.09151 20.5656 8.08538 22.3435C7.88341 22.6998 8.15103 23.1523 8.56565 23.1582C10.0591 23.1804 13.13 23.2136 16.1847 23.2113C14.8053 20.6422 13.4022 18.0676 12.012 15.504Z" fill="url(#paint4_linear_4547_7262)"/>
<path d="M22.2284 22.3648C20.0726 18.5677 17.8266 14.719 15.621 10.8824C15.4127 10.5204 14.8927 10.5206 14.6836 10.8833C13.9505 12.1554 12.9979 13.8003 12.012 15.5042C10.4199 18.8155 12.6222 22.7286 16.1846 23.2114C18.1999 23.2113 20.2081 23.1979 21.7518 23.181C22.1664 23.1764 22.4317 22.723 22.2284 22.3648Z" fill="url(#paint5_linear_4547_7262)"/>
<path d="M17.1748 20.4934C17.1759 19.8934 16.6907 19.4076 16.0918 19.4076C15.4927 19.4076 15.0077 19.8935 15.0088 20.4934C15.0099 21.0934 15.4949 21.5807 16.0918 21.5807C16.6889 21.5808 17.1736 21.0934 17.1748 20.4934Z" fill="url(#paint6_linear_4547_7262)"/>
<path d="M16.0921 12.7786C15.4929 12.7786 15.0067 13.2655 15.0062 13.8654C15.0055 14.9763 15.0054 16.0873 15.0059 17.1983C15.0064 17.7983 15.4927 18.2851 16.0922 18.2851C16.6917 18.285 17.178 17.7983 17.1785 17.1983C17.179 16.0874 17.1788 14.9764 17.1782 13.8654C17.1778 13.2655 16.6913 12.7786 16.0921 12.7786Z" fill="url(#paint7_linear_4547_7262)"/>
<defs>
<linearGradient id="paint0_linear_4547_7262" x1="-2.29615" y1="38.2997" x2="42" y2="-13.5" gradientUnits="userSpaceOnUse">
<stop stop-color="#FFB5D6"/>
<stop offset="0.418" stop-color="#FFDBEB"/>
<stop offset="0.784" stop-color="#FFF5FA"/>
<stop offset="1" stop-color="white"/>
</linearGradient>
<linearGradient id="paint1_linear_4547_7262" x1="6.29317" y1="29.7592" x2="38.3832" y2="-2.3309" gradientUnits="userSpaceOnUse">
<stop stop-color="#FF3838"/>
<stop offset="1" stop-color="#FF9CEB"/>
</linearGradient>
<linearGradient id="paint2_linear_4547_7262" x1="1.9225" y1="33.4167" x2="47.5247" y2="-9.75952" gradientUnits="userSpaceOnUse">
<stop stop-color="#FF3838"/>
<stop offset="1" stop-color="#FF9CEB"/>
</linearGradient>
<linearGradient id="paint3_linear_4547_7262" x1="-4.98163" y1="40.9032" x2="19.9295" y2="15.9921" gradientUnits="userSpaceOnUse">
<stop stop-color="#FFB5D6"/>
<stop offset="0.418" stop-color="#FFDBEB"/>
<stop offset="0.784" stop-color="#FFF5FA"/>
<stop offset="1" stop-color="white"/>
</linearGradient>
<linearGradient id="paint4_linear_4547_7262" x1="9.98414" y1="23.4719" x2="20.4089" y2="13.047" gradientUnits="userSpaceOnUse">
<stop stop-color="#FFB5D6"/>
<stop offset="0.418" stop-color="#FFDBEB"/>
<stop offset="0.784" stop-color="#FFF5FA"/>
<stop offset="1" stop-color="white"/>
</linearGradient>
<linearGradient id="paint5_linear_4547_7262" x1="5.77229" y1="29.5744" x2="23.8832" y2="11.4635" gradientUnits="userSpaceOnUse">
<stop stop-color="#FFB5D6"/>
<stop offset="0.418" stop-color="#FFDBEB"/>
<stop offset="0.784" stop-color="#FFF5FA"/>
<stop offset="1" stop-color="white"/>
</linearGradient>
<linearGradient id="paint6_linear_4547_7262" x1="6.70373" y1="29.881" x2="49.5" y2="-9.00001" gradientUnits="userSpaceOnUse">
<stop stop-color="#FF3838"/>
<stop offset="1" stop-color="#FF9CEB"/>
</linearGradient>
<linearGradient id="paint7_linear_4547_7262" x1="-0.349023" y1="31.9731" x2="43.5" y2="-10.5" gradientUnits="userSpaceOnUse">
<stop stop-color="#FF3838"/>
<stop offset="1" stop-color="#FF9CEB"/>
</linearGradient>
</defs>
</svg>
