<svg width="32" height="32" viewBox="0 0 32 32" fill="none" xmlns="http://www.w3.org/2000/svg">
<g clip-path="url(#clip0_1438_18224)">
<path d="M31.9912 5.69997L25.5997 5.68169C25.5984 5.91374 25.5977 6.1918 25.5941 6.37391C26.1372 6.38664 27.5269 6.64218 27.9625 7.78609L21.8403 21.917C21.5404 21.2156 18.6932 14.891 18.3681 14.0777L21.3289 7.93621C21.9402 7.00183 23.1092 6.39937 24.2394 6.35563L24.2361 5.71335L18.0871 5.7078C18.0724 5.87066 18.0874 6.21301 18.0649 6.38305C19.7995 6.43004 20.4196 6.81842 20.0038 7.8543C19.3178 9.41301 17.8792 12.366 17.5979 12.9048C16.718 11.0657 16.1586 9.65028 15.2007 7.66207C14.7876 6.74074 15.6997 6.38207 16.6645 6.35531V5.70878L9.54321 5.68691C9.54843 5.99043 9.53636 6.16047 9.53636 6.38239C10.5288 6.39741 11.817 6.50348 12.3307 7.36769C13.0118 8.6937 15.2823 13.9583 15.9693 15.3682C15.093 17.0499 12.9645 21.0277 12.2018 22.5198C11.1091 20.0949 7.06741 10.5458 5.92514 8.08112C5.49956 7.03088 7.14313 6.42417 8.09416 6.37978L8.10036 5.67875L0 5.6781C0.00163182 5.88893 0.00881183 6.23618 0.00946456 6.39186C1.32308 6.37978 3.24308 8.53705 3.79137 9.87841C6.15555 15.3649 8.59512 20.8194 10.9479 26.3105C10.9485 26.32 11.6842 26.3298 11.6923 26.3131C13.2318 23.1627 15.0307 19.8521 16.655 16.6658L20.7528 26.318C20.7545 26.3193 21.4323 26.3232 21.4359 26.3203C24.0344 20.3818 27.928 11.269 29.2014 8.39214C29.7197 7.16273 30.5868 6.41307 31.9896 6.37065L32 5.73228L31.9912 5.69997Z" fill="#FFCD5E"/>
</g>
<defs>
<clipPath id="clip0_1438_18224">
<rect width="32" height="32" fill="white"/>
</clipPath>
</defs>
</svg>
