<svg width="64" height="64" viewBox="0 0 64 64" fill="none" xmlns="http://www.w3.org/2000/svg">
<path fill-rule="evenodd" clip-rule="evenodd" d="M62.0003 11.5454C62.0003 16.8173 57.7266 21.0911 52.4547 21.0911C47.1827 21.0911 42.909 16.8173 42.909 11.5454C42.909 6.27349 47.1827 1.99976 52.4547 1.99976C57.7266 1.99976 62.0003 6.27349 62.0003 11.5454ZM52.4547 5.40892C53.5844 5.40892 54.5002 6.32472 54.5002 7.45442V9.49992H56.5457C57.6754 9.49992 58.5912 10.4157 58.5912 11.5454C58.5912 12.6751 57.6754 13.5909 56.5457 13.5909H54.5002V15.6364C54.5002 16.7661 53.5844 17.6819 52.4547 17.6819C51.325 17.6819 50.4092 16.7661 50.4092 15.6364V13.5909H48.3637C47.234 13.5909 46.3182 12.6751 46.3182 11.5454C46.3182 10.4157 47.234 9.49992 48.3637 9.49992H50.4092V7.45442C50.4092 6.32472 51.325 5.40892 52.4547 5.40892ZM31.6884 8.87453C32.0612 8.7364 32.48 8.85908 32.7292 9.1788C33.3681 9.99501 48.3643 29.2865 48.3643 38.3083C48.3643 47.6131 41.0236 55.1831 31.9994 55.1831C22.9771 55.1831 15.6363 47.6131 15.6363 38.3083C15.6363 31.3512 24.2884 19.2029 28.937 12.6758L28.938 12.6745L28.9388 12.6734C29.9465 11.2587 30.8997 9.92053 31.0935 9.54199C31.1703 9.23675 31.3905 8.98272 31.6884 8.87453ZM23.7876 34.0987C24.1931 33.0443 23.6671 31.8608 22.6127 31.4552C21.5583 31.0497 20.3748 31.5757 19.9693 32.6301C18.6589 36.037 17.7262 44.2632 24.6741 49.9479C25.5485 50.6632 26.8372 50.5344 27.5526 49.66C28.2679 48.7857 28.1391 47.497 27.2647 46.7816C22.2124 42.6479 22.8252 36.601 23.7876 34.0987ZM4.72636 48.3641C3.22009 48.3641 1.99902 49.5851 1.99902 51.0914C1.99902 52.5977 3.22009 53.8187 4.72636 53.8187H7.45369C8.95995 53.8187 10.181 52.5977 10.181 51.0914C10.181 49.5851 8.95995 48.3641 7.45369 48.3641H4.72636ZM4.72636 56.5461C3.22009 56.5461 1.99902 57.7671 1.99902 59.2734C1.99902 60.7797 3.22009 62.0007 4.72636 62.0007H15.6357C17.1419 62.0007 18.363 60.7797 18.363 59.2734C18.363 57.7671 17.1419 56.5461 15.6357 56.5461H4.72636Z" fill="url(#paint0_linear_2365_14248)"/>
<defs>
<linearGradient id="paint0_linear_2365_14248" x1="31.9997" y1="62.0007" x2="31.9997" y2="1.99976" gradientUnits="userSpaceOnUse">
<stop stop-color="#00C0FF"/>
<stop offset="1" stop-color="#5558FF"/>
</linearGradient>
</defs>
</svg>
