<svg width="48" height="48" viewBox="0 0 48 48" fill="none" xmlns="http://www.w3.org/2000/svg">
<g clip-path="url(#clip0_1236_17183)">
<path d="M23.9999 2.66675C19.8468 2.67022 15.8639 4.317 12.921 7.24741C9.97805 10.1778 8.31435 14.1537 8.29321 18.3067C8.29321 24.5334 11.7865 29.7467 14.3465 33.5467L14.8132 34.2401C17.3603 37.9316 20.0926 41.4917 22.9999 44.9067L24.0132 46.0934L25.0265 44.9067C27.9334 41.4914 30.6658 37.9313 33.2132 34.2401L33.6799 33.5334C36.2265 29.7334 39.7199 24.5334 39.7199 18.3067C39.6987 14.1514 38.0332 10.1735 35.0874 7.24271C32.1416 4.31192 28.1553 2.66669 23.9999 2.66675ZM23.9999 25.3334C22.27 25.3334 20.5789 24.8204 19.1405 23.8593C17.7021 22.8982 16.581 21.5322 15.919 19.934C15.257 18.3357 15.0838 16.577 15.4213 14.8804C15.7588 13.1837 16.5918 11.6252 17.8151 10.4019C19.0383 9.17868 20.5968 8.34564 22.2935 8.00815C23.9902 7.67065 25.7488 7.84387 27.3471 8.50588C28.9453 9.1679 30.3114 10.289 31.2725 11.7274C32.2336 13.1657 32.7465 14.8568 32.7465 16.5867C32.7465 18.9065 31.825 21.1313 30.1847 22.7716C28.5444 24.4119 26.3196 25.3334 23.9999 25.3334Z" fill="black"/>
<path d="M23.9999 21.5599C26.7466 21.5599 28.9733 19.3333 28.9733 16.5866C28.9733 13.8399 26.7466 11.6133 23.9999 11.6133C21.2532 11.6133 19.0266 13.8399 19.0266 16.5866C19.0266 19.3333 21.2532 21.5599 23.9999 21.5599Z" fill="black"/>
</g>
<defs>
<clipPath id="clip0_1236_17183">
<rect width="24" height="24" fill="white" transform="scale(2)"/>
</clipPath>
</defs>
</svg>
