<svg width="48" height="48" viewBox="0 0 48 48" fill="none" xmlns="http://www.w3.org/2000/svg">
<path d="M33.1548 30L31.6132 33.3819L39.1612 31.9423C37.638 31.0509 35.576 30.4139 33.1548 30ZM13.7108 30.7373C10.2148 31.813 8 33.5756 8 36.1936C8.00144 36.7572 8.10704 37.3138 8.3096 37.8255L20.4236 35.5155L13.7108 30.7373ZM41.716 34.6667L24.856 37.8727L29.3024 43.7741C36.604 43.0111 42 40.29 42 36.1936C42 35.6476 41.8992 35.1403 41.716 34.6671V34.6667ZM22.0072 38.4257L10.6152 40.598C13.6264 42.7745 18.9412 44 25 44C25.3672 44 25.726 43.9879 26.0876 43.979L22.0072 38.4257Z" fill="black"/>
<path fill-rule="evenodd" clip-rule="evenodd" d="M24.0664 4C17.5464 4 12.1968 9.33321 12.1968 15.8384C12.1968 18.3392 12.9916 20.6688 14.3336 22.5844L22.0272 35.8844L22.06 35.9272C22.3636 36.3236 22.66 36.6364 23.008 36.8664C23.356 37.0968 23.788 37.2344 24.212 37.192C25.0592 37.1072 25.578 36.5088 26.0704 35.8416L26.0968 35.8072L34.5904 21.3508L34.5952 21.3416C34.7944 20.9816 34.9416 20.6152 35.0664 20.2584C35.6393 18.8552 35.9341 17.3541 35.9344 15.8384C35.9344 9.33321 30.5864 4 24.0664 4ZM24.7087 9.12226C24.9122 9.20295 25.0966 9.32115 25.251 9.46991V9.47096L28.8301 12.9182C30.0583 14.1013 30.7418 15.6934 30.7323 17.3488C30.7228 19.0043 30.021 20.5893 28.7792 21.7598L28.767 21.7702L28.7571 21.7806C27.6494 22.8283 26.1824 23.4701 24.6186 23.5913V25.1455C24.6186 25.2837 24.5603 25.4163 24.4567 25.514C24.353 25.6118 24.2124 25.6667 24.0657 25.6667C23.9191 25.6667 23.7785 25.6118 23.6748 25.514C23.5712 25.4163 23.5129 25.2837 23.5129 25.1455V23.5892C21.9498 23.4684 20.4833 22.8273 19.3755 21.7806L19.3644 21.7712C18.1174 20.6018 17.411 19.0152 17.3992 17.3569C17.3874 15.6987 18.0711 14.1033 19.3014 12.9182L22.8805 9.46991C23.0349 9.32115 23.2193 9.20295 23.4228 9.12226C23.6264 9.04157 23.8449 9 24.0657 9C24.2865 9 24.5051 9.04157 24.7087 9.12226ZM23.5129 16.8042V22.5312C23.8806 22.5656 24.2509 22.5656 24.6186 22.5312V22.5291V16.8042C24.6186 16.666 24.5603 16.5334 24.4567 16.4357C24.353 16.3379 24.2124 16.283 24.0657 16.283C23.9191 16.283 23.7785 16.3379 23.6748 16.4357C23.5712 16.5334 23.5129 16.666 23.5129 16.8042Z" fill="black"/>
</svg>
