<svg width="92" height="100" viewBox="0 0 92 100" fill="none" xmlns="http://www.w3.org/2000/svg">
<path d="M50.2427 52.0782C48.3731 52.0815 46.5416 52.6068 44.9544 53.5947L41.0722 59.276L28.4204 76.678L25.8765 74.8221L38.5015 57.4627L39.7782 55.5911V54.6331C39.7786 53.4683 39.5494 52.3147 39.1037 51.2385C38.658 50.1622 38.0046 49.1844 37.1808 48.3608C36.3569 47.5373 35.3788 46.8842 34.3024 46.4389C33.226 45.9936 32.0724 45.7648 30.9075 45.7657H30.715C28.5862 45.7619 26.4777 46.1781 24.51 46.9905C22.5424 47.8029 20.7543 48.9955 19.2483 50.5V50.5L27.2794 52.5074C28.5915 52.8354 29.7563 53.5926 30.5887 54.6586C31.4211 55.7245 31.8732 57.0382 31.8733 58.3907L22.7407 55.782C20.2992 55.0857 17.7158 55.055 15.2584 55.6932C12.801 56.3314 10.559 57.6153 8.76486 59.4117L6.62334 61.5469H7.09678C14.0543 61.5489 20.9159 63.1698 27.139 66.2813L16.1947 67.0703C14.2777 67.2078 12.4221 67.8049 10.7846 68.8111C9.14721 69.8172 7.77617 71.203 6.78747 72.851L6.7275 72.952C5.59218 74.8352 5.00112 76.9962 5.01997 79.1951C5.04522 81.8653 5.04522 85.2188 5.04522 85.2188L8.45081 82.3782C12.3684 79.1148 17.3059 77.3279 22.4046 77.3281L16.0921 84.9031C15.4644 85.658 15.0075 86.5398 14.7528 87.4879C14.498 88.4361 14.4515 89.4281 14.6165 90.3959C14.7814 91.3637 15.1538 92.2844 15.7082 93.0946C16.2626 93.9049 16.9857 94.5856 17.828 95.0899L22.4046 97.8438L24.1768 96.6618C25.0878 96.0545 25.8347 95.2318 26.3514 94.2666C26.8682 93.3014 27.1387 92.2236 27.139 91.1289V91.1289C27.1389 90.2556 26.9668 89.3909 26.6323 88.5843C26.2979 87.7776 25.8078 87.0448 25.19 86.4276L24.6361 85.8721C24.4286 85.6651 24.2641 85.4191 24.1519 85.1482C24.0398 84.8774 23.9823 84.5871 23.9827 84.294V84.294C23.9823 84.0007 24.0398 83.7102 24.1519 83.4392C24.264 83.1682 24.4285 82.9219 24.6359 82.7146C24.8434 82.5073 25.0897 82.343 25.3608 82.2311C25.6319 82.1192 25.9225 82.0619 26.2158 82.0625H26.3152C27.0773 82.0627 27.832 82.213 28.536 82.5049C29.2401 82.7968 29.8797 83.2245 30.4183 83.7637L30.4783 83.8237C31.4204 84.7646 32.1679 85.8819 32.6781 87.1118C33.1882 88.3417 33.451 89.6601 33.4515 90.9916V96.2656L40.7582 87.7438C42.0879 86.1932 42.8488 84.2355 42.9154 82.194C42.982 80.1524 42.3501 78.1493 41.1243 76.5154L38.6593 73.225C38.352 72.8153 38.1858 72.3169 38.1858 71.8047V71.74C38.185 71.4375 38.2439 71.1379 38.3593 70.8583C38.4746 70.5786 38.644 70.3246 38.8578 70.1106C39.0716 69.8967 39.3256 69.7271 39.6051 69.6115C39.8847 69.496 40.1843 69.4369 40.4867 69.4375H40.6446C41.3616 69.4335 42.0723 69.5715 42.7357 69.8438C43.3991 70.116 44.0019 70.517 44.5094 71.0235L44.5946 71.1088C47.5643 74.0816 49.2329 78.1114 49.2343 82.3134V83.6406L53.1591 79.7143C54.0261 78.8478 54.6864 77.7967 55.0907 76.6396C55.4951 75.4824 55.6331 74.2489 55.4945 73.0309C55.3558 71.813 54.9441 70.6421 54.29 69.6054C53.6359 68.5687 52.7563 67.693 51.7167 67.0435L42.9202 61.5469L48.9013 62.2949C53.2071 62.8336 57.2107 64.7915 60.2796 67.8594V62.1213C60.2796 59.4588 59.2223 56.9052 57.3402 55.022C55.4581 53.1387 52.9052 52.0798 50.2427 52.0782V52.0782Z" fill="#C7E9D5"/>
<path d="M73.9795 32.2759C73.2715 31.8029 72.4941 31.443 71.6754 31.2091L63.1678 28.7787C62.7506 28.6594 62.3907 28.3932 62.1542 28.0294C61.9178 27.6656 61.8208 27.2286 61.8812 26.7989C61.9415 26.3693 62.1551 25.9759 62.4826 25.6912C62.8101 25.4066 63.2294 25.2499 63.6633 25.2501C65.6104 25.2501 67.5481 25.5215 69.4203 26.0565L77.6392 28.4063L74.7354 21.6314C74.3568 20.7493 73.8021 19.9538 73.1052 19.2937C72.4083 18.6335 71.5839 18.1227 70.6825 17.7924C69.7812 17.4622 68.8219 17.3195 67.8635 17.3732C66.9051 17.4268 65.9677 17.6756 65.1088 18.1043L64.0673 18.6219C61.6323 19.84 58.8418 20.1467 56.2003 19.4867C55.5501 19.3246 54.975 18.9444 54.5711 18.4097C54.1672 17.8749 53.9587 17.2178 53.9805 16.548C54.0023 15.8782 54.253 15.2361 54.6908 14.7287C55.1286 14.2213 55.7271 13.8793 56.3866 13.7597L71.3267 11.0469L68.8174 8.53298C67.1058 6.8229 65.0734 5.46765 62.8367 4.54498C60.6 3.62231 58.2032 3.15039 55.7837 3.1563H55.5454C52.5102 3.15803 49.5775 4.25467 47.2858 6.24484C44.9942 8.23501 43.4974 10.9851 43.0703 13.9901L44.5411 14.9907C51.5365 20.0048 57.3726 26.4636 61.6543 33.9297L58.9147 35.4952C54.8579 28.4244 49.3291 22.3079 42.7026 17.5599L42.0083 17.0659L40.1114 15.7813H35.0298C33.3556 15.7813 31.75 16.4464 30.5662 17.6302C29.3824 18.814 28.7173 20.4196 28.7173 22.0938V31.5626L37.5643 24.1896C37.9672 23.8535 38.4757 23.6703 39.0003 23.6719H39.1156C39.557 23.6718 39.9885 23.8027 40.3555 24.0478C40.7226 24.293 41.0087 24.6416 41.1776 25.0494C41.3465 25.4572 41.3907 25.9059 41.3046 26.3389C41.2185 26.7718 41.0059 27.1694 40.6937 27.4815L37.064 31.1112C36.3647 31.8109 35.8239 32.6526 35.4781 33.5794C35.1323 34.5062 34.9897 35.4964 35.0599 36.4832C35.1301 37.4699 35.4114 38.43 35.8849 39.2985C36.3583 40.1671 37.0128 40.9237 37.8041 41.5174L41.3423 44.1876V40.8861C41.3422 37.8935 42.2279 34.9679 43.8878 32.4779C44.1305 32.1078 44.4864 31.8262 44.9024 31.675C45.3183 31.5238 45.772 31.5111 46.1957 31.6389C46.6194 31.7667 46.9904 32.0281 47.2534 32.3841C47.5164 32.7401 47.6572 33.1716 47.6548 33.6141C47.6545 34.3426 47.5368 35.0663 47.306 35.7572L46.517 38.1244C46.1503 39.227 46.0104 40.3925 46.1058 41.5506C46.2013 42.7086 46.53 43.8355 47.0723 44.8632C47.6145 45.8909 48.3591 46.7984 49.2611 47.5308C50.1632 48.2633 51.2041 48.8058 52.3213 49.1255L57.1235 50.5001C57.123 46.3073 57.6371 42.1303 58.6543 38.0629L58.7017 37.8751L62.0157 46.7362C62.4315 47.844 63.176 48.7983 64.1494 49.471C65.1228 50.1437 66.2786 50.5028 67.4618 50.5001C67.9364 50.5001 68.4092 50.5584 68.8695 50.6736L74.4829 52.0782C74.4825 48.9508 73.8853 45.8522 72.7233 42.9487L71.3267 39.4532L77.6392 42.6094V39.1234C77.6398 37.769 77.3062 36.4353 76.6677 35.2408C76.0293 34.0463 75.1059 33.0279 73.9795 32.2759V32.2759Z" fill="#C7E9D5"/>
</svg>
