<svg width="174" height="182" viewBox="0 0 174 182" fill="none" xmlns="http://www.w3.org/2000/svg">
    <defs>
        <linearGradient id="paint0_linear_2723_38145" x1="183.603" y1="190.718" x2="13.1586"
            y2="185.569" gradientUnits="userSpaceOnUse">
            <stop stop-color="#28D581" />
            <stop offset="1" stop-color="#33A36D" />
        </linearGradient>
    </defs>
    <path
        d="M174 87.1784C174 135.441 134.951 174.357 86.9981 174.357C63.9248 174.357 41.7964 165.172 25.4811 148.823C9.16581 132.474 0 110.3 0 87.1784C0 64.0573 9.16581 41.8831 25.4811 25.534C41.7964 9.18486 63.9248 0 86.9981 0C135.05 0 174 39.0077 174 87.1784Z"
        fill="#FFF4DB" />
    <path
        d="M155.686 10.3959C155.344 11.1524 155.233 11.9937 155.369 12.8132C155.504 13.6327 155.878 14.3937 156.445 14.9999C157.011 15.6061 157.745 16.0303 158.552 16.2189C159.359 16.4075 160.204 16.352 160.98 16.0594C161.756 15.7669 162.427 15.2504 162.91 14.5752C163.393 13.9001 163.665 13.0966 163.692 12.2664C163.719 11.4363 163.5 10.6167 163.063 9.9113C162.625 9.20593 161.988 8.64648 161.233 8.30364C160.732 8.07599 160.191 7.94951 159.641 7.93145C159.091 7.91339 158.542 8.00412 158.027 8.19841C157.512 8.39269 157.04 8.68673 156.638 9.06378C156.237 9.44082 155.913 9.89346 155.686 10.3959Z"
        fill="#FFCD5E" />
    <path
        d="M149.536 2.19524C149.318 2.67673 149.249 3.21197 149.335 3.73331C149.421 4.25466 149.659 4.7387 150.02 5.12425C150.381 5.50981 150.847 5.77957 151.361 5.89944C151.874 6.01932 152.412 5.98394 152.906 5.79775C153.399 5.61156 153.826 5.28292 154.134 4.85338C154.441 4.42385 154.614 3.91268 154.631 3.38452C154.649 2.85635 154.509 2.33491 154.231 1.88606C153.953 1.4372 153.548 1.08111 153.068 0.862787C152.749 0.717681 152.404 0.637031 152.054 0.625472C151.703 0.613912 151.354 0.671645 151.026 0.795395C150.698 0.919145 150.398 1.1065 150.142 1.34669C149.886 1.58688 149.68 1.87522 149.536 2.19524Z"
        fill="#FFCD5E" />
    <path
        d="M9.01154 163.464C8.47149 164.094 8.13003 164.87 8.03039 165.695C7.93075 166.52 8.07739 167.355 8.45176 168.096C8.82613 168.838 9.41144 169.451 10.1336 169.859C10.8558 170.266 11.6825 170.45 12.509 170.387C13.3356 170.324 14.1249 170.017 14.7772 169.505C15.4295 168.992 15.9155 168.297 16.1737 167.508C16.4318 166.718 16.4506 165.87 16.2276 165.07C16.0046 164.27 15.5499 163.554 14.9209 163.013C14.0776 162.288 12.9813 161.928 11.8732 162.012C10.765 162.097 9.73561 162.619 9.01154 163.464Z"
        fill="#FFCD5E" />
    <path
        d="M6.46224 153.637C6.11853 154.038 5.90118 154.532 5.83772 155.057C5.77426 155.582 5.86761 156.114 6.1058 156.585C6.34399 157.057 6.71633 157.447 7.17588 157.707C7.63543 157.966 8.16152 158.084 8.68752 158.043C9.21351 158.003 9.71584 157.808 10.131 157.482C10.5461 157.156 10.8553 156.713 11.0197 156.211C11.184 155.709 11.196 155.169 11.0542 154.66C10.9123 154.151 10.623 153.695 10.2228 153.351C9.68619 152.889 8.98856 152.66 8.28335 152.714C7.57815 152.767 6.92307 153.1 6.46224 153.637Z"
        fill="#FFCD5E" />
    <path
        d="M158.65 154.973C158.11 155.603 157.769 156.38 157.669 157.204C157.569 158.029 157.716 158.865 158.09 159.606C158.465 160.347 159.05 160.96 159.772 161.368C160.494 161.776 161.321 161.96 162.148 161.897C162.974 161.834 163.763 161.526 164.416 161.014C165.068 160.501 165.554 159.806 165.812 159.017C166.07 158.228 166.089 157.379 165.866 156.579C165.643 155.779 165.188 155.063 164.559 154.522C163.716 153.797 162.62 153.437 161.512 153.521C160.404 153.606 159.374 154.128 158.65 154.973Z"
        fill="#FFCD5E" />
    <path
        d="M171.766 59.4415L110.025 175.411C108.473 178.324 105.831 180.5 102.679 181.461C99.5262 182.422 96.122 182.089 93.2148 180.535L30.5741 147.036C27.6678 145.481 25.4967 142.833 24.5379 139.674C23.5791 136.516 23.9112 133.105 25.4611 130.191L87.1835 14.2259C88.7347 11.3128 91.3771 9.13644 94.5295 8.17558C97.682 7.21472 101.086 7.54801 103.993 9.10219L166.634 42.5892C168.076 43.3572 169.353 44.4026 170.391 45.6655C171.43 46.9284 172.21 48.384 172.686 49.9492C173.163 51.5144 173.327 53.1584 173.169 54.7872C173.011 56.416 172.534 57.9975 171.766 59.4415V59.4415Z"
        fill="#FFCD5E" />
    <path
        d="M133.111 39.3397C133.031 39.49 132.923 39.623 132.792 39.7313C132.661 39.8395 132.509 39.9208 132.347 39.9704C132.185 40.02 132.014 40.0371 131.845 40.0206C131.676 40.0041 131.512 39.9543 131.362 39.8742L121.025 34.3497C120.875 34.2698 120.743 34.1612 120.635 34.0298C120.527 33.8985 120.446 33.7471 120.396 33.5843C120.346 33.4216 120.329 33.2506 120.346 33.0812C120.362 32.9119 120.412 32.7474 120.492 32.5973C120.654 32.2945 120.928 32.0683 121.256 31.9681C121.584 31.8679 121.938 31.9019 122.241 32.0628L132.577 37.5911C132.879 37.7524 133.105 38.027 133.205 38.3549C133.305 38.6827 133.271 39.0369 133.111 39.3397Z"
        fill="white" />
    <path
        d="M137.957 41.9325C137.795 42.2353 137.52 42.4615 137.192 42.5617C136.865 42.6619 136.51 42.6278 136.208 42.467L135.941 42.3258C135.64 42.1631 135.415 41.8874 135.315 41.5591C135.216 41.2307 135.251 40.8763 135.411 40.5733C135.573 40.2706 135.848 40.0444 136.176 39.9442C136.503 39.844 136.857 39.878 137.16 40.0388L137.423 40.1801C137.725 40.3421 137.951 40.6175 138.051 40.9459C138.151 41.2744 138.117 41.6291 137.957 41.9325Z"
        fill="white" />
    <path
        d="M32.6141 22.8694C32.2534 22.8694 31.9074 22.7258 31.6523 22.4702C31.3972 22.2146 31.2539 21.8679 31.2539 21.5064V9.59065C31.2539 9.41184 31.2891 9.2348 31.3575 9.06965C31.4259 8.9045 31.5261 8.75446 31.6525 8.6282C31.7788 8.50194 31.9289 8.40192 32.0939 8.33384C32.2589 8.26576 32.4357 8.23095 32.6141 8.23145C32.9738 8.23145 33.3188 8.37466 33.5731 8.62955C33.8275 8.88445 33.9704 9.23018 33.9704 9.59065V21.514C33.9684 21.8735 33.8248 22.2177 33.5707 22.4715C33.3167 22.7254 32.9729 22.8684 32.6141 22.8694Z"
        fill="#FFA31A" />
    <path
        d="M23.732 25.7559L15.3271 17.326C15.1295 17.0635 15.0332 16.7384 15.056 16.4104C15.0788 16.0824 15.2191 15.7738 15.4511 15.5413C15.6831 15.3088 15.9911 15.1682 16.3184 15.1454C16.6457 15.1225 16.9702 15.219 17.2321 15.417L25.6447 23.8508C25.8505 24.1121 25.9534 24.4401 25.9339 24.7724C25.9145 25.1048 25.7739 25.4184 25.539 25.6539C25.3041 25.8893 24.9911 26.0301 24.6594 26.0496C24.3277 26.0691 24.0005 25.966 23.7396 25.7597L23.732 25.7559Z"
        fill="#FFA31A" />
    <path
        d="M39.5712 25.7596C39.3227 25.5044 39.1836 25.1618 39.1836 24.8052C39.1836 24.4485 39.3227 24.106 39.5712 23.8507L47.9876 15.4245C48.2484 15.2183 48.5757 15.1151 48.9073 15.1347C49.239 15.1542 49.552 15.295 49.7869 15.5304C50.0219 15.7659 50.1624 16.0795 50.1819 16.4118C50.2014 16.7442 50.0984 17.0722 49.8926 17.3335L41.48 25.7635C41.2246 26.0132 40.8818 26.1526 40.5249 26.1519C40.1681 26.1512 39.8256 26.0104 39.5712 25.7596Z"
        fill="#FFA31A" />
    <mask id="mask0_2723_38145" style="mask-type:alpha" maskUnits="userSpaceOnUse" x="24" y="7"
        width="150" height="175">
        <path
            d="M171.766 59.4415L110.025 175.411C108.473 178.324 105.831 180.5 102.679 181.461C99.5262 182.422 96.122 182.089 93.2148 180.535L30.5741 147.036C27.6678 145.481 25.4967 142.833 24.5379 139.674C23.5791 136.516 23.9112 133.105 25.4611 130.191L87.1835 14.2259C88.7347 11.3128 91.3771 9.13644 94.5295 8.17558C97.682 7.21472 101.086 7.54801 103.993 9.10219L166.634 42.5892C168.076 43.3572 169.353 44.4026 170.391 45.6655C171.43 46.9284 172.21 48.384 172.686 49.9492C173.163 51.5144 173.327 53.1584 173.169 54.7872C173.011 56.416 172.534 57.9975 171.766 59.4415V59.4415Z"
            fill="url(#paint0_linear_2723_38145)" />
    </mask>
    <g mask="url(#mask0_2723_38145)">
        <path
            d="M78.5003 174C78.5003 174 92.0002 179.214 101 176C110 172.786 119 160.5 119 160.5L147.058 186.132L34.6127 400.422L-18.9997 372.29L78.5003 174Z"
            fill="#FFBD29" />
    </g>
    <path
        d="M160.562 61.7509L113.086 150.926C112.559 151.916 111.843 152.792 110.978 153.505C110.113 154.217 109.117 154.752 108.046 155.078C106.975 155.405 105.85 155.517 104.736 155.408C103.622 155.299 102.54 154.971 101.553 154.442L47.5073 125.552C45.5132 124.485 44.0233 122.669 43.3653 120.502C42.7073 118.335 42.935 115.994 43.9983 113.995L91.4751 24.8202C92.0015 23.83 92.7174 22.9535 93.582 22.2408C94.4467 21.528 95.4431 20.9931 96.5142 20.6666C97.5853 20.34 98.7101 20.2282 99.8244 20.3375C100.939 20.4469 102.02 20.7753 103.008 21.3039L111.321 25.7479C111.774 25.9891 112.146 26.3577 112.391 26.8082C112.637 27.2587 112.746 27.7713 112.705 28.283L112.24 33.9717C112.149 35.1091 112.391 36.2485 112.936 37.2501C113.482 38.2517 114.307 39.0722 115.311 39.6108L136.978 51.1944C137.984 51.7307 139.124 51.9612 140.258 51.8574C141.392 51.7537 142.472 51.3202 143.364 50.6102L147.822 47.0558C148.222 46.7363 148.707 46.5412 149.217 46.4944C149.726 46.4476 150.239 46.5511 150.69 46.7923L157.053 50.1941C158.041 50.7219 158.915 51.4396 159.626 52.3061C160.337 53.1726 160.871 54.1709 161.197 55.2441C161.523 56.3173 161.634 57.4443 161.525 58.5608C161.417 59.6772 161.089 60.7612 160.562 61.7509Z"
        fill="white" />
    <path
        d="M131.042 40.4742L120.706 34.9497C120.477 34.8276 120.275 34.6616 120.111 34.4612C119.946 34.2608 119.823 34.0299 119.747 33.7818C119.672 33.5336 119.646 33.273 119.671 33.0148C119.697 32.7567 119.772 32.506 119.894 32.2771C120.016 32.0482 120.181 31.8456 120.381 31.6809C120.581 31.5162 120.812 31.3925 121.059 31.317C121.307 31.2415 121.567 31.2156 121.825 31.2408C122.082 31.266 122.333 31.3418 122.561 31.4639L132.898 36.9884C133.359 37.235 133.704 37.6551 133.856 38.1563C134.008 38.6575 133.955 39.1987 133.709 39.661C133.463 40.1232 133.044 40.4686 132.544 40.6211C132.044 40.7736 131.503 40.7207 131.042 40.4742ZM121.094 32.9185C121.056 32.9894 121.033 33.0671 121.025 33.1472C121.017 33.2273 121.025 33.3081 121.048 33.3851C121.071 33.4621 121.11 33.5337 121.161 33.5958C121.212 33.6579 121.275 33.7093 121.346 33.747L131.682 39.2753C131.825 39.3429 131.988 39.3529 132.138 39.3032C132.287 39.2534 132.412 39.1478 132.486 39.0083C132.56 38.8687 132.578 38.706 132.535 38.5538C132.493 38.4016 132.393 38.2717 132.258 38.1911L121.921 32.6665C121.85 32.6279 121.773 32.6039 121.693 32.5957C121.613 32.5875 121.532 32.5954 121.455 32.6188C121.378 32.6423 121.306 32.6809 121.244 32.7323C121.183 32.7838 121.131 32.847 121.094 32.9185Z"
        fill="white" />
    <path
        d="M135.888 43.066L135.622 42.9248C135.393 42.8027 135.191 42.6367 135.027 42.4363C134.862 42.2359 134.739 42.005 134.664 41.7569C134.588 41.5087 134.562 41.2481 134.587 40.9899C134.613 40.7318 134.688 40.4811 134.81 40.2522C134.932 40.0233 135.098 39.8207 135.298 39.656C135.498 39.4912 135.728 39.3676 135.976 39.2921C136.223 39.2166 136.483 39.1907 136.741 39.2159C136.999 39.2411 137.249 39.3169 137.477 39.439L137.744 39.5803C138.205 39.8268 138.55 40.2469 138.702 40.7481C138.854 41.2493 138.801 41.7906 138.555 42.2528C138.309 42.715 137.89 43.0604 137.39 43.2129C136.89 43.3654 136.35 43.3126 135.888 43.066ZM136.01 40.8936C135.972 40.9645 135.949 41.0422 135.941 41.1223C135.933 41.2024 135.941 41.2832 135.964 41.3602C135.988 41.4372 136.026 41.5088 136.077 41.5709C136.128 41.633 136.191 41.6844 136.262 41.7221L136.528 41.8634C136.599 41.9012 136.677 41.9247 136.757 41.9325C136.836 41.9403 136.917 41.9323 136.994 41.9089C137.071 41.8855 137.142 41.8472 137.204 41.7962C137.266 41.7451 137.317 41.6823 137.355 41.6114C137.393 41.5404 137.416 41.4627 137.424 41.3827C137.432 41.3026 137.424 41.2219 137.401 41.1449C137.377 41.068 137.339 40.9964 137.288 40.9343C137.237 40.8722 137.175 40.8207 137.104 40.7829L136.841 40.6416C136.77 40.6031 136.692 40.5792 136.611 40.5712C136.531 40.5633 136.449 40.5714 136.372 40.5952C136.295 40.619 136.223 40.658 136.161 40.7099C136.099 40.7618 136.048 40.8255 136.01 40.8974V40.8936Z"
        fill="white" />
    <path
        d="M76.765 156.474C76.2974 157.347 75.503 157.998 74.5564 158.284C73.6097 158.571 72.5883 158.469 71.7167 158.001L61.1668 152.381C60.735 152.149 60.353 151.835 60.0427 151.455C59.7323 151.075 59.4998 150.638 59.3582 150.168C59.2167 149.698 59.169 149.205 59.2178 148.717C59.2666 148.228 59.411 147.754 59.6428 147.322C59.8739 146.89 60.1877 146.508 60.5664 146.197C60.945 145.886 61.3809 145.653 61.8494 145.512C62.3178 145.37 62.8095 145.322 63.2964 145.37C63.7834 145.419 64.256 145.563 64.6872 145.795L75.241 151.434C76.1065 151.903 76.7522 152.696 77.0376 153.64C77.3229 154.583 77.225 155.602 76.765 156.474Z"
        fill="white" />
    <path
        d="M95.9206 80.1304C93.9775 83.7842 90.156 85.5404 87.3861 84.0591C84.6162 82.5777 83.9571 78.4238 85.8926 74.77C87.8281 71.1163 91.6496 69.3677 94.4195 70.849C97.1894 72.3304 97.8599 76.4881 95.9206 80.1304Z"
        fill="black" />
    <path
        d="M92.6896 82.3602C91.8895 83.8569 90.3236 84.5784 89.1882 83.9714C88.0528 83.3643 87.7784 81.6577 88.5747 80.1535C89.371 78.6492 90.9369 77.9353 92.0723 78.5423C93.2077 79.1494 93.4859 80.8636 92.6896 82.3602Z"
        fill="white" />
    <path
        d="M114.252 89.9316C112.305 93.5816 112.979 97.7431 115.749 99.2206C118.519 100.698 122.333 98.9419 124.276 95.292C126.219 91.642 125.552 87.492 122.782 86.0106C120.013 84.5293 116.191 86.2855 114.252 89.9316Z"
        fill="black" />
    <path
        d="M114.115 94.0246C113.353 95.4334 113.627 97.0369 114.694 97.6058C115.761 98.1747 117.231 97.4989 117.982 96.0786C118.733 94.6583 118.473 93.0701 117.407 92.4974C116.34 91.9247 114.865 92.6196 114.115 94.0246Z"
        fill="white" />
    <path
        d="M104.711 110.979C104.273 110.979 103.847 110.838 103.496 110.577C103.145 110.316 102.887 109.948 102.76 109.528C102.218 107.737 101.33 106.071 100.145 104.624C98.9596 103.178 97.5013 101.98 95.8535 101.099C94.2057 100.218 92.4006 99.6711 90.5417 99.4902C88.6828 99.3094 86.8065 99.4978 85.0203 100.045C84.7642 100.123 84.4951 100.15 84.2286 100.124C83.962 100.098 83.7033 100.019 83.4669 99.8932C83.2306 99.767 83.0214 99.5954 82.8512 99.3882C82.6811 99.1809 82.5533 98.9422 82.4753 98.6854C82.3972 98.4287 82.3704 98.1591 82.3963 97.892C82.4222 97.6249 82.5004 97.3656 82.6263 97.1288C82.7523 96.892 82.9236 96.6823 83.1304 96.5118C83.3372 96.3413 83.5755 96.2133 83.8317 96.1351C86.1312 95.4334 88.5462 95.1929 90.9385 95.4273C93.3309 95.6617 95.6537 96.3664 97.7741 97.5011C99.8944 98.6358 101.771 100.178 103.296 102.04C104.821 103.902 105.964 106.047 106.661 108.352C106.818 108.871 106.763 109.431 106.508 109.91C106.253 110.388 105.819 110.745 105.301 110.903C105.109 110.956 104.91 110.982 104.711 110.979Z"
        fill="black" />
    <path
        d="M128.867 91.4164C126.454 91.4138 124.135 90.479 122.392 88.8065C120.649 87.134 119.617 84.8525 119.51 82.4366C119.486 81.8954 119.677 81.3667 120.042 80.9668C120.406 80.5669 120.915 80.3286 121.455 80.3043C121.995 80.28 122.523 80.4717 122.922 80.8372C123.321 81.2028 123.559 81.7121 123.583 82.2533C123.614 82.951 123.781 83.6357 124.077 84.2683C124.372 84.9009 124.789 85.4689 125.303 85.9398C125.818 86.4108 126.42 86.7754 127.075 87.0128C127.731 87.2503 128.426 87.3559 129.123 87.3236C129.39 87.311 129.657 87.3514 129.909 87.4424C130.161 87.5333 130.393 87.6732 130.59 87.8538C130.788 88.0344 130.949 88.2523 131.063 88.4951C131.177 88.7379 131.242 89.0008 131.254 89.2688C131.267 89.5368 131.227 89.8046 131.136 90.057C131.045 90.3094 130.905 90.5414 130.725 90.7397C130.545 90.9381 130.327 91.0989 130.085 91.2131C129.843 91.3272 129.58 91.3924 129.313 91.4049L128.867 91.4164Z"
        fill="#515151" />
    <path
        d="M94.1942 73.927C93.4316 73.9262 92.6718 73.8339 91.9311 73.6521C90.7243 73.3592 89.5875 72.829 88.5868 72.0924C87.5861 71.3557 86.7414 70.4272 86.1017 69.3608C85.8213 68.893 85.7378 68.3327 85.8697 67.8032C86.0015 67.2737 86.3378 66.8184 86.8047 66.5374C87.2715 66.2564 87.8306 66.1727 88.359 66.3048C88.8874 66.437 89.3418 66.774 89.6222 67.2418C89.9867 67.8467 90.4668 68.3736 91.0351 68.7922C91.6033 69.2107 92.2484 69.5127 92.9334 69.6809C93.6183 69.849 94.3296 69.88 95.0266 69.772C95.7235 69.664 96.3924 69.4191 96.9946 69.0515C97.2235 68.9121 97.4776 68.8193 97.7423 68.7783C98.007 68.7373 98.2771 68.749 98.5373 68.8126C98.7976 68.8762 99.0428 68.9906 99.2589 69.1492C99.475 69.3078 99.6578 69.5075 99.7969 69.7368C99.936 69.9662 100.029 70.2208 100.07 70.4861C100.11 70.7513 100.099 71.022 100.035 71.2828C99.9718 71.5435 99.8577 71.7892 99.6994 72.0058C99.5412 72.2223 99.3418 72.4055 99.1129 72.5449C97.6324 73.4524 95.9298 73.9308 94.1942 73.927Z"
        fill="#515151" />
    <path
        d="M1.82493 65.9357C3.13558 82.3031 16.444 95.5933 32.7585 96.8608C38.3093 97.2971 43.8821 96.3583 48.9854 94.1273L60.5336 97.8077C60.7965 97.8885 61.0701 97.9297 61.3451 97.9299C61.7327 97.9291 62.1153 97.8425 62.4656 97.6764C62.816 97.5103 63.1253 97.2687 63.3717 96.9689C63.6181 96.6691 63.7954 96.3185 63.8909 95.9422C63.9865 95.5658 63.998 95.1729 63.9245 94.7916L61.9128 84.1357C65.3239 79.8129 67.6287 74.7201 68.6265 69.3006C69.6243 63.8811 69.2849 58.2994 67.6378 53.0414C65.9907 47.7835 63.086 43.0087 59.1764 39.1329C55.2668 35.257 50.471 32.3977 45.2065 30.8038C39.942 29.2099 34.3685 28.9298 28.9713 29.9878C23.5741 31.0459 18.5168 33.4101 14.2398 36.8744C9.96283 40.3388 6.59585 44.7984 4.43205 49.8649C2.26825 54.9313 1.37324 60.451 1.82493 65.9433V65.9357Z"
        fill="#FFBA52" />
    <path
        d="M60.0374 62.5494C60.0359 67.4222 58.5925 72.1851 55.8897 76.2358C53.1868 80.2865 49.3461 83.4431 44.853 85.3064C40.3599 87.1697 35.4163 87.6561 30.6473 86.704C25.8784 85.7519 21.4983 83.4041 18.0609 79.9574C14.6236 76.5108 12.2834 72.1202 11.3362 67.3408C10.389 62.5614 10.8774 57.6078 12.7396 53.1066C14.6019 48.6053 17.7543 44.7585 21.7983 42.0526C25.8423 39.3467 30.5963 37.9033 35.459 37.9048C38.6882 37.9038 41.886 38.5406 44.8694 39.779C47.8529 41.0173 50.5635 42.8329 52.8462 45.1217C55.1289 47.4106 56.9389 50.1279 58.1729 53.1183C59.4068 56.1087 60.0404 59.3135 60.0374 62.5494Z"
        fill="white" />
</svg>
