<svg width="112" height="121" viewBox="0 0 112 121" fill="none" xmlns="http://www.w3.org/2000/svg">
<path d="M73.0078 57.3011C76.6462 54.4807 81.1169 52.9462 85.7204 52.9375C89.0702 52.9223 92.3731 53.7249 95.3423 55.2758C98.3115 56.8266 100.857 59.0788 102.759 61.8367C100.67 59.8658 98.1566 58.4004 95.4124 57.5534C92.6682 56.7064 89.7663 56.5003 86.9299 56.951C84.0936 57.4017 81.3985 58.4972 79.0521 60.1532C76.7056 61.8091 74.7704 63.9814 73.3954 66.5027L67.3927 77.5156H60.0816L64.9783 66.499C65.664 64.955 66.3724 63.4198 67.1034 61.8934L73.0078 57.3011ZM72.7186 75.6515C75.2251 75.71 77.6841 76.3481 79.9029 77.5156H71.7014L72.7186 75.6515ZM66.3698 44.6452C70.0843 35.8485 75.4692 27.8555 82.2265 21.1088C83.7125 19.6234 85.5145 18.4925 87.4984 17.8005C89.4823 17.1085 91.5968 16.8732 93.6842 17.1122C95.7717 17.3512 97.7783 18.0583 99.5544 19.1807C101.331 20.3032 102.83 21.8121 103.942 23.595L102.619 22.8066C99.637 21.017 96.0976 20.3964 92.6848 21.0648C89.272 21.7332 86.2281 23.6431 84.1417 26.4253C75.1779 38.3812 67.5896 51.3089 61.5204 64.9638L55.943 77.5156H55.8315L56.514 67.9396L66.3698 44.6452ZM53.5344 19.2144C55.7704 15.6109 58.7792 12.5492 62.3431 10.2507C65.9071 7.95207 69.9372 6.47402 74.1422 5.92334C61.7132 24.0497 54.3413 45.1619 52.7857 67.0851L52.0427 77.5156H50.8894L43.9376 60.1351V52.6842C43.9348 40.8484 47.2603 29.2504 53.5344 19.2144V19.2144ZM32.5938 43.8474C32.5715 35.6204 35.1007 27.589 39.833 20.8593L37.0727 35.7574C35.6353 43.527 36.4291 51.5448 39.3623 58.8816L46.817 77.5156H45.0455C42.4178 72.5254 39.0936 67.9343 35.1726 63.8804L33.0589 50.1488C32.7495 48.1312 32.594 46.0928 32.5938 44.0516V43.8474ZM34.0836 72.2219C30.3318 80.1158 28.0076 88.6117 27.2188 97.3162C24.5606 89.8486 23.1819 81.986 23.1407 74.0596C23.5285 73.0627 24.1586 72.1781 24.9738 71.4856C25.7891 70.7932 26.764 70.3147 27.8106 70.0933C28.8571 69.8719 29.9422 69.9146 30.9681 70.2176C31.994 70.5205 32.9283 71.0742 33.6866 71.8286L34.0836 72.2219ZM37.8932 73.0575C38.9016 74.4932 39.8469 75.9773 40.7292 77.51H35.9081C36.5225 76.0031 37.1748 74.5209 37.8876 73.0632L37.8932 73.0575ZM26.489 56.4427C24.8801 55.3084 23.2239 54.2572 21.5053 53.2911C14.3955 41.2601 10.8644 27.451 11.3262 13.4839L26.489 56.4427ZM7.13655 56.8038L0.536377 48.0087L14.3115 53.9112C21.2968 56.9246 27.5923 61.3343 32.8112 66.8695C31.6337 66.4122 30.382 66.1757 29.1188 66.1719C27.5813 66.1732 26.0642 66.5236 24.6818 67.1966C23.2994 67.8696 22.0879 68.8477 21.1385 70.0571C15.7635 66.455 11.0305 61.977 7.13655 56.8095V56.8038ZM87.4219 98.3125C87.4169 102.824 85.6226 107.149 82.4327 110.339C79.2427 113.529 74.9176 115.323 70.4063 115.328H32.5938C28.0825 115.323 23.7574 113.529 20.5675 110.339C17.3775 107.149 15.5832 102.824 15.5782 98.3125V81.2969H19.7659C20.6688 90.1446 23.1602 98.7569 27.1205 106.72C27.3106 107.102 27.6241 107.408 28.01 107.589C28.396 107.77 28.8317 107.815 29.2466 107.717C29.6615 107.619 30.0311 107.384 30.2955 107.05C30.5599 106.715 30.7036 106.301 30.7032 105.875V103.879C30.7168 96.1949 31.9943 88.5658 34.4844 81.2969H84.6163C84.966 81.7034 85.3101 82.1174 85.6221 82.5617L87.4219 85.1349V98.3125ZM88.7208 80.3951C87.1062 78.0904 85.0248 76.1512 82.6118 74.7034C80.1989 73.2556 77.5084 72.3315 74.715 71.9912L76.721 68.314C76.7342 68.2875 76.7531 68.2667 76.7664 68.2402C79.814 67.7433 82.94 68.2957 85.6327 69.8069C88.3255 71.3181 90.4254 73.6987 91.5889 76.559L99.7639 96.1799L88.7208 80.3951Z" fill="#C7E9D5"/>
</svg>
