<svg width="80" height="80" viewBox="0 0 80 80" fill="none" xmlns="http://www.w3.org/2000/svg">
<g clip-path="url(#clip0_1260_17048)">
<path d="M45.7819 39.8547C45.7819 43.0399 43.1912 45.6307 40.0059 45.6307C32.3432 45.3139 32.3454 34.3943 40.0059 34.0787C43.1912 34.0787 45.7819 36.6695 45.7819 39.8547V39.8547Z" fill="#C7E9D5"/>
<path d="M51.2167 67.2233C45.3982 72.4473 34.6145 72.4454 28.7949 67.2233C27.0225 68.9199 25.4828 70.1605 23.845 71.0531C28.99 82.9866 51.0283 82.978 56.1666 71.0531C54.5296 70.161 52.9884 68.9194 51.2167 67.2233V67.2233Z" fill="#C7E9D5"/>
<path d="M58.9452 16.7805C65.8869 19.5272 70.882 28.5426 69.3129 35.8794C71.6699 36.5652 73.5128 37.2791 75.1045 38.2511C82.6646 28.201 72.4154 8.93602 58.9452 10.2614C58.9905 12.1247 58.6862 14.0809 58.102 16.4629C58.3836 16.5584 58.6652 16.6647 58.9452 16.7805V16.7805Z" fill="#C7E9D5"/>
<path d="M5.25 38.0462C6.65019 37.2358 8.54005 36.4973 10.699 35.8794C9.08354 28.2314 14.4775 18.8853 21.9099 16.4629C21.3252 14.0782 21.0214 12.1244 21.0666 10.2583C8.16082 8.7511 -2.85263 27.8379 4.90738 38.2511C5.02002 38.1807 5.13423 38.1134 5.25 38.0462V38.0462Z" fill="#C7E9D5"/>
<path d="M26.5907 15.7949C32.3542 16.112 36.7882 21.924 40.0059 26.635C43.225 21.9237 47.6544 16.1136 53.4211 15.7949C53.7904 14.3947 54.0407 13.1228 54.1643 12.0652C55.0038 4.70807 47.9795 0.115144 40.0061 0C32.0307 0.114831 25.01 4.70745 25.8475 12.0652C25.9712 13.1228 26.2215 14.3947 26.5907 15.7949Z" fill="#C7E9D5"/>
<path d="M24.8088 58.9708C24.8872 55.074 26.5903 50.3162 28.5573 46.4629C22.8797 46.0441 15.6064 45.0881 12.4606 40.2677C11.0651 40.6479 9.84168 41.0671 8.86389 41.488C2.06946 44.437 1.60231 52.82 5.49077 59.7826C9.45854 66.51 17.058 70.4647 23.0192 66.0093C23.8734 65.3724 24.8497 64.5213 25.8775 63.5028C25.1749 62.0856 24.8088 60.5556 24.8088 58.9708V58.9708Z" fill="#C7E9D5"/>
<path d="M73.5041 42.8663C71.7207 41.4706 69.9316 40.9759 67.5513 40.2677C64.3925 45.095 57.1447 46.0396 51.4546 46.4629C53.9271 51.6097 56.7394 58.3445 54.1361 63.5046C55.164 64.523 56.1386 65.3741 56.9928 66.0093C69.1076 74.5552 83.8215 51.911 73.5041 42.8663Z" fill="#C7E9D5"/>
<path d="M29.521 59.3916C30.888 68.9512 49.7134 68.7966 50.5099 58.9708C50.6189 56.8661 48.8066 51.1109 46.8332 47.7849C43.0839 51.1451 36.9279 51.1449 33.1787 47.7849C31.1045 51.399 29.3002 56.9256 29.521 59.3916V59.3916Z" fill="#C7E9D5"/>
<path d="M51.683 21.0046C48.658 22.6493 45.4454 26.6942 43.4634 29.972C48.2481 31.5709 51.3166 36.8553 50.2922 41.8024C54.1618 41.8464 60.0396 40.5391 61.8129 39.393C69.9222 33.7901 60.6497 17.4165 51.683 21.0046V21.0046Z" fill="#C7E9D5"/>
<path d="M16.9599 26.5489C14.6729 30.4344 14.0374 36.374 17.8439 39.1678C20.7833 40.966 25.8875 41.7209 29.7196 41.8024C28.6952 36.8549 31.7639 31.571 36.5485 29.9719C34.6557 26.5968 30.5784 22.1619 28.7028 21.2C24.242 18.9 19.3107 22.4734 16.9599 26.5489V26.5489Z" fill="#C7E9D5"/>
</g>
<defs>
<clipPath id="clip0_1260_17048">
<path d="M0 0H80V80H16C7.16344 80 0 72.8366 0 64V0Z" fill="white"/>
</clipPath>
</defs>
</svg>
